<?xml version="1.0" encoding="UTF-8" standalone="no"?>
<!-- Created with Inkscape (http://www.inkscape.org/) -->
<svg xmlns="http://www.w3.org/2000/svg" xmlns:cc="http://web.resource.org/cc/" xmlns:dc="http://purl.org/dc/elements/1.1/" xmlns:inkscape="http://www.inkscape.org/namespaces/inkscape" xmlns:rdf="http://www.w3.org/1999/02/22-rdf-syntax-ns#" xmlns:sodipodi="http://inkscape.sourceforge.net/DTD/sodipodi-0.dtd" xmlns:svg="http://www.w3.org/2000/svg" height="209.76378pt" id="svg1503" width="147.40157pt">
  
  <defs id="defs3"/>
  
  <g id="layer1" inkscape:groupmode="layer" inkscape:label="Layer 1">
    <path d="M 32.7,12.7 L 150.3,12.7 C 159.2,12.7 166.3,19.9 166.3,28.7 L 166.3,146.4 C 166.3,155.2 159.2,162.3 150.3,162.3 L 32.7,162.3 C 23.8,162.3 16.7,155.2 16.7,146.4 L 16.7,28.7 C 16.7,19.9 23.8,12.7 32.7,12.7 L 32.7,12.7 z " id="path1428" fill="#ffffff"/>
    <path d="M 88.2,133.9 C 87.4,134.3 86.7,134.7 85.9,135.0 C 84.5,135.6 83.0,136.1 81.4,136.6 C 78.3,137.6 75.0,138.2 71.6,138.7 C 68.2,139.2 64.7,139.5 61.2,139.7 C 57.7,139.8 54.3,139.8 50.9,139.7 C 47.6,139.6 44.4,139.4 41.5,139.1 C 38.5,138.8 35.9,138.5 33.6,138.1 C 30.1,137.6 28.5,137.2 27.1,136.8 C 29.1,145.7 31.6,153.9 34.6,160.7 C 34.8,161.1 35.0,161.4 35.1,161.8 L 97.2,161.8 C 97.3,158.7 96.6,154.9 95.3,150.2 C 94.2,146.3 92.7,142.5 90.9,138.7 C 90.1,137.1 89.1,135.5 88.2,133.9 z " id="path4217" fill="#999999" fill-opacity="1.0000000"/>
    <path d="M 112.8,120.2 C 112.8,120.2 108.0,116.3 105.5,113.9 C 103.5,112.0 99.9,109.1 97.5,106.3 C 95.3,109.1 92.7,112.3 89.7,114.6 C 87.6,116.3 79.4,121.7 79.4,122.0 C 79.4,122.1 88.5,133.0 91.4,138.8 L 95.7,140.1 C 99.1,140.6 102.0,139.9 104.6,138.0 C 104.5,133.7 105.7,129.5 108.0,125.5 C 110.3,122.4 112.8,120.9 112.8,120.2 z " id="path1434" sodipodi:nodetypes="cccccccccc" fill="#999999" fill-opacity="1.0000000"/>
    <path d="M 45.7,35.7 C 42.7,44.1 37.0,59.2 31.8,69.2 C 23.1,86.1 21.1,106.8 25.9,131.3 C 26.3,133.5 26.9,135.3 27.4,137.4 C 28.8,137.8 30.4,138.2 33.9,138.7 C 36.2,139.1 38.9,139.4 41.8,139.7 C 44.7,139.9 47.9,140.1 51.3,140.2 C 54.6,140.4 58.0,140.4 61.5,140.2 C 65.0,140.1 68.5,139.8 71.9,139.3 C 75.3,138.8 78.7,138.1 81.8,137.2 C 83.3,136.7 84.8,136.2 86.3,135.6 C 87.0,135.3 87.7,134.9 88.5,134.5 C 86.0,130.4 83.3,126.3 79.9,122.2 C 79.9,122.1 79.9,122.1 79.9,122.0 C 79.9,121.7 80.3,121.3 81.1,120.8 C 82.8,119.9 84.2,119.1 85.4,118.3 C 87.1,117.4 96.4,109.4 97.7,108.3 C 98.0,105.9 98.8,94.8 98.8,93.5 C 98.9,89.8 98.8,78.4 98.7,76.3 C 98.6,74.0 97.0,47.0 96.9,41.7 C 92.5,41.7 78.5,40.7 71.9,39.8 L 45.7,35.7 z " id="path4208" sodipodi:nodetypes="cccccccccccccccccccccc" fill-opacity="1.0000000" fill="#999999"/>
    <path d="M 159.8,122.5 C 156.5,124.4 153.1,126.0 149.9,127.3 C 146.6,128.6 143.5,129.8 140.4,130.7 C 137.3,131.6 134.3,132.3 131.5,132.9 C 128.7,133.4 126.0,133.8 123.5,134.1 C 121.0,134.4 118.7,134.5 116.6,134.6 C 114.5,134.7 112.6,134.7 111.0,134.6 C 107.9,134.5 105.9,134.2 104.8,134.1 C 104.7,135.2 104.4,136.2 104.4,137.3 C 104.4,138.2 104.4,139.0 104.5,139.9 C 105.5,148.3 106.8,155.5 108.5,161.2 L 150.0,161.2 C 154.5,161.2 158.3,159.5 161.4,156.4 C 163.6,154.2 164.9,151.8 165.6,149.0 C 165.4,148.2 165.2,147.0 164.9,145.4 C 164.4,143.0 163.6,139.9 162.9,135.9 C 161.7,129.6 160.7,125.8 159.8,122.5 z " id="path4224" fill="#999999" fill-opacity="1.0000000"/>
    <path d="M 32.7,12.7 L 150.3,12.7 C 159.2,12.7 166.3,19.9 166.3,28.7 L 166.3,146.4 C 166.3,155.2 159.2,162.3 150.3,162.3 L 32.7,162.3 C 23.8,162.3 16.7,155.2 16.7,146.4 L 16.7,28.7 C 16.7,19.9 23.8,12.7 32.7,12.7 L 32.7,12.7 z " id="path1440" stroke-miterlimit="10" fill="none" stroke="#000000" stroke-width="3.2000000"/>
    <path d="M 133.4,39.0 C 123.3,40.3 106.4,42.1 96.9,42.3 C 97.3,45.3 98.4,56.7 98.7,59.8 C 98.8,62.9 99.3,68.0 99.6,72.6 C 99.5,76.0 99.4,87.1 99.3,89.3 C 99.5,92.4 98.9,102.5 98.3,108.0 C 98.3,108.1 110.1,119.0 111.9,120.2 L 111.9,120.3 C 111.9,121.0 110.7,122.8 108.4,125.9 C 106.7,128.9 105.8,132.0 105.4,135.2 C 106.5,135.4 108.5,135.6 111.6,135.7 C 113.2,135.8 115.1,135.8 117.2,135.7 C 119.3,135.7 121.6,135.5 124.1,135.2 C 126.6,135.0 129.3,134.6 132.1,134.0 C 134.9,133.5 137.9,132.7 140.9,131.8 C 144.0,130.9 147.2,129.8 150.5,128.4 C 153.7,127.1 157.0,125.5 160.4,123.7 C 160.2,122.9 159.9,121.3 159.7,120.7 C 157.6,112.9 154.7,101.0 151.1,85.3 C 150.0,81.6 147.2,74.7 142.5,64.7 C 137.8,54.6 135.4,49.5 135.3,49.1 L 133.4,39.0 z " id="path4219" sodipodi:nodetypes="cccccccccccccccccccccc" fill-opacity="1.0000000" fill="#999999"/>
    <path d="M 136.5,11.5 L 134.1,11.5 C 134.1,11.5 134.4,20.9 132.7,27.0 C 131.8,29.9 131.8,33.9 132.1,37.6 C 115.7,41.9 94.4,41.1 77.1,39.1 C 61.1,37.3 49.9,34.8 47.8,34.4 C 48.8,31.1 49.5,28.0 50.0,25.5 C 50.9,20.8 51.2,17.4 51.2,15.1 C 51.2,12.8 51.0,11.6 51.0,11.6 L 48.6,12.1 C 48.6,12.1 48.8,13.0 48.8,15.1 C 48.8,17.2 48.6,20.5 47.7,25.0 C 45.9,34.1 39.5,47.8 29.0,68.0 C 7.5,109.5 34.9,163.6 34.9,163.6 L 37.0,162.6 C 37.0,162.6 12.4,109.7 33.1,69.7 C 40.2,56.0 44.3,48.1 46.9,39.5 C 48.7,39.9 60.4,42.4 76.7,44.3 C 94.0,46.2 115.2,47.1 132.1,42.8 C 132.5,47.1 133.4,48.0 133.8,49.5 C 133.9,50.0 134.2,50.7 134.6,51.6 C 135.1,52.6 135.6,53.7 136.3,55.1 C 137.6,57.9 139.3,61.5 141.1,65.2 C 144.6,72.7 148.9,83.4 150.2,87.9 C 151.3,92.5 156.0,112.8 158.3,121.1 L 158.3,121.1 C 160.5,128.0 163.9,147.6 164.3,150.3 L 166.7,150.0 C 166.3,146.8 162.9,127.8 160.6,120.4 C 158.3,112.2 155.3,98.9 153.1,89.1 C 151.7,82.0 146.8,71.8 143.2,64.2 C 141.5,60.5 139.8,56.9 138.5,54.1 C 137.8,52.7 137.2,51.6 136.8,50.6 C 136.4,49.7 136.1,49.0 136.1,48.9 C 135.8,47.7 135.0,43.8 134.6,39.5 C 134.2,35.3 134.1,30.5 135.0,27.7 C 137.0,20.9 136.5,11.5 136.5,11.5 z " id="path1442" sodipodi:nodetypes="ccccccccccccccccccccccccccccccccccccc" fill="#000000" fill-opacity="1.0000000" stroke="none" stroke-width="2.4000001" stroke-opacity="1.0000000"/>
    <path d="M 108.6,122.0 C 108.0,122.9 107.6,123.4 107.2,124.2 C 105.4,127.2 103.0,131.6 102.9,136.7 C 98.0,140.5 92.6,137.2 92.4,137.1 C 90.2,132.7 87.2,128.0 83.4,123.1 C 82.0,122.8 80.7,122.7 79.9,122.4 C 88.6,133.1 92.9,142.8 94.9,149.9 C 96.9,157.3 96.6,161.7 96.6,161.7 L 99.0,161.9 C 99.0,161.9 99.3,157.0 97.2,149.3 C 96.4,146.6 95.2,143.4 93.7,140.0 C 96.2,140.8 99.2,141.4 102.9,139.3 C 102.9,139.6 103.0,140.5 103.1,142.1 C 103.2,149.0 108.0,162.2 108.0,162.2 L 110.3,161.5 C 110.3,161.5 107.7,152.9 106.2,139.8 C 105.5,133.6 107.3,128.7 109.2,125.4 C 110.2,123.7 111.2,122.4 111.9,121.4 C 112.0,121.3 109.7,121.7 108.6,122.0 z " id="path1446" sodipodi:nodetypes="ccccccccccccccccccc" fill="#000000" fill-opacity="1.0000000" stroke="none" stroke-width="2.4000001" stroke-opacity="1.0000000"/>
    <path d="M 97.7,139.1 C 97.7,139.1 101.3,91.2 96.9,42.0" id="path1688" fill="none" fill-opacity="0.75000000" fill-rule="evenodd" stroke="#000000" stroke-width="2.3160567" stroke-linecap="butt" stroke-linejoin="miter" stroke-miterlimit="4.0000000" stroke-opacity="1.0000000"/>
  </g>
</svg>
