<?xml version="1.0" encoding="UTF-8" standalone="no"?>
<!-- Created with Inkscape (http://www.inkscape.org/) -->
<svg xmlns="http://www.w3.org/2000/svg" xmlns:cc="http://web.resource.org/cc/" xmlns:dc="http://purl.org/dc/elements/1.1/" xmlns:inkscape="http://www.inkscape.org/namespaces/inkscape" xmlns:rdf="http://www.w3.org/1999/02/22-rdf-syntax-ns#" xmlns:sodipodi="http://sodipodi.sourceforge.net/DTD/sodipodi-0.dtd" xmlns:xlink="http://www.w3.org/1999/xlink" height="584.00000pt" id="svg1" sodipodi:docbase="/home/sir/portfolio/mySVG" sodipodi:docname="Estrella2.svg" sodipodi:version="0.32" width="595.00000pt">
  
  <defs id="defs3">
    <linearGradient id="linearGradient1545">
      <stop id="stop1546" offset="0.0000000" stop-color="#ffffff" stop-opacity="1.0000000"/>
      <stop id="stop1547" offset="1.0000000" stop-color="#ffffff" stop-opacity="0.0000000"/>
    </linearGradient>
    <linearGradient id="linearGradient1541">
      <stop id="stop1542" offset="0" stop-color="#000" stop-opacity="1"/>
      <stop id="stop1543" offset="1" stop-color="#fff" stop-opacity="1"/>
    </linearGradient>
    <radialGradient cx="0.35820895" cy="0.33593750" fx="0.35820892" fy="0.33593750" id="radialGradient1544" inkscape:collect="always" r="0.75533062" spreadMethod="reflect" xlink:href="#linearGradient1545"/>
    <radialGradient cx="0.28776979" cy="0.17968750" fx="0.28776979" fy="0.17968750" id="radialGradient1691" inkscape:collect="always" r="0.50000000" xlink:href="#linearGradient1545"/>
    <radialGradient cx="0.37062937" cy="0.18750000" fx="0.37062937" fy="0.18750000" id="radialGradient1696" inkscape:collect="always" r="0.50000000" xlink:href="#linearGradient1545"/>
  </defs>
  <sodipodi:namedview bordercolor="#666666" borderopacity="1.0" id="base" inkscape:cx="297.50000" inkscape:cy="292.00000" inkscape:guide-bbox="true" inkscape:pageopacity="0.0000000" inkscape:pageshadow="2" inkscape:window-height="654" inkscape:window-width="822" inkscape:window-x="49" inkscape:window-y="14" inkscape:zoom="0.84075342" pagecolor="#ffffff" showguides="true"/><text id="text1636" sodipodi:linespacing="100%" x="6.9602852" xml:space="preserve" y="-22.576378" font-size="12.000000" font-style="normal" font-variant="normal" font-weight="normal" font-stretch="normal" fill="#000000" fill-opacity="1.0000000" stroke="none" stroke-width="1.0000000pt" stroke-linecap="butt" stroke-linejoin="miter" stroke-opacity="1.0000000" font-family="Sans" text-anchor="start" writing-mode="lr"><tspan id="tspan1637">author: sergio rivera</tspan></text>
  <g id="g1749">
    <path d="M 430.8,217.9 L 302.7,334.3 L 332.7,516.4 L 166.8,435.7 L 2.9,520.5 L 28.3,337.7 L -102.8,219.6 L 78.7,219.8 L 161.5,55.9 L 248.3,217.7 L 430.8,217.9 z " id="path914" sodipodi:nodetypes="ccccccccccc" transform="matrix(0.671459,0.000000,0.000000,0.714761,258.9105,143.6694)" fill="#ffa100" fill-opacity="0.99363059" fill-rule="evenodd" stroke="#000000" stroke-width="4.4928217" stroke-linecap="butt" stroke-linejoin="miter" stroke-miterlimit="4.0000000" stroke-opacity="1.0000000" stroke-dasharray="8.9856435,4.4928217,2.2464109,4.4928217" stroke-dashoffset="0.0000000"/>
    <path d="M 548.1,299.4 L 462.2,382.6 L 417.3,422.8 L 370.9,422.6 L 285.8,440.7 L 277.9,385.1 L 189.8,300.6 L 311.8,300.8 L 367.3,183.6 L 425.6,299.3 L 548.1,299.4 z " id="path1690" sodipodi:nodetypes="ccccccccccc" fill="url(#radialGradient1691)" fill-opacity="1" fill-rule="evenodd" stroke="none" stroke-width="3.1125000" stroke-linecap="butt" stroke-linejoin="miter" stroke-miterlimit="4.0000000" stroke-opacity="1.0000000"/>
    <path d="M 891.5,313.4 L 820.7,377.7 L 837.3,481.5 L 745.5,435.5 L 654.9,483.9 L 669.0,379.7 L 596.4,314.3 L 696.8,314.4 L 742.6,219.0 L 790.6,313.2 L 891.5,313.4 z " id="path1538" sodipodi:nodetypes="ccccccccccc" transform="translate(-375.0000,0.000000)" fill="#ffc500" fill-opacity="1.0000000" fill-rule="evenodd" stroke="#000000" stroke-width="0.56151614pt" stroke-linecap="butt" stroke-linejoin="miter" stroke-opacity="1.0000000"/>
    <path d="M 891.5,313.4 L 820.7,377.7 L 837.3,481.5 L 745.5,435.5 L 654.9,483.9 L 669.0,379.7 L 596.4,314.3 L 696.8,314.4 L 742.6,219.0 L 790.6,313.2 L 891.5,313.4 z " id="path1695" sodipodi:nodetypes="ccccccccccc" transform="translate(-375.0000,0.000000)" fill="url(#radialGradient1696)" fill-opacity="1.0000000" fill-rule="evenodd" stroke="#000000" stroke-width="0.70000000" stroke-linecap="butt" stroke-linejoin="miter" stroke-opacity="1.0000000" stroke-miterlimit="4.0000000" stroke-dasharray="5.6000000,0.70000000" stroke-dashoffset="0.0000000"/>
    <g id="g1686">
      <path d="M 484.9,323.8 L 429.3,374.7 L 442.3,456.9 L 370.2,420.5 L 299.0,458.8 L 310.1,376.3 L 253.0,324.5 L 332.0,324.6 L 367.9,249.1 L 405.6,323.7 L 484.9,323.8 z " id="path1539" sodipodi:nodetypes="ccccccccccc" fill="#ffe500" fill-opacity="0.75000000" fill-rule="evenodd" stroke="#000000" stroke-width="0.81053553pt" stroke-linecap="butt" stroke-linejoin="miter" stroke-opacity="1.0000000"/>
      <path d="M 464.4,325.3 L 429.3,374.7 L 373.6,384.8 L 310.3,372.5 L 253.0,324.5 L 332.0,324.6 L 367.9,249.1 L 405.6,323.7 L 464.4,325.3 z " id="path1540" sodipodi:nodetypes="ccccccccc" fill="url(#radialGradient1544)" fill-opacity="1" fill-rule="evenodd" stroke="none" stroke-width="0.81053553pt" stroke-linecap="butt" stroke-linejoin="miter" stroke-opacity="1.0000000"/>
    </g>
  </g>
</svg>
