<?xml version="1.0" encoding="UTF-8" standalone="no"?>
<!-- Generator: Adobe Illustrator 12.0.0, SVG Export Plug-In . SVG Version: 6.00 Build 51448)  -->
<svg xmlns="http://www.w3.org/2000/svg" xmlns:cc="http://web.resource.org/cc/" xmlns:dc="http://purl.org/dc/elements/1.1/" xmlns:inkscape="http://www.inkscape.org/namespaces/inkscape" xmlns:rdf="http://www.w3.org/1999/02/22-rdf-syntax-ns#" xmlns:sodipodi="http://inkscape.sourceforge.net/DTD/sodipodi-0.dtd" xmlns:svg="http://www.w3.org/2000/svg" height="416.807" id="Layer_1" space="preserve" version="1.1" viewBox="0 0 278.997 416.807" width="278.997" overflow="visible" enable-background="new 0 0 278.997 416.807">
  
  <defs id="defs98"/>
  
  <path d="M 143.4,392.2 C 159.8,386.0 149.1,376.6 144.7,366.3 C 139.9,354.7 131.8,345.5 128.8,333.6 C 126.0,322.5 125.5,310.3 123.1,299.3 C 121.8,293.7 121.1,287.8 119.3,282.3 C 117.5,276.9 111.8,274.0 111.0,268.2 C 109.3,254.5 110.8,240.4 108.4,226.9 C 117.2,204.4 92.3,205.9 87.0,193.6 C 81.8,181.5 77.2,169.8 82.5,156.6 C 84.6,151.5 87.3,144.7 90.8,140.5 C 93.6,137.0 101.3,133.8 102.7,130.6 C 105.8,123.9 108.9,117.3 112.0,110.6 C 83.8,101.8 64.3,126.8 54.9,149.6 C 44.0,175.5 56.9,203.2 68.4,226.9 C 72.1,237.1 75.6,250.1 80.5,259.3 C 82.8,263.7 86.3,267.2 87.7,272.0 C 89.8,279.1 88.8,285.9 91.1,292.9 C 94.4,303.4 102.6,314.5 108.7,323.5 C 115.4,333.7 119.1,341.4 121.5,353.7 C 122.2,357.6 122.6,362.2 124.2,365.8 C 125.9,369.7 129.3,373.1 130.4,376.5 C 131.4,379.5 128.0,384.4 131.0,387.3 C 135.1,391.4 137.4,393.8 143.4,392.2" id="path3" sodipodi:nodetypes="cccssscsssscscssssssssc" fill-rule="evenodd" clip-rule="evenodd" fill="#755024"/>
  <path d="M 102.2,131.8 C 88.7,145.3 76.2,158.9 83.5,179.7 C 90.4,199.3 100.9,215.2 120.0,224.8 C 139.6,234.6 153.4,245.4 166.6,263.0 C 172.5,270.9 177.4,276.8 184.7,283.3 C 188.7,286.9 205.7,298.4 204.2,304.3 C 201.1,298.7 195.5,295.8 190.6,291.8 C 194.7,297.5 195.0,304.9 198.8,310.6 C 201.6,314.8 208.7,320.4 206.9,325.5 C 206.7,323.7 205.4,321.1 203.4,321.1 C 201.6,321.1 202.3,327.8 202.3,329.4 C 202.0,335.2 202.2,340.2 200.2,345.7 C 196.7,355.3 187.4,357.5 188.9,369.4 C 189.7,376.4 199.6,379.1 204.2,374.3 C 207.8,370.5 207.6,365.4 208.1,360.6 C 208.8,354.4 211.4,348.9 213.6,343.1 C 215.3,338.3 216.3,331.8 220.5,328.7 C 225.8,324.8 230.3,320.4 229.6,313.4 C 228.2,301.1 218.3,298.8 213.5,288.6 C 209.0,278.9 205.3,269.9 202.0,259.8 C 199.1,251.0 194.6,238.3 186.8,232.7 C 190.3,232.3 192.4,236.4 194.2,239.3 C 197.9,245.2 201.3,242.5 206.4,239.4 C 210.9,236.7 213.6,233.6 217.2,230.0 C 220.5,226.8 221.1,221.6 225.9,220.2 C 222.2,225.0 219.7,229.8 215.6,234.3 C 224.7,232.7 233.1,226.0 239.5,219.7 C 237.4,227.2 228.2,231.2 222.1,234.9 C 231.5,242.9 236.4,256.5 247.1,262.5 C 246.5,259.4 245.6,256.2 244.4,253.9 C 250.8,254.9 249.2,269.7 247.6,274.5 C 244.8,283.0 249.3,292.9 253.6,300.0 C 252.9,299.8 252.1,299.6 251.4,299.4 C 251.9,309.9 251.9,320.7 250.5,331.0 C 248.9,341.7 239.1,348.1 249.8,358.0 C 239.3,352.3 241.5,363.0 249.7,365.4 C 257.6,367.6 263.7,363.5 254.7,359.7 C 272.8,360.1 264.3,333.8 263.9,323.3 C 263.3,306.7 272.6,296.7 276.4,281.5 C 280.3,265.8 265.3,258.9 262.6,244.2 C 261.2,236.6 262.0,227.8 258.5,220.8 C 255.8,215.4 248.8,209.2 250.3,202.9 C 251.2,204.6 252.7,206.0 253.6,207.7 C 256.2,194.7 259.7,180.5 260.6,167.4 C 260.9,162.6 260.2,155.6 258.2,151.3 C 256.9,148.6 255.9,145.6 254.3,143.1 C 253.6,142.1 253.5,134.3 251.0,132.8 C 249.4,131.8 253.9,130.1 251.6,129.2 C 248.7,128.1 237.1,127.8 235.1,125.9 C 230.1,121.2 226.4,121.3 219.5,118.3 C 209.0,113.8 195.6,107.9 189.0,98.1 C 184.9,103.3 181.4,110.6 176.5,115.0 C 170.8,120.1 165.0,118.2 158.1,118.2 C 144.7,118.2 132.9,108.8 119.0,110.6 C 125.3,115.0 136.5,113.6 141.8,118.2 C 132.5,116.6 120.3,113.7 111.3,110.9 C 104.8,108.9 104.8,126.2 102.2,131.8" id="path5" sodipodi:nodetypes="csccsccccsssssssscsscsssccccccsccscsccccsccssssssscsscccc" fill-rule="evenodd" clip-rule="evenodd" fill="#755024"/>
  <path d="M 235.9,129.0 C 231.8,122.0 226.4,109.6 221.6,103.0 C 217.0,96.9 208.2,92.0 206.9,84.0 C 216.7,91.1 224.1,104.8 229.7,116.0 C 229.1,108.8 228.7,101.8 227.7,94.8 C 226.7,88.1 220.6,85.9 218.8,80.2 C 223.2,85.0 226.4,88.1 228.2,94.5 C 230.3,101.9 229.3,109.8 231.6,116.9 C 233.8,123.6 235.0,128.8 244.9,128.5 C 254.1,128.3 254.1,130.1 259.5,122.5 C 263.5,116.9 261.5,109.6 259.0,104.1 C 256.3,98.3 255.1,92.5 253.6,86.2 C 251.7,78.3 255.6,73.6 257.3,66.9 C 258.1,63.7 256.8,56.6 259.0,58.0 C 261.8,50.9 253.1,43.1 255.2,34.1 C 257.7,23.5 260.3,17.6 253.6,7.0 C 252.6,11.6 251.8,16.3 250.6,20.8 C 249.5,24.7 251.4,29.3 249.2,32.5 C 248.7,27.9 247.0,22.5 249.8,18.4 C 247.0,21.4 245.0,25.8 246.5,29.8 C 242.5,28.2 241.0,30.0 236.8,29.2 C 236.9,29.6 237.1,30.0 237.3,30.3 C 231.5,29.0 226.5,28.2 221.3,28.2 C 219.2,28.2 221.1,29.9 218.8,30.3 C 215.4,31.0 213.3,25.7 212.9,32.5 C 209.5,25.5 206.8,11.9 198.8,8.1 C 202.2,16.5 208.3,23.0 208.5,32.5 C 208.2,32.5 207.8,32.5 207.5,32.5 C 205.7,22.2 200.7,13.6 196.1,4.3 C 195.7,10.9 195.5,17.5 195.5,24.1 C 195.5,29.9 199.5,34.9 199.8,40.5 C 200.1,45.8 197.0,54.0 196.3,59.8 C 195.8,65.1 194.0,70.1 193.1,75.3 C 191.7,82.6 186.7,95.0 185.5,102.3 C 184.8,106.3 196.3,108.9 200.5,110.3 C 204.6,111.7 222.2,123.6 232.0,127.7" id="path7" sodipodi:nodetypes="csccsccsssssscccscccccsscccccsssscsc" fill-rule="evenodd" clip-rule="evenodd" fill="#755024"/>
  <path d="  M56.6,206.1c-1.3-13.3-5.4-25.8-5.9-39.6c-0.5-13.5,5.1-24.8,12.0-35.9  c3.3-5.4,10.0-8.9,12.9-14.4c1.3-2.5,4.4-3.7,0-5.9c-3-1.5-7.1-0.0-10.3,0.5  c-5.9,1.1-10.3,5.8-15.3,9.1c-4.8,3.2-5.4,7.5-11.2,11.4c4.4,1.1,0.4,9.7-1.6,13.0  c7.1-0.2,1.5,10.1,0,13.0c0.7-0.3,1.4-0.7,2.1-1.0c1.8,6.4-6.0,11.5-9.2,16.2  c4.2-3.5,8.9-1.9,3.9,3.0c-4.0,4.0-5.0,11.1-6.6,16.4c0.5-0.4,1.9-0.9,2.7-1.6  c0.2,5.9-2.0,27.5-10.8,26.0c1.8-1.9,3.6-3.9,5.4-5.9c-6.3-2.2-8.6-7.0-11.9-12.4  c0,3.3-0.6,5.9,1.6,8.1c-0.3,0.3-0.7,0.7-1.0,1.0c-1.7-1.8-3.4-3.8-4.8-5.9  c0.2,3.7,10.3,15.6,3.6,11.6c-11.4-6.6,0.6,5.4,0.6,9.4c-0.8-1.0-2.3-1.6-3.2-2.7  c0,4.2-0.6,7.5,3.2,10.3c-3.8,1.4-6.8-0.9-9.7-3.2c-1.5,8.6,10.1,10.0,16.2,9.7  c9.8-0.4,16.5-5.4,22.2-13.0c2.3,3.6-2.6,8.2-5.4,10.8c7.6-2.6,13.8-15.1,14.1-22.7  c0.1,2.7,0.3,5.4,0.5,8.1C53.1,215.2,54.9,210.9,56.6,206.1" id="path9" fill-rule="evenodd" clip-rule="evenodd" fill="#5A3D1C" stroke="#000000" stroke-width="0.75" stroke-linecap="square" stroke-miterlimit="10"/>
  <path d="  M194.4,352.1c5.7-8.6,7.3-18.7,4.3-28.2c-2.5-8.2-3.2-20.2-7.5-27.4  c-5.6-9.4-13.7-15.9-20.1-24.6c-5.2-7.1-10.6-14.3-16.2-21.1c1.8,17.6,11.5,33.1,16.0,50.1  c2.5,9.4,1.3,16.2,6.5,24.6C183.0,334.4,188.8,343.2,194.4,352.1" id="path11" fill-rule="evenodd" clip-rule="evenodd" fill="#5A3D1C" stroke="#000000" stroke-width="0.75" stroke-linecap="square" stroke-miterlimit="10"/>
  <path d="  M196.1,30.9c-4.7,3.8-7.7,7.5-11.3,12.4c0.8-0.2,1.8-0.3,2.7-0.5c-1.1,3.6-4.3,6.0-7.0,8.6  c3.4,2.2-3.9,8.2-5.9,10.3c0.2,1.7-0.8,4.8,4.3,3.7c-2.2,4.7-7.6,10.1-11.3,14.1  c1.5,0.4,3.2,2.2,4.3,2.7c-2.7,0.9-5.4,1.8-8.1,2.7c1.6,1.6,3.2,3.2,4.8,4.8  c-1.4-0.1-2.9,0.6-4.3,0.5c-1.3,4.0,1.3,8.4,7.0,8.6c-0.6,0.5-1.1,1.9-2.7,2.7  c1.7,0.3,5.0-0.2,6.2,0.5c3.1,2.1-4.5,7.2-6.2,8.1c6.2,0.5,5.2,4.6,0.5,6.5  c6.5,0.4,10.8-9.8,14.6-14.0c5.0-5.6,5.6-16.0,6.9-23.0c1.7-9.4,3.6-18.8,5.4-28.2  C197.3,45.2,200.1,37.0,196.1,30.9" id="path13" fill-rule="evenodd" clip-rule="evenodd" fill="#5A3D1C" stroke="#000000" stroke-width="0.75" stroke-linecap="square" stroke-miterlimit="10"/>
  <path d="  M233.5,397.1c0.6-1.5,1.2-2.3,0.5-3.7c-0.6,0.3-1.0,0.7-1.6,1.0  c-1.0-6.4-9.7-13.3-9.7-18.9c0-5.3-8.9-17.1-11.3-22.2c-1.4,5.4-1.4,11.0-2.9,16.3  c-0.6,2.1-3.3,4.3-3.5,6.4c-0.1,1.5,2.4,3.9,2.9,5.5c1.5,5.1,2.5,10.7,7.3,13.9  c3.1,2.0,10.2,1.5,11.3,4.3C229.1,399.6,231.7,399.0,233.5,397.1" id="path15" fill-rule="evenodd" clip-rule="evenodd" fill="#5A3D1C" stroke="#000000" stroke-width="0.75" stroke-linecap="square" stroke-miterlimit="10"/>
  <path d="  M210.2,20.6c0.9,2.5,1.8,5.0,2.7,7.5c1.7,0.1,2.6-0.2,4.8,0.5c-0.6-4.7,4.5-1.8,7.5-0.5  c1.6-2.9,5.9-0.4,9.2,0.5c-0.9-1.1-0.8-1.6-2.1-2.7c2.1-0.3,4.7,0.9,7.0,2.1  c0.0-0.5-0.0-1.0,0-1.6c1.4,0.8,3.4,0.7,4.8,1.6C252.8,13.0,214.2,19.4,210.2,20.6" id="path17" fill-rule="evenodd" clip-rule="evenodd" fill="#5A3D1C" stroke="#000000" stroke-width="0.75" stroke-linecap="square" stroke-miterlimit="10"/>
  <path d="  M233.5,397.1c-4.9,4.7-13.3,3.3-18.9,0c1.0,0.9,1.8,2.5,2.7,3.2c-0.3,0-0.7,0-1.0,0  c2.7,10.2,11.4,17.3,22.7,13.5C249.5,410.4,239.4,392.3,233.5,397.1" id="path19" fill-rule="evenodd" clip-rule="evenodd" fill="#C0C0C0" stroke="#000000" stroke-width="0.75" stroke-linecap="square" stroke-miterlimit="10"/>
  <path d="  M259.0,58.0c-9.0,4.7-9.9,17.5-4.3,25.5c0-3.9-0.8-9.1,0-13.0c0.4-2.1,2.7-3.2,2.7-5.9  c-2.0,1.0-3.0,1.0-4.3,2.7C252.5,63,258.1,62.0,259.0,58.0" id="path21" fill-rule="evenodd" clip-rule="evenodd" fill="#4a3111" stroke="#000000" stroke-width="0.75" stroke-linecap="square" stroke-miterlimit="10" fill-opacity="1.0000000"/>
  <path d="  M189.6,362.4c-0.7-5.4-1.5-6.7-7.5-7.0c-5.1-0.2-9.8,1.1-13.0,5.4  c-1.1,1.5-4.7,10.5-2.5,11.0c5.5,1.2,11.0,2.2,16.6,3.0c-1.4-3.7-3.5-8.8-1.0-12.4  c0.2,1.9,2.2,16.9,7.5,14.1C189.3,376.6,188.7,364.5,189.6,362.4" id="path23" fill-rule="evenodd" clip-rule="evenodd" fill="#C0C0C0" stroke="#000000" stroke-width="0.75" stroke-linecap="square" stroke-miterlimit="10"/>
  <path d="  M144.0,392.2c-2.6,0.6-5.4,0.6-8.1,0c0.1,0.3,0.3,0.7,0.5,1.0c-1.5-1.1-3.3-1.8-4.8-3.2  c0.2,2.7,2.0,4.2,4.8,4.3c-1.0,0-2.1,0-3.2,0c2.0,7.3,3.5,16.8,13.5,16.2  c9.9-0.5,7.0-10.7,7.0-17.9c-0.3,0.3-0.7,0.7-1.0,1.0C158.6,385.1,147.7,393.0,144.0,392.2" id="path25" fill-rule="evenodd" clip-rule="evenodd" fill="#C0C0C0" stroke="#000000" stroke-width="0.75" stroke-linecap="square" stroke-miterlimit="10"/>
  <path d="  M242.7,360.7c-7.2-6.2-4.8,13.2-2.7,16.9c6.2,10.8,13.8-4.6,16.2-9.8  C251.0,365.8,247.5,364.5,242.7,360.7" id="path27" fill-rule="evenodd" clip-rule="evenodd" fill="#C0C0C0" stroke="#000000" stroke-width="0.75" stroke-linecap="square" stroke-miterlimit="10"/>
  <path d="M250.9,131.8  c0.1-0.7,0.7-0.6,0.5-1.6c-4.1,0.3-9.6,1.8-13.0-1.0C239.6,133.0,247.5,132.9,250.9,131.8" id="path29" fill="none" stroke="#000000" stroke-width="0.75" stroke-linecap="square" stroke-miterlimit="10"/>
  <path d="M200.9,317.3  c-1.2-1.8-2.4-3.6-3.7-5.4c1.2,3.9,2.5,7.9,3.7,11.9C200.9,321.7,200.9,319.5,200.9,317.3" id="path31" fill="none" stroke="#000000" stroke-width="0.75" stroke-linecap="square" stroke-miterlimit="10"/>
  <path d="M 166.8,117.7 C 154.0,118.1 141.3,112.4 129.3,109.0 C 117.4,105.6 100.9,107.3 88.8,109.4 C 64.4,113.7 50.0,147.3 50.8,169.2 C 51.3,183.8 53.0,196.6 59.4,209.4 C 64.6,219.9 70.4,234.0 72.7,245.4 C 74.4,253.6 81.0,261.1 84.3,269.1 C 88.3,278.8 85.8,291.7 91.9,300.7 C 102.7,316.8 115.6,332.0 119.6,351.4 C 120.5,355.8 121.1,360.3 122.8,364.5 C 124.4,368.4 127.7,372.8 128.8,376.5 C 131.1,384.2 126.9,389.1 136.4,393.3 C 133.1,388.4 127.7,385.8 130.4,378.9 C 131.8,375.3 125.2,368.8 123.9,365.1 C 120.5,355.5 122.2,339.5 114.7,332.0 C 107.5,324.8 100.3,312.0 95.8,302.9 C 93.6,298.6 90.6,293.9 89.7,289.1 C 88.4,281.7 90.1,275.7 86.5,268.5 C 84.7,264.9 80.9,261.5 79.4,258.2 C 76.6,252.2 76.1,245.4 74.0,239.2 C 69.9,227.3 62.4,216.3 58.4,204.3 C 49.6,177.9 49.2,151.5 66.4,128.5 C 79.0,111.6 92.1,109.4 112.0,110.6 C 120.6,111.2 127.4,109.2 135.6,112.5 C 143.1,115.6 150.4,117.7 159.7,118.2 C 179.6,122.4 187.1,102.8 190.7,86.4 C 192.6,77.7 195.4,68.7 196.3,59.8 C 198.6,53.9 199.2,49.1 200.2,43.4 C 200.9,39.0 198.6,34.5 197.1,30.3 C 196.8,30.5 196.4,30.7 196.1,30.9 C 201.3,42.7 192.4,64.7 189.7,77.7 C 186.8,91.3 184.0,115.4 166.8,117.7" id="path33" sodipodi:nodetypes="cscccsssssscsscssssscscscccsccsc" fill-rule="evenodd" clip-rule="evenodd" stroke="#000000" stroke-width="0.75" stroke-linecap="square" stroke-miterlimit="10"/>
  <path d="  M261.2,360.2c11.9-8.1,4.3-16.9,4.3-28.1c0-11.3,0.6-22.0,4.8-32.5c3.3-8.3,10.2-20.1,7.5-29.2  c-2.8-9.9-11.0-16.0-13.1-26.8c-1.6-8.1-1.2-19.3-6.9-25.8c-6.8-7.8-0.4-19.4,0.3-29.1  c0.7-9.5,5.1-18.8,3.6-28.8c-1.0-7.1-13.0-22.2-8.2-28.1c-7.0,0.2-0.8,9.9,0.8,13.0  c3.8,7.2,5.5,13.2,6.1,21.4c0.9,12.9-4.9,29.1-7.5,41.9c-0.6-1.7-2.0-3.1-2.7-4.8  c-1.5,6.6,5.0,11.5,7.5,16.8c3.4,7.1,2.9,14.9,4.3,22.5c2.7,14.9,18.1,23.8,14.1,39.3  c-3.9,15.0-13.0,25.1-12.4,41.7c0.3,11.0,8.9,36.7-9.7,36.3C256,361.8,258.6,361.3,261.2,360.2" id="path35" fill-rule="evenodd" clip-rule="evenodd" stroke="#000000" stroke-width="0.75" stroke-linecap="square" stroke-miterlimit="10"/>
  <path d="  M153.7,387.3c2.5-8.4-1.6-11.1-5.9-17.3c-3.9-5.7-3.8-14.5-8.1-19.6  c-11.1-13.3-11.2-26.7-13-43.2c-0.7-7.2-2.4-14.8-4.8-21.7c-2.3-6.6-7.7-11.7-9.2-18.9  c-1.3-6.6-1.2-13.5-1.4-20.3c-0.1-5.6,2.6-23.4-3.4-26.3c0.8,8.4,2.4,16.9,2.7,25.5  c0.2,7.9-2.0,19.7,1.6,27.1c2.9,5.9,7.7,8.9,8.8,16.1c1.1,7.7,3.5,14.4,4.2,22.1  c0.5,6.4,0.2,19.0,3.7,24.2c1.9,2.9,1.7,6.8,3.7,10.0c2.1,3.2,5.4,5.1,6.9,8.8  c3.2,7.7,5.2,14.2,10.6,20.5c6.4,7.5,0.7,14.9-6.7,17.8C146.5,392.8,152.9,389.7,153.7,387.3" id="path37" fill-rule="evenodd" clip-rule="evenodd" stroke="#000000" stroke-width="0.75" stroke-linecap="square" stroke-miterlimit="10"/>
  <path d="  M212.3,349.3c2.2-5.3,3.9-11.8,7.0-16.8c3.4-5.5,8.3-8.0,10.9-14.2  c5.4-12.7-9.2-19.2-13.9-27.8c-5.7-10.5-9.9-20.7-13.3-32.2c-1.8-6.3-8.3-25.3-16.2-25.5  c11.1,9.3,14.8,26.7,18.7,40.2c1.8,6.3,6.9,16.3,11.1,21.6c5.8,7.4,11.6,8.1,12.8,18.8  c1.1,10.7-9.7,12.8-12.8,21.3c-2.9,7.7-6.6,15.4-8.4,23.5c-1.3,5.8-0.1,16.8-7.8,18.8  c-5.4,1.4-9.1-4.0-12.4-7.0c-0.2,2.3,1.3,4.2,1.0,6.5c7.6,0.5,12.8,4.8,17.3-3.5  C210.1,366.2,211.7,357.0,212.3,349.3" id="path39" fill-rule="evenodd" clip-rule="evenodd" stroke="#000000" stroke-width="0.75" stroke-linecap="square" stroke-miterlimit="10"/>
  <path d="  M198.8,246.3c4.3-3.1,12.4-12.0,17.8-10.5c8.0,2.2,11.6,7.1,16.6,13.5  c2.4,3.0,4.6,6.0,6.8,9.2c1.3,1.9,5.9,5.0,6.4,6.1c2.3,5.0-1.0,13.3,0,19.5  c2.5,14.6,5.5,27.7,3.2,42.8c-1.1,7.4-14.9,28.5,0.5,30.9c-11.2-8.8-2.1-15.9,0.5-26.0  c2.6-9.7,1.5-22.5,1.0-32.5c0.5,0.1,1.0,0.3,1.6,0.5c-4.6-6.0-7.2-16.3-6.5-23.8  c0.4-4.8,6.3-21.4-2.7-22.2c1.5,2.5,2.8,5.4,2.7,8.6c-10.6-6.3-15.0-19.8-24.9-27.6  c5.7-3.4,15.6-8.0,17.3-15.1c-7.8,5.3-13.8,12.8-23.8,14.6c3.9-4.3,6.2-10.2,10.3-14.1  c-4.7,0.4-8.7,9.6-11.7,13.2c-3.4,4.1-11.6,9.0-16.9,9.5C197.7,244.0,198.0,245.4,198.8,246.3" id="path41" fill-rule="evenodd" clip-rule="evenodd" stroke="#000000" stroke-width="0.75" stroke-linecap="square" stroke-miterlimit="10"/>
  <path d="  M81.6,112.3c-13.5-9.1-27.9,2.2-39.6,10.3c6.5,2.8-4.7,7.1-6.5,10.8  c6.6-1.0,0.4,10.4-1.0,13.5c9.3-2.5,0.2,10.1,2.7,11.3c2.5,1.2-8.5,13.5-9.2,17.3  c4.9-2.9,3.8,0.9,2.1,4.3c-2.3,4.7-3.4,9.8-4.3,15.1c5.6,0.6,1.5,13.2-1.6,12.7  c-6.6-1.1-9.0-6.9-10.8-12.7c-1.6,1.4-2.6,3.2-3.2,5.4c-0.5-0.5-1.0-1.0-1.6-1.6  c-2.1,3.0-1.4,6.5,0,9.7c-0.5-0.3-1.0-0.7-1.6-1.0c-1.4,2.7-1.8,4.4-0.2,7.5  c1.7,3.4,1.1,7.9,1.3,12.4c-1.7-0.4-5.8-3.8-7.0-2.7c-1.8,1.7,3.0,9.2,4.3,10.3  c5.4,4.2,17.5,3.2,23.8,2.1c9.9-1.6,14.3-5.5,19.8-13.7c2.6-3.9,13.8-13.3,7.8-17.6  c-1.8,4.6-3.7,9.0-5.9,13.5c-0.1-2.7-0.3-5.4-0.5-8.1c-0.2,7.6-6.4,20.1-14.1,22.7  c2.4-2.1,7.6-8.0,5.4-10.8c-4.8,6.4-11.7,13.0-20.6,13.0c-6.2,0-19.6-0.2-17.9-9.7  c2.8,2.2,6.0,4.5,9.7,3.2c-3.3-2.9-2.7-6.2-2.7-10.3c0.7,0.9,1.9,1.6,2.7,2.7  c0.1-1.9-10.6-15.3-2.5-10.6c10.3,6.0-0.6-5.4-1.7-10.5c1.8,1.7,3.4,3.8,4.8,5.9  c0.3-0.3,0.7-0.7,1.0-1.0c-2.3-2.2-1.6-4.8-1.6-8.1c3.3,5.4,5.5,10.2,11.9,12.4  c-1.8,1.9-3.6,3.9-5.4,5.9c8.7,1.5,11.0-20.0,10.8-26.0c-0.7,0.6-2.1,1.1-2.7,1.6  c1.6-5.2,2.6-12.3,6.6-16.4c4.9-4.9,0.3-6.6-3.9-3.0c3.2-4.8,11.1-9.5,9.2-16.2  c-0.7,0.3-1.4,0.7-2.1,1.0c1.2-2.8,6.5-13.3,0-13.0c2.0-3.2,5.6-12.0,1.6-13.0  c2.1-1.4,8.4-4.6,7.3-7.8c-0.5-1.5,10.3-8.2,12.0-9.5c3.5-2.6,7.0-3.1,11.2-4.0  C74.6,108.8,78.3,114.4,81.6,112.3" id="path43" fill-rule="evenodd" clip-rule="evenodd" stroke="#000000" stroke-width="0.75" stroke-linecap="square" stroke-miterlimit="10"/>
  <path d="  M254.1,131.2c8.8-6.9,10.3-18.3,5.9-27.6c-5.4-11.6-4.3-23.5-1.8-36.2  c1.2-6.4,3.7-11.0,0.6-17.1c-2.3-4.8-2.7-9.8-2.0-14.9c1.9-13.5,6.2-20.9-5.4-31.4  c0.4,5.3-6,15.4-4.3,18.4c0.8-1.3,1.9-2.4,2.7-3.7c-2.8,4.1-1.0,9.5-0.5,14.1  c2.1-3.1,0.3-7.8,1.3-11.6c1.2-4.5,2.0-9.2,2.9-13.8c5.5,8.7,5.8,15.6,2.9,25.6  c-0.7,2.7-2.7,5.6-1.6,9.3c0.9,3.4,4.1,7.8,4.6,11.1c0.6,4.3-2.0,10.8-3.2,15.7  c-1.8,7.3-3.5,16.0-1.6,23.2c2.1,8.1,8.4,16.0,6.5,24.5c-2.8,12.4-7.5,11.9-18.4,11.9  c-11.7,0-11.5-15.2-12.0-23.3c-0.7-11.3-4.4-16.8-11.7-24.9c1.7,5.7,7.8,7.6,8.8,14.5  c1.0,7.0,1.4,13.9,2.0,21.2c-5.6-11.2-13.0-24.9-22.7-32.0c1.0,6.6,7.3,10.1,11.1,15.1  c4.5,6.0,7.7,11.2,10.8,18.3C235.1,131.8,243.4,128.5,254.1,131.2" id="path45" fill-rule="evenodd" clip-rule="evenodd" stroke="#000000" stroke-width="0.75" stroke-linecap="square" stroke-miterlimit="10"/>
  <path d="  M148.3,245.2c6.1,4.2,7.7,18.8,10.0,25.7c3.1,9.4,7.4,18.5,9.6,28.1  c2.3,10.3,1.7,18.6,7.7,27.9c5.6,8.7,11.2,17.4,17.0,26.0c2.9-1.8-11.4-21.7-14.0-25.7  c-6.1-9.1-5.5-16.1-8.3-26.6c-2.8-10.5-6.7-21.1-10.6-30.8C156.4,261.5,157.3,249.9,148.3,245.2" id="path47" fill-rule="evenodd" clip-rule="evenodd" stroke="#000000" stroke-width="0.75" stroke-linecap="square" stroke-miterlimit="10"/>
  <path d="  M110.3,221.8c11.3,7.7,25.0,11.8,35.5,21.1c8.5,7.5,14.9,15.8,21.4,24.9  c6.1,8.6,15.5,14.7,21.1,23.8c3.6,5.9,3.8,12.9,7.3,18.7c3.0,5.1,9.1,9.5,10.5,15.4  c3.2-4.2-5.0-11.4-7.9-14.8c-4.3-5.2-3.9-13.7-8.3-19.2c5.5,3.3,9.9,9.4,14.6,12.4  c-4.3-9.2-15.9-16.3-23.3-22.9c-8.3-7.3-13.9-16.6-20.8-25.3c-14.2-17.8-32.6-25.9-51.8-37.5  c-0.3,0.3-0.7,0.7-1.0,1.0C108.5,220.4,109.4,221.1,110.3,221.8" id="path49" fill-rule="evenodd" clip-rule="evenodd" stroke="#000000" stroke-width="0.75" stroke-linecap="square" stroke-miterlimit="10"/>
  <path d="  M196.1,29.8c-5.6,3.4-9.2,8.7-13.0,14.1c2.5,1.5-9.2,19.7-11.3,22.2c1.6,0.0,3.2,1.1,4.8,1.0  c-1.7,1.4-10.3,10.4-10.3,11.3c0,1.9,3.2,3.7,0.1,4.6c-1.6,0.4-5.7,1.6-3.3,4.0  c2.3,2.3-1.0,3.4-0.5,5.9c0.7,4.2,1.6,4.6,4.8,7.5c-0.8-0.7,4.3,5.3,4.3,3.7  c0,3.6-2.1,4.5-5.4,5.9c3.9,1.6,3.5,4.9,0.5,7.5c5.1-0.7,9.9-7.0,1.6-7.5  c3.5-1.3,6.0-3.8,7.0-7.5c-2.3-0.2-4.5,0.0-7.0-0.5c1.7-0.9,2.3-2.4,3.2-3.2  c-5.8,1.0-9.0-4.2-7.5-8.1c1.4-0.0,2.8-0.9,4.3-1.0c-1.6-1.6-3.2-3.2-4.8-4.8  c2.7-0.9,6.2-1.8,8.1-3.2c-9.2-1.4,5.1-11.8,7.0-16.2c-5.1,1.0-4.0-2.0-4.3-3.7  c2.7-2.7,8.3-6.9,5.9-9.7c2.6-2.8,5.8-5.4,7.0-9.2c-0.8,0.2-1.8,0.2-2.7,0.5  C187.3,39.7,194.9,33.4,196.1,29.8" id="path51" fill-rule="evenodd" clip-rule="evenodd" stroke="#000000" stroke-width="0.75" stroke-linecap="square" stroke-miterlimit="10"/>
  <path d="  M107.6,219.7c1.1-2.4-10.2-12.2-12.6-16.1c-5.5-8.7-9.5-16.2-12.2-26.1  c-5.5-20.1,6.6-32.6,19.5-45.5c-16.1,4.2-24.4,29.3-21.7,43.4  C83.8,192.0,93.9,209.4,107.6,219.7" id="path53" fill-rule="evenodd" clip-rule="evenodd" stroke="#000000" stroke-width="0.75" stroke-linecap="square" stroke-miterlimit="10"/>
  <path d="  M148.3,238.1c-1.2-2.5-1.0-5.7-2.1-8.1c-1.5-3.2-4.5-4.9-6.5-7.8c-3.6-5.4-7.8-12.4-7.5-19.2  c0.0-1.6,2.2-5.3,1.6-6.1c-2.1-2.8-4.9-5.8-6.5-9.0c-1.9-3.9-3.2-11.3-7.5-13.0  c3.1,3.9,3.9,9.0,6.4,13.3c1.3,2.2,4.9,6.3,5.4,8.9c0.7,3.9-1.3,7.2,0,11.3  c2.2,6.8,5.4,11.8,9.5,17.7C143.1,229.0,147.9,238.8,148.3,238.1" id="path55" fill-rule="evenodd" clip-rule="evenodd" stroke="#000000" stroke-width="0.75" stroke-linecap="square" stroke-miterlimit="10"/>
  <path d="  M192.3,352.6c-3.0,2.5-4.9,5.8-3.2,9.7c-0.2-7.3,8.8-10.1,11.1-16.6  c1.8-5.0,0.4-22.8,3.4-24.5c-0.6-1.2-1.6-2.9-2.7-3.7c0,2.1,0,4.3,0,6.5  c-2.0-6.8-4.2-11.8-7.5-17.9C195.6,318.2,209.8,344.7,192.3,352.6" id="path57" fill-rule="evenodd" clip-rule="evenodd" stroke="#000000" stroke-width="0.75" stroke-linecap="square" stroke-miterlimit="10"/>
  <path d="  M236.8,393.3c-6.0-2.3-10.6-14.5-13.6-20.0c-4.0-7.4-7.6-15.3-10.7-23.3  c-3.9,14.3,17.9,30.8,20.0,44.4c0.4-0.2,1.0-0.8,1.6-1.0c-0.2,1.1,0.0,2.2-0.5,3.7  C235.9,396.5,236.0,395.3,236.8,393.3" id="path59" fill-rule="evenodd" clip-rule="evenodd" stroke="#000000" stroke-width="0.75" stroke-linecap="square" stroke-miterlimit="10"/>
  <path d="  M246.0,21.1c-10.8-8.6-23.0-3.7-34.7-3.7c0.3,0.3,0.7,0.7,1.0,1.0  c-1.0,0.3-2.1,0.7-3.2,1.0c2.3,1.1,44.5-7.8,35.2,8.6c-1.3-0.9-3.4-0.7-4.8-1.6  c-0.0,0.5,0.0,1.0,0,1.6c-2.3-1.1-4.8-2.5-7.0-2.1c1.2,1.0,1.2,1.5,2.1,2.7  c-3.3-0.9-7.5-3.5-9.2-0.5c-3.0-1.2-8.2-4.2-7.5,0.5c-2.0-1.1-3.2-0.4-4.8-0.5  c2.2,0.8,4.5,2.0,7.0,2.1c0.8,0.0-0.6-2.1,1.3-2.1c1.7,0,2.9,1.6,4.6,1.6  c1.3,0,1.3-1.8,2.8-1.4c2.5,0.6,5.4,1.8,8.0,2.0c2.0,0.0,6.1-1.9,9.7-0.5  C245.3,26.6,247.7,23.6,246.0,21.1" id="path61" fill-rule="evenodd" clip-rule="evenodd" stroke="#000000" stroke-width="0.75" stroke-linecap="square" stroke-miterlimit="10"/>
  <path d="  M236.8,393.3c-0.5,3.9,14.5,17.0,2.8,20.3c-11.7,3.3-20.4-2.1-23.4-13.3c0.3,0,0.7,0,1.0,0  c-1.1-1.2-2.7-2.8-4.3-4.3c1.3,4.1,2.8,14.4,6.5,16.2c4.6,2.3,11.0,4.6,16.2,3.9  C250.7,414.1,244.7,400.4,236.8,393.3" id="path63" fill-rule="evenodd" clip-rule="evenodd" stroke="#000000" stroke-width="0.75" stroke-linecap="square" stroke-miterlimit="10"/>
  <path d="  M209.1,19.5c-4.2-6.3-10.4-11.8-14.1-18.4c-2,10.3,0.2,19.7,1.0,29.8  c0.3-0.1,0.7-0.3,1.0-0.5c-3.6-7.3-1.5-18.1-1.0-26.0c4.2,9.1,9.7,18.2,11.3,28.2  c0.3,0,0.7,0,1.0,0c-0.3-9.5-6.3-15.9-9.7-24.4c7.2,7.1,10.6,15.3,14.1,24.4  C214.6,29.1,211.9,22.6,209.1,19.5" id="path65" fill-rule="evenodd" clip-rule="evenodd" stroke="#000000" stroke-width="0.75" stroke-linecap="square" stroke-miterlimit="10"/>
  <path d="  M119.6,110.6c-2.5,0-5.0,0-7.5,0c10.0,3.1,19.4,5.7,29.8,7.5C136.4,113.6,125.5,115.8,119.6,110.6" id="path67" fill-rule="evenodd" clip-rule="evenodd" stroke="#000000" stroke-width="0.75" stroke-linecap="square" stroke-miterlimit="10"/>
  <path d="  M253.0,86.8c2.7-3.3-1.5-10.3-1.6-14.6c-0.1-5.9,2.1-11.2,7.5-14.1  C247.2,57.1,250.7,80.4,253.0,86.8" id="path69" fill-rule="evenodd" clip-rule="evenodd" stroke="#000000" stroke-width="0.75" stroke-linecap="square" stroke-miterlimit="10" fill="#000000" fill-opacity="1.0000000"/>
  <path d="  M244.4,353.1c-5.4,3.7-9.6,7.5-8.5,14.8c0.7,5.0,1.1,13.2,7.7,13.9c7.7,0.7,18.5-13.5,17.6-21.7  c-0.7,0.3-1.4,0.7-2.1,1.0c3.6,4.3-3.1,5.0-6.5,4.8c1.1,0.2,2.7,1.3,4.3,1.6  c-3.5,5.9-8.0,18.4-16.2,10.8c-4.8-4.4-3.9-24.9,2.1-17.3c-1.9-3.2-0.9-5.6,2.7-5.9  C245.1,354.6,244.7,353.9,244.4,353.1" id="path71" fill-rule="evenodd" clip-rule="evenodd" stroke="#000000" stroke-width="0.75" stroke-linecap="square" stroke-miterlimit="10"/>
  <path d="  M128.2,384.6c1.9,9.2,4.7,25.9,16.2,27.1c3.3,0.3,10.7-0.6,10.9-4.5  c0.3-5.0,3.6-16.7-1.7-19.8c1.1,2.3,0.4,4.7-1.0,6.5c0.5-0.3,1.0-0.7,1.6-1.0  c-0.2,6.9,2.3,17.7-7.5,17.9c-9.5,0.1-11.0-9.2-13.5-16.2c1.2,0.0,2.6-0.2,3.7,0  C132.0,394.4,130.0,388.6,128.2,384.6" id="path73" fill-rule="evenodd" clip-rule="evenodd" stroke="#000000" stroke-width="0.75" stroke-linecap="square" stroke-miterlimit="10"/>
  <path d="  M190.1,355.9c-10.3-2.7-23.0-1.7-25.0,11.5c-1.3,8.8,2.0,6.9,10.4,8.6  c5.3,1.0,10.7,1.8,16.2,0.9c-8.2-1.3-8.7-7.0-9.7-14.1c-2.3,3.4-0.3,8.2,1.0,11.9  c-4.9-0.7-9.8-1.4-14.8-2.2c-5.0-0.8-1.3-7.0,0.3-10.4C173.8,351.6,183.0,358.5,190.1,355.9" id="path75" fill-rule="evenodd" clip-rule="evenodd" stroke="#000000" stroke-width="0.75" stroke-linecap="square" stroke-miterlimit="10"/>
  <path d="  M235.1,85.1c0.7-12.8-9.1-19.3-17.3-27.1c-0.1,0.3-0.3,0.7-0.5,1.0  C228.2,66.1,229.8,74.5,235.1,85.1" id="path77" fill-rule="evenodd" clip-rule="evenodd" stroke="#000000" stroke-width="0.75" stroke-linecap="square" stroke-miterlimit="10"/>
  <path d="  M203.7,377.6c4.1,4.8,4.9,12.1,8.6,17.6c1.5,2.3,14.6,7.3,14.6,4.0c0-0.0-11.5-3.4-13.5-5.4  C210.6,391.0,206.6,375.5,203.7,377.6" id="path79" fill-rule="evenodd" clip-rule="evenodd" stroke="#000000" stroke-width="0.75" stroke-linecap="square" stroke-miterlimit="10"/>
  <path d="  M250.3,134.0c0.1-0.7,0.3-1.4,0.5-2.1c-8.1,2.7-13.3-1.9-17.9-7.5  C237.1,132.4,241.1,134.0,250.3,134.0" id="path81" fill-rule="evenodd" clip-rule="evenodd" stroke="#000000" stroke-width="0.75" stroke-linecap="square" stroke-miterlimit="10"/>
  <path d="  M256.3,120.9c1.3-1.8,3.6-6.2,3.2-8.6c-0.2-1.5-2.2-6.3-3.7-3.2c-1.3,2.7,1.6,4.0,1.6,6.5  C257.4,117.3,254.8,123.1,256.3,120.9" id="path83" fill-rule="evenodd" clip-rule="evenodd" stroke="#000000" stroke-width="0.75" stroke-linecap="square" stroke-miterlimit="10"/>
  <path d="  M243.3,120.4c-3.2-3.1,1.9-12.5-2.7-11.9C232.8,109.5,240.3,119.9,243.3,120.4" id="path85" fill-rule="evenodd" clip-rule="evenodd" stroke="#000000" stroke-width="0.75" stroke-linecap="square" stroke-miterlimit="10"/>
  <path d="  M220.5,68.8c-2.1-4-4.8-7.2-9.2-8.6C210.8,65.6,217.7,70.1,220.5,68.8" id="path87" fill-rule="evenodd" clip-rule="evenodd" stroke="#000000" stroke-width="0.75" stroke-linecap="square" stroke-miterlimit="10"/>
  <path d="  M239.5,124.2c-0.8-2.3-3.6-5.5-3.7-9.2c-0.3,0-0.7,0-1.0,0C234.8,118.8,236.1,122.1,239.5,124.2" id="path89" fill-rule="evenodd" clip-rule="evenodd" stroke="#000000" stroke-width="0.75" stroke-linecap="square" stroke-miterlimit="10"/>
  <path d="  M257.4,64.5c0.5-1.3,0.7-2.9,1.0-4.3c-2.7,1.6-5.3,3.7-5.9,7.0  C253.8,66.1,255.3,65.2,257.4,64.5" id="path91" fill-rule="evenodd" clip-rule="evenodd" stroke="#000000" stroke-width="0.75" stroke-linecap="square" stroke-miterlimit="10"/>
  <path d="M199.9,19.5c-0.4,6.7-0.1,12.0,3.7,17.9  C208.4,35.2,201.3,23.6,199.9,19.5" id="path93" fill-rule="evenodd" clip-rule="evenodd" fill="#808080"/>
  <path d="M255.2,17.8c1.5,5.2,0.6,10.2-1.6,15.1  C249.0,31.0,253.5,20.8,255.2,17.8" id="path95" fill-rule="evenodd" clip-rule="evenodd" fill="#808080"/>
</svg>
