<?xml version="1.0" encoding="UTF-8" standalone="no"?>
<!-- Generator: Adobe Illustrator 12.0.0, SVG Export Plug-In . SVG Version: 6.00 Build 51448)  -->
<svg xmlns="http://www.w3.org/2000/svg" xmlns:cc="http://web.resource.org/cc/" xmlns:dc="http://purl.org/dc/elements/1.1/" xmlns:inkscape="http://www.inkscape.org/namespaces/inkscape" xmlns:rdf="http://www.w3.org/1999/02/22-rdf-syntax-ns#" xmlns:sodipodi="http://inkscape.sourceforge.net/DTD/sodipodi-0.dtd" xmlns:svg="http://www.w3.org/2000/svg" height="132.724" id="Layer_1" space="preserve" version="1.1" viewBox="0 0 136.208 132.724" width="136.208" overflow="visible" enable-background="new 0 0 136.208 132.724">
  
  <defs id="defs19"/>
  
  <g id="g3">
    <radialGradient cx="40.9502" cy="34.5386" gradientUnits="userSpaceOnUse" id="XMLID_2_" r="95.4936">
      <stop id="stop6" offset="0" stop-color="#D1F593"/>
      <stop id="stop8" offset="1" stop-color="#81CE09"/>
    </radialGradient>
    <path d="M127.8,76.9c-8.6,0-17.3,0-26.0,0c-0.8,0-0.4,21.3-0.4,23.3   c-0.0,7.3,2.5,21.3-2.6,27.5c-5.4,6.4-19.0,3.9-26.4,3.9c-9.3,0-18.6,0-27.9,0   c-12.5,0-11.3-12.9-11.3-21.5c0-10.5,0-21.1,0-31.7c0-2.7-2.3-1.5-4.8-1.5c-5.6,0-11.2,0-16.9,0   c-9.4,0-13.7-9.7-6.9-16.5c5.9-5.9,11.8-11.8,17.7-17.7C34.5,30.0,46.5,15.6,60.2,4.2   c8.0-8.0,15.7,0.1,21.4,5.8c7.7,7.7,15.5,15.5,23.2,23.2c7.6,7.6,15.2,15.2,22.8,22.8   c4.9,4.9,11.2,11.2,4.9,18.4C131.6,76.1,129.8,76.9,127.8,76.9" id="path10" fill="url(#XMLID_2_)"/>
    <path d="M16.1,57.6C21.1,52.6,67.9,5.4,68.2,5.7c9.7,9.6,19.4,19.3,29.2,29.0   c5.8,5.7,11.6,11.5,17.4,17.3c3.5,3.5,10.4,8.6,7.8,14.4c4.2,0,8.4,0,12.6,0   c-0.6-5.3-6.7-9.6-10.3-13.1c-7.4-7.3-14.8-14.7-22.2-22.1c-7.0-7.0-14.1-14.1-21.2-21.1   C77.6,6.2,73.7,0.9,67.9,1.0C62.4,0.9,58.8,5.7,55.1,9.3c-6.8,6.9-13.7,13.8-20.6,20.7   c-7.4,7.4-14.9,14.9-22.3,22.4C8.3,56.3,1.7,60.9,1.0,66.5c4.2,0,8.4,0,12.7,0   C12.4,63.5,14.0,59.8,16.1,57.6" id="path12" fill="#B2ED21"/>
    <path d="M9.4,76.9c7.6,0,15.3,0,23.0,0c0.9,0,0.4,17.1,0.4,18.8   c0,8.1,0,16.3,0,24.5c0,10.8,9.9,11.3,17.9,11.3c10.1,0,20.2,0,30.3,0c7.7,0,18.2,1.1,20.1-9.0   c1.2-7.0,0.1-15.2,0.1-22.3c0-7.7,0-15.5-0.0-23.3c8.3,0,16.7,0,25.1,0c3.0,0,5.9-1.3,7.4-4.0   c0.6-1.2,2.4-6.3,0.2-6.3c-2.5,0-5.1,0-7.6,0c-3.8,0-3.0,0.0-5.8,2.0   c-3.0,2.2-8.8,1.3-12.3,1.3c-5.1,0-10.2,0-15.3,0c-0.9,0-0.4,21.3-0.4,23.4   c0,7.3,2.3,20.4-1.5,27.2c-4.0,6.8-21.1,3.7-27.6,3.7c-9.0,0-22.1,2.4-22.1-10.6   c0-9.2,0-18.5,0-27.7c0-5.2,0-10.4,0-15.7c0-0.5-14.5-0.2-16.0-0.2c-2.3,0-4.8,0.2-7.1-0.1   c-1.9-0.3-3.7-1.3-4.5-3.2c-1.0-0.4-3.1,0-4.1,0c-1.3,0-7.5-0.9-8.5,0   C0.3,72.0,3.7,76.9,9.4,76.9" id="path14" fill="#67BA06"/>
    <path d="M59.6,3.6C46.8,16.4,34.1,29.2,21.3,42.0C15.4,47.9,9.5,53.8,3.6,59.8   c-3.3,3.3-4.6,8.0-2.7,12.5c2.5,6.0,8.7,5.5,14.1,5.5c5.3,0,10.7,0,16.1,0   c1.9,0,0.9,6.6,0.9,8.3c0,10.9,0,21.8,0,32.8c0,11.0,8.1,13.6,17.3,13.6c11.1,0,22.2,0,33.3,0   c8.5,0,19.4-0.4,19.4-12.0c0-9.1,0.0-18.3,0.0-27.5c0-4.3,0-8.6,0-12.9c0-3.6,2.6-2.2,5.9-2.2   c9.2,0,27.9,3.9,27.9-10.2c0-6.3-6.3-10.7-10.4-14.8c-7.7-7.7-15.5-15.4-23.2-23.2   C95.5,22.5,88.6,15.6,81.7,8.7C75.8,2.8,67.8-4.5,59.6,3.6 M2.5,71.6   c-3.2-7.8,5.4-13.7,10.1-18.4c8.1-8.1,16.3-16.3,24.4-24.5c6.9-6.9,13.9-13.9,20.8-20.9   c5.3-5.3,11.8-8.3,18.1-1.9c14.4,14.4,28.8,28.8,43.2,43.2c4.1,4.1,9.5,8.2,12.9,12.9   c4.3,4.3,1.5,14.1-5.0,14.1c-4.9,0-9.8,0-14.7,0c-4.0,0-8.0,0-12.1,0c-0.2,0-0.1,6.2-0.1,6.6   c0,11.1-0.0,22.2-0.0,33.3c0,8.8-3.2,14.8-12.9,14.8c-10.7,0-21.5,0-32.3,0   c-8,0-21.3,1.6-21.3-10.2c0-9.1,0-18.2,0-27.4c0-4.7,0-9.5,0-14.2c0-2.9,0.4-2.9-2.5-2.9   C24.7,76.0,5.7,79.5,2.5,71.6" id="path16" fill="#739B07"/>
  </g>
</svg>
