<?xml version="1.0" encoding="UTF-8" standalone="no"?>
<!-- Created with Inkscape (http://www.inkscape.org/) -->
<svg xmlns="http://www.w3.org/2000/svg" xmlns:inkscape="http://www.inkscape.org/namespaces/inkscape" xmlns:sodipodi="http://sodipodi.sourceforge.net/DTD/sodipodi-0.dtd" xmlns:xlink="http://www.w3.org/1999/xlink" height="80.000000pt" id="svg948" sodipodi:docbase="/home/nicu/Desktop/weather" sodipodi:docname="moon02.svg" sodipodi:version="0.32" width="80.000000pt">
  
  <defs id="defs950">
    <linearGradient id="linearGradient975">
      <stop id="stop976" offset="0.0000000" stop-color="#000000" stop-opacity="0.25000000"/>
      <stop id="stop977" offset="1.0000000" stop-color="#ffffff" stop-opacity="0.0000000"/>
    </linearGradient>
    <radialGradient cx="0.54109591" cy="0.49218750" fx="0.54109591" fy="0.49218750" id="radialGradient978" r="0.67826217" xlink:href="#linearGradient975"/>
  </defs>
  <sodipodi:namedview bordercolor="#666666" borderopacity="1.0" id="base" inkscape:cx="54.305420" inkscape:cy="33.648834" inkscape:pageopacity="0.0" inkscape:pageshadow="2" inkscape:window-height="796" inkscape:window-width="809" inkscape:window-x="129" inkscape:window-y="32" inkscape:zoom="1.0000000" pagecolor="#ffffff"/>
  <g id="g996">
    <path d="M 27.2,9.6 C 97.7,-3.4 108.4,99.1 32.1,92.5 C 48.6,86.8 75.8,38.1 27.2,9.6 z " id="path972" sodipodi:nodetypes="ccc" fill="#ffff99" fill-rule="evenodd" stroke="#000000" stroke-width="1.0000000pt" fill-opacity="1.0000000"/>
    <path d="M 27.6,9.5 C 78.3,15.2 84.5,78.7 32.6,92.3 C 49.0,86.6 76.3,37.9 27.6,9.5 z " id="path981" sodipodi:nodetypes="ccc" fill-opacity="0.049999956" fill-rule="evenodd" stroke-width="1.0000000pt"/>
    <path d="M 28.1,9.0 C 75.1,18.5 80.0,76.2 33.0,91.9 C 49.5,86.1 76.7,37.5 28.1,9.0 z " id="path982" sodipodi:nodetypes="ccc" fill-opacity="0.049999956" fill-rule="evenodd" stroke-width="1.0000000pt"/>
    <path d="M 27.2,9.9 C 70.1,23.0 77.1,71.3 32.2,92.7 C 48.7,87.0 75.9,38.3 27.2,9.9 z " id="path983" sodipodi:nodetypes="ccc" fill-opacity="0.049999956" fill-rule="evenodd" stroke-width="1.0000000pt"/>
    <path d="M 27.2,10.3 C 96.5,-2.0 106.4,97.7 32.1,92.3 C 84.5,96.1 109.2,12.3 27.2,10.3 z " id="path984" sodipodi:nodetypes="ccc" fill="#ffffff" fill-opacity="0.49999997" fill-rule="evenodd" stroke-width="1.0000000pt"/>
  </g>
</svg>
