<?xml version="1.0" encoding="UTF-8" standalone="no"?>
<!-- Created with Inkscape (http://www.inkscape.org/) -->
<svg xmlns="http://www.w3.org/2000/svg" xmlns:xlink="http://www.w3.org/1999/xlink" height="496.06299" id="svg602" space="preserve" version="1.0" width="793.70074" x="0.0000000" y="0.0000000">
  
  <defs id="defs604"/>
  <g id="g1744">
    <rect height="496.06299" id="rect1456" width="793.70081" x="0.0000000" y="-1.5258789e-05" font-size="12.000000" fill="#ffffff" fill-opacity="1.0000000" fill-rule="evenodd" stroke-width="1.0000000"/>
    <rect height="194.88193" id="rect1452" width="340.15747" x="0.0000000" y="-3.7738246e-05" font-size="12.000000" fill="#013993" fill-opacity="1.0000000" fill-rule="evenodd" stroke-width="1.0000000"/>
    <rect height="194.88190" id="rect1453" width="340.15747" x="0.0000000" y="301.18109" font-size="12.000000" fill="#dd2110" fill-opacity="1.0000000" fill-rule="evenodd" stroke-width="1.0000000"/>
    <rect height="194.88188" id="rect1454" width="340.15747" x="453.54333" y="301.18106" font-size="12.000000" fill="#00309b" fill-opacity="1.0000000" fill-rule="evenodd" stroke-width="1.0000000"/>
    <rect height="194.88193" id="rect1455" width="340.15747" x="453.54330" y="-6.0217728e-05" font-size="12.000000" fill="#dd2110" fill-opacity="1.0000000" fill-rule="evenodd" stroke-width="1.0000000"/>
    <g id="g1457" transform="matrix(0.568174,0.000000,0.000000,0.553768,322.8072,177.1594)">
      <g id="g1098">
        <g id="g1009" transform="matrix(-1.000000,0.000000,0.000000,1.000000,258.1240,0.299042)">
          <path d="M 41.5,80.9 C 41.8,74.3 45.7,72.2 45.7,72.2" id="path1010" fill="none" fill-opacity="1.0000000" fill-rule="evenodd" stroke="#000000" stroke-width="1.0000000pt" stroke-linecap="butt" stroke-linejoin="miter" stroke-opacity="1.0000000"/>
          <path d="M 43.5,81.3 C 43.8,74.7 47.7,72.6 47.7,72.6" id="path1011" fill="none" fill-opacity="1.0000000" fill-rule="evenodd" stroke="#000000" stroke-width="1.0000000pt" stroke-linecap="butt" stroke-linejoin="miter" stroke-opacity="1.0000000"/>
          <path d="M 45.6,81.5 C 45.9,74.9 49.7,72.8 49.7,72.8" id="path1012" fill="none" fill-opacity="1.0000000" fill-rule="evenodd" stroke="#000000" stroke-width="1.0000000pt" stroke-linecap="butt" stroke-linejoin="miter" stroke-opacity="1.0000000"/>
          <path d="M 47.5,82.2 C 47.8,75.6 51.7,73.5 51.7,73.5" id="path1013" fill="none" fill-opacity="1.0000000" fill-rule="evenodd" stroke="#000000" stroke-width="1.0000000pt" stroke-linecap="butt" stroke-linejoin="miter" stroke-opacity="1.0000000"/>
          <path d="M 49.6,83.1 C 49.9,76.5 53.8,74.4 53.8,74.4" id="path1014" fill="none" fill-opacity="1.0000000" fill-rule="evenodd" stroke="#000000" stroke-width="1.0000000pt" stroke-linecap="butt" stroke-linejoin="miter" stroke-opacity="1.0000000"/>
          <path d="M 51.5,84.2 C 51.8,77.6 55.7,75.5 55.7,75.5" id="path1015" fill="none" fill-opacity="1.0000000" fill-rule="evenodd" stroke="#000000" stroke-width="1.0000000pt" stroke-linecap="butt" stroke-linejoin="miter" stroke-opacity="1.0000000"/>
          <path d="M 44.4,72.5 C 51.6,52.6 54.5,49.9 55.8,48.4 C 57.1,46.9 70.0,42.7 70.0,42.7 L 73.5,50.9 C 73.5,50.9 62.6,56.4 60.2,61.5 C 57.9,66.6 56.2,75.9 56.2,75.9 C 56.2,75.9 51.3,73.8 49.6,73.1 C 48.0,72.5 44.4,72.9 44.4,72.5 z " id="path1016" fill="#003892" fill-opacity="0.99610001" fill-rule="evenodd" stroke="#000000" stroke-width="1.0000000pt" stroke-linecap="butt" stroke-linejoin="miter" stroke-opacity="1.0000000"/>
          <path d="M 50.1,58.3 C 61.5,53.5 65.1,56.0 69.1,54.9 C 73.1,53.9 81.8,51.5 82.6,49.4 C 83.5,47.3 75.2,37.0 75.2,37.0 L 69.5,43.1 C 65.7,47.2 56.7,43.5 53.6,50.6 L 50.1,58.3 z " id="path1017" fill="#003892" fill-opacity="0.99610001" fill-rule="evenodd" stroke="#000000" stroke-width="1.2500000" stroke-linecap="butt" stroke-linejoin="round" stroke-opacity="1.0000000"/>
          <path d="M 62.3,53.9 C 64.0,56.2 75.6,49.1 78.4,48.4 C 81.6,47.4 82.9,49.2 82.9,49.2" id="path1018" fill="none" fill-opacity="1.0000000" fill-rule="evenodd" stroke="#000000" stroke-width="1.0000000pt" stroke-linecap="butt" stroke-linejoin="miter" stroke-opacity="1.0000000"/>
          <path d="M 113.7,30.0 C 112.9,30.0 96.6,28.3 82.4,31.0 C 67.8,33.6 59.3,39.1 59.2,42.5 C 59.0,49.0 62.1,54.3 62.6,54.1 C 63.0,53.9 62.6,51.1 66.1,50.1 C 69.7,49.0 86.4,43.5 90.9,43.3 C 95.3,43.1 108.2,43.7 110.1,43.5 C 112.0,43.3 116.9,42.2 116.9,39.9 C 116.9,37.6 113.9,30.4 113.7,30.0 z " id="path1019" fill="#003892" fill-opacity="0.99610001" fill-rule="evenodd" stroke="#000000" stroke-width="1.0000000pt" stroke-linecap="butt" stroke-linejoin="miter" stroke-opacity="1.0000000"/>
          <path d="M 104.3,39.0 C 104.5,39.7 104.1,41.3 106.8,41.0 C 109.5,40.8 110.9,38.8 113.4,39.1 C 115.8,39.3 116.2,41.0 116.2,41.0" id="path1020" fill="none" fill-opacity="1.0000000" fill-rule="evenodd" stroke="#000000" stroke-width="1.0000000pt" stroke-linecap="butt" stroke-linejoin="miter" stroke-opacity="1.0000000"/>
        </g>
        <g id="g997">
          <path d="M 41.5,80.9 C 41.8,74.3 45.7,72.2 45.7,72.2" id="path996" fill="none" fill-opacity="1.0000000" fill-rule="evenodd" stroke="#000000" stroke-width="1.0000000pt" stroke-linecap="butt" stroke-linejoin="miter" stroke-opacity="1.0000000"/>
          <path d="M 43.5,81.3 C 43.8,74.7 47.7,72.6 47.7,72.6" id="path992" fill="none" fill-opacity="1.0000000" fill-rule="evenodd" stroke="#000000" stroke-width="1.0000000pt" stroke-linecap="butt" stroke-linejoin="miter" stroke-opacity="1.0000000"/>
          <path d="M 45.6,81.5 C 45.9,74.9 49.7,72.8 49.7,72.8" id="path994" fill="none" fill-opacity="1.0000000" fill-rule="evenodd" stroke="#000000" stroke-width="1.0000000pt" stroke-linecap="butt" stroke-linejoin="miter" stroke-opacity="1.0000000"/>
          <path d="M 47.5,82.2 C 47.8,75.6 51.7,73.5 51.7,73.5" id="path993" fill="none" fill-opacity="1.0000000" fill-rule="evenodd" stroke="#000000" stroke-width="1.0000000pt" stroke-linecap="butt" stroke-linejoin="miter" stroke-opacity="1.0000000"/>
          <path d="M 49.6,83.1 C 49.9,76.5 53.8,74.4 53.8,74.4" id="path995" fill="none" fill-opacity="1.0000000" fill-rule="evenodd" stroke="#000000" stroke-width="1.0000000pt" stroke-linecap="butt" stroke-linejoin="miter" stroke-opacity="1.0000000"/>
          <path d="M 51.5,84.2 C 51.8,77.6 55.7,75.5 55.7,75.5" id="path987" fill="none" fill-opacity="1.0000000" fill-rule="evenodd" stroke="#000000" stroke-width="1.0000000pt" stroke-linecap="butt" stroke-linejoin="miter" stroke-opacity="1.0000000"/>
          <path d="M 44.4,72.5 C 51.6,52.6 54.5,49.9 55.8,48.4 C 57.1,46.9 70.0,42.7 70.0,42.7 L 73.5,50.9 C 73.5,50.9 62.6,56.4 60.2,61.5 C 57.9,66.6 56.2,75.9 56.2,75.9 C 56.2,75.9 51.3,73.8 49.6,73.1 C 48.0,72.5 44.4,72.9 44.4,72.5 z " id="path980" fill="#003892" fill-opacity="0.99610001" fill-rule="evenodd" stroke="#000000" stroke-width="1.0000000pt" stroke-linecap="butt" stroke-linejoin="miter" stroke-opacity="1.0000000"/>
          <path d="M 50.1,58.3 C 61.5,53.5 65.1,56.0 69.1,54.9 C 73.1,53.9 81.8,51.5 82.6,49.4 C 83.5,47.3 75.2,37.0 75.2,37.0 L 69.5,43.1 C 65.7,47.2 56.7,43.5 53.6,50.6 L 50.1,58.3 z " id="path981" fill="#003892" fill-opacity="0.99610001" fill-rule="evenodd" stroke="#000000" stroke-width="1.2500000" stroke-linecap="butt" stroke-linejoin="round" stroke-opacity="1.0000000"/>
          <path d="M 62.3,53.9 C 64.0,56.2 75.6,49.1 78.4,48.4 C 81.6,47.4 82.9,49.2 82.9,49.2" id="path984" fill="none" fill-opacity="1.0000000" fill-rule="evenodd" stroke="#000000" stroke-width="1.0000000pt" stroke-linecap="butt" stroke-linejoin="miter" stroke-opacity="1.0000000"/>
          <path d="M 113.7,30.0 C 112.9,30.0 96.6,28.3 82.4,31.0 C 67.8,33.6 59.3,39.1 59.2,42.5 C 59.0,49.0 62.1,54.3 62.6,54.1 C 63.0,53.9 62.6,51.1 66.1,50.1 C 69.7,49.0 86.4,43.5 90.9,43.3 C 95.3,43.1 108.2,43.7 110.1,43.5 C 112.0,43.3 116.9,42.2 116.9,39.9 C 116.9,37.6 113.9,30.4 113.7,30.0 z " id="path982" fill="#003892" fill-opacity="0.99610001" fill-rule="evenodd" stroke="#000000" stroke-width="1.0000000pt" stroke-linecap="butt" stroke-linejoin="miter" stroke-opacity="1.0000000"/>
          <path d="M 104.3,39.0 C 104.5,39.7 104.1,41.3 106.8,41.0 C 109.5,40.8 110.9,38.8 113.4,39.1 C 115.8,39.3 116.2,41.0 116.2,41.0" id="path986" fill="none" fill-opacity="1.0000000" fill-rule="evenodd" stroke="#000000" stroke-width="1.0000000pt" stroke-linecap="butt" stroke-linejoin="miter" stroke-opacity="1.0000000"/>
        </g>
        <path d="M 128.5,20.0 C 108.4,20.3 103.0,23.3 102.1,26.8 C 101.2,30.1 104.4,39.5 104.4,39.5 C 104.4,39.5 107.8,32.9 128.7,33.1 C 149.7,33.4 153.8,39.1 153.8,39.1 C 153.8,39.1 156.5,29.8 156.2,26.6 C 156.0,23.4 147.5,20.0 128.5,20.0 z " id="path985" fill="#003892" fill-opacity="1.0000000" fill-rule="evenodd" stroke="#000000" stroke-width="1.0000000pt" stroke-linecap="butt" stroke-linejoin="miter" stroke-opacity="1.0000000"/>
        <path d="M 156.4,40.5 L 157.2,32.0 L 158.0,32.0 L 157.3,39.6 L 160.4,39.9 L 160.3,40.9 L 156.4,40.5 z " id="path1031" font-size="12.000000" font-weight="normal" fill="#fecd07" stroke-width="1.0000000" font-family="helvetica"/>
        <path d="M 161.4,41.0 L 162.2,32.4 L 163.0,32.5 L 162.2,41.0 L 161.4,41.0 z " id="path1032" font-size="12.000000" font-weight="normal" fill="#fecd07" stroke-width="1.0000000" font-family="helvetica"/>
        <path d="M 169.2,41.5 L 170.5,33.0 L 174.9,33.7 L 174.8,34.7 L 171.2,34.2 L 170.7,36.8 L 174.1,37.3 L 174.0,38.3 L 170.6,37.8 L 170.1,40.6 L 173.9,41.3 L 173.7,42.3 L 169.2,41.5 z " id="path1036" font-size="12.000000" font-weight="normal" fill="#fecd07" stroke-width="1.0000000" font-family="helvetica"/>
        <path d="M 182.1,44.7 L 184.6,37.5 L 182.7,36.9 L 183.0,35.9 L 187.7,37.5 L 187.3,38.5 L 185.4,37.8 L 182.8,45.0 L 182.1,44.7 z " id="path1039" font-size="12.000000" font-weight="normal" fill="#fecd07" stroke-width="1.0000000" font-family="helvetica"/>
        <path d="M 164.5,40.2 L 166.1,40.4 C 166.3,40.4 166.5,40.4 166.6,40.4 C 166.8,40.4 167.0,40.3 167.1,40.2 C 167.3,40.1 167.4,40.0 167.5,39.8 C 167.6,39.6 167.6,39.3 167.7,39.0 C 167.7,38.7 167.7,38.4 167.6,38.2 C 167.5,37.9 167.3,37.8 167.1,37.7 C 166.9,37.5 166.6,37.5 166.2,37.4 L 164.8,37.3 L 164.5,40.2 z M 164.9,36.3 L 166.2,36.4 C 166.6,36.4 166.8,36.4 167.0,36.4 C 167.2,36.3 167.4,36.2 167.5,36.0 C 167.6,35.8 167.7,35.6 167.7,35.3 C 167.8,35.0 167.7,34.7 167.7,34.5 C 167.6,34.3 167.5,34.1 167.3,34.0 C 167.1,33.9 166.8,33.9 166.4,33.8 L 165.1,33.7 L 164.9,36.3 z M 163.6,41.2 L 164.4,32.6 L 166.7,32.8 C 167.2,32.9 167.6,33.0 167.8,33.2 C 168.1,33.4 168.3,33.7 168.4,34.1 C 168.6,34.4 168.6,34.8 168.6,35.2 C 168.5,35.6 168.4,35.9 168.3,36.2 C 168.1,36.5 167.8,36.8 167.5,36.9 C 167.9,37.1 168.2,37.4 168.3,37.8 C 168.5,38.2 168.6,38.6 168.5,39.1 C 168.5,39.5 168.4,39.9 168.2,40.2 C 168.1,40.6 167.9,40.8 167.7,41.0 C 167.5,41.1 167.3,41.3 167.0,41.3 C 166.7,41.4 166.4,41.4 166.0,41.4 L 163.6,41.2 z " id="path1047" font-size="12.000000" font-weight="normal" fill="#fecd07" font-family="helvetica"/>
        <path d="M 177.0,38.1 L 178.7,38.6 C 179.1,38.7 179.4,38.7 179.6,38.7 C 179.8,38.6 180.0,38.5 180.2,38.3 C 180.4,38.1 180.5,37.9 180.6,37.6 C 180.7,37.2 180.7,36.9 180.5,36.5 C 180.4,36.2 180.1,36.0 179.7,35.9 L 177.8,35.4 L 177.0,38.1 z M 174.9,42.5 L 177.3,34.2 L 179.9,35.0 C 180.4,35.1 180.8,35.3 181.0,35.5 C 181.3,35.8 181.4,36.1 181.5,36.5 C 181.6,36.9 181.5,37.4 181.4,37.8 C 181.2,38.4 180.9,38.9 180.6,39.2 C 180.2,39.5 179.7,39.7 179.1,39.6 C 179.2,39.8 179.4,40.0 179.4,40.1 C 179.6,40.5 179.7,40.9 179.8,41.4 L 180.2,44.0 L 179.2,43.7 L 178.9,41.8 C 178.8,41.2 178.7,40.8 178.6,40.5 C 178.6,40.1 178.5,39.9 178.4,39.8 C 178.3,39.6 178.2,39.5 178.1,39.5 C 178.0,39.4 177.9,39.4 177.7,39.3 L 176.7,39.0 L 175.7,42.7 L 174.9,42.5 z " id="path1050" font-size="12.000000" font-weight="normal" fill="#fecd07" font-family="helvetica"/>
        <path d="M 191.7,47.6 L 193.0,48.0 C 193.3,48.2 193.7,48.2 193.9,48.2 C 194.2,48.2 194.4,48.1 194.6,48.0 C 194.9,47.8 195.1,47.5 195.4,47.1 C 195.6,46.7 195.9,46.2 196.1,45.6 C 196.4,44.8 196.5,44.1 196.5,43.6 C 196.5,43.0 196.3,42.6 196.1,42.4 C 195.9,42.2 195.6,42.0 195.1,41.9 L 193.9,41.4 L 191.7,47.6 z M 190.6,48.3 L 193.5,40.2 L 195.5,40.9 C 195.9,41.1 196.3,41.2 196.5,41.4 C 196.8,41.6 197.0,41.9 197.1,42.3 C 197.3,42.8 197.4,43.3 197.3,43.9 C 197.3,44.5 197.1,45.2 196.9,45.9 C 196.7,46.5 196.4,47.1 196.2,47.5 C 195.9,47.9 195.6,48.3 195.3,48.5 C 195.1,48.8 194.8,49.0 194.5,49.1 C 194.3,49.2 194.0,49.2 193.7,49.2 C 193.4,49.2 193.1,49.2 192.7,49.0 L 190.6,48.3 z " id="path1053" font-size="12.000000" font-weight="normal" fill="#fecd07" font-family="helvetica"/>
        <path d="M 187.4,43.0 L 189.4,43.7 L 189.5,41.2 C 189.6,40.5 189.7,39.9 189.7,39.4 C 189.5,39.9 189.2,40.4 188.9,40.8 L 187.4,43.0 z M 184.5,45.7 L 189.6,38.4 L 190.5,38.7 L 190.0,47.6 L 189.1,47.3 L 189.3,44.6 L 186.8,43.8 L 185.3,46.0 L 184.5,45.7 z " id="path1056" font-size="12.000000" font-weight="normal" fill="#fecd07" font-family="helvetica"/>
        <path d="M 126.4,31.5 L 126.4,23.9 L 124.1,23.9 L 124.1,22.9 L 129.6,22.9 L 129.6,23.9 L 127.3,23.9 L 127.3,31.5 L 126.4,31.5 z " id="path1062" font-size="12.000000" font-weight="normal" fill="#fecd07" stroke-width="1.0000000" font-family="helvetica"/>
        <path d="M 137.9,31.4 L 138.2,22.9 L 139.2,22.9 L 138.8,31.5 L 137.9,31.4 z " id="path1065" font-size="12.000000" font-weight="normal" fill="#fecd07" stroke-width="1.0000000" font-family="helvetica"/>
        <path d="M 112.4,28.1 L 114.2,27.8 C 114.7,27.7 115.1,27.5 115.3,27.2 C 115.5,26.8 115.6,26.4 115.5,26.0 C 115.4,25.6 115.3,25.3 115.1,25.1 C 114.9,24.9 114.7,24.7 114.4,24.7 C 114.3,24.7 114.0,24.7 113.6,24.8 L 111.8,25.1 L 112.4,28.1 z M 112.3,32.7 L 110.8,24.3 L 113.3,23.8 C 113.8,23.7 114.1,23.7 114.4,23.7 C 114.7,23.7 115.0,23.8 115.3,23.9 C 115.5,24.1 115.8,24.3 116.0,24.6 C 116.2,25.0 116.3,25.3 116.4,25.7 C 116.5,26.5 116.5,27.1 116.2,27.7 C 115.9,28.2 115.3,28.6 114.3,28.8 L 112.6,29.1 L 113.2,32.5 L 112.3,32.7 z " id="path1070" font-size="12.000000" font-weight="normal" fill="#fecd07" font-family="helvetica"/>
        <path d="M 119.2,27.8 L 121.6,27.6 L 120.7,25.3 C 120.4,24.6 120.2,24.0 120.0,23.6 C 120.0,24.1 119.9,24.7 119.8,25.2 L 119.2,27.8 z M 117.5,31.5 L 119.5,22.7 L 120.5,22.6 L 124.0,31.0 L 122.9,31.1 L 121.9,28.5 L 119.0,28.8 L 118.5,31.4 L 117.5,31.5 z " id="path1073" font-size="12.000000" font-weight="normal" fill="#fecd07" font-family="helvetica"/>
        <path d="M 131.4,26.7 L 133.4,26.7 C 133.8,26.7 134.1,26.6 134.4,26.5 C 134.6,26.4 134.8,26.2 134.9,26.0 C 135.0,25.7 135.1,25.5 135.1,25.2 C 135.1,24.8 135.0,24.5 134.7,24.2 C 134.5,23.9 134.1,23.8 133.6,23.8 L 131.4,23.8 L 131.4,26.7 z M 130.5,31.5 L 130.5,22.9 L 133.6,22.9 C 134.2,22.9 134.7,22.9 135.0,23.1 C 135.3,23.3 135.6,23.5 135.8,23.9 C 135.9,24.3 136.0,24.7 136.0,25.2 C 136.0,25.8 135.9,26.3 135.6,26.8 C 135.2,27.2 134.8,27.4 134.1,27.5 C 134.3,27.7 134.5,27.8 134.6,28.0 C 134.9,28.3 135.2,28.7 135.4,29.1 L 136.6,31.5 L 135.5,31.5 L 134.5,29.7 C 134.3,29.2 134.1,28.8 133.9,28.5 C 133.7,28.2 133.6,28.0 133.4,27.9 C 133.3,27.8 133.1,27.7 133.0,27.7 C 132.9,27.7 132.7,27.6 132.5,27.6 L 131.4,27.6 L 131.4,31.5 L 130.5,31.5 z " id="path1076" font-size="12.000000" font-weight="normal" fill="#fecd07" font-family="helvetica"/>
        <path d="M 143.2,28.6 L 145.5,29.0 L 145.2,26.5 C 145.1,25.8 145.1,25.2 145.0,24.7 C 144.9,25.2 144.6,25.7 144.4,26.2 L 143.2,28.6 z M 140.6,31.7 L 144.7,23.7 L 145.7,23.9 L 147.0,32.8 L 146.0,32.7 L 145.6,29.9 L 142.8,29.4 L 141.6,31.9 L 140.6,31.7 z " id="path1079" font-size="12.000000" font-weight="normal" fill="#fecd07" font-family="helvetica"/>
        <path d="M 78.8,43.4 L 77.5,34.9 L 78.5,34.8 L 79.7,43.3 L 78.8,43.4 z " id="path1083" font-size="12.000000" font-weight="normal" fill="#fecd07" stroke-width="1.0000000" font-family="helvetica"/>
        <path d="M 88.5,38.7 L 89.3,38.5 C 89.4,39.0 89.6,39.3 89.7,39.6 C 89.9,39.8 90.2,40.0 90.5,40.2 C 90.8,40.3 91.2,40.4 91.6,40.3 C 91.9,40.3 92.2,40.2 92.5,40.0 C 92.8,39.9 92.9,39.7 93.1,39.5 C 93.2,39.2 93.2,39.0 93.2,38.7 C 93.2,38.4 93.1,38.2 92.9,38.0 C 92.8,37.8 92.6,37.7 92.3,37.6 C 92.1,37.5 91.6,37.4 91.0,37.3 C 90.3,37.1 89.9,37.0 89.6,36.9 C 89.2,36.7 89.0,36.4 88.8,36.1 C 88.6,35.8 88.5,35.5 88.4,35.1 C 88.4,34.7 88.5,34.2 88.6,33.9 C 88.8,33.5 89.1,33.1 89.4,32.9 C 89.8,32.7 90.2,32.6 90.7,32.5 C 91.2,32.5 91.7,32.5 92.1,32.7 C 92.5,32.9 92.8,33.1 93.1,33.5 C 93.3,33.9 93.5,34.3 93.5,34.8 L 92.7,35.0 C 92.6,34.5 92.4,34.1 92.1,33.8 C 91.8,33.6 91.3,33.5 90.8,33.5 C 90.2,33.6 89.8,33.7 89.6,34.0 C 89.4,34.3 89.3,34.6 89.3,34.9 C 89.3,35.2 89.5,35.5 89.7,35.7 C 89.8,35.8 90.3,36.0 91.1,36.2 C 91.9,36.3 92.4,36.4 92.7,36.6 C 93.1,36.8 93.5,37.0 93.7,37.4 C 93.9,37.7 94.0,38.1 94.1,38.5 C 94.1,39.0 94.1,39.4 93.9,39.9 C 93.7,40.3 93.4,40.6 93.0,40.9 C 92.7,41.1 92.2,41.3 91.7,41.3 C 91.1,41.4 90.5,41.3 90.1,41.1 C 89.7,40.9 89.3,40.6 89.0,40.2 C 88.7,39.8 88.5,39.3 88.5,38.7 z " id="path1086" font-size="12.000000" font-weight="normal" fill="#fecd07" stroke-width="1.0000000" font-family="helvetica"/>
        <path d="M 80.4,38.3 C 80.2,36.9 80.4,35.8 80.9,34.9 C 81.4,34.0 82.1,33.5 83.1,33.3 C 83.8,33.2 84.4,33.3 84.9,33.6 C 85.5,33.9 86.0,34.4 86.3,35.0 C 86.7,35.7 86.9,36.4 87.1,37.3 C 87.2,38.1 87.2,38.9 87.0,39.6 C 86.8,40.4 86.5,40.9 86.0,41.4 C 85.5,41.8 85.0,42.0 84.4,42.1 C 83.7,42.2 83.1,42.1 82.5,41.8 C 82.0,41.5 81.5,41.0 81.1,40.4 C 80.8,39.8 80.5,39.1 80.4,38.3 z M 81.4,38.2 C 81.5,39.2 81.9,40.0 82.4,40.5 C 82.9,41.0 83.6,41.3 84.2,41.2 C 84.9,41.1 85.5,40.7 85.8,40.0 C 86.2,39.4 86.3,38.5 86.1,37.4 C 86.0,36.7 85.8,36.1 85.6,35.6 C 85.3,35.1 85.0,34.8 84.6,34.5 C 84.2,34.3 83.7,34.2 83.3,34.3 C 82.6,34.4 82.1,34.7 81.7,35.4 C 81.3,36.0 81.2,36.9 81.4,38.2 z " id="path1089" font-size="12.000000" font-weight="normal" fill="#fecd07" font-family="helvetica"/>
        <path d="M 72.7,44.3 L 74.2,43.9 C 74.6,43.7 74.9,43.6 75.1,43.4 C 75.4,43.2 75.5,43.0 75.6,42.8 C 75.7,42.4 75.8,42.1 75.8,41.6 C 75.8,41.1 75.6,40.6 75.5,39.9 C 75.2,39.1 74.9,38.5 74.5,38.1 C 74.1,37.7 73.7,37.5 73.4,37.4 C 73.1,37.4 72.7,37.5 72.2,37.6 L 70.7,38.1 L 72.7,44.3 z M 72.2,45.6 L 69.6,37.4 L 71.9,36.6 C 72.4,36.5 72.8,36.4 73.1,36.4 C 73.5,36.4 73.9,36.5 74.3,36.7 C 74.7,36.9 75.1,37.3 75.5,37.8 C 75.8,38.3 76.1,38.9 76.4,39.7 C 76.6,40.3 76.7,40.9 76.7,41.4 C 76.8,41.9 76.7,42.3 76.6,42.7 C 76.6,43.1 76.4,43.4 76.3,43.7 C 76.1,43.9 75.9,44.1 75.6,44.3 C 75.3,44.5 75.0,44.7 74.6,44.8 L 72.2,45.6 z " id="path1097" font-size="12.000000" font-weight="normal" fill="#fecd07" font-family="helvetica"/>
      </g>
      <g id="g798">
        <g id="g615">
          <path d="M 70.8,60.2 L 81.4,70.8 L 81.4,155.9 C 81.4,162.6 88.5,170.0 95.6,170.0 L 113.3,170.0 C 124.0,170.0 129.3,178.9 129.3,178.9 C 129.3,178.9 134.6,169.9 145.2,170.0 L 164.4,170.3 C 170.0,170.4 177.1,162.9 177.1,155.9 L 177.1,70.8 L 187.7,60.2 L 70.8,60.2 z " id="path606" fill="#ffffff" fill-opacity="1.0000000" fill-rule="evenodd" stroke="#000000" stroke-width="1.0000000pt" stroke-linecap="butt" stroke-linejoin="miter" stroke-opacity="1.0000000"/>
          <path d="M 138.1,60.2 L 138.1,109.8 L 177.1,109.8 L 177.1,70.8 L 187.7,60.2 L 138.1,60.2 z " id="path611" fill="#dd2110" fill-opacity="1.0000000" fill-rule="evenodd" stroke="#000000" stroke-width="0.62500000" stroke-linecap="butt" stroke-linejoin="miter" stroke-opacity="1.0000000"/>
          <path d="M 70.8,60.2 L 120.4,60.2 L 120.4,109.8 L 81.4,109.8 L 81.4,70.8 L 70.8,60.2 z " id="path610" fill="#013993" fill-opacity="1.0000000" fill-rule="evenodd" stroke="#000000" stroke-width="0.62500000" stroke-linecap="butt" stroke-linejoin="miter" stroke-opacity="1.0000000"/>
          <path d="M 81.4,127.5 L 120.4,127.5 L 120.4,171.8 L 116.9,170.0 L 95.6,170.0 C 88.5,170.0 81.4,162.9 81.4,155.9 L 81.4,127.5 z " id="path612" fill="#dd2110" fill-opacity="1.0000000" fill-rule="evenodd" stroke="#000000" stroke-width="0.62500000" stroke-linecap="butt" stroke-linejoin="miter" stroke-opacity="1.0000000"/>
          <path d="M 177.1,127.5 L 138.1,127.5 L 138.1,171.8 L 141.7,170.0 L 162.9,170.0 C 170.0,170.0 177.1,162.9 177.1,155.9 L 177.1,127.5 z " id="path613" fill="#013993" fill-opacity="1.0000000" fill-rule="evenodd" stroke="#000000" stroke-width="0.62500000" stroke-linecap="butt" stroke-linejoin="miter" stroke-opacity="1.0000000"/>
          <path d="M 70.8,60.2 L 81.4,70.8 L 81.4,155.9 C 81.4,162.6 88.5,170.0 95.6,170.0 L 113.3,170.0 C 124.0,170.0 129.3,178.9 129.3,178.9 C 129.3,178.9 134.6,169.9 145.2,170.0 L 164.4,170.3 C 170.0,170.4 177.1,162.9 177.1,155.9 L 177.1,70.8 L 187.7,60.2 L 70.8,60.2 z " id="path614" fill="none" fill-opacity="1.0000000" fill-rule="evenodd" stroke="#000000" stroke-width="1.0000000pt" stroke-linecap="butt" stroke-linejoin="miter" stroke-opacity="1.0000000"/>
        </g>
        <path d="M 127.5,88.5 L 127.5,102.7 L 131.1,102.7 L 131.1,88.5 L 134.6,88.5 L 134.6,85.0 L 131.1,85.0 L 131.1,81.4 L 127.5,81.4 L 127.5,85.0 L 124.0,85.0 L 124.0,88.5 L 127.5,88.5 z " id="path797" fill="#fecd08" fill-opacity="1.0000000" fill-rule="evenodd" stroke="#000000" stroke-width="1.0000000" stroke-linecap="butt" stroke-linejoin="miter" stroke-opacity="1.0000000"/>
        <g id="g696">
          <g id="g665" transform="matrix(0.968676,0.248329,-0.248329,0.968676,34.80247,-31.89616)">
            <path d="M 127.9,109.7 L 91.1,79.7" id="path666" fill="none" fill-opacity="1.0000000" fill-rule="evenodd" stroke="#241a0d" stroke-width="1.8750000" stroke-linecap="butt" stroke-linejoin="miter" stroke-opacity="1.0000000"/>
            <path d="M 90.2,80.7 L 85.7,75.2 L 92.4,78.4 L 90.2,80.7 z " id="path667" fill="#fecd08" fill-opacity="1.0000000" fill-rule="evenodd" stroke="none" stroke-width="1.0000000pt" stroke-linecap="butt" stroke-linejoin="miter" stroke-opacity="1.0000000"/>
          </g>
          <g id="g688">
            <path d="M 118.0,96.4 C 117.7,96.8 114.4,111.0 114.4,111.0 C 114.4,111.0 125.6,112.7 125.4,112.0 C 125.2,111.4 123.9,102.3 123.2,101.7 C 122.6,101.0 118.2,97.2 118.0,96.4 z " id="path648" font-size="12.000000" fill="#dd200f" fill-rule="evenodd" stroke-width="1.0000000"/>
            <path d="M 108.7,86.7 L 106.8,105.9 C 106.8,105.9 119.4,117.3 119.2,115.8 C 119.0,114.4 118.2,96.4 118.2,96.4 L 108.7,86.7 z " id="path647" font-size="12.000000" fill="#ffffff" fill-rule="evenodd" stroke-width="1.0000000"/>
            <path d="M 98.1,75.0 L 97.4,96.2 C 97.4,96.2 108.7,105.5 108.7,104.6 C 108.7,103.8 109.7,87.5 109.7,87.5 L 98.1,75.0 z " id="path646" font-size="12.000000" fill="#04388f" fill-rule="evenodd" stroke-width="1.0000000"/>
            <path d="M 97.9,74.8 L 97.2,92.8 L 97.2,92.8" id="path649" font-size="12.000000" fill="none" fill-rule="evenodd" stroke="#000000" stroke-width="1.0000000"/>
            <g id="g662" transform="matrix(0.993587,0.113071,-0.113071,0.993587,15.16373,-16.17679)">
              <path d="M 127.9,109.7 L 91.1,79.7" id="path663" fill="none" fill-opacity="1.0000000" fill-rule="evenodd" stroke="#241a0d" stroke-width="1.8750000" stroke-linecap="butt" stroke-linejoin="miter" stroke-opacity="1.0000000"/>
              <path d="M 90.2,80.7 L 85.7,75.2 L 92.4,78.4 L 90.2,80.7 z " id="path664" fill="#fecd08" fill-opacity="1.0000000" fill-rule="evenodd" stroke="none" stroke-width="1.0000000pt" stroke-linecap="butt" stroke-linejoin="miter" stroke-opacity="1.0000000"/>
            </g>
          </g>
          <g id="g678">
            <path d="M 92.1,81.4 L 92.1,134.6 C 92.1,145.2 102.6,152.9 109.8,152.3 C 117.0,151.8 127.5,148.8 127.5,148.8 L 127.5,109.8 L 92.1,81.4 z " id="path622" font-size="12.000000" fill="#ffffff" fill-rule="evenodd" stroke="#000000"/>
            <path d="M 92.1,124.0 L 92.1,134.6 C 92.1,145.2 102.6,152.9 109.8,152.3 C 117.0,151.8 127.5,148.8 127.5,148.8 C 120.4,145.2 102.7,155.9 102.7,127.5 C 99.2,127.5 95.6,127.5 92.1,124.0 z " id="path623" font-size="12.000000" fill="#dd200f" fill-rule="evenodd"/>
            <path d="M 103.1,89.7 L 102.7,120.4 C 99.0,119.9 95.6,118.5 92.1,116.9 L 92.1,81.4 L 103.1,89.7 z " id="path624" font-size="12.000000" fill="#04388f" fill-rule="evenodd" stroke-width="1.2500000"/>
            <path d="M 112.9,98.5 L 112.9,122.2 C 112.9,122.2 115.4,121.8 119.7,123.5 C 123.9,125.1 127.7,126.8 127.7,126.8 L 127.7,109.7 L 112.9,98.5 z " id="path625" font-size="12.000000" fill="#dd200f" fill-rule="evenodd"/>
            <path d="M 126.6,134.7 C 126.6,134.7 118.8,130.6 116.9,130.4 C 115.0,130.2 112.5,130.6 112.5,130.6 C 112.5,130.6 112.0,134.2 112.3,136.4 C 112.5,138.5 115.6,139.5 116.7,139.5 C 117.7,139.5 126.6,138.5 126.6,138.5 L 126.6,134.7 z " id="path626" font-size="12.000000" fill="#04388f" fill-rule="evenodd"/>
            <path d="M 92.1,81.4 L 92.1,134.6 C 92.1,145.2 102.6,152.9 109.8,152.3 C 117.0,151.8 127.5,148.8 127.5,148.8 L 127.5,109.8 L 92.1,81.4 z " id="path638" font-size="12.000000" fill="none" fill-rule="evenodd" stroke="#000000"/>
            <g id="g659">
              <path d="M 127.9,109.7 L 91.1,79.7" id="path655" fill="none" fill-opacity="1.0000000" fill-rule="evenodd" stroke="#241a0d" stroke-width="1.8750000" stroke-linecap="butt" stroke-linejoin="miter" stroke-opacity="1.0000000"/>
              <path d="M 90.2,80.7 L 85.7,75.2 L 92.4,78.4 L 90.2,80.7 z " id="path658" fill="#fecd08" fill-opacity="1.0000000" fill-rule="evenodd" stroke="none" stroke-width="1.0000000pt" stroke-linecap="butt" stroke-linejoin="miter" stroke-opacity="1.0000000"/>
            </g>
          </g>
        </g>
        <g id="g718" transform="matrix(-1.000000,0.000000,0.000000,1.000000,259.2093,-0.631821)">
          <g id="g719" transform="matrix(0.968676,0.248329,-0.248329,0.968676,34.80247,-31.89616)">
            <path d="M 127.9,109.7 L 91.1,79.7" id="path720" fill="none" fill-opacity="1.0000000" fill-rule="evenodd" stroke="#241a0d" stroke-width="1.8750000" stroke-linecap="butt" stroke-linejoin="miter" stroke-opacity="1.0000000"/>
            <path d="M 90.2,80.7 L 85.7,75.2 L 92.4,78.4 L 90.2,80.7 z " id="path721" fill="#fecd08" fill-opacity="1.0000000" fill-rule="evenodd" stroke="none" stroke-width="1.0000000pt" stroke-linecap="butt" stroke-linejoin="miter" stroke-opacity="1.0000000"/>
          </g>
          <g id="g722">
            <path d="M 118.0,96.4 C 117.7,96.8 114.4,111.0 114.4,111.0 C 114.4,111.0 125.6,112.7 125.4,112.0 C 125.2,111.4 123.9,102.3 123.2,101.7 C 122.6,101.0 118.2,97.2 118.0,96.4 z " id="path723" font-size="12.000000" fill="#dd200f" fill-rule="evenodd" stroke-width="1.0000000"/>
            <path d="M 108.7,86.7 L 106.8,105.9 C 106.8,105.9 119.4,117.3 119.2,115.8 C 119.0,114.4 118.2,96.4 118.2,96.4 L 108.7,86.7 z " id="path724" font-size="12.000000" fill="#ffffff" fill-rule="evenodd" stroke-width="1.0000000"/>
            <path d="M 98.1,75.0 L 97.4,96.2 C 97.4,96.2 108.7,105.5 108.7,104.6 C 108.7,103.8 109.7,87.5 109.7,87.5 L 98.1,75.0 z " id="path725" font-size="12.000000" fill="#04388f" fill-rule="evenodd" stroke-width="1.0000000"/>
            <path d="M 97.9,74.8 L 97.2,92.8 L 97.2,92.8" id="path726" font-size="12.000000" fill="none" fill-rule="evenodd" stroke="#000000" stroke-width="1.0000000"/>
            <g id="g727" transform="matrix(0.993587,0.113071,-0.113071,0.993587,15.16373,-16.17679)">
              <path d="M 127.9,109.7 L 91.1,79.7" id="path728" fill="none" fill-opacity="1.0000000" fill-rule="evenodd" stroke="#241a0d" stroke-width="1.8750000" stroke-linecap="butt" stroke-linejoin="miter" stroke-opacity="1.0000000"/>
              <path d="M 90.2,80.7 L 85.7,75.2 L 92.4,78.4 L 90.2,80.7 z " id="path729" fill="#fecd08" fill-opacity="1.0000000" fill-rule="evenodd" stroke="none" stroke-width="1.0000000pt" stroke-linecap="butt" stroke-linejoin="miter" stroke-opacity="1.0000000"/>
            </g>
          </g>
          <g id="g730">
            <path d="M 92.1,81.4 L 92.1,134.6 C 92.1,145.2 102.6,152.9 109.8,152.3 C 117.0,151.8 127.5,148.8 127.5,148.8 L 127.5,109.8 L 92.1,81.4 z " id="path731" font-size="12.000000" fill="#ffffff" fill-rule="evenodd" stroke="#000000"/>
            <path d="M 92.1,124.0 L 92.1,134.6 C 92.1,145.2 102.6,152.9 109.8,152.3 C 117.0,151.8 127.5,148.8 127.5,148.8 C 120.4,145.2 102.7,155.9 102.7,127.5 C 99.2,127.5 95.6,127.5 92.1,124.0 z " id="path732" font-size="12.000000" fill="#dd200f" fill-rule="evenodd"/>
            <path d="M 103.1,89.7 L 102.7,120.4 C 99.0,119.9 95.6,118.5 92.1,116.9 L 92.1,81.4 L 103.1,89.7 z " id="path733" font-size="12.000000" fill="#04388f" fill-rule="evenodd" stroke-width="1.2500000"/>
            <path d="M 112.9,98.5 L 112.9,122.2 C 112.9,122.2 115.4,121.8 119.7,123.5 C 123.9,125.1 127.7,126.8 127.7,126.8 L 127.7,109.7 L 112.9,98.5 z " id="path734" font-size="12.000000" fill="#dd200f" fill-rule="evenodd"/>
            <path d="M 126.6,134.7 C 126.6,134.7 118.8,130.6 116.9,130.4 C 115.0,130.2 112.5,130.6 112.5,130.6 C 112.5,130.6 112.0,134.2 112.3,136.4 C 112.5,138.5 115.6,139.5 116.7,139.5 C 117.7,139.5 126.6,138.5 126.6,138.5 L 126.6,134.7 z " id="path735" font-size="12.000000" fill="#04388f" fill-rule="evenodd"/>
            <path d="M 92.1,81.4 L 92.1,134.6 C 92.1,145.2 102.6,152.9 109.8,152.3 C 117.0,151.8 127.5,148.8 127.5,148.8 L 127.5,109.8 L 92.1,81.4 z " id="path736" font-size="12.000000" fill="none" fill-rule="evenodd" stroke="#000000"/>
            <g id="g737">
              <path d="M 127.9,109.7 L 91.1,79.7" id="path738" fill="none" fill-opacity="1.0000000" fill-rule="evenodd" stroke="#241a0d" stroke-width="1.8750000" stroke-linecap="butt" stroke-linejoin="miter" stroke-opacity="1.0000000"/>
              <path d="M 90.2,80.7 L 85.7,75.2 L 92.4,78.4 L 90.2,80.7 z " id="path739" fill="#fecd08" fill-opacity="1.0000000" fill-rule="evenodd" stroke="none" stroke-width="1.0000000pt" stroke-linecap="butt" stroke-linejoin="miter" stroke-opacity="1.0000000"/>
            </g>
          </g>
        </g>
        <g id="g788">
          <path d="M 135.5,146.8 C 136.3,147.7 139.3,151.7 140.0,150.7 C 140.8,149.8 138.2,142.5 137.2,138.7 C 136.3,135.0 134.0,130.7 133.9,124.8 C 133.7,119.0 130.3,125.5 130.3,125.5 L 135.5,146.8 z " id="path786" fill="#dd200f" fill-opacity="1.0000000" fill-rule="evenodd" stroke="#000000" stroke-width="1.0000000" stroke-linecap="butt" stroke-linejoin="miter" stroke-opacity="1.0000000"/>
          <path d="M 132.5,158.3 L 139.3,158.6 C 139.3,158.6 137.0,149.5 136.4,144.1 C 135.8,138.7 130.1,122.6 130.1,122.6 L 132.5,158.3 z " id="path784" fill="#dd200f" fill-opacity="1.0000000" fill-rule="evenodd" stroke="#000000" stroke-width="1.0000000" stroke-linecap="butt" stroke-linejoin="miter" stroke-opacity="1.0000000"/>
          <path d="M 127.6,121.1 C 127.4,121.4 117.9,136.5 117.9,144.4 C 117.9,152.3 122.4,157.1 123.9,159.6 C 125.5,162.1 129.3,170.2 129.3,170.2 C 129.3,170.2 133.9,161.3 134.4,157.9 C 134.8,154.4 132.6,139.7 133.3,134.0 C 133.9,128.3 138.2,114.9 138.2,114.9 L 127.6,121.1 z " id="path780" fill="#ffffff" fill-opacity="1.0000000" fill-rule="evenodd" stroke="#000000" stroke-width="1.0000000" stroke-linecap="butt" stroke-linejoin="miter" stroke-opacity="1.0000000"/>
          <path d="M 127.6,121.1 C 127.4,121.4 117.9,136.5 117.9,144.4 C 117.9,152.3 122.4,157.1 123.9,159.6 C 123.6,154.5 123.2,150.0 123.5,143.5 C 124.2,126.7 134.8,116.8 134.8,116.8 L 127.6,121.1 z " id="path782" fill="#003893" fill-opacity="1.0000000" fill-rule="evenodd" stroke="none" stroke-width="1.0000000" stroke-linecap="butt" stroke-linejoin="miter" stroke-opacity="1.0000000"/>
          <path d="M 131.4,116.6 C 131.4,119.5 127.6,128.0 127.6,135.9 C 127.6,139.9 129.1,149.1 129.5,156.6 C 130.0,164.2 129.3,170.2 129.3,170.2 C 129.3,170.2 133.9,161.3 134.4,157.9 C 134.8,154.4 132.6,139.7 133.3,134.0 C 133.9,128.3 138.2,114.9 138.2,114.9 L 131.4,116.6 z " id="path783" fill="#dd200f" fill-opacity="1.0000000" fill-rule="evenodd" stroke="none" stroke-width="1.0000000" stroke-linecap="butt" stroke-linejoin="miter" stroke-opacity="1.0000000"/>
          <path d="M 127.6,121.1 C 127.4,121.4 117.9,136.5 117.9,144.4 C 117.9,152.3 122.4,157.1 123.9,159.6 C 125.5,162.1 129.3,170.2 129.3,170.2 C 129.3,170.2 133.9,161.3 134.4,157.9 C 134.8,154.4 132.6,139.7 133.3,134.0 C 133.9,128.3 138.2,114.9 138.2,114.9 L 127.6,121.1 z " id="path781" fill="none" fill-opacity="1.0000000" fill-rule="evenodd" stroke="#000000" stroke-width="1.0000000" stroke-linecap="butt" stroke-linejoin="miter" stroke-opacity="1.0000000"/>
          <path d="M 126.1,117.6 C 123.9,119.5 125.5,123.9 125.5,123.9 C 125.5,123.9 127.1,122.0 130.1,122.2 C 133.1,122.3 135.0,126.9 135.0,126.9 C 135.0,126.9 136.9,125.5 137.2,122.5 C 137.5,119.5 131.2,116.2 126.1,117.6 z " id="path787" fill="#dd200f" fill-opacity="1.0000000" fill-rule="evenodd" stroke="#000000" stroke-width="1.0000000" stroke-linecap="butt" stroke-linejoin="miter" stroke-opacity="1.0000000"/>
        </g>
        <g id="g761" transform="translate(9.828323,-170.6555)">
          <path d="M 109.6,276.2 L 115.8,292.5 C 115.8,292.5 118.5,291.2 120.3,290.6 C 122.0,290.0 124.1,290.4 124.1,290.4 C 124.1,290.4 127.0,288.8 128.4,288.3 C 130.0,287.8 132.8,287.7 132.8,287.7 L 133.2,287.1 C 133.2,287.1 111.7,274.5 109.8,275.1 L 109.6,276.2 z " id="path760" fill="#000000" fill-opacity="1.0000000" fill-rule="evenodd" stroke="#000000" stroke-width="1.0000000pt" stroke-linecap="butt" stroke-linejoin="miter" stroke-opacity="1.0000000"/>
          <path d="M 110.0,274.7 L 116.2,291.0 C 116.2,291.0 118.9,289.8 120.7,289.2 C 122.5,288.5 124.6,289.0 124.6,289.0 C 124.6,289.0 127.4,287.4 128.8,286.8 C 130.4,286.3 133.3,286.3 133.3,286.3 L 127.1,268.4 C 127.1,268.4 124.7,268.7 122.8,269.4 C 121.3,270.0 119.0,272.1 119.0,272.1 C 117.9,272.0 116.0,271.7 114.1,272.4 C 112.3,273.1 110.7,274.0 110.0,274.7 z " id="path740" fill="#ffffff" fill-opacity="1.0000000" fill-rule="evenodd" stroke="#000000" stroke-width="1.0000000pt" stroke-linecap="butt" stroke-linejoin="miter" stroke-opacity="1.0000000"/>
          <path d="M 119.0,272.1 L 124.9,289.0" id="path742" fill="none" fill-opacity="1.0000000" fill-rule="evenodd" stroke="#9d9698" stroke-width="0.62500000" stroke-linecap="butt" stroke-linejoin="miter" stroke-opacity="1.0000000"/>
          <path d="M 111.0,275.8 C 113.0,274.1 116.6,273.1 119.5,273.5" id="path743" fill="none" fill-opacity="1.0000000" fill-rule="evenodd" stroke="#9d9698" stroke-width="0.62500000" stroke-linecap="butt" stroke-linejoin="miter" stroke-opacity="1.0000000"/>
          <path d="M 111.6,277.8 C 113.7,276.1 117.2,275.1 120.1,275.5" id="path745" fill="none" fill-opacity="1.0000000" fill-rule="evenodd" stroke="#9d9698" stroke-width="0.62500000" stroke-linecap="butt" stroke-linejoin="miter" stroke-opacity="1.0000000"/>
          <path d="M 112.2,280.0 C 114.3,278.3 117.8,277.2 120.8,277.6" id="path746" fill="none" fill-opacity="1.0000000" fill-rule="evenodd" stroke="#9d9698" stroke-width="0.62500000" stroke-linecap="butt" stroke-linejoin="miter" stroke-opacity="1.0000000"/>
          <path d="M 112.9,282.2 C 114.9,280.5 118.5,279.5 121.4,279.9" id="path747" fill="none" fill-opacity="1.0000000" fill-rule="evenodd" stroke="#9d9698" stroke-width="0.62500000" stroke-linecap="butt" stroke-linejoin="miter" stroke-opacity="1.0000000"/>
          <path d="M 114.1,284.5 C 116.1,282.8 119.7,281.8 122.6,282.2" id="path748" fill="none" fill-opacity="1.0000000" fill-rule="evenodd" stroke="#9d9698" stroke-width="0.62500000" stroke-linecap="butt" stroke-linejoin="miter" stroke-opacity="1.0000000"/>
          <path d="M 114.6,286.7 C 116.7,285.0 120.2,284.0 123.1,284.4" id="path749" fill="none" fill-opacity="1.0000000" fill-rule="evenodd" stroke="#9d9698" stroke-width="0.62500000" stroke-linecap="butt" stroke-linejoin="miter" stroke-opacity="1.0000000"/>
          <path d="M 115.6,288.9 C 117.6,287.1 121.2,286.1 124.1,286.5" id="path750" fill="none" fill-opacity="1.0000000" fill-rule="evenodd" stroke="#9d9698" stroke-width="0.62500000" stroke-linecap="butt" stroke-linejoin="miter" stroke-opacity="1.0000000"/>
          <path d="M 119.7,273.5 C 121.5,271.5 124.7,270.2 127.6,270.1" id="path751" font-size="12.000000" fill="none" fill-rule="evenodd" stroke="#9d9698" stroke-width="0.62500000" stroke-opacity="1.0000000"/>
          <path d="M 120.3,276.0 C 122.1,274.0 125.2,272.7 128.2,272.7" id="path752" font-size="12.000000" fill="none" fill-rule="evenodd" stroke="#9d9698" stroke-width="0.62500000" stroke-opacity="1.0000000"/>
          <path d="M 120.8,277.8 C 122.6,275.8 125.8,274.4 128.7,274.4" id="path753" font-size="12.000000" fill="none" fill-rule="evenodd" stroke="#9d9698" stroke-width="0.62500000" stroke-opacity="1.0000000"/>
          <path d="M 121.9,280.1 C 123.7,278.0 126.8,276.7 129.7,276.7" id="path754" font-size="12.000000" fill="none" fill-rule="evenodd" stroke="#9d9698" stroke-width="0.62500000" stroke-opacity="1.0000000"/>
          <path d="M 122.3,282.3 C 124.1,280.3 127.3,279.0 130.2,279.0" id="path755" font-size="12.000000" fill="none" fill-rule="evenodd" stroke="#9d9698" stroke-width="0.62500000" stroke-opacity="1.0000000"/>
          <path d="M 123.4,284.3 C 125.2,282.3 128.3,281.0 131.2,281.0" id="path756" font-size="12.000000" fill="none" fill-rule="evenodd" stroke="#9d9698" stroke-width="0.62500000" stroke-opacity="1.0000000"/>
          <path d="M 124.1,286.4 C 125.9,284.4 129.1,283.1 132.0,283.1" id="path757" font-size="12.000000" fill="none" fill-rule="evenodd" stroke="#9d9698" stroke-width="0.62500000" stroke-opacity="1.0000000"/>
          <path d="M 110.0,274.7 L 116.2,291.0 C 116.2,291.0 118.9,289.8 120.7,289.2 C 122.5,288.5 124.6,289.0 124.6,289.0 C 124.6,289.0 127.4,287.4 128.8,286.8 C 130.4,286.3 133.3,286.3 133.3,286.3 L 127.1,268.4 C 127.1,268.4 124.7,268.7 122.8,269.4 C 121.3,270.0 119.0,272.1 119.0,272.1 C 117.9,272.0 116.0,271.7 114.1,272.4 C 112.3,273.1 110.7,274.0 110.0,274.7 z " id="path759" fill="none" fill-opacity="1.0000000" fill-rule="evenodd" stroke="#000000" stroke-width="1.0000000pt" stroke-linecap="butt" stroke-linejoin="miter" stroke-opacity="1.0000000"/>
        </g>
      </g>
      <g id="g939">
        <path d="M 108.7,216.5 C 109.5,216.1 118.4,210.6 123.0,206.4 C 127.7,202.1 131.9,196.6 137.0,191.6 C 142.1,186.5 144.6,187.8 147.1,181.8 C 149.7,175.9 148.4,173.5 148.4,167.6 C 150.2,167.6 150.8,169.4 151.8,171.5 C 152.3,172.5 154.5,164.4 154.5,166.8 C 154.4,169.5 154.3,175.6 154.5,175.3 C 155.4,174.0 159.0,165.8 159.0,165.8 C 159.0,165.8 157.3,177.2 157.7,175.9 C 158.1,174.6 162.4,168.7 162.4,168.7 L 162.4,175.9 C 162.4,175.9 165.4,170.8 166.2,167.0 C 167.0,166.6 168.7,172.1 169.6,170.8 C 170.4,169.6 171.3,161.9 172.5,162.8 C 173.8,163.6 174.6,167.4 174.6,167.4 C 174.6,167.4 173.8,142.9 175.1,143.3 C 176.3,143.8 179.3,144.6 179.3,144.6 L 179.3,135.3 C 179.3,135.3 182.7,146.3 183.1,147.6 C 183.5,148.8 182.7,138.7 181.8,136.1 C 181.0,133.6 180.1,128.5 180.1,128.5 C 180.1,128.5 184.5,134.9 185.2,136.1 C 185.2,134.9 181.8,123.9 181.0,123.9 C 180.1,123.9 176.3,128.5 177.2,128.1 C 178.0,127.7 180.1,118.4 181.4,118.4 C 182.7,118.4 185.2,125.1 184.7,124.4 L 182.3,109.9 L 185.6,116.3 C 185.6,116.3 186.5,112.5 185.6,110.3 C 184.8,108.2 184.4,104.8 184.4,104.8 C 184.4,104.8 186.9,108.2 186.5,107.4 C 186.1,106.5 186.5,99.8 186.5,99.8 C 186.5,99.8 188.3,103.7 188.7,104.6 C 189.1,105.4 190.7,107.8 190.7,107.8 L 190.7,104.8 L 192.9,106.7 C 192.9,106.7 188.2,96.4 186.1,96.0 C 183.9,95.5 181.0,99.3 181.0,99.3 C 181.0,99.3 184.8,92.6 186.1,92.6 C 187.3,92.6 187.8,92.6 187.8,92.6 L 186.5,85.4 C 186.5,85.4 194.9,97.2 194.5,95.5 C 194.1,93.8 190.7,85.8 190.3,82.9 C 189.9,79.9 188.6,74.8 188.6,74.8 C 188.6,74.8 191.6,79.0 192.4,80.3 C 193.2,81.6 195.8,86.7 195.8,85.8 C 195.8,85.0 195.4,75.2 195.4,75.2 L 199.6,84.5 L 203.4,73.5 L 205.5,84.1 C 205.5,84.1 207.2,79.0 207.6,76.9 C 208.1,74.8 209.3,74.8 209.3,74.8 C 209.3,74.8 208.9,83.7 208.9,84.5 C 208.9,85.4 208.1,90.0 208.1,90.0 C 208.1,90.0 211.9,82.0 212.7,80.3 C 213.6,78.6 216.9,77.4 216.9,77.4 C 216.9,77.4 215.2,81.2 214.8,82.4 C 214.4,83.7 209.7,93.4 210.6,93.4 C 211.4,93.4 214.8,88.4 216.9,88.4 C 219.1,88.4 222.9,93.8 222.0,94.3 C 221.2,94.7 217.8,92.6 216.5,92.6 C 215.2,92.6 205.1,104.0 206.8,103.6 C 208.5,103.2 214.4,96.7 214.4,96.7 C 214.4,96.7 212.3,101.9 213.1,101.5 C 214.0,101.0 220.3,97.2 220.3,97.2 C 220.3,97.2 211.0,105.7 212.3,105.7 C 213.6,105.7 218.6,103.2 218.6,103.2 L 212.3,111.2 C 212.3,111.2 217.5,107.7 219.3,107.7 C 221.1,107.7 224.6,109.1 224.6,109.1 C 224.6,109.1 218.2,109.5 217.4,109.9 C 216.5,110.3 210.2,119.7 211.9,118.8 C 213.6,118.0 216.9,114.2 216.9,114.2 L 214.8,119.7 L 223.7,114.2 L 211.4,127.3 C 211.4,127.3 219.9,120.5 221.2,120.9 C 222.4,121.3 228.4,128.1 228.4,128.1 C 228.4,128.1 220.7,124.3 219.9,124.3 C 219.1,124.3 207.6,139.1 209.3,138.3 C 211.0,137.4 216.9,134.0 218.6,134.0 C 220.3,134.0 223.3,141.6 222.4,141.6 C 221.6,141.6 217.8,139.5 216.9,139.5 C 216.1,139.5 206.4,145.5 206.4,145.5 C 206.4,145.5 213.6,144.2 215.7,143.8 C 217.8,143.3 222.0,143.8 223.7,142.9 C 225.4,142.1 230.0,140.4 230.0,140.4 C 230.0,140.4 225.2,143.5 222.6,145.7 C 220.1,147.8 215.7,148.4 215.7,148.4 L 223.7,149.3 C 223.7,149.3 212.7,152.7 210.0,153.8 C 207.5,154.9 205.7,155.9 203.9,156.8 C 205.2,156.8 211.4,156.5 213.1,156.5 C 214.8,156.5 222.9,157.7 222.9,157.7 C 222.9,157.7 212.3,159.4 211.0,159.4 C 209.7,159.4 208.1,160.7 208.1,160.7 L 219.5,161.9 L 211.9,163.2 C 211.9,163.2 217.4,165.2 218.6,165.6 C 219.9,166.1 223.7,168.7 223.7,168.7 C 223.7,168.7 214.0,166.6 211.9,166.6 C 209.7,166.6 206.5,167.1 206.5,167.1 C 206.5,167.1 210.2,167.3 212.1,168.4 C 213.6,169.0 214.0,170.0 214.0,170.0 L 208.5,169.6 C 208.5,169.6 212.3,172.5 213.6,172.9 C 214.8,173.4 216.1,174.6 216.1,174.6 L 207.6,173.8 L 214.8,179.3 C 214.8,179.3 207.2,177.6 205.9,177.6 C 204.7,177.6 204.7,177.6 204.7,177.6 C 204.7,177.6 208.5,180.6 209.3,181.8 C 210.2,183.1 211.0,184.8 211.0,184.8 C 211.0,184.8 207.6,183.9 205.9,183.1 C 204.2,182.3 201.3,181.8 201.3,181.8 L 205.1,186.1 L 198.7,184.8 L 202.1,189.9 L 195.8,187.8 C 195.8,187.8 198.7,189.4 198.7,190.7 C 198.7,192.0 197.5,197.9 196.6,197.1 C 195.8,196.2 195.4,192.8 194.5,191.6 C 193.7,190.3 192.4,189.4 192.4,189.4 C 192.4,189.4 190.0,188.3 188.1,188.2 C 188.5,189.0 193.0,192.0 193.7,192.9 L 185.6,192.0 C 185.6,192.0 193.2,195.8 192.0,195.8 C 190.7,195.8 150.1,192.4 147.6,192.4 C 145.0,192.4 132.8,206.8 130.2,208.1 C 127.7,209.3 121.8,216.5 119.2,216.9 C 116.7,217.4 113.3,219.1 113.3,219.1 L 108.7,216.5 z " id="path758" font-size="12.000000" fill="#418b00" fill-rule="evenodd" stroke="#003d00"/>
        <path d="M 148.0,185.0 C 148.0,185.0 153.4,179.3 154.0,177.8 C 154.6,176.3 154.9,175.1 154.9,175.1" id="path764" font-size="12.000000" fill="none" fill-rule="evenodd" stroke="#003d00"/>
        <path d="M 150.7,185.9 C 155.2,182.9 158.0,175.3 158.0,175.3" id="path765" font-size="12.000000" fill="none" fill-rule="evenodd" stroke="#003d00"/>
        <path d="M 158.5,182.9 C 160.6,181.4 162.5,175.6 162.5,175.6" id="path767" font-size="12.000000" fill="none" fill-rule="evenodd" stroke="#003d00"/>
        <path d="M 159.7,186.2 C 167.9,180.3 167.7,169.4 167.7,169.4" id="path768" font-size="12.000000" fill="none" fill-rule="evenodd" stroke="#003d00"/>
        <path d="M 164.7,186.4 C 172.8,177.3 172.7,164.5 172.7,164.5" id="path769" font-size="12.000000" fill="none" fill-rule="evenodd" stroke="#003d00"/>
        <path d="M 167.4,187.6 C 174.3,183.9 174.3,167.0 174.3,165.8 C 174.3,164.6 174.3,164.6 174.3,164.6" id="path770" font-size="12.000000" fill="none" fill-rule="evenodd" stroke="#003d00"/>
        <path d="M 178.7,176.7 C 178.5,166.9 175.5,159.4 175.5,159.4" id="path771" font-size="12.000000" fill="none" fill-rule="evenodd" stroke="#003d00"/>
        <path d="M 180.9,173.1 C 181.2,161.9 177.0,154.7 177.0,154.7" id="path772" font-size="12.000000" fill="none" fill-rule="evenodd" stroke="#003d00"/>
        <path d="M 181.8,172.4 C 184.3,147.0 178.8,144.7 178.8,144.7" id="path773" font-size="12.000000" fill="none" fill-rule="evenodd" stroke="#003d00"/>
        <path d="M 185.4,161.6 C 186.3,150.9 183.3,147.0 183.3,147.0" id="path774" font-size="12.000000" fill="none" fill-rule="evenodd" stroke="#003d00"/>
        <path d="M 188.8,154.4 C 189.9,146.5 185.1,136.2 185.1,136.2" id="path775" font-size="12.000000" fill="none" fill-rule="evenodd" stroke="#003d00"/>
        <path d="M 189.3,168.4 C 206.6,156.7 207.7,160.7 207.7,160.7" id="path776" font-size="12.000000" fill="none" fill-rule="evenodd" stroke="#003d00"/>
        <path d="M 184.9,177.3 C 204.1,163.9 207.5,167.2 207.5,167.2" id="path777" font-size="12.000000" fill="none" fill-rule="evenodd" stroke="#003d00"/>
        <path d="M 195.1,172.7 C 208.7,171.8 208.1,174.2 208.1,174.2" id="path778" font-size="12.000000" fill="none" fill-rule="evenodd" stroke="#003d00"/>
        <path d="M 190.5,179.6 C 201.2,178.8 201.2,182.0 201.2,182.0" id="path779" font-size="12.000000" fill="none" fill-rule="evenodd" stroke="#003d00"/>
        <path d="M 195.4,144.1 C 208.6,128.7 211.1,127.8 211.1,127.8" id="path785" font-size="12.000000" fill="none" fill-rule="evenodd" stroke="#003d00"/>
        <path d="M 195.0,147.9 C 208.3,138.9 209.8,137.7 209.8,137.7" id="path788" font-size="12.000000" fill="none" fill-rule="evenodd" stroke="#003d00"/>
        <path d="M 193.6,155.2 C 203.3,145.5 207.5,145.0 207.5,145.0" id="path789" font-size="12.000000" fill="none" fill-rule="evenodd" stroke="#003d00"/>
        <path d="M 193.6,159.4 C 210.4,145.9 217.4,148.6 217.4,148.6" id="path790" font-size="12.000000" fill="none" fill-rule="evenodd" stroke="#003d00"/>
        <path d="M 191.2,163.4 C 200.0,157.6 203.2,157.6 205.0,156.8" id="path791" font-size="12.000000" fill="none" fill-rule="evenodd" stroke="#003d00"/>
        <path d="M 200.6,108.5 C 197.5,92.5 195.6,86.0 195.6,86.0" id="path792" font-size="12.000000" fill="none" fill-rule="evenodd" stroke="#003d00"/>
        <path d="M 199.3,84.5 C 202.6,89.5 203.6,98.8 203.5,100.3 C 203.3,101.8 201.5,108.8 201.5,108.8" id="path793" font-size="12.000000" fill="none" fill-rule="evenodd" stroke="#003d00"/>
        <path d="M 204.4,81.3 C 203.8,89.7 204.8,91.8 204.8,91.8" id="path794" font-size="12.000000" fill="none" fill-rule="evenodd" stroke="#003d00"/>
        <path d="M 204.1,100.3 C 206.2,96.6 208.6,88.8 208.6,88.8" id="path795" font-size="12.000000" fill="none" fill-rule="evenodd" stroke="#003d00"/>
        <path d="M 210.5,93.1 C 207.2,102.0 200.8,116.8 200.6,117.7 C 200.5,118.6 200.5,118.6 200.5,118.6" id="path796" font-size="12.000000" fill="none" fill-rule="evenodd" stroke="#003d00"/>
        <path d="M 199.6,127.4 C 209.3,107.6 212.5,105.1 212.5,105.1" id="path798" font-size="12.000000" fill="none" fill-rule="evenodd" stroke="#003d00"/>
        <path d="M 200.0,130.4 C 211.3,114.4 212.8,110.6 212.8,110.6" id="path799" font-size="12.000000" fill="none" fill-rule="evenodd" stroke="#003d00"/>
        <path d="M 198.1,137.5 C 210.8,120.9 215.6,119.3 215.6,119.3" id="path800" font-size="12.000000" fill="none" fill-rule="evenodd" stroke="#003d00"/>
        <path d="M 191.7,146.5 C 190.2,131.9 184.5,123.9 184.5,123.9" id="path801" font-size="12.000000" fill="none" fill-rule="evenodd" stroke="#003d00"/>
        <path d="M 185.5,116.3 C 191.8,126.5 192.7,138.9 192.7,138.9" id="path802" font-size="12.000000" fill="none" fill-rule="evenodd" stroke="#003d00"/>
        <path d="M 186.4,107.2 C 196.2,123.5 194.1,133.1 194.1,133.1" id="path803" font-size="12.000000" fill="none" fill-rule="evenodd" stroke="#003d00"/>
        <path d="M 190.6,107.8 C 199.4,125.0 195.7,137.8 195.7,137.8" id="path804" font-size="12.000000" fill="none" fill-rule="evenodd" stroke="#003d00"/>
        <path d="M 193.3,107.0 C 198.2,119.9 197.9,125.9 197.9,125.9" id="path805" font-size="12.000000" fill="none" fill-rule="evenodd" stroke="#003d00"/>
        <path d="M 187.5,92.4 C 202.1,106.4 199.0,114.1 199.0,114.1" id="path806" font-size="12.000000" fill="none" fill-rule="evenodd" stroke="#003d00"/>
        <path d="M 183.9,171.3 C 189.0,159.2 189.6,157.3 189.6,157.3 L 189.6,157.3 C 189.6,157.3 188.4,164.2 188.2,166.3 C 188.1,168.4 186.1,173.7 186.1,173.7" id="path807" font-size="12.000000" fill="none" fill-rule="evenodd" stroke="#003d00"/>
        <path d="M 173.6,182.4 C 183.7,180.5 194.5,187.2 194.5,187.2" id="path808" font-size="12.000000" fill="none" fill-rule="evenodd" stroke="#003d00"/>
        <path d="M 172.2,185.9 C 182.8,186.7 188.7,188.2 188.7,188.2" id="path809" font-size="12.000000" fill="none" fill-rule="evenodd" stroke="#003d00"/>
        <path d="M 176.6,177.9 C 182.1,178.2 198.4,184.7 198.4,184.7" id="path810" font-size="12.000000" fill="none" fill-rule="evenodd" stroke="#003d00"/>
        <path d="M 152.4,170.8 C 152.4,170.8 152.6,174.6 151.8,176.8 C 151.0,178.9 150.5,179.5 150.5,179.5" id="path938" fill="none" fill-opacity="1.0000000" fill-rule="evenodd" stroke="#003e00" stroke-width="1.0000000" stroke-linecap="butt" stroke-linejoin="miter" stroke-opacity="1.0000000"/>
      </g>
      <g id="g1059">
        <path d="M 144.9,219.6 C 131.1,212.5 116.3,193.0 113.0,192.1 C 109.8,191.3 76.1,197.2 76.4,196.2 C 76.7,195.3 77.3,190.2 78.9,187.7 C 80.5,185.2 84.6,182.7 84.0,182.7 C 83.3,182.7 74.8,183.0 74.8,183.0 C 74.8,183.0 71.0,187.7 69.4,188.3 C 67.9,189.0 60.9,189.6 59.3,190.6 C 57.8,191.5 54.9,194.3 54.9,194.3 C 54.9,194.3 54.3,190.9 54.3,189.9 C 54.3,189.0 55.5,187.1 55.5,187.1 C 55.5,187.1 47.7,187.4 48.6,187.1 C 49.5,186.8 49.9,184.6 51.1,183.0 C 52.4,181.4 54.0,179.5 56.2,178.9 C 58.4,178.2 60.6,177.6 60.6,177.6 L 56.8,175.7 C 56.8,175.7 60.6,173.8 61.5,173.8 C 62.5,173.8 66.3,172.9 66.3,172.9 C 66.3,172.9 63.4,169.7 63.4,168.4 C 63.4,167.2 60.6,173.2 58.4,173.8 C 56.2,174.4 51.8,175.1 49.5,175.1 C 47.3,175.1 44.2,178.5 44.2,178.5 C 44.2,178.5 43.2,175.1 43.5,173.8 C 43.9,172.5 45.1,171.9 45.1,171.9 L 41.6,172.2 C 41.6,172.2 42.6,167.5 42.9,166.9 C 43.2,166.2 44.8,163.4 44.8,163.4 C 44.8,163.4 42.3,161.5 41.6,160.2 C 41.0,159.0 40.1,155.8 40.1,155.8 C 40.1,155.8 45.1,155.8 46.7,155.8 C 48.3,155.8 52.4,157.7 52.4,157.7 C 52.4,157.7 50.8,155.2 50.8,154.2 C 50.8,153.3 49.5,151.1 50.2,151.1 C 50.8,151.1 55.2,153.9 55.2,153.9 C 55.2,153.9 54.0,147.9 52.1,146.6 C 50.2,145.4 41.6,143.8 40.1,141.6 C 38.5,139.4 36.3,131.5 35.6,129.6 C 35.0,127.7 33.1,126.7 33.1,126.7 L 38.2,126.7 C 38.2,126.7 37.5,123.6 37.2,121.7 C 36.9,119.8 37.9,116.9 37.9,116.9 C 37.9,116.9 40.1,120.7 41.3,120.7 C 42.6,120.7 44.5,123.0 44.5,123.0 L 44.8,120.7 L 48.6,125.8 C 48.6,125.8 48.9,122.3 49.5,121.7 C 50.2,121.1 51.8,120.4 51.8,120.4 C 51.8,120.4 52.1,122.6 52.4,123.3 C 52.7,123.9 54.6,128.6 54.6,129.6 C 54.6,130.5 54.0,141.0 54.0,141.9 C 54.0,142.9 57.8,150.1 57.8,150.1 C 57.8,150.1 57.8,144.4 57.8,142.5 C 57.8,140.6 55.5,136.5 55.9,135.0 C 56.2,133.4 56.5,130.8 56.5,130.8 C 56.5,130.8 58.4,134.3 59.0,134.6 C 59.7,135.0 61.5,138.4 61.5,138.4 L 63.8,134.3 C 63.8,134.3 58.4,129.9 57.8,128.0 C 57.1,126.1 56.5,122.0 56.5,122.0 C 56.5,122.0 52.7,120.1 51.4,118.8 C 50.2,117.6 45.1,108.7 45.1,108.7 L 47.0,108.7 C 47.0,108.7 45.1,104.6 45.1,102.7 C 45.1,100.8 45.4,97.0 45.4,97.0 C 45.4,97.0 47.3,98.6 47.7,99.3 C 48.0,99.9 50.5,100.2 50.5,100.2 C 50.5,100.2 46.7,91.7 46.7,88.2 C 46.7,84.7 51.8,78.1 51.8,78.1 L 54.3,82.2 L 59.3,74.6 C 59.3,74.6 61.5,78.1 61.5,79.0 C 61.5,80.0 61.5,83.1 61.5,83.1 C 61.5,83.1 64.7,83.5 65.3,83.5 C 66.0,83.5 67.6,84.7 67.6,84.7 C 67.6,84.7 65.0,85.7 64.1,86.6 C 63.1,87.6 62.2,91.7 61.2,92.0 C 60.3,92.3 56.2,95.2 55.2,96.1 C 54.3,97.0 53.3,102.7 53.3,102.7 C 53.3,102.7 56.5,107.2 56.8,108.7 C 57.1,110.3 57.4,114.4 57.4,114.4 C 57.4,114.4 59.0,116.3 60.3,116.0 C 61.5,115.7 62.8,113.8 62.5,112.5 C 62.2,111.3 58.7,108.1 58.4,106.5 C 58.1,104.9 58.7,94.5 58.7,94.5 L 63.8,97.4 C 63.8,97.4 66.6,94.5 67.2,92.9 C 67.9,91.4 68.8,86.9 68.8,86.9 L 71.0,93.6 C 71.0,93.6 72.6,90.7 74.2,90.1 C 75.8,89.5 78.9,87.6 78.9,87.6 C 78.9,87.6 77.7,91.4 77.7,92.0 C 77.7,92.6 78.0,103.7 77.3,104.9 C 76.7,106.2 68.5,114.1 67.9,114.7 C 67.2,115.4 67.2,120.1 67.2,120.1 L 73.2,114.7 C 73.2,114.7 73.9,117.6 74.2,119.2 C 74.5,120.7 74.5,122.3 74.5,122.3 C 74.5,122.3 77.7,121.4 78.6,120.7 C 79.6,120.1 81.5,121.4 81.5,121.4 C 81.5,121.4 80.5,123.9 79.9,124.5 C 79.2,125.2 77.0,131.2 76.1,132.1 C 75.1,133.1 69.4,135.3 68.8,136.2 C 68.2,137.2 63.4,142.5 62.2,144.4 C 60.9,146.3 60.9,150.1 60.9,150.1 C 60.9,150.1 62.8,144.4 64.4,143.2 C 66.0,141.9 69.8,137.5 69.8,137.5 L 70.7,142.2 C 70.7,142.2 74.2,139.7 75.4,139.4 C 76.7,139.1 83.3,137.5 83.3,137.5 C 83.3,137.5 78.9,141.3 78.9,142.2 C 78.9,143.2 78.3,148.2 76.7,149.5 C 75.1,150.7 67.6,155.5 66.9,155.8 C 66.3,156.1 65.7,158.6 65.7,159.6 C 65.7,160.5 66.6,161.8 66.6,161.8 C 66.6,161.8 67.6,159.6 68.8,158.3 C 70.1,157.1 69.8,154.2 69.8,154.2 C 69.8,154.2 72.6,157.1 72.9,158.3 C 73.2,159.6 73.6,166.2 73.2,167.8 C 72.9,169.4 72.6,173.2 73.2,174.1 C 73.9,175.1 76.7,178.2 77.3,178.2 C 78.0,178.2 73.6,170.0 74.2,166.2 C 74.8,162.4 77.3,159.9 78.0,158.0 C 78.6,156.1 78.8,154.2 78.8,154.2 C 78.8,154.2 81.6,157.5 82.1,159.0 C 83.0,157.7 83.9,156.8 85.2,156.1 C 85.8,156.9 87.9,162.7 88.3,164.3 C 89.4,162.6 90.8,160.7 92.0,159.5 C 93.2,161.3 94.9,166.0 94.5,168.2 C 93.6,171.1 92.2,173.5 90.3,174.8 C 88.4,176.0 86.8,176.7 86.8,176.7 C 86.8,176.7 91.2,178.2 92.5,178.2 C 93.8,178.2 95.7,179.2 95.7,179.2 L 88.7,181.4 C 88.7,181.4 97.2,182.3 97.2,181.7 C 97.2,181.1 97.2,177.6 96.3,175.7 C 95.4,173.8 95.0,171.6 95.0,171.6 C 95.0,171.6 97.9,172.5 99.1,172.5 C 100.4,172.5 102.6,172.9 102.6,172.2 C 102.6,171.6 100.1,166.5 100.7,166.5 C 101.4,166.5 109.6,174.1 109.6,172.9 C 109.6,171.6 113.1,164.9 113.1,164.9 C 113.1,164.9 116.1,170.7 116.4,171.7 C 116.7,172.6 116.8,175.1 116.8,177.3 C 116.8,179.5 114.6,182.7 114.6,182.7 C 114.6,182.7 119.0,189.6 121.9,192.1 C 124.7,194.7 132.4,205.5 140.5,210.5 C 144.7,213.0 144.9,213.0 148.4,214.9 L 144.9,219.6 z " id="path878" font-size="12.000000" fill="#418b00" fill-rule="evenodd" stroke="#003d00" stroke-width="0.62500000"/>
        <path d="M 44.2,169.7 C 46.4,167.2 48.9,168.1 50.8,167.2 C 52.7,166.2 56.2,164.3 56.2,164.3 L 56.2,164.3" id="path879" font-size="12.000000" fill="none" fill-rule="evenodd" stroke="#003d00" stroke-width="0.62500000"/>
        <path d="M 61.5,160.2 C 57.8,162.8 54.6,168.8 53.0,169.7 C 51.4,170.7 47.3,171.6 47.3,171.6" id="path880" font-size="12.000000" fill="none" fill-rule="evenodd" stroke="#003d00" stroke-width="0.62500000"/>
        <path d="M 48.3,173.2 C 48.3,173.2 53.7,172.9 54.9,171.6 C 56.2,170.3 58.4,168.8 58.4,168.8" id="path881" font-size="12.000000" fill="none" fill-rule="evenodd" stroke="#003d00" stroke-width="0.62500000"/>
        <path d="M 70.7,159.9 C 70.7,160.9 70.7,165.6 70.7,165.6" id="path882" font-size="12.000000" fill="none" fill-rule="evenodd" stroke="#003d00" stroke-width="0.62500000"/>
        <path d="M 54.0,184.6 C 59.7,183.9 66.9,182.0 66.3,182.0" id="path883" font-size="12.000000" fill="none" fill-rule="evenodd" stroke="#003d00" stroke-width="0.62500000"/>
        <path d="M 59.0,188.0 C 65.3,188.3 71.3,181.7 71.3,181.7" id="path884" font-size="12.000000" fill="none" fill-rule="evenodd" stroke="#003d00" stroke-width="0.62500000"/>
        <path d="M 61.2,178.5 C 68.8,183.0 86.5,180.1 86.5,180.1" id="path885" font-size="12.000000" fill="none" fill-rule="evenodd" stroke="#003d00" stroke-width="0.62500000"/>
        <path d="M 81.8,164.0 C 81.1,176.3 80.5,176.3 80.5,176.3" id="path886" font-size="12.000000" fill="none" fill-rule="evenodd" stroke="#003d00" stroke-width="0.62500000"/>
        <path d="M 78.0,170.7 C 78.3,167.2 78.6,165.9 78.6,165.9" id="path887" font-size="12.000000" fill="none" fill-rule="evenodd" stroke="#003d00" stroke-width="0.62500000"/>
        <path d="M 79.6,159.6 C 79.6,160.2 79.2,164.0 79.2,164.0" id="path888" font-size="12.000000" fill="none" fill-rule="evenodd" stroke="#003d00" stroke-width="0.62500000"/>
        <path d="M 84.9,174.1 C 86.5,171.0 86.5,168.1 86.5,168.1" id="path889" font-size="12.000000" fill="none" fill-rule="evenodd" stroke="#003d00" stroke-width="0.62500000"/>
        <path d="M 84.6,166.5 C 84.3,168.8 84.3,168.8 84.3,168.8" id="path890" font-size="12.000000" fill="none" fill-rule="evenodd" stroke="#003d00" stroke-width="0.62500000"/>
        <path d="M 90.0,168.8 C 88.7,171.9 88.1,171.9 88.1,171.9" id="path891" font-size="12.000000" fill="none" fill-rule="evenodd" stroke="#003d00" stroke-width="0.62500000"/>
        <path d="M 96.0,172.9 C 99.8,174.8 105.8,180.8 105.8,180.8" id="path892" font-size="12.000000" fill="none" fill-rule="evenodd" stroke="#003d00" stroke-width="0.62500000"/>
        <path d="M 103.2,172.5 C 106.4,174.4 109.2,178.5 109.2,178.5" id="path893" font-size="12.000000" fill="none" fill-rule="evenodd" stroke="#003d00" stroke-width="0.62500000"/>
        <path d="M 109.6,173.8 C 113.7,178.2 110.5,183.6 110.5,183.6" id="path894" font-size="12.000000" fill="none" fill-rule="evenodd" stroke="#003d00" stroke-width="0.62500000"/>
        <path d="M 114.0,170.0 L 113.0,177.6" id="path895" font-size="12.000000" fill="none" fill-rule="evenodd" stroke="#003d00" stroke-width="0.62500000"/>
        <path d="M 34.4,128.0 C 38.8,129.3 39.8,132.1 40.7,133.4 C 41.6,134.6 41.0,136.5 42.3,138.1 C 43.5,139.7 45.8,141.6 45.8,141.6" id="path896" font-size="12.000000" fill="none" fill-rule="evenodd" stroke="#003d00" stroke-width="0.62500000"/>
        <path d="M 38.2,127.4 C 46.4,128.0 43.9,134.6 44.5,135.6 C 45.1,136.5 46.4,140.6 47.7,141.3 C 48.9,141.9 49.2,141.3 50.2,142.5 C 51.1,143.8 52.4,146.6 52.4,146.6" id="path897" font-size="12.000000" fill="none" fill-rule="evenodd" stroke="#003d00" stroke-width="0.62500000"/>
        <path d="M 37.9,121.1 C 37.9,121.1 38.5,121.4 40.4,123.6 C 42.3,125.8 41.6,127.7 41.6,127.7" id="path898" font-size="12.000000" fill="none" fill-rule="evenodd" stroke="#003d00" stroke-width="0.62500000"/>
        <path d="M 46.4,124.5 C 44.8,129.0 47.7,134.0 47.7,134.0" id="path899" font-size="12.000000" fill="none" fill-rule="evenodd" stroke="#003d00" stroke-width="0.62500000"/>
        <path d="M 48.9,126.1 C 52.7,129.0 49.9,134.6 49.9,134.6" id="path900" font-size="12.000000" fill="none" fill-rule="evenodd" stroke="#003d00" stroke-width="0.62500000"/>
        <path d="M 49.5,137.5 L 49.2,142.2" id="path901" font-size="12.000000" fill="none" fill-rule="evenodd" stroke="#003d00" stroke-width="0.62500000"/>
        <path d="M 59.7,123.6 C 62.2,124.8 62.5,128.3 62.5,128.3" id="path902" font-size="12.000000" fill="none" fill-rule="evenodd" stroke="#003d00" stroke-width="0.62500000"/>
        <path d="M 69.4,138.7 C 69.4,138.7 67.2,145.1 65.7,147.3 C 64.1,149.5 64.1,149.8 64.1,149.8" id="path903" font-size="12.000000" fill="none" fill-rule="evenodd" stroke="#003d00" stroke-width="0.62500000"/>
        <path d="M 63.4,156.4 C 65.7,148.9 69.4,147.6 69.4,147.6" id="path904" font-size="12.000000" fill="none" fill-rule="evenodd" stroke="#003d00" stroke-width="0.62500000"/>
        <path d="M 67.2,150.4 C 73.9,147.9 78.9,139.7 78.9,139.7" id="path905" font-size="12.000000" fill="none" fill-rule="evenodd" stroke="#003d00" stroke-width="0.62500000"/>
        <path d="M 44.8,164.6 C 51.8,160.5 51.8,162.8 54.9,161.8 C 58.1,160.9 59.7,158.6 59.7,158.6" id="path906" font-size="12.000000" fill="none" fill-rule="evenodd" stroke="#003d00" stroke-width="0.62500000"/>
        <path d="M 41.0,158.0 C 45.4,157.1 52.1,160.9 52.1,160.9" id="path907" font-size="12.000000" fill="none" fill-rule="evenodd" stroke="#003d00" stroke-width="0.62500000"/>
        <path d="M 50.8,153.3 C 56.5,153.9 57.8,158.6 57.8,158.6" id="path908" font-size="12.000000" fill="none" fill-rule="evenodd" stroke="#003d00" stroke-width="0.62500000"/>
        <path d="M 58.1,176.7 C 69.1,175.7 69.4,177.6 69.4,177.6" id="path909" font-size="12.000000" fill="none" fill-rule="evenodd" stroke="#003d00" stroke-width="0.62500000"/>
        <path d="M 66.6,167.2 C 66.3,163.1 66.3,162.1 66.3,162.1" id="path910" font-size="12.000000" fill="none" fill-rule="evenodd" stroke="#003d00" stroke-width="0.62500000"/>
        <path d="M 63.8,141.3 C 68.5,132.7 73.6,127.7 73.6,127.7" id="path911" font-size="12.000000" fill="none" fill-rule="evenodd" stroke="#003d00" stroke-width="0.62500000"/>
        <path d="M 72.9,130.8 C 75.4,129.0 80.5,121.4 80.5,121.4" id="path912" font-size="12.000000" fill="none" fill-rule="evenodd" stroke="#003d00" stroke-width="0.62500000"/>
        <path d="M 65.7,130.5 C 65.0,119.5 63.8,118.2 65.7,114.7 C 67.6,111.3 71.7,108.7 72.3,106.8 C 72.9,104.9 74.5,101.8 74.5,98.0 C 74.5,94.2 77.7,91.0 77.7,91.0" id="path913" font-size="12.000000" fill="none" fill-rule="evenodd" stroke="#003d00" stroke-width="0.62500000"/>
        <path d="M 71.3,93.9 C 74.2,106.5 64.4,111.3 63.8,113.8 C 63.1,116.3 65.0,123.9 65.0,123.9" id="path914" font-size="12.000000" fill="none" fill-rule="evenodd" stroke="#003d00" stroke-width="0.62500000"/>
        <path d="M 45.4,109.4 C 51.1,113.5 55.5,117.9 55.5,117.9" id="path915" font-size="12.000000" fill="none" fill-rule="evenodd" stroke="#003d00" stroke-width="0.62500000"/>
        <path d="M 47.7,109.7 C 48.6,109.7 51.1,111.6 53.0,112.2 C 54.9,112.8 57.4,114.1 57.4,114.1" id="path916" font-size="12.000000" fill="none" fill-rule="evenodd" stroke="#003d00" stroke-width="0.62500000"/>
        <path d="M 45.8,98.3 C 46.4,102.7 51.4,105.3 52.7,107.2 C 54.0,109.1 53.7,110.6 53.7,110.6" id="path917" font-size="12.000000" fill="none" fill-rule="evenodd" stroke="#003d00" stroke-width="0.62500000"/>
        <path d="M 63.8,168.8 L 63.8,164.3" id="path918" font-size="12.000000" fill="none" fill-rule="evenodd" stroke="#003d00" stroke-width="0.62500000"/>
        <path d="M 63.1,109.1 C 62.8,104.0 63.8,97.4 63.8,97.4" id="path919" font-size="12.000000" fill="none" fill-rule="evenodd" stroke="#003d00" stroke-width="0.62500000"/>
        <path d="M 68.5,95.5 C 68.5,101.8 66.0,107.2 66.0,107.2" id="path920" font-size="12.000000" fill="none" fill-rule="evenodd" stroke="#003d00" stroke-width="0.62500000"/>
        <path d="M 63.1,106.8 C 61.5,103.0 61.9,102.4 61.2,99.9 C 60.6,97.4 60.0,96.7 60.0,96.7" id="path921" font-size="12.000000" fill="none" fill-rule="evenodd" stroke="#003d00" stroke-width="0.62500000"/>
        <path d="M 53.0,100.2 C 53.3,91.0 56.5,90.1 55.9,87.3 C 55.2,84.4 54.6,82.8 54.6,82.8" id="path922" font-size="12.000000" fill="none" fill-rule="evenodd" stroke="#003d00" stroke-width="0.62500000"/>
        <path d="M 61.9,83.1 C 58.4,84.7 55.9,88.8 55.9,88.8" id="path923" font-size="12.000000" fill="none" fill-rule="evenodd" stroke="#003d00" stroke-width="0.62500000"/>
        <path d="M 54.6,95.8 C 56.5,91.4 58.4,88.5 60.3,86.9 C 62.2,85.4 64.7,86.0 64.7,86.0" id="path924" font-size="12.000000" fill="none" fill-rule="evenodd" stroke="#003d00" stroke-width="0.62500000"/>
        <path d="M 51.4,83.1 C 51.1,86.0 52.4,89.1 52.4,89.1" id="path925" font-size="12.000000" fill="none" fill-rule="evenodd" stroke="#003d00" stroke-width="0.62500000"/>
        <path d="M 55.5,86.3 C 58.1,82.2 58.7,75.9 58.7,75.9" id="path926" font-size="12.000000" fill="none" fill-rule="evenodd" stroke="#003d00" stroke-width="0.62500000"/>
        <path d="M 68.8,130.8 C 69.4,124.2 73.2,116.3 73.2,116.3" id="path927" font-size="12.000000" fill="none" fill-rule="evenodd" stroke="#003d00" stroke-width="0.62500000"/>
        <path d="M 53.1 99.5 A 2.0 2.3 0 1 0 49.1,99.5 A 2.0 2.3 0 1 0 53.1 99.5 z" id="path928" font-size="12.000000" fill="#dd200f" fill-rule="evenodd" stroke="#003d00" stroke-width="0.62500000"/>
        <path d="M 53.1 99.5 A 2.0 2.3 0 1 0 49.1,99.5 A 2.0 2.3 0 1 0 53.1 99.5 z" id="path929" transform="translate(3.350568,3.350571)" font-size="12.000000" fill="#dd200f" fill-rule="evenodd" stroke="#003d00" stroke-width="0.62500000"/>
        <path d="M 53.1 99.5 A 2.0 2.3 0 1 0 49.1,99.5 A 2.0 2.3 0 1 0 53.1 99.5 z" id="path930" transform="translate(10.94519,20.10335)" font-size="12.000000" fill="#dd200f" fill-rule="evenodd" stroke="#003d00" stroke-width="0.62500000"/>
        <path d="M 53.1 99.5 A 2.0 2.3 0 1 0 49.1,99.5 A 2.0 2.3 0 1 0 53.1 99.5 z" id="path931" transform="translate(14.96586,22.56039)" font-size="12.000000" fill="#dd200f" fill-rule="evenodd" stroke="#003d00" stroke-width="0.62500000"/>
        <path d="M 53.1 99.5 A 2.0 2.3 0 1 0 49.1,99.5 A 2.0 2.3 0 1 0 53.1 99.5 z" id="path932" transform="translate(0.223370,47.13124)" font-size="12.000000" fill="#dd200f" fill-rule="evenodd" stroke="#003d00" stroke-width="0.62500000"/>
        <path d="M 53.1 99.5 A 2.0 2.3 0 1 0 49.1,99.5 A 2.0 2.3 0 1 0 53.1 99.5 z" id="path933" transform="translate(10.05170,52.26880)" font-size="12.000000" fill="#dd200f" fill-rule="evenodd" stroke="#003d00" stroke-width="0.62500000"/>
        <path d="M 53.1 99.5 A 2.0 2.3 0 1 0 49.1,99.5 A 2.0 2.3 0 1 0 53.1 99.5 z" id="path934" transform="translate(15.85935,72.37225)" font-size="12.000000" fill="#dd200f" fill-rule="evenodd" stroke="#003d00" stroke-width="0.62500000"/>
        <path d="M 53.1 99.5 A 2.0 2.3 0 1 0 49.1,99.5 A 2.0 2.3 0 1 0 53.1 99.5 z" id="path935" transform="translate(26.35779,77.95644)" font-size="12.000000" fill="#dd200f" fill-rule="evenodd" stroke="#003d00" stroke-width="0.62500000"/>
        <path d="M 53.1 99.5 A 2.0 2.3 0 1 0 49.1,99.5 A 2.0 2.3 0 1 0 53.1 99.5 z" id="path936" transform="translate(31.71870,77.73312)" font-size="12.000000" fill="#dd200f" fill-rule="evenodd" stroke="#003d00" stroke-width="0.62500000"/>
        <path d="M 53.1 99.5 A 2.0 2.3 0 1 0 49.1,99.5 A 2.0 2.3 0 1 0 53.1 99.5 z" id="path937" transform="translate(48.24817,81.53043)" font-size="12.000000" fill="#dd200f" fill-rule="evenodd" stroke="#003d00" stroke-width="0.62500000"/>
      </g>
      <g id="g1384">
        <g id="g1194" font-size="12.000000" stroke="#000000" stroke-width="1.0000000" stroke-opacity="1.0000000">
          <g id="g1180" transform="matrix(-1.000000,0.000000,0.000000,1.000000,258.4488,-3.051758e-5)">
            <g id="g1181">
              <path d="M 39.9,213.5 C 42.5,209.3 44.2,208.9 44.2,208.9" id="path1182" fill="none" fill-opacity="1.0000000" fill-rule="evenodd" stroke-linecap="butt" stroke-linejoin="miter"/>
              <path d="M 40.8,215.0 C 43.3,210.8 45.0,210.4 45.0,210.4" id="path1183" fill="none" fill-opacity="1.0000000" fill-rule="evenodd" stroke-linecap="butt" stroke-linejoin="miter"/>
              <path d="M 42.0,216.3 C 44.6,212.1 46.3,211.6 46.3,211.6" id="path1184" fill="none" fill-opacity="1.0000000" fill-rule="evenodd" stroke-linecap="butt" stroke-linejoin="miter"/>
              <path d="M 42.9,217.8 C 45.4,213.5 47.1,213.1 47.1,213.1" id="path1185" fill="none" fill-opacity="1.0000000" fill-rule="evenodd" stroke-linecap="butt" stroke-linejoin="miter"/>
              <path d="M 44.2,218.8 C 46.7,214.6 48.4,214.2 48.4,214.2" id="path1186" fill="none" fill-opacity="1.0000000" fill-rule="evenodd" stroke-linecap="butt" stroke-linejoin="miter"/>
              <path d="M 45.0,220.3 C 47.5,216.1 49.2,215.7 49.2,215.7" id="path1187" fill="none" fill-opacity="1.0000000" fill-rule="evenodd" stroke-linecap="butt" stroke-linejoin="miter"/>
              <path d="M 46.3,221.4 C 48.8,217.1 50.5,216.7 50.5,216.7" id="path1188" fill="none" fill-opacity="1.0000000" fill-rule="evenodd" stroke-linecap="butt" stroke-linejoin="miter"/>
              <path d="M 47.1,222.9 C 49.6,218.6 51.3,218.2 51.3,218.2" id="path1189" fill="none" fill-opacity="1.0000000" fill-rule="evenodd" stroke-linecap="butt" stroke-linejoin="miter"/>
              <path d="M 48.2,223.9 C 50.7,219.7 52.4,219.3 52.4,219.3" id="path1190" fill="none" fill-opacity="1.0000000" fill-rule="evenodd" stroke-linecap="butt" stroke-linejoin="miter"/>
            </g>
            <path d="M 42.7,210.0 C 48.8,203.8 56.4,205.9 59.8,205.5 C 61.8,203.6 66.0,201.3 69.2,202.7 C 72.3,204.0 74.2,210.9 74.2,211.9 C 74.2,213.8 70.8,215.2 68.0,215.5 C 65.3,215.7 59.0,215.7 56.8,215.9 C 54.7,216.1 51.8,219.7 51.8,219.7 C 51.8,219.7 45.6,211.6 42.7,210.0 z " id="path1191" fill="#dc200f" fill-opacity="0.99610001" fill-rule="evenodd" stroke-linecap="butt" stroke-linejoin="miter"/>
            <path d="M 60.4,209.5 C 60.4,206.4 62.5,204.6 64.5,205.1 C 67.2,205.7 77.6,210.3 81.6,210.6 C 85.2,210.8 91.3,207.0 91.3,204.7 C 91.3,202.3 82.4,199.2 82.4,199.2 L 76.3,201.1 C 76.3,201.1 68.5,197.3 63.8,197.3 C 59.2,197.3 56.4,200.2 56.6,202.5 C 56.8,204.9 60.4,210.0 60.4,209.5 z " id="path1192" fill="#dc200f" fill-opacity="0.99610001" fill-rule="evenodd" stroke-linecap="butt" stroke-linejoin="miter"/>
            <path d="M 60.0,208.3 C 60.2,210.4 61.7,211.6 64.9,211.4 C 68.0,211.2 71.2,210.2 72.1,210.2 C 72.9,210.2 74.2,211.6 74.2,211.6" id="path1193" fill="none" fill-opacity="1.0000000" fill-rule="evenodd" stroke-linecap="butt" stroke-linejoin="miter"/>
          </g>
          <g id="g1166">
            <g id="g1155">
              <path d="M 39.9,213.5 C 42.5,209.3 44.2,208.9 44.2,208.9" id="path1145" fill="none" fill-opacity="1.0000000" fill-rule="evenodd" stroke-linecap="butt" stroke-linejoin="miter"/>
              <path d="M 40.8,215.0 C 43.3,210.8 45.0,210.4 45.0,210.4" id="path1146" fill="none" fill-opacity="1.0000000" fill-rule="evenodd" stroke-linecap="butt" stroke-linejoin="miter"/>
              <path d="M 42.0,216.3 C 44.6,212.1 46.3,211.6 46.3,211.6" id="path1147" fill="none" fill-opacity="1.0000000" fill-rule="evenodd" stroke-linecap="butt" stroke-linejoin="miter"/>
              <path d="M 42.9,217.8 C 45.4,213.5 47.1,213.1 47.1,213.1" id="path1148" fill="none" fill-opacity="1.0000000" fill-rule="evenodd" stroke-linecap="butt" stroke-linejoin="miter"/>
              <path d="M 44.2,218.8 C 46.7,214.6 48.4,214.2 48.4,214.2" id="path1149" fill="none" fill-opacity="1.0000000" fill-rule="evenodd" stroke-linecap="butt" stroke-linejoin="miter"/>
              <path d="M 45.0,220.3 C 47.5,216.1 49.2,215.7 49.2,215.7" id="path1150" fill="none" fill-opacity="1.0000000" fill-rule="evenodd" stroke-linecap="butt" stroke-linejoin="miter"/>
              <path d="M 46.3,221.4 C 48.8,217.1 50.5,216.7 50.5,216.7" id="path1151" fill="none" fill-opacity="1.0000000" fill-rule="evenodd" stroke-linecap="butt" stroke-linejoin="miter"/>
              <path d="M 47.1,222.9 C 49.6,218.6 51.3,218.2 51.3,218.2" id="path1152" fill="none" fill-opacity="1.0000000" fill-rule="evenodd" stroke-linecap="butt" stroke-linejoin="miter"/>
              <path d="M 48.2,223.9 C 50.7,219.7 52.4,219.3 52.4,219.3" id="path1153" fill="none" fill-opacity="1.0000000" fill-rule="evenodd" stroke-linecap="butt" stroke-linejoin="miter"/>
            </g>
            <path d="M 42.7,210.0 C 48.8,203.8 56.4,205.9 59.8,205.5 C 61.8,203.6 66.0,201.3 69.2,202.7 C 72.3,204.0 74.2,210.9 74.2,211.9 C 74.2,213.8 70.8,215.2 68.0,215.5 C 65.3,215.7 59.0,215.7 56.8,215.9 C 54.7,216.1 51.8,219.7 51.8,219.7 C 51.8,219.7 45.6,211.6 42.7,210.0 z " id="path1142" fill="#dc200f" fill-opacity="0.99610001" fill-rule="evenodd" stroke-linecap="butt" stroke-linejoin="miter"/>
            <path d="M 60.4,209.5 C 60.4,206.4 62.5,204.6 64.5,205.1 C 67.2,205.7 77.6,210.3 81.6,210.6 C 85.2,210.8 91.3,207.0 91.3,204.7 C 91.3,202.3 82.4,199.2 82.4,199.2 L 76.3,201.1 C 76.3,201.1 68.5,197.3 63.8,197.3 C 59.2,197.3 56.4,200.2 56.6,202.5 C 56.8,204.9 60.4,210.0 60.4,209.5 z " id="path1143" fill="#dc200f" fill-opacity="0.99610001" fill-rule="evenodd" stroke-linecap="butt" stroke-linejoin="miter"/>
            <path d="M 60.0,208.3 C 60.2,210.4 61.7,211.6 64.9,211.4 C 68.0,211.2 71.2,210.2 72.1,210.2 C 72.9,210.2 74.2,211.6 74.2,211.6" id="path1144" fill="none" fill-opacity="1.0000000" fill-rule="evenodd" stroke-linecap="butt" stroke-linejoin="miter"/>
          </g>
          <path d="M 130.0,183.3 C 88.6,182.3 71.6,190.5 71.4,196.4 C 71.2,202.3 76.5,207.0 79.3,207.0 C 82.0,207.0 88.9,203.4 88.7,201.9 C 87.6,201.2 87.4,200.4 88.1,200.0 C 89.0,199.5 104.0,196.4 130.2,196.4 C 156.5,196.4 171.3,199.1 171.5,200.0 C 171.7,201.1 169.5,201.7 168.2,203.2 C 174.0,202.6 175.5,206.4 178.2,206.6 C 181.0,206.8 186.3,202.7 186.5,196.8 C 186.7,190.7 169.1,184.2 130.0,183.3 z " id="path1165" fill="#dd200f" fill-opacity="1.0000000" fill-rule="evenodd" stroke-linecap="butt" stroke-linejoin="miter"/>
        </g>
        <path d="M 85.1,197.6 L 82.9,190.9 L 86.7,189.6 L 87.0,190.4 L 83.8,191.5 L 84.5,193.5 L 87.5,192.5 L 87.7,193.3 L 84.8,194.3 L 85.6,196.6 L 88.8,195.5 L 89.1,196.2 L 85.1,197.6 z " id="path1230" font-size="12.000000" font-weight="normal" fill="#fecd07" font-family="helvetica"/>
        <path d="M 98.3,187.7 L 99.1,187.7 L 99.5,191.9 C 99.6,192.6 99.6,193.2 99.5,193.6 C 99.4,194.1 99.1,194.4 98.8,194.7 C 98.5,195.0 98.0,195.2 97.4,195.2 C 96.9,195.3 96.4,195.2 96.0,195.0 C 95.6,194.8 95.3,194.5 95.1,194.1 C 94.9,193.6 94.8,193.0 94.8,192.2 L 94.4,188.0 L 95.2,188.0 L 95.6,192.2 C 95.6,192.8 95.7,193.3 95.8,193.6 C 95.9,193.9 96.1,194.1 96.4,194.2 C 96.6,194.4 96.9,194.4 97.3,194.4 C 97.9,194.3 98.3,194.1 98.5,193.8 C 98.7,193.5 98.8,192.8 98.7,191.9 L 98.3,187.7 z " id="path1233" font-size="12.000000" font-weight="normal" fill="#fecd07" font-family="helvetica"/>
        <path d="M 106.7,193.9 L 106.7,187.0 L 107.4,187.0 L 107.4,193.1 L 110.3,193.1 L 110.3,193.9 L 106.7,193.9 z " id="path1237" font-size="12.000000" font-weight="normal" fill="#fecd07" font-family="helvetica"/>
        <path d="M 111.7,193.9 L 111.7,186.7 L 112.6,186.7 L 112.6,193.9 L 111.7,193.9 z " id="path1238" font-size="12.000000" font-weight="normal" fill="#fecd07" font-family="helvetica"/>
        <path d="M 117.9,191.5 L 118.6,191.7 C 118.5,192.5 118.2,193.2 117.8,193.6 C 117.5,194.0 117.0,194.2 116.5,194.2 C 115.9,194.2 115.5,194.1 115.2,193.7 C 114.8,193.4 114.6,192.9 114.4,192.3 C 114.2,191.7 114.1,191.0 114.1,190.3 C 114.1,189.5 114.2,188.9 114.4,188.3 C 114.6,187.7 114.9,187.3 115.3,187.0 C 115.6,186.7 116.1,186.5 116.5,186.5 C 117.0,186.5 117.4,186.7 117.8,187.1 C 118.1,187.5 118.4,188.0 118.5,188.7 L 117.8,188.9 C 117.7,188.4 117.6,188.0 117.3,187.7 C 117.1,187.5 116.8,187.4 116.5,187.4 C 116.1,187.4 115.8,187.5 115.5,187.8 C 115.3,188.1 115.1,188.4 115.0,188.9 C 114.9,189.3 114.8,189.8 114.8,190.3 C 114.8,190.9 114.9,191.5 115.0,192.0 C 115.1,192.4 115.3,192.8 115.6,193.0 C 115.8,193.3 116.1,193.4 116.4,193.4 C 116.8,193.4 117.1,193.2 117.4,192.9 C 117.7,192.6 117.8,192.1 117.9,191.5 z " id="path1239" font-size="12.000000" font-weight="normal" fill="#fecd07" font-family="helvetica"/>
        <path d="M 141.0,193.8 L 141.0,187.0 L 142.2,187.0 L 143.6,191.8 C 143.8,192.2 143.9,192.6 143.9,192.8 C 144.0,192.5 144.1,192.2 144.2,191.7 L 145.7,187.0 L 146.8,187.0 L 146.8,193.8 L 146.0,193.8 L 146.0,188.1 L 144.2,193.8 L 143.5,193.8 L 141.7,188.0 L 141.7,193.8 L 141.0,193.8 z " id="path1246" font-size="12.000000" font-weight="normal" fill="#fecd07" font-family="helvetica"/>
        <path d="M 148.0,194.1 L 148.0,187.1 L 148.9,187.1 L 148.9,194.1 L 148.0,194.1 z " id="path1247" font-size="12.000000" font-weight="normal" fill="#fecd07" font-family="helvetica"/>
        <path d="M 150.3,194.2 L 150.3,187.3 L 151.0,187.3 L 153.7,192.7 L 153.7,187.3 L 154.4,187.3 L 154.4,194.2 L 153.7,194.2 L 151.0,188.8 L 151.0,194.2 L 150.3,194.2 z " id="path1248" font-size="12.000000" font-weight="normal" fill="#fecd07" font-family="helvetica"/>
        <path d="M 156.2,194.2 L 156.2,187.6 L 157.1,187.6 L 157.1,194.2 L 156.2,194.2 z " id="path1249" font-size="12.000000" font-weight="normal" fill="#fecd07" font-family="helvetica"/>
        <path d="M 162.3,192.8 L 163.0,193.2 C 162.7,194.0 162.4,194.5 161.9,194.9 C 161.5,195.3 161.0,195.5 160.4,195.4 C 159.8,195.3 159.3,195.1 159.0,194.8 C 158.7,194.4 158.4,193.9 158.3,193.3 C 158.2,192.6 158.1,192.0 158.2,191.3 C 158.3,190.5 158.5,189.8 158.7,189.3 C 159.0,188.7 159.4,188.3 159.8,188.1 C 160.3,187.8 160.7,187.7 161.2,187.8 C 161.8,187.8 162.2,188.1 162.6,188.5 C 162.9,188.9 163.1,189.4 163.2,190.1 L 162.4,190.3 C 162.4,189.7 162.2,189.3 162.0,189.1 C 161.8,188.8 161.5,188.6 161.1,188.6 C 160.7,188.6 160.3,188.7 160.0,188.9 C 159.7,189.1 159.4,189.5 159.3,189.9 C 159.1,190.4 159.0,190.8 159.0,191.3 C 158.9,192.0 158.9,192.5 159.0,193.0 C 159.1,193.5 159.3,193.9 159.5,194.1 C 159.8,194.4 160.1,194.5 160.4,194.6 C 160.9,194.6 161.2,194.5 161.5,194.2 C 161.9,193.9 162.1,193.5 162.3,192.8 z " id="path1250" font-size="12.000000" font-weight="normal" fill="#fecd07" font-family="helvetica"/>
        <path d="M 169.1,197.0 L 170.6,189.7 L 171.3,189.8 L 173.1,196.2 L 174.2,190.5 L 174.9,190.7 L 173.4,198.0 L 172.7,197.8 L 170.9,191.4 L 169.8,197.1 L 169.1,197.0 z " id="path1253" font-size="12.000000" font-weight="normal" fill="#fecd07" font-family="helvetica"/>
        <path d="M 79.8,199.9 L 77.0,193.2 L 79.3,192.2 C 79.8,192.0 80.1,191.9 80.4,191.9 C 80.7,191.9 81.0,192.0 81.3,192.3 C 81.5,192.5 81.7,192.8 81.9,193.2 C 82.1,193.7 82.1,194.1 82.0,194.6 C 81.9,195.0 81.6,195.4 81.2,195.7 C 81.4,195.7 81.6,195.8 81.7,195.8 C 82.0,196.0 82.3,196.2 82.7,196.5 L 84.3,197.9 L 83.5,198.3 L 82.2,197.2 C 81.8,196.9 81.5,196.7 81.3,196.5 C 81.1,196.3 80.9,196.2 80.8,196.2 C 80.7,196.2 80.5,196.1 80.4,196.2 C 80.3,196.2 80.2,196.2 80.0,196.3 L 79.2,196.6 L 80.4,199.6 L 79.8,199.9 z M 78.9,195.9 L 80.4,195.2 C 80.7,195.1 80.9,194.9 81.1,194.8 C 81.2,194.6 81.3,194.4 81.3,194.2 C 81.3,194.0 81.3,193.7 81.2,193.5 C 81.1,193.2 80.9,193.0 80.6,192.9 C 80.3,192.7 80.0,192.7 79.6,192.9 L 78.0,193.6 L 78.9,195.9 z " id="path1258" font-size="12.000000" font-weight="normal" fill="#fecd07" font-family="helvetica"/>
        <path d="M 90.4,196.0 L 88.8,189.0 L 91.0,188.5 C 91.4,188.4 91.7,188.4 91.9,188.4 C 92.2,188.4 92.4,188.5 92.7,188.6 C 92.9,188.7 93.1,188.9 93.3,189.1 C 93.5,189.4 93.6,189.7 93.7,190.1 C 93.8,190.7 93.8,191.2 93.5,191.7 C 93.3,192.2 92.8,192.5 92.0,192.6 L 90.5,193.0 L 91.1,195.8 L 90.4,196.0 z M 90.3,192.1 L 91.8,191.8 C 92.3,191.7 92.6,191.5 92.8,191.3 C 92.9,191.0 93.0,190.7 92.9,190.3 C 92.8,190.0 92.7,189.7 92.5,189.6 C 92.4,189.4 92.2,189.3 92.0,189.2 C 91.8,189.2 91.6,189.3 91.3,189.3 L 89.8,189.6 L 90.3,192.1 z " id="path1261" font-size="12.000000" font-weight="normal" fill="#fecd07" font-family="helvetica"/>
        <path d="M 101.2,194.5 L 100.8,187.4 L 102.8,187.3 C 103.2,187.2 103.6,187.3 103.8,187.4 C 104.1,187.5 104.3,187.8 104.5,188.0 C 104.6,188.3 104.7,188.6 104.7,189.0 C 104.8,189.3 104.7,189.6 104.6,189.8 C 104.5,190.1 104.3,190.3 104.1,190.5 C 104.4,190.6 104.7,190.8 104.9,191.1 C 105.1,191.4 105.2,191.8 105.2,192.2 C 105.2,192.5 105.2,192.8 105.1,193.1 C 105.0,193.4 104.9,193.6 104.7,193.8 C 104.6,194.0 104.4,194.1 104.2,194.2 C 103.9,194.3 103.6,194.4 103.3,194.4 L 101.2,194.5 z M 101.7,190.3 L 102.8,190.3 C 103.2,190.2 103.4,190.2 103.5,190.1 C 103.7,190.1 103.8,189.9 103.9,189.8 C 104.0,189.6 104.1,189.4 104.0,189.1 C 104.0,188.9 104.0,188.7 103.9,188.5 C 103.8,188.3 103.6,188.2 103.5,188.2 C 103.3,188.1 103.0,188.1 102.6,188.1 L 101.5,188.2 L 101.7,190.3 z M 101.9,193.6 L 103.2,193.5 C 103.5,193.5 103.6,193.5 103.7,193.5 C 103.9,193.4 104.0,193.4 104.1,193.3 C 104.2,193.2 104.3,193.0 104.4,192.8 C 104.4,192.7 104.5,192.5 104.5,192.2 C 104.4,192.0 104.4,191.7 104.3,191.6 C 104.1,191.4 104.0,191.2 103.8,191.2 C 103.6,191.1 103.3,191.1 103.0,191.1 L 101.7,191.2 L 101.9,193.6 z " id="path1265" font-size="12.000000" font-weight="normal" fill="#fecd07" font-family="helvetica"/>
        <path d="M 119.4,193.9 L 121.5,186.5 L 122.3,186.5 L 124.6,193.9 L 123.8,193.9 L 123.1,191.7 L 120.8,191.7 L 120.2,193.9 L 119.4,193.9 z M 121.0,190.9 L 122.9,190.9 L 122.3,188.8 C 122.1,188.2 122.0,187.7 121.9,187.3 C 121.9,187.8 121.8,188.2 121.6,188.7 L 121.0,190.9 z " id="path1268" font-size="12.000000" font-weight="normal" fill="#fecd07" font-family="helvetica"/>
        <path d="M 129.0,193.9 L 129.0,186.7 L 131.0,186.7 C 131.4,186.7 131.8,186.7 132.0,186.8 C 132.3,186.9 132.6,187.0 132.8,187.3 C 133.1,187.6 133.4,188.0 133.5,188.5 C 133.7,189.0 133.7,189.6 133.7,190.3 C 133.7,190.8 133.7,191.3 133.6,191.7 C 133.5,192.1 133.3,192.5 133.2,192.8 C 133.0,193.1 132.9,193.3 132.7,193.4 C 132.5,193.6 132.3,193.7 132.0,193.8 C 131.7,193.9 131.4,193.9 131.1,193.9 L 129.0,193.9 z M 129.8,193.1 L 131.0,193.1 C 131.4,193.1 131.7,193.0 131.9,192.9 C 132.1,192.8 132.3,192.7 132.4,192.6 C 132.6,192.3 132.7,192.0 132.8,191.6 C 132.9,191.3 133.0,190.8 133.0,190.2 C 133.0,189.5 132.9,188.9 132.7,188.5 C 132.5,188.1 132.2,187.8 131.9,187.7 C 131.7,187.6 131.4,187.5 131.0,187.5 L 129.8,187.5 L 129.8,193.1 z " id="path1271" font-size="12.000000" font-weight="normal" fill="#fecd07" font-family="helvetica"/>
        <path d="M 134.9,190.3 C 134.9,189.1 135.2,188.1 135.6,187.4 C 136.1,186.7 136.6,186.4 137.3,186.4 C 137.8,186.4 138.2,186.5 138.6,186.9 C 139.0,187.2 139.3,187.6 139.4,188.2 C 139.6,188.8 139.7,189.5 139.7,190.2 C 139.7,191.0 139.6,191.7 139.4,192.3 C 139.2,192.8 138.9,193.3 138.6,193.6 C 138.2,193.9 137.8,194.1 137.3,194.1 C 136.9,194.1 136.4,193.9 136.1,193.6 C 135.7,193.2 135.4,192.8 135.2,192.2 C 135.0,191.6 134.9,191.0 134.9,190.3 z M 135.6,190.3 C 135.6,191.2 135.8,191.9 136.1,192.5 C 136.4,193.0 136.8,193.2 137.3,193.2 C 137.8,193.2 138.2,193.0 138.6,192.4 C 138.9,191.9 139.1,191.2 139.1,190.2 C 139.1,189.6 139.0,189.1 138.8,188.6 C 138.7,188.2 138.5,187.8 138.2,187.6 C 138.0,187.3 137.7,187.2 137.3,187.2 C 136.9,187.2 136.5,187.5 136.1,187.9 C 135.8,188.4 135.6,189.2 135.6,190.3 z " id="path1274" font-size="12.000000" font-weight="normal" fill="#fecd07" font-family="helvetica"/>
        <path d="M 163.0,195.4 L 166.7,188.4 L 167.5,188.6 L 168.3,196.6 L 167.4,196.4 L 167.2,194.0 L 164.9,193.4 L 163.8,195.5 L 163.0,195.4 z M 165.2,192.7 L 167.1,193.1 L 167.0,190.9 C 166.9,190.3 166.9,189.7 166.9,189.3 C 166.7,189.8 166.5,190.2 166.3,190.6 L 165.2,192.7 z " id="path1277" font-size="12.000000" font-weight="normal" fill="#fecd07" font-family="helvetica"/>
        <path d="M 174.1,198.1 L 178.9,192.2 L 179.6,192.6 L 178.8,200.5 L 178.0,200.1 L 178.3,197.7 L 176.2,196.7 L 174.8,198.5 L 174.1,198.1 z M 176.7,196.0 L 178.4,196.9 L 178.7,194.7 C 178.8,194.0 178.8,193.5 178.9,193.1 C 178.7,193.5 178.4,193.9 178.1,194.3 L 176.7,196.0 z " id="path1280" font-size="12.000000" font-weight="normal" fill="#fecd07" font-family="helvetica"/>
      </g>
      <g id="g1441">
        <path d="M 148.9,204.1 C 142.2,201.2 138.6,203.5 138.6,203.5 L 138.8,208.1 C 138.8,208.1 142.0,208.1 143.2,208.8 C 144.5,209.4 147.5,210.9 147.5,210.9 L 148.9,204.1 z " id="path1440" fill="#dd200f" fill-opacity="1.0000000" fill-rule="evenodd" stroke="#000000" stroke-width="1.0000000" stroke-linecap="butt" stroke-linejoin="miter" stroke-opacity="1.0000000"/>
        <path d="M 109.5,204.4 C 116.3,201.5 119.9,203.8 119.9,203.8 L 119.7,208.5 C 119.7,208.5 116.5,208.5 115.2,209.1 C 113.9,209.7 111.0,211.2 111.0,211.2 L 109.5,204.4 z " id="path1331" fill="#dd200f" fill-opacity="1.0000000" fill-rule="evenodd" stroke="#000000" stroke-width="1.0000000" stroke-linecap="butt" stroke-linejoin="miter" stroke-opacity="1.0000000"/>
        <path d="M 125.4,202.9 L 125.4,209.6 C 125.7,210.1 126.8,210.6 129.0,210.6 C 131.1,210.6 132.6,209.6 132.6,209.6 L 132.6,202.5 C 132.6,202.5 130.2,201.7 128.5,201.9 C 126.8,202.1 125.8,202.4 125.4,202.9 z " id="path1334" fill="#dd200f" fill-opacity="1.0000000" fill-rule="evenodd" stroke="#000000" stroke-width="1.0000000" stroke-linecap="butt" stroke-linejoin="miter" stroke-opacity="1.0000000"/>
        <g id="g1434">
          <path d="M 132.6,210.1 C 133.6,212.0 141.1,211.3 141.3,209.6 C 141.5,207.9 141.4,205.5 141.4,205.5 L 132.6,205.5 L 132.6,210.1 z " id="path1333" fill="#dd200f" fill-opacity="1.0000000" fill-rule="evenodd" stroke="#000000" stroke-width="1.0000000" stroke-linecap="butt" stroke-linejoin="miter" stroke-opacity="1.0000000"/>
          <path d="M 132.6,202.5 C 133.6,202.1 136.4,201.1 138.5,201.3 C 140.6,201.5 141.6,202.8 141.6,202.8 L 141.2,208.9 C 140.8,208.2 139.2,207.4 138.1,207.4 C 136.0,207.5 134.5,208.3 132.6,209.3 L 132.6,202.5 z " id="path1332" fill="#dd200f" fill-opacity="1.0000000" fill-rule="evenodd" stroke="#000000" stroke-width="1.0000000" stroke-linecap="butt" stroke-linejoin="miter" stroke-opacity="1.0000000"/>
        </g>
        <g id="g1437" transform="matrix(-1.000000,0.000000,0.000000,1.000000,258.0182,0.105713)">
          <path d="M 132.6,210.1 C 133.6,212.0 141.1,211.3 141.3,209.6 C 141.5,207.9 141.4,205.5 141.4,205.5 L 132.6,205.5 L 132.6,210.1 z " id="path1438" fill="#dd200f" fill-opacity="1.0000000" fill-rule="evenodd" stroke="#000000" stroke-width="1.0000000" stroke-linecap="butt" stroke-linejoin="miter" stroke-opacity="1.0000000"/>
          <path d="M 132.6,202.5 C 133.6,202.1 136.4,201.1 138.5,201.3 C 140.6,201.5 141.6,202.8 141.6,202.8 L 141.2,208.9 C 140.8,208.2 139.2,207.4 138.1,207.4 C 136.0,207.5 134.5,208.3 132.6,209.3 L 132.6,202.5 z " id="path1439" fill="#dd200f" fill-opacity="1.0000000" fill-rule="evenodd" stroke="#000000" stroke-width="1.0000000" stroke-linecap="butt" stroke-linejoin="miter" stroke-opacity="1.0000000"/>
        </g>
      </g>
    </g>
  </g>
</svg>
