<?xml version="1.0" encoding="UTF-8" standalone="no"?>
<!-- Created with Sodipodi ("http://www.sodipodi.com/") -->
<svg xmlns="http://www.w3.org/2000/svg" xmlns:inkscape="http://www.inkscape.org/namespaces/inkscape" xmlns:sodipodi="http://sodipodi.sourceforge.net/DTD/sodipodi-0.dtd" xmlns:xlink="http://www.w3.org/1999/xlink" height="400pt" id="svg548" sodipodi:docbase="/var/www/html/svg_gallery/svg/office" sodipodi:docname="paper_01.svg" sodipodi:version="0.32" width="400pt">
  
  <defs id="defs550"/>
  <sodipodi:namedview id="base" inkscape:cx="200.00000" inkscape:cy="189.04374" inkscape:window-height="556" inkscape:window-width="685" inkscape:window-x="0" inkscape:window-y="24" inkscape:zoom="0.90750000"/>
  <g id="g832">
    <path d="M 98.3 20.9 L 96.6 472.8 C 96.6 472.8 429.8 476.2 429.0 476.2 C 428.2 476.2 430.7 76.8 433.2 79.4 C 433.2 80.2 364.6 20.0 364.6 20.0 L 98.3 20.9 z " id="path588" sodipodi:nodetypes="cccccc" fill="#ffffff" fill-rule="evenodd" stroke="#000000" stroke-width="10.000000" stroke-linejoin="round" stroke-opacity="1.0000000" stroke-dasharray="none"/>
    <path d="M 369.6 22.6 L 368.8 81.9 L 437.5 81.9 C 440.9 76.8 373.0 24.3 369.6 22.6 z " id="path589" sodipodi:nodetypes="cccc" transform="translate(-5.087504,-1.695824)" fill="#eeebff" fill-rule="evenodd" stroke="#000000" stroke-width="10.000000" stroke-linejoin="round" stroke-opacity="1.0000000" stroke-dasharray="none"/>
    <path d="M 147.7,467.1 C 147.7,467.1 408.8,470.3 416.7,464.0 C 424.6,457.6 418.3,240.9 421.5,225.0 C 405.6,362.7 454.7,484.5 147.7,467.1 z " id="path800" sodipodi:nodetypes="cccc" fill="#92ffff" fill-opacity="0.24709995" fill-rule="evenodd" stroke-width="10.000000" stroke="none" stroke-opacity="1.0000000" stroke-dasharray="none" stroke-linejoin="round"/>
  </g>
</svg>
