<?xml version="1.0" encoding="UTF-8" standalone="no"?>
<!-- Generator: Adobe Illustrator 12.0.0, SVG Export Plug-In . SVG Version: 6.00 Build 51448)  -->
<svg xmlns="http://www.w3.org/2000/svg" xmlns:cc="http://web.resource.org/cc/" xmlns:dc="http://purl.org/dc/elements/1.1/" xmlns:inkscape="http://www.inkscape.org/namespaces/inkscape" xmlns:rdf="http://www.w3.org/1999/02/22-rdf-syntax-ns#" xmlns:sodipodi="http://inkscape.sourceforge.net/DTD/sodipodi-0.dtd" xmlns:svg="http://www.w3.org/2000/svg" height="169.601" id="Layer_1" space="preserve" version="1.1" viewBox="0 0 278.164 169.601" width="278.164" overflow="visible" enable-background="new 0 0 278.164 169.601">
  
  <defs id="defs104"/>
  
  <path d="M147.6,6.4c-2.3-1.7,0.3-3.0-3.1-3.1  c-2.2-0.1-3.7,2.1-5.8,2.1c-4.3,0-6.9-3.2-10.8-3.9c-1.6-0.3-4.4,0.5-5.6,1.8  c-0.6,0.6-0.9,2.3-1.2,3.2c-0.7,1.9-1.0,1.1-1.8,2.0c-0.1,0.1,0.1,2.1,0,2.1  c-1.0,0.1-2.1-0.4-2.1-1.5c0-0.9-3.2-0.5-4.2-0.5c0.8,0.6,0.4,4.5-1.0,5.3  c-1.4,0.7-7.2-2.1-8.9-2.1c-3.3,0-5.2,0.2-6.4,3.7c-0.4,1.4-0.2,7.9-2.1,7.9  c-2.8,0-2.6,3.9-2.6,5.8c0,3.7-4.2,0.0-6.3,1.5c-2.7,1.9,0.5,6.5-1.0,8.5  c-0.5,0.6-2.8-0.3-3.7,0.5c-1.2,1.2-0.5,3.4-1.5,4.7c-0.5,0.7-2.8,1.4-3.6,1.8  c-1.1,0.5-1.1,2.3-1.6,3.4c-0.3,0.9,0.5,1.8-0.5,2.4c-2.2,1.1-0.8,1.5-1.8,3.4  c-1.2,2.4-7.1,1.5-7.1,4.1c0,1.6-0.0,3.2,0,4.9c0.0,0.9-1.4,0.3-0.7,1.6  c0.3,0.7,0.7,1.2,0.7,2.0c0,2.3,1.2,7.4-2.1,5.1c-2.7-1.8-4.1-2.2-4.1,1.2  c0,2.0,0,4.1,0,6.2c0,4.1,2.6,3.9,6.3,4.8c-12.4,5.0-28.5,6.3-41.9,6.3  c-1.9,0-5.9,2.1-7.9,3.1c-3.4,1.7-6.7,2.5-9.4,5.2C1.3,104.1,0,106.2,0,110.4  c0,1.4,2.1,3.2,2.9,4.3c1.2,1.6,2.3,0.5,3.4,1.3c0.9,0.7,1.5,3.1,2.6,3.1c1.4,0,2.8,0,4.3,0  c3.9,0,7.8,0,11.7,0c7.5,0,15.3-1.5,22.7-0.4c7.5,1.0,15.0,2.4,22.4,3.9  c5.5,1.1,2.9,1.9,4.5,6.6c0.7,2.2,3.3,6.9-0.0,6.9c-5.4,0-10.0,2.2-10.0,8.0  c0,2.4,9.5,1.5,11.1,1.5c5.2,0,9.3,0.7,13.3-3.1c3.1-3.1,4.2-3.5,4.2-8.5  c1.8,1.6,2.6,3.1,3.6,5.2c0.8,1.6-0.7,3.8-1.5,4.3c-1.2,0.8-3.3,0.8-4.9,1.9  c-1.3,0.9-5.3,0.4-7.2,1.1c-2.0,0.6-11.2,7.6-5.2,7.6c1.0,0,4.0,1.4,5.4,1.7  c2.3,0.6,4.8,0.3,7.3,0.3c4.4,0,7.1-0.9,11.1-3.3c2.6-1.5,11.1-5.8,11.8-8.7  c0.6-2.4,2.0-3.6,2.0-5.3c0-3.2,2.1-2.6,4.9-2.6c2.9,0,5.6,0.5,8.5,1.0  c2.1,0.3,4.5-1.0,6.7-1.0c-2.4,2.1,0.0,5.3-4.7,5.3c-3.0,0-4.7,4.2-4.7,6.9  c0,6.6,13.0,6.9,17.5,6.9c3.6,0,6.9,0.2,10.1-1.8c3.7-2.5,2.0-4.5,2.0-8.3  c0-4.3-2.3-6.1-1.1-10.7c1.0-4.1,4.4-2.3,6.4-4.7c1.3,2.7,2.5,5.9,4.2,8.5  c1.1,1.7,2.1,1.5,2.1,3.7c0,1.3-0.3,3.0,0.2,4.3c0.9,1.8,4.2,4.6,3.9,5.8  c-0.7,3.6-7.0,3.7-9.0,6.3c-1.7,2.3-1.9,5.1,1.0,6.6c1.5,0.7,5.8,3.9,6.3,3.9  c2.2,0,4.7,0.3,6.9,0c1.1-0.1,1.8-1.0,3.5-1.0c2.2,0,4.8,0.3,7.1,0  c6.6-1.0,12.4-7.4,8.1-13.7c-2.6-4.0-6.4-13.5-2.3-17.6c1.0-1.0,0.7-1.8,1.5-2.6  c1.0-0.9,2.9-1.6,4.1-2.4c3.3-2.2,3.2-1.5,6.2-0.4c7.5,2.8,15.1,5.7,22.7,8.2  c10.6,3.5,22.9,4.1,34.0,4.1c6.1,0,10.3-3.2,13.4-7.9c1.3-2.0,2.3-1.3,1.9-3.9  c-0.5-3.2-1.1-6.2-2.0-9.4c-0.8-2.9-1.8-4.2-3.7-6.7c-1.9-2.4,0.6-3.5,1.6-6.5  c1.4-4.2-0.3-9.8-2.7-13.3c-3.9-5.9-3.0,5.8-3.5,8.5c-1.2,8.2-6.0-0.0-10.6-1.0  c-0.1,1.8-0.0,3.7,1.0,5.3c-0.3-2.2-1.7-1.9-3.2-2.8c-2.3-1.5-2.0-2.4-3.2-4.8  c-3.1-6.3-4.0-2.6-4.0,2.4c-0.4-1.9-1.3-0.2-2.6-1.5c-0.8-0.8,0.8-3.2,0.5-4.7  c-0.2-1.5-4.3-6.0-1.0-6.3c-1.6-1.2-1.1-3.3-2.8-4.9c-1.0-1.0-5.0-0.8-2.9-2.9  c2.5-2.5-1.4-2.2-1.5-3.7c-0.3-2.5,2.2-3.1-0.5-5.8c-2.6-2.6-0.5-6.0-0.5-9.5  c0-5.8-4.9-5.9-9.5-4.8c0-1.1,0.4-6.3-0.5-6.3c-2.7,0-1.4-4.9-2.6-7.4  c-1.1-2.2-3.1-4.2-5.8-4.2c-3.3,0-1.3-5.3-4.2-5.3c-4.3,0-1.4-1.8-2.9-4.8  c-1.3-2.7-2.5-3.6-6.0-3.7c-1.1-0.0-2.3,1.0-3.6,1.0c-0.9,0-0.4-1.8-0.8-2.6  c-1.8-3.6-4.5-0.3-7.1,0.5c0-4.8-0.2-9.8-3.9-13.5c-2.1-2.1-4.7-0.9-7.2-0.1  c-2.9,0.9-2.8,3.0-5.8,4.0c-1.2-2.4-2.1-4.6-4.2-6.3c-0.8,0.9-1.9,1.6-3.1,2.1  c-0.4-1.1,0.0-1.0-1.5-1.0c-1.3,0,0.0-1.4-0.5-2.1c-1.6-1.9-3.6-3.0-5.0-5.8  C157.0-4.5,152.0,4.9,147.6,6.4" id="path3" fill-rule="evenodd" clip-rule="evenodd"/>
  <path d="M150.8,7.4c-0.4,5.0,5.1,10.3,7.4,14.9  c1.8-1.6,3.0-3.5,4.4-5.6c2.5-3.7,1.2-3.8-1.2-7.1c-1.1-1.4-1.8-5.8-3.1-6.3  C156.3,2.4,151.8,6.2,150.8,7.4" id="path5" fill-rule="evenodd" clip-rule="evenodd" fill="#007F00"/>
  <path d="M125.3,4.3c-1.3,1.9-4.2,5.2-2.9,8.0  c0.8,1.6,2.3,2.6,3.9,3.7c0.9,0.6,1.6,1.4,3.1,2.1c0.7-1.4,6.6-8.3,6.3-9.5  C135.3,5.4,127.5,4.3,125.3,4.3" id="path7" fill-rule="evenodd" clip-rule="evenodd" fill="#007F00"/>
  <path d="M133.8,23.4c-0.3,1.7,3.9,8.7,5.5,10.9  c2.4,3.2,2.6,3.9,6.6,3.9c2.7,0,3.9-0.7,5.4-3.1c3.0-5.0,5.4-10.9,0.7-15.6  c-0.9-0.9-0.7-2.4-1.3-3.5c-0.5-0.9-1.7-1.4-2.2-2.4c-1.5-3.0-2.7-4.7-5.1-7.1  c-2.5,2.6-5.7,4.3-7.7,7.3C133.6,16.8,133.8,19.9,133.8,23.4" id="path9" fill-rule="evenodd" clip-rule="evenodd" fill="#3F9F3F"/>
  <path d="M122.1,40.5c5.8,1.3,7.6-11.8,6.7-15.5  c-0.7-3.1-2.6-5.3-4.6-6.8c-2.1-1.6-5.8-4.3-8.4-5.3c-2.2,5.7-4.4,9.5-3.3,15.7  C113.1,33.3,118.9,37.2,122.1,40.5" id="path11" fill-rule="evenodd" clip-rule="evenodd" fill="#3F9F3F"/>
  <path d="M160.3,27.7c-0.4,4.2,2.9,7.3,3.8,11.2  c0.7,3.0,1.9,1.7,4.1,2.8c2.6,1.3,4.4-1.5,6.6-3.2c2.9-2.3,6.3-8.3,3.6-11.9  c-3.1-4.1-6.0-8.2-8.7-12.7C165.8,17.9,162.9,22.5,160.3,27.7" id="path13" fill-rule="evenodd" clip-rule="evenodd" fill="#3F9F3F"/>
  <path d="M178.4,18.1c-2.1,1.6,4.8,7.4,4.2,11.7  c2.4-0.7,4.6-1.7,6.8-2.9c0.2-0.1-0.2-5.6-0.5-6.6C187.4,14.2,182.2,13.5,178.4,18.1" id="path15" fill-rule="evenodd" clip-rule="evenodd" fill="#007F00"/>
  <path d="M97.7,23.4c1.8,0.6,7.7,3.3,9.5,2.1  c1.5-1.0,2.7-7.8,3.1-9.5c-3.5,0.2-6.6-1.0-10.1-1.0C98.5,14.9,98.7,22.0,97.7,23.4" id="path17" fill-rule="evenodd" clip-rule="evenodd" fill="#007F00"/>
  <path d="M94.5,29.8c-0.6,1.1-1.1,2.3,0,3.1  c-3.6,0.2,2.1,9.4,2.1,10.1c0,1.9,11.1,7.4,11.9,3.4c0.6-3.4,0.7-6.4,0.7-9.9  c0-1.4-0.5-2.9-0.7-4.3c-0.2-1.4-1.3-1.1-1.3-1.9c0-2.3-4.6-2.0-7.0-2.5  C97.3,27.2,95.6,27.4,94.5,29.8" id="path19" fill-rule="evenodd" clip-rule="evenodd" fill="#3F9F3F"/>
  <path d="M182.6,36.2c0.3,0.3,0.7,0.7,1.0,1.0  c-0.3,0-0.7,0-1.0,0c1.1,3.5,2.3,6.9,2.1,10.6c3.1-1.0,8.0-1.6,10.4-4.0  c4.1-4.1,3.1-5.3,2.5-11.2C196.5,22.3,186.4,32.4,182.6,36.2" id="path21" fill-rule="evenodd" clip-rule="evenodd" fill="#3F9F3F"/>
  <path d="M200.7,32.0c0.9,2.7,1.0,4.5,1.0,7.4  c2.2-1.7,5.3-1.0,5.3-4.8C207.1,29.3,204.2,30.2,200.7,32.0" id="path23" fill-rule="evenodd" clip-rule="evenodd" fill="#007F00"/>
  <path d="M128.5,38.3c1.3,0,8.4,0.4,8.4-0.5  c0-2.8-2.6-5.5-4.2-7.9C131.7,33.0,129.8,35.3,128.5,38.3" id="path25" fill-rule="evenodd" clip-rule="evenodd" fill="#007F00"/>
  <path d="M151.8,38.3c2.5,1.8,6.7-0.2,8.4,2.1  c0.4-3.6-2.0-6.2-3.1-9.5C155.9,33.7,154.1,36.3,151.8,38.3" id="path27" fill-rule="evenodd" clip-rule="evenodd" fill="#007F00"/>
  <path d="M86.0,34.1c1.3,1.8,1.0,3.7,1.0,5.8  c0,1.0,3.2,0.5,4.2,0.5c-1.5-2.1-0.0-4.4-1.0-6.3C89.5,32.7,87.5,32.4,86.0,34.1" id="path29" fill-rule="evenodd" clip-rule="evenodd" fill="#007F00"/>
  <path d="M112.5,42.6c-1.1,4.3,4.6,0.8,6.3,0  c-1.0-1.2-0.9-3.0-2.1-4.2c-0.9-0.9-2.9-0.1-4.2-2.1C112.5,38.3,112.5,40.5,112.5,42.6" id="path31" fill-rule="evenodd" clip-rule="evenodd" fill="#007F00"/>
  <path d="M199.6,54.3c2.5,1.1,11.7,0.7,12.9-2.6  c1.6-4.9,1.0-8.8-1.2-13.3c-3.5,2.0-6.0,2.8-9.0,5.8C199.1,47.4,199.6,49.9,199.6,54.3" id="path33" fill-rule="evenodd" clip-rule="evenodd" fill="#3F9F3F"/>
  <path d="M178.4,39.4c-1.2,1.2-2.4,3.2-4.2,3.1  c0.4,2.2,6.3,4.4,6.3,2.6c0-2.7,0.1-4.9-2.1-6.9C178.4,38.7,178.4,39.1,178.4,39.4" id="path35" fill-rule="evenodd" clip-rule="evenodd" fill="#007F00"/>
  <path d="M86.0,70.3c-2.8,0.7-4.3,4.3-6.3,6.3  c-2.7,2.7-3.9,5.2-7.4,6.9c-5.3,2.6-9.2,8.0-15.5,8.0c-3.2,0-6.2,1.0-9.5,1.0  c-2.1,0-6.0,0.8-8.3,1.5c-6.3,2.1-13.5,0.2-20.2,2.4c-4.2,1.4-15.0,4.7-16.4,9.7  c-0.1,0.4,1.0,2.8,1.0,3.7c0,1.7,1.6,1.6,2.8,1.6c3.9,0,7.0-0.1,10.9-1.0  c3.4-0.8,6.0-1.0,9.6-1.0c1.4,0,3.6-0.5,4.6,0.5c1.3,1.3,0.2,1.5-1.0,1.5  c-5.7,0-14.6,1.3-19.6,4.2c12.9,0,26.4-1.0,39.2,0.5c3.8,0.4,7.4,0.5,11.3,0.5  c3.4,0,6.4,2.1,9.3,2.1c1.9,0,2.2,0.5,3.7,1.0c0.5,0.1,2.6,0.7,3.1,1.0  c0.7,0.3,2.0,2.9,3.1,2.1c1.1-0.8-1.2-4.4-1.0-5.3c0.7-4.0,3.1-1.0,3.8,0.9  c1.2,3.6,2.6,7.0,5.7,9.6c3.7,3.3,15.7,7.5,10.6,14.9c-1.3,1.9-6.1,4.7-8.4,5.3  c-2.3,0.5-6.7-1.2-7.4,1.0c-1.9,6.3,14.6,1.5,16.9,0.6c4.5-1.8,6.8-4.1,9.8-8.0  c2.3-3.2,1.8-5.8,1.8-9.9c0-8.1-5.9-14.7-10.6-20.9c1.5,2.3,5.7,6.8,3.1,9.5  c-1.3-2.6-2.8-6.7-5.3-8.5c-1.2-0.9-8.4-2.0-8.4-3.7c0-1.4,2.1,0.3,2.1-1.0  c0-1.9,1.0-2.0,3.1-1.5c2.8,0.6,6.4,3.3,8.4,5.3c4.1,3.9,9.5,10.4,9.5,16.4  c0,4.5,1.1,4.7,5.2,5.3c4.2,0.6,7.8,0.2,12.1-0.2c3.2-0.3,6.4-1.2,9.7-1.2  c3.2,0,5.9-1.8,9.0-3.1c2.2-0.9,8.0,0.1,9.5-1.0c1.1-0.9,0-6.8,0-9.0c0-7.2-3.1-13.3-2.1-20.7  c0.4-3.3,1.9-6.7,2.6-10.1c0.4-2.3,3.4-6.6,5.8-7.9c0.6-0.3,5.7-1.3,6.3-1.0  c0.1,0.0-3.4,2.5-4.2,3.1c-5.0,4.2-6.5,7.3-7.6,14.0c-0.8,5.2-0.5,11.0,2.3,15.7  c1.3,2.2,2.8,4.5,3.9,6.9c0.7,1.5-4.1,2.8-3.9-0.5c0,3.8,0.7,6.2,2.2,9.8  c1.3,3.4,5.1,9.3,5.1,12.9c0,2.2-0.5,4.2,1.0,5.8c1.7,1.7,3.4,3.4,2.6,5.8  c-1.7,5.1-5.7,4.0-9.0,7.9c0.9-0.6,9.5-5.8,9.5-2.6c0,3.6-6.2,2.5-5.3,6.9  c3.0-1.3,4.5-3.1,7.9-3.1c2.7,0-2.2,3.9-2.6,4.2c3.1-1.5,4.7,0,7.8,0  c3.0,0,4.5-1.0,6.4-1.0c1.5,0,4.7-3.0,4.7-3.7c0-3.3-0.6-4.9-2.1-7.9  c-2.5-5.1-4.3-9.4-2.0-15.2c1.4-3.7,3.1-5.0,5.1-8.2c0.7-1.2,1.1-2.9,1.7-4.2  c0.6-1.5,2.1-1.3,2.8-2.6c1.1-2.3,1.8-3.8,1.8-6.3c0-0.6,1.5-0.9,2.1-0.5  c1.9,1.2,0.3,2.9,0,4.2c-0.2,1.2-2.3,5.3-1.5,5.3c0.6,0,4.2-3.3,4.7-4.2  c1.2-2.0,1.6-6.5,2.3-8.9c0.9-3.3,0.2-5.0-0.6-8.5c-1.7-7.1-4.5-10.7-9.1-16.6  c5.1-4.8,12.2,12.9,13.1,16.4c2.3,9.3-2.0,16.1-7.8,23.0c1.5,0.5,2.8,1.5,4.2,2.1  c1.5,0.5,3.4,0.6,4.8,1.3c1.2,0.6,3.0,2.9,4.2,2.9c1.4,0,4.2,0.5,5.2,1.5  c2.6,2.6,8.8,2.9,12.4,3.4c4.1,0.5,8.1,1.9,12.3,2.5c7.2,0.9,20.2,2.1,25.1-4.3  c5.2-7.0-2.9-18.3-7.9-23.4c4.5,4.5,5.4,7.1,2.3,13.2c-3.6,7.2-14.1,3.9-20.0,2.7  c-2.4-0.4-6.1-4.0-8.5-5.2c-1.1-0.5-4.9-7.3-5.6-8.6c-2.9-5.4-5.5-10.5-8.2-16.8  c-1.5-3.6-3.1-6.9-5.1-10.3c-0.8-1.4-1.4-2.5-2.5-3.6c-1.4-1.4-0.2-3.4-1.3-4.5  c-5.2-5.2-8.6-11.8-13.9-17.1c-2.3-2.3-5.2-3.8-8.0-5.5c-2.6-1.6-5.2-4.6-7.9-4.6  c-1.8,0-4.6-2.6-6.5-3.5c-3.4-1.5-6.8-3.5-10.5-4.2c-7.6-1.5-15.7-3.9-23.5-3.9  c-8.5,0-16.2,2.1-24.5,4.2c-7.6,1.9-13.2,6.6-19.6,10.9C95.3,59.8,91.3,65.0,86.0,70.3" id="path37" fill-rule="evenodd" clip-rule="evenodd" fill="#7FDE4F"/>
  <path d="M81.7,50.1c1.6,0.0,1.3,1.1,1.7,2.7  c0.5,2.0,1.5,1.9,3.5,2.7c2.6,1.0,7.3,2.2,7.3-1.8c0-1.8,0.1-7.3-1.3-8.1  c-3.5-1.7-6.3-2.3-10.3-3.0C82.8,45.1,83.3,47.9,81.7,50.1" id="path39" fill-rule="evenodd" clip-rule="evenodd" fill="#3F9F3F"/>
  <path d="M216.6,45.8c0,2.2,0.3,4.4-1.0,6.3  c3.2,0,5.3,1.0,5.3-2.6C220.9,47.1,219.5,42.1,216.6,45.8" id="path41" fill-rule="evenodd" clip-rule="evenodd" fill="#007F00"/>
  <path d="M187.9,50.1c2.4-0.1,1.4,2.1,3.7,2.1  c1.6,0,3.1,1.8,3.7,3.1c1.0-3.0,1.0-5.3,1.0-8.5C193.8,48.5,190.6,48.4,187.9,50.1" id="path43" fill-rule="evenodd" clip-rule="evenodd" fill="#007F00"/>
  <path d="M97.7,47.9c0,2.4,0,4.9,0,7.4  c1.4-1.7,3.3-2.2,4.7-3.7C103.8,50.3,98.8,48.5,97.7,47.9" id="path45" fill-rule="evenodd" clip-rule="evenodd" fill="#007F00"/>
  <path d="M76.4,49.0c0,2.1-0.9,4.2,1.5,4.2  c1.0,0,0.5-4.1,0.5-5.3C77.9,48.3,77.0,48.5,76.4,49.0" id="path47" fill-rule="evenodd" clip-rule="evenodd" fill="#007F00"/>
  <path d="M213.4,59.7c0.1,1.5-1.4,6.2-0.5,6.5  c4.2,1.4,7.4,0.6,9.9-3.0c0.8-1.2,2.7-7.7-0.2-7.7C219.3,55.4,214.3,55.7,213.4,59.7" id="path49" fill-rule="evenodd" clip-rule="evenodd" fill="#3F9F3F"/>
  <path d="M81.7,68.2c1.6-8.3-0.8-9.5-8.4-11.7  C73.2,62.9,73.3,69.0,81.7,68.2" id="path51" fill-rule="evenodd" clip-rule="evenodd" fill="#3F9F3F"/>
  <path d="M201.8,57.5c-0.6,2.8,1.6,2.0,3.1,3.1  c1.1,0.8,2.6,5.0,4.2,4.2c0.0-0.0,1.4-6.9,1.0-7.4C209.6,56.8,202.9,57.5,201.8,57.5" id="path53" fill-rule="evenodd" clip-rule="evenodd" fill="#007F00"/>
  <path d="M84.9,59.7c2.0,2.3-0.3,4.7,0,7.4  c3.3-2.2,5.0-3.6,6.3-7.4C89.2,59.7,87.0,59.7,84.9,59.7" id="path55" fill-rule="evenodd" clip-rule="evenodd" fill="#007F00"/>
  <path d="M65.8,62.9c0.7,0.6,0.8,3.1,1.0,3.1  c2.4,1.2,2.1-1.2,2.1-2.6c0-1.9,0.5-2.6-1.5-2.6C65.9,60.7,65.3,61.1,65.8,62.9" id="path57" fill-rule="evenodd" clip-rule="evenodd" fill="#007F00"/>
  <path d="M226.2,61.8c0,1.0-0.5,4.2,0.5,4.2  c0.8,0,3.4,0.3,3.9-0.3C233.5,61.5,230.4,58.6,226.2,61.8" id="path59" fill-rule="evenodd" clip-rule="evenodd" fill="#007F00"/>
  <path d="M220.9,76.7c-0.5,0.5,0.4,1.4-1.0,1.0  c6.6,2.2,11.6-2.3,11.6-9.0c0-1.2-5.4-0.3-6.4,0.2C222.0,70.9,221.7,73.2,220.9,76.7" id="path61" fill-rule="evenodd" clip-rule="evenodd" fill="#3F9F3F"/>
  <path d="M66.9,69.2c0,3.9,0.9,8.5,5.8,8.5  c0.6,0,0.8-4.4,0.4-5.3C72.3,70.3,69.0,68.9,66.9,69.2" id="path63" fill-rule="evenodd" clip-rule="evenodd" fill="#3F9F3F"/>
  <path d="M213.4,70.3c-0.3,0-0.7,0-1.0,0  c1.4,1.0,2.1,2.0,2.1,3.7c0,0.8,2.2,0.7,2.1,2.6c2.7-1.9,2.1-4.4,2.1-7.4  C217.2,70.4,215.3,70.5,213.4,70.3" id="path65" fill-rule="evenodd" clip-rule="evenodd" fill="#007F00"/>
  <path d="M75.4,70.3c1.4,1.9,1.0,4.1,1.0,6.3  c0.4-0.4,4.3-3.6,4.2-4.2C80.5,71.2,76.3,70.7,75.4,70.3" id="path67" fill-rule="evenodd" clip-rule="evenodd" fill="#007F00"/>
  <path d="M231.5,77.8c1.3,0.3,2.4-0.0,3.1-1.0  c-0.5-0.5-0.5-0.4-1.0-1.0C232.9,76.3,232.1,77.0,231.5,77.8" id="path69" fill-rule="evenodd" clip-rule="evenodd" fill="#007F00"/>
  <path d="M60.5,77.8c0,4.8,0.5,4.1,5.3,5.3  C66.4,80.3,63.1,77.7,60.5,77.8" id="path71" fill-rule="evenodd" clip-rule="evenodd" fill="#3F9F3F"/>
  <path d="M225.1,90.6c3.2,1.3,5.6,1.7,8.1-0.7  c0.8-0.8,2.3-7.7,0.8-7.7c-2.5,0-5.0-2.7-7.1,0.3C225.0,85.4,225.1,86.9,225.1,90.6" id="path73" fill-rule="evenodd" clip-rule="evenodd" fill="#3F9F3F"/>
  <path d="M219.8,82.0c0.8,1.2,1.3,1.9,2.1,3.1  C222.3,83.3,222.2,81.4,219.8,82.0" id="path75" fill-rule="evenodd" clip-rule="evenodd" fill="#007F00"/>
  <path d="M235.7,91.6c1.1,0.8,4.2,1.8,5.3,0  c1.2-2.2-2.0-3.0-3.1-4.2C237.9,89.3,235.7,89.7,235.7,91.6" id="path77" fill-rule="evenodd" clip-rule="evenodd" fill="#007F00"/>
  <path d="M227.2,94.8c0.9,0.4,1.5,0.4,1.0,2.1  c0.7-0.5,1.5-1.4,2.1-2.1C229.4,94.8,228.3,94.7,227.2,94.8" id="path79" fill-rule="evenodd" clip-rule="evenodd" fill="#007F00"/>
  <path d="M233.6,106.5c2.3,0,7.4-0.0,7.4-3.7  c0-2.7,0.9-6.4-1.5-7.6c-3.2-1.6-5.1,1.1-7.1,3.1C230.0,100.6,232.4,104.1,233.6,106.5" id="path81" fill-rule="evenodd" clip-rule="evenodd" fill="#3F9F3F"/>
  <path d="M15.9,102.3c-3.8,0.3,2.8,6.5,5.3,4.2  C23.9,104.0,18.8,98.6,15.9,102.3" id="path83" fill-rule="evenodd" clip-rule="evenodd"/>
  <path d="M267.6,109.7c1.2,2.7,1.7,2.3,3.1,0  c1.6-2.7,0.9-4.6,0-7.4C271.0,105.0,270.8,109.0,267.6,109.7" id="path85" fill-rule="evenodd" clip-rule="evenodd" fill="#007F00"/>
  <path d="M253.8,108.7c0.8,1.0,1.8,1.3,3.1,1.0  c-3.4-1.2-3.9-4.2-6.3-6.3C251.3,105.4,253.1,106.6,253.8,108.7" id="path87" fill-rule="evenodd" clip-rule="evenodd" fill="#007F00"/>
  <path d="M243.2,104.4c-2.1,3.2-4.1,5.8-8.4,5.3  c0.3,1.8,1.4,2.4,3.1,2.1c1.9-0.3,1.5-2.1,3.1-3.1c1.2-0.7,4.2,1.0,4.2-1.5  C245.3,105.5,245.0,104.3,243.2,104.4" id="path89" fill-rule="evenodd" clip-rule="evenodd" fill="#007F00"/>
  <path d="M248.5,105.5c-1.5,1.4,2.0,6.1,3.0,8.2  c1.6,3.3-1.9,6.1-4.1,7.5c-4.2,2.5-0.1,3.0,2.9,4.3c3.0,1.2,6.0,1.1,9.2,1.1  c3.9,0,4.0-0.3,5.9-3.1c1.0-1.6,3.3-6.4-0.2-7.5C257.6,113.9,253.5,111.7,248.5,105.5" id="path91" fill-rule="evenodd" clip-rule="evenodd" fill="#FFFFFF"/>
  <path d="M243.2,119.3c0,0.3,0,0.7,0,1.0  c2.2-1.6,4.3-0.1,5.3-3.1c0.2-0.6-0.7-6.2-1.0-6.3c-1.0-0.6-6.3,0.8-6.3,1.5  C241.0,115.2,241.9,116.7,243.2,119.3" id="path93" fill-rule="evenodd" clip-rule="evenodd" fill="#3F9F3F"/>
  <path d="M262.3,112.9c0,0.3,0,0.7,0,1.0  C262.3,113.6,262.3,113.3,262.3,112.9" id="path95" fill-rule="evenodd" clip-rule="evenodd" fill="#007F00"/>
  <path d="M76.4,124.7c0.3,0.3,0.7,0.7,1.0,1.0  c-0.3,0-0.7,0-1.0,0c1.5,2.4,1.4,5.7,3.1,7.4c2.4,2.4-0.8,5.2-3.1,6.3  c-1.0,0.5-2.2,0.6-3.1,1.0c0.0-0.0-4.0,1.0-1.5,1.0c2.8,0,5.6,0,8.4,0  c2.2,0,4.9,0.4,6.9-0.5c2.0-1.0,3.1-0.9,3.1-3.1c0-0.9,0.4-3.7-0.5-3.7  c0.4,0-3.8-4.7-4.7-5.3C82.2,127.1,79.6,125.6,76.4,124.7" id="path97" fill-rule="evenodd" clip-rule="evenodd" fill="#3F9F3F"/>
  <path d="M139.1,135.3c0,4.0-0.7,5.0-3.1,7.4  c-1.3,1.3-2.5,0.8-2.1,3.1c0.1,0.5,2.8-0.7,2.1,2.1c1.6-0.8,4.0-3.0,5.3-1.0  c1.5,2.4-1.9,1.6-2.1,2.1c-2.2,4.6,2.9,2.1,5.8,2.1c5.2,0,8.6,0.7,7.5-5.7  c-0.9-5.5-0.6-9.2,1.4-14.5C149.0,133.0,144.3,134.3,139.1,135.3" id="path99" fill-rule="evenodd" clip-rule="evenodd" fill="#3F9F3F"/>
  <path d="M133.8,151.3  C136.3,150.6,133.4,147.3,133.8,151.3" id="path101" fill-rule="evenodd" clip-rule="evenodd" fill="#007F00"/>
</svg>
