<?xml version="1.0" encoding="UTF-8" standalone="no"?>
<!-- Created with Sodipodi ("http://www.sodipodi.com/") -->
<svg xmlns="http://www.w3.org/2000/svg" xmlns:sodipodi="http://sodipodi.sourceforge.net/DTD/sodipodi-0.dtd" xmlns:xlink="http://www.w3.org/1999/xlink" height="400pt" id="svg548" sodipodi:docbase="/home/nicu/svg_gal/happy" sodipodi:docname="/home/nicu/svg_gal/happy/gift05.svg" sodipodi:version="0.32" width="400pt">
  
  <defs id="defs550">
    <linearGradient id="linearGradient608">
      <stop id="stop609" offset="0.000000" stop-color="#ffffff" stop-opacity="1"/>
      <stop id="stop610" offset="1.000000" stop-color="#000000" stop-opacity="1"/>
    </linearGradient>
    <linearGradient id="linearGradient601">
      <stop id="stop602" offset="0.000000" stop-color="#e6cd00" stop-opacity="1"/>
      <stop id="stop603" offset="1.000000" stop-color="#ff9f2d" stop-opacity="1"/>
    </linearGradient>
    <radialGradient cx="0.30468768" cy="0.32812488" fx="0.30468768" fy="0.32812488" gradientUnits="objectBoundingBox" id="radialGradient604" r="0.32960984" spreadMethod="pad" xlink:href="#linearGradient601"/>
    <radialGradient cx="0.44804481" cy="0.97655141" fx="0.44804481" fy="0.97655141" gradientUnits="objectBoundingBox" id="radialGradient607" r="0.77106810" spreadMethod="pad" xlink:href="#linearGradient608"/>
    <radialGradient id="radialGradient904" xlink:href="#linearGradient608"/>
  </defs>
  <sodipodi:namedview id="base"/>
  <g id="g992" transform="translate(-1.250000,3.750000)" fill="#0000ff" fill-opacity="1">
    <path d="M 32.5 186.2 L 271.2 202.5 L 275 391.2 L 35 368.7 L 32.5 186.2 z " id="path989" sodipodi:nodetypes="ccccc" transform="" fill="#0000ff" fill-rule="evenodd" stroke="black" stroke-opacity="1" stroke-width="1pt" stroke-linejoin="miter" stroke-linecap="butt" fill-opacity="1"/>
    <path d="M 271.2 201.2 L 453.7 122.5 L 455 312.5 L 276.2 390 L 271.2 201.2 z " id="path990" sodipodi:nodetypes="ccccc" fill="#0000ff" fill-rule="evenodd" stroke="black" stroke-opacity="1" stroke-width="1pt" stroke-linejoin="miter" stroke-linecap="butt" fill-opacity="1"/>
    <path d="M 33.7 186.2 L 193.7 111.2 L 451.2 122.5 L 271.2 202.5 L 33.7 186.2 z " id="path991" sodipodi:nodetypes="ccccc" fill="#0000ff" fill-rule="evenodd" stroke="black" stroke-opacity="1" stroke-width="1pt" stroke-linejoin="miter" stroke-linecap="butt" fill-opacity="1"/>
  </g>
  <g id="g998" transform="translate(5.000000,-32.50000)" fill="#ffff00" fill-opacity="1">
    <path d="M 101.2 411.2 L 102.5 227.5 L 263.7 150 L 317.5 152.5 L 167.5 232.5 L 165 417.5 L 101.2 411.2 z " id="path996" fill="#ffff00" fill-rule="evenodd" stroke="black" stroke-opacity="1" stroke-width="1pt" stroke-linejoin="miter" stroke-linecap="butt" fill-opacity="1"/>
    <path d="M 350 391.2 L 338.7 207.5 L 87.5 192.5 L 132.5 173.7 L 378.7 188.7 L 390 375 L 350 391.2 z " id="path997" sodipodi:nodetypes="ccccccc" fill="#ffff00" fill-rule="evenodd" stroke="black" stroke-opacity="1" stroke-width="1pt" stroke-linejoin="miter" stroke-linecap="butt" fill-opacity="1"/>
  </g>
  <path d="M 217.5 68.7 C 217.5 68.7 216.2 61.2 225 57.5 C 233.7 53.7 248.7 56.2 253.7 62.5 C 258.7 68.7 262.5 75 270 70 C 277.5 65 287.5 52.5 293.7 53.7 C 300 55 311.2 58.7 310 67.5 C 308.7 76.2 305 100 297.5 98.7 C 290 97.5 275 93.7 273.7 97.5 C 272.5 101.2 265 110 260 111.2 C 255 112.5 242.5 118.7 237.5 117.5 C 232.5 116.2 223.7 110 222.5 96.2 C 221.2 82.5 217.5 70 217.5 68.7 z " id="path1007" transform="translate(-32.50000,60.00000)" font-size="12" fill-rule="evenodd" stroke="#000000" stroke-width="1pt"/>
  <g id="g1037" transform="translate(-14.37500,64.37500)" fill="#ffff00" fill-opacity="1">
    <path d="M 275 98.7 C 275 98.7 288.7 103.7 303.7 83.7 C 311.2 65 306.2 70 308.7 60 C 292.5 57.5 290 56.2 276.2 70 C 272.5 92.5 263.7 91.2 263.7 91.2 C 263.7 91.2 260 83.7 260 85 C 260 86.2 266.2 93.7 263.7 67.5 C 272.5 51.2 272.5 43.7 287.5 42.5 C 308.7 41.2 302.5 57.5 313.7 57.5 C 311.2 67.5 320 48.7 307.5 81.2 C 293.7 88.7 318.7 88.7 275 98.7 z " id="path1004" sodipodi:nodetypes="ccccccccccc" transform="translate(-21.25000,-5.000038)" font-size="12" fill="#ffff00" fill-rule="evenodd" stroke="#000000" stroke-width="1pt" fill-opacity="1"/>
    <path d="M 255 85 C 255 80 250 67.5 237.5 63.7 C 225 60 217.5 62.4 220 71.2 C 222.5 80 251.2 92.5 251.2 92.5 L 242.5 96.2 C 242.5 96.2 238.7 102.5 235 92.5 C 228.7 88.7 217.5 78.7 217.5 58.7 C 228.7 35 237.5 46.2 246.2 46.2 C 270 50 266.2 71.2 265 78.7 C 263.7 86.2 253.7 87.5 255 85 z " id="path1006" sodipodi:nodetypes="cccccccccc" transform="translate(-21.25000,-5.000038)" font-size="12" fill="#ffff00" fill-rule="evenodd" stroke="#000000" stroke-width="1pt" fill-opacity="1"/>
    <path d="M 223.7 82.5 C 223.7 82.5 212.5 53.7 200 50 C 187.5 46.2 175 45 176.2 45 C 177.5 45 193.7 37.5 193.7 37.5 L 198.7 23.7 C 198.7 23.7 218.7 31.2 225 42.5 C 231.2 53.7 238.7 66.2 238.7 72.5 C 238.7 78.7 223.7 85 223.7 82.5 z " id="path1022" transform="translate(10.00001,-1.250000)" font-size="12" fill="#ffff00" fill-rule="evenodd" stroke="#000000" stroke-width="1pt" fill-opacity="1"/>
    <path d="M 238.7 85 C 238.7 85 220 102.5 238.7 62.5 C 257.5 22.5 280 23.7 280 23.7 C 280 23.7 272.5 36.2 273.7 36.2 C 275 36.2 293.7 33.7 293.7 33.7 C 293.7 33.7 285 38.7 276.2 46.2 C 267.5 53.7 258.7 75 258.7 76.2 C 258.7 77.5 240 86.2 238.7 85 z " id="path1020" transform="translate(8.750010,-3.750000)" font-size="12" fill="#ffff00" fill-rule="evenodd" stroke="#000000" stroke-width="1pt" fill-opacity="1"/>
    <path d="M 261.2 90 C 270 77.5 285 76.2 292.5 81.2 C 300 90 306.2 86.2 297.5 97.5 C 273.7 98.7 276.2 97.5 273.7 100 C 271.2 102.5 283.7 102.5 297.5 106.2 C 310 110 313.7 100 327.5 82.5 C 321.2 70 308.7 63.7 291.2 68.7 C 273.7 73.7 262.5 81.2 261.2 90 z " id="path1005" sodipodi:nodetypes="cccccccc" transform="translate(-21.25000,-5.000038)" font-size="12" fill="#ffff00" fill-rule="evenodd" stroke="#000000" stroke-width="1pt" fill-opacity="1"/>
    <path d="M 275 100 C 275 100 253.7 123.7 235 112.5 C 216.2 101.2 267.5 90 267.5 91.2 C 267.5 92.5 238.7 80 238.7 80 C 238.7 80 190 62.5 190 92.5 C 190 122.5 230 122.5 243.7 120 C 257.5 117.5 276.2 101.2 275 100 z " id="path1003" transform="translate(-21.25000,-5.000038)" font-size="12" fill="#ffff00" fill-rule="evenodd" stroke="#000000" stroke-width="1pt" fill-opacity="1"/>
  </g>
</svg>
