<?xml version="1.0" encoding="UTF-8" standalone="no"?>
<!-- Created with Inkscape (http://www.inkscape.org/) -->
<svg xmlns="http://www.w3.org/2000/svg" xmlns:inkscape="http://www.inkscape.org/namespaces/inkscape" xmlns:sodipodi="http://sodipodi.sourceforge.net/DTD/sodipodi-0.dtd" xmlns:xlink="http://www.w3.org/1999/xlink" height="400pt" id="svg548" sodipodi:docbase="/var/www/html/svg_gallery/svg/flowcharts" sodipodi:docname="fc26.svg" sodipodi:version="0.32" width="400pt">
  
  <defs id="defs550"/>
  <sodipodi:namedview id="base" inkscape:cx="200.00000" inkscape:cy="200.00000" inkscape:window-height="500" inkscape:window-width="400" inkscape:window-x="0" inkscape:window-y="24" inkscape:zoom="0.77250000" showgrid="true"/>
  <g id="g827">
    <path d="M 67.8,286.9 L 65.8,65.8 L 475.9,66.8 L 473.9,434.0 C 473.9,434.0 350.2,527.5 281.1,432.0 C 211.9,336.6 198.3,336.6 173.9,325.9 C 149.6,315.2 67.8,287.9 67.8,286.9 z " id="path1610" sodipodi:nodetypes="ccccccc" fill="#000000" fill-rule="evenodd" stroke="none" stroke-opacity="1" stroke-width="3.75" stroke-linejoin="miter" stroke-linecap="butt" fill-opacity="0.25" stroke-dasharray="none"/>
    <path d="M 442.1 260.3 L 444.1 39.2 L 34.0 40.2 L 36.0 407.4 C 36.0 407.4 159.7 500.9 228.8 405.5 C 298.0 310.0 311.6 310.0 336.0 299.3 C 360.3 288.6 442.1 261.3 442.1 260.3 z " id="path617" sodipodi:nodetypes="ccccccc" transform="matrix(-1.000000,0.000000,0.000000,1.000000,493.8213,8.766060)" fill="#ffffff" fill-rule="evenodd" stroke="black" stroke-opacity="1" stroke-width="10.000000" stroke-linejoin="round" stroke-linecap="butt" fill-opacity="1" stroke-dasharray="none"/>
  </g>
</svg>
