<?xml version="1.0" encoding="UTF-8" standalone="no"?>
<!-- Created with Inkscape (http://www.inkscape.org/) -->
<svg xmlns="http://www.w3.org/2000/svg" xmlns:cc="http://web.resource.org/cc/" xmlns:dc="http://purl.org/dc/elements/1.1/" xmlns:inkscape="http://www.inkscape.org/namespaces/inkscape" xmlns:rdf="http://www.w3.org/1999/02/22-rdf-syntax-ns#" xmlns:sodipodi="http://sodipodi.sourceforge.net/DTD/sodipodi-0.dtd" xmlns:xlink="http://www.w3.org/1999/xlink" height="297mm" id="svg1618" sodipodi:docbase="/home/cgoerner/workspace/openclipart/images" sodipodi:docname="queensland-outline.svg" sodipodi:version="0.32" width="210mm">
  
  <defs id="defs1620">
    <linearGradient id="linearGradient2690">
      <stop id="stop2691" offset="0.0000000" stop-color="#cabc77" stop-opacity="1.0000000"/>
      <stop id="stop2692" offset="1.0000000" stop-color="#7d8e5d" stop-opacity="1.0000000"/>
    </linearGradient>
  </defs>
  <sodipodi:namedview bordercolor="#666666" borderopacity="1.0" id="base" inkscape:cx="305.25953" inkscape:cy="417.84947" inkscape:pageopacity="0.0" inkscape:pageshadow="2" inkscape:window-height="528" inkscape:window-width="640" inkscape:window-x="1" inkscape:window-y="46" inkscape:zoom="0.43415836" pagecolor="#ffffff"/>
  <path d="M 355.7,176.8 L 354.9,177.6 L 353.0,177.4 L 352.0,180.3 L 350.1,182.2 L 347.4,182.3 L 347.8,183.2 L 346.7,182.5 L 347.1,182.2 L 345.1,183.3 L 345.5,186.5 L 345.4,187.1 L 345.6,187.6 L 345.9,187.1 L 345.8,187.8 L 344.5,190.2 L 344.8,194.0 L 343.8,196.1 L 342.9,197.9 L 342.9,198.4 L 342.6,198.4 L 341.8,201.5 L 341.6,201.7 L 341.1,203.5 L 341.2,203.9 L 343.6,203.8 L 343.1,204.6 L 340.6,204.3 L 339.3,209.2 L 339.5,209.7 L 340.1,209.4 L 339.6,209.8 L 340.6,210.2 L 341.2,211.6 L 341.9,210.1 L 342.1,210.1 L 341.5,212.4 L 339.6,211.4 L 339.0,212.4 L 339.5,214.1 L 338.3,214.7 L 339.3,214.0 L 338.0,209.8 L 338.6,209.1 L 337.7,208.9 L 337.0,209.7 L 334.0,215.7 L 334.7,216.0 L 335.0,215.7 L 335.9,216.3 L 335.0,216.2 L 334.7,216.6 L 334.9,216.2 L 333.4,216.0 L 330.0,224.3 L 330.8,224.9 L 332.6,224.3 L 332.6,223.8 L 331.4,223.8 L 332.0,221.9 L 332.6,222.3 L 334.4,222.2 L 332.6,223.2 L 334.3,224.1 L 335.7,225.8 L 337.3,225.2 L 337.7,225.7 L 338.9,224.9 L 339.9,225.8 L 338.6,225.7 L 338.0,226.2 L 337.7,225.8 L 335.9,227.1 L 337.3,227.7 L 338.3,229.2 L 339.7,229.0 L 339.3,229.1 L 339.7,229.4 L 338.0,229.8 L 338.7,234.0 L 337.5,232.0 L 337.6,229.2 L 336.6,228.1 L 335.7,228.4 L 335.7,227.7 L 333.7,232.1 L 331.2,233.7 L 330.8,233.4 L 330.0,234.6 L 329.5,235.6 L 330.4,237.0 L 330.4,240.1 L 332.1,242.7 L 331.0,244.7 L 331.4,244.9 L 332.4,244.1 L 333.1,244.1 L 331.7,244.9 L 333.3,246.1 L 332.7,246.0 L 333.0,247.0 L 332.4,246.2 L 332.0,246.5 L 332.3,245.8 L 331.1,246.2 L 330.5,245.7 L 327.9,249.7 L 325.8,257.9 L 325.6,259.9 L 328.7,264.1 L 329.2,266.8 L 328.7,266.7 L 328.8,269.0 L 326.6,274.5 L 328.1,284.3 L 329.2,286.3 L 330.0,289.3 L 328.8,291.0 L 329.1,292.2 L 327.8,293.3 L 327.6,293.5 L 326.5,296.8 L 326.4,297.4 L 324.2,302.3 L 322.1,311.5 L 321.6,312.1 L 322.9,316.2 L 320.9,319.4 L 319.3,324.2 L 319.0,324.6 L 319.2,326.5 L 318.1,328.3 L 317.3,329.2 L 316.6,331.8 L 316.4,331.9 L 313.7,334.7 L 313.4,334.5 L 312.7,336.8 L 310.1,339.6 L 309.8,340.7 L 310.4,340.7 L 309.4,344.2 L 309.1,344.7 L 307.9,349.5 L 306.3,351.7 L 303.0,352.8 L 300.4,354.7 L 299.7,354.8 L 296.7,356.3 L 296.8,355.7 L 294.7,356.6 L 291.2,356.8 L 290.6,356.8 L 287.8,357.3 L 285.5,356.8 L 284.3,356.0 L 283.7,354.5 L 281.3,353.7 L 280.9,352.9 L 279.3,353.1 L 278.6,352.4 L 276.7,351.9 L 275.8,350.9 L 275.5,351.8 L 275.4,350.5 L 274.2,349.9 L 272.5,347.9 L 271.8,348.3 L 271.9,347.8 L 271.2,347.3 L 268.2,347.1 L 266.6,345.7 L 264.7,342.3 L 264.3,339.6 L 264.7,338.1 L 263.1,337.4 L 261.8,335.8 L 261.8,334.8 L 254.8,332.7 L 251.6,330.6 L 247.9,330.9 L 244.9,329.6 L 244.3,329.6 L 244.1,329.6 L 239.8,327.7 L 239.8,327.6 L 238.5,327.0 L 235.2,323.6 L 229.6,571.8 L 300.7,575.3 L 296.3,653.9 L 376.8,660.1 L 427.7,665.3 L 479.1,671.5 L 481.1,670.2 L 482.3,667.7 L 483.6,667.7 L 489.2,664.4 L 489.8,664.8 L 492.2,662.3 L 495.8,663.3 L 497.9,663.7 L 501.0,664.0 L 504.9,664.1 L 509.2,664.3 L 511.1,663.7 L 514.5,667.3 L 516.3,667.6 L 516.3,668.0 L 517.3,667.7 L 518.5,668.5 L 521.3,667.7 L 523.9,669.6 L 524.6,669.6 L 525.2,670.9 L 527.1,671.7 L 527.4,674.3 L 528.7,674.1 L 531.4,676.4 L 532.1,678.3 L 531.7,681.4 L 532.4,682.7 L 532.1,683.3 L 534.0,684.0 L 536.9,681.6 L 536.9,680.2 L 538.2,678.7 L 540.5,678.4 L 542.6,677.1 L 543.5,679.7 L 544.2,679.5 L 544.8,680.0 L 545.4,678.7 L 547.8,679.2 L 549.8,678.1 L 549.4,677.7 L 550.6,674.8 L 551.3,674.2 L 551.1,673.5 L 549.8,672.5 L 549.8,670.7 L 549.1,669.7 L 549.4,668.9 L 550.0,668.6 L 550.0,669.2 L 550.7,669.3 L 552.1,668.0 L 554.3,667.4 L 555.6,668.0 L 558.1,666.2 L 559.8,666.6 L 560.6,665.7 L 560.8,664.8 L 561.4,665.0 L 561.9,664.1 L 563.0,664.0 L 563.7,664.4 L 563.2,665.4 L 564.2,666.6 L 565.4,664.8 L 565.8,666.2 L 568.1,667.9 L 569.4,667.7 L 573.5,667.9 L 576.9,668.0 L 578.1,667.6 L 578.4,666.4 L 579.6,667.2 L 580.8,666.4 L 582.5,667.2 L 585.7,665.3 L 586.9,666.0 L 587.2,665.7 L 586.7,665.7 L 585.7,664.7 L 585.6,663.7 L 585.1,663.8 L 585.6,663.6 L 585.1,657.7 L 585.7,655.5 L 584.8,655.1 L 584.7,652.9 L 583.8,651.7 L 583.8,650.0 L 584.4,649.7 L 583.7,648.7 L 584.1,647.8 L 583.4,647.8 L 583.1,646.4 L 582.8,646.8 L 581.8,646.6 L 581.7,644.6 L 580.7,645.1 L 579.6,645.4 L 581.0,644.8 L 581.5,643.4 L 579.9,642.4 L 579.6,640.9 L 578.8,641.1 L 579.8,640.8 L 579.6,639.7 L 580.1,640.5 L 580.8,640.7 L 581.2,639.4 L 581.2,638.8 L 579.5,638.7 L 579.5,636.8 L 579.8,637.5 L 580.5,636.5 L 582.4,635.9 L 581.7,635.6 L 581.2,634.0 L 580.8,634.2 L 581.1,633.5 L 580.4,633.3 L 580.5,632.9 L 581.1,633.2 L 580.7,632.2 L 581.5,631.4 L 581.2,633.3 L 583.0,636.8 L 584.0,636.1 L 582.8,630.9 L 583.2,629.0 L 582.5,630.9 L 583.0,629.0 L 583.2,629.0 L 583.7,629.0 L 583.8,625.7 L 581.8,624.0 L 583.1,624.5 L 583.4,621.5 L 584.7,617.8 L 582.8,617.8 L 583.7,617.6 L 584.1,613.7 L 588.0,606.4 L 587.1,606.8 L 586.1,606.1 L 585.7,603.1 L 585.0,602.7 L 585.6,603.2 L 584.8,603.8 L 585.1,604.8 L 584.8,605.4 L 584.1,605.1 L 584.8,606.0 L 584.3,606.1 L 583.7,607.4 L 583.2,606.7 L 584.3,605.8 L 584.0,605.0 L 584.3,604.9 L 584.3,604.1 L 584.1,604.1 L 584.3,603.1 L 583.6,602.2 L 582.7,602.3 L 582.7,602.8 L 582.5,602.1 L 583.6,602.1 L 583.7,601.5 L 582.7,601.1 L 582.0,599.9 L 582.4,599.5 L 581.2,599.1 L 581.7,598.5 L 582.4,598.7 L 581.7,595.4 L 582.4,595.3 L 582.0,594.9 L 582.8,595.0 L 582.8,594.2 L 582.7,594.2 L 583.4,593.4 L 582.5,593.6 L 583.4,593.1 L 583.7,593.4 L 584.3,592.6 L 581.5,593.8 L 579.4,593.7 L 581.5,593.6 L 582.4,592.3 L 583.2,592.3 L 582.2,591.7 L 583.0,591.8 L 583.6,592.4 L 583.6,588.4 L 582.1,588.1 L 581.8,587.1 L 581.1,587.7 L 578.1,586.7 L 577.2,584.8 L 575.8,584.5 L 575.5,585.1 L 575.8,584.3 L 575.3,584.2 L 577.4,584.5 L 577.8,584.1 L 576.1,581.6 L 574.9,578.7 L 575.2,577.7 L 574.3,578.0 L 575.3,577.4 L 575.1,574.7 L 573.9,572.8 L 573.5,572.8 L 573.2,573.8 L 573.0,573.8 L 573.2,572.2 L 571.1,571.7 L 569.9,570.1 L 569.3,569.4 L 569.8,570.1 L 569.4,569.8 L 569.0,570.0 L 569.3,569.8 L 567.4,567.2 L 566.6,565.3 L 566.0,565.6 L 566.4,565.2 L 565.1,562.6 L 564.7,557.7 L 563.5,555.1 L 563.2,555.7 L 562.4,555.7 L 561.4,554.1 L 560.4,553.8 L 561.4,554.0 L 560.6,551.7 L 561.1,551.2 L 560.5,550.8 L 560.3,551.2 L 558.3,549.8 L 557.5,549.7 L 557.3,550.5 L 558.1,550.4 L 558.1,551.1 L 558.9,551.8 L 559.1,552.2 L 558.6,552.1 L 558.9,553.1 L 557.9,551.8 L 556.5,550.9 L 555.9,551.8 L 556.0,552.0 L 555.6,553.0 L 555.2,551.2 L 554.3,550.9 L 553.9,551.7 L 553.5,550.4 L 553.3,552.0 L 552.7,550.4 L 553.1,550.1 L 552.0,547.9 L 551.6,547.9 L 551.1,545.9 L 550.3,546.9 L 550.6,545.3 L 547.7,543.7 L 547.1,542.6 L 547.4,541.4 L 547.0,541.7 L 546.5,540.6 L 547.0,540.3 L 546.2,539.8 L 546.8,539.8 L 545.2,538.7 L 544.7,536.7 L 544.7,538.1 L 544.2,538.1 L 544.5,537.0 L 543.6,536.4 L 543.5,537.6 L 542.6,537.8 L 543.1,538.3 L 542.5,537.8 L 542.4,539.6 L 541.9,537.8 L 540.6,536.1 L 541.4,536.2 L 541.4,535.8 L 539.5,534.4 L 541.1,534.7 L 541.5,534.1 L 540.3,531.9 L 540.1,529.6 L 539.5,529.3 L 539.5,528.9 L 540.2,529.3 L 541.2,528.1 L 541.1,527.1 L 539.9,526.5 L 540.5,526.5 L 540.6,525.5 L 539.6,524.6 L 540.8,520.1 L 540.3,521.0 L 540.8,519.6 L 540.1,520.1 L 539.8,519.0 L 541.5,519.6 L 541.4,518.1 L 543.1,513.1 L 541.8,511.9 L 542.1,508.7 L 541.5,508.6 L 541.9,509.5 L 540.9,510.5 L 541.2,511.6 L 540.2,511.5 L 539.8,510.6 L 540.6,511.3 L 540.6,509.3 L 539.6,509.5 L 539.9,509.1 L 539.2,507.2 L 539.8,507.6 L 539.9,507.2 L 540.8,508.5 L 541.8,506.7 L 540.3,506.0 L 540.1,503.8 L 539.5,504.3 L 539.9,505.2 L 539.6,506.5 L 539.5,505.7 L 538.7,506.2 L 539.1,505.6 L 539.5,505.4 L 538.5,504.7 L 539.2,504.6 L 538.7,503.7 L 539.2,504.2 L 539.5,503.6 L 537.5,502.6 L 536.5,504.7 L 537.0,505.6 L 536.5,505.3 L 536.6,505.7 L 537.7,506.5 L 536.5,506.0 L 538.0,507.6 L 537.3,507.0 L 536.9,507.2 L 539.1,508.6 L 538.9,509.2 L 538.3,508.7 L 538.3,509.3 L 538.0,508.2 L 537.0,507.9 L 537.7,510.5 L 538.7,510.8 L 537.9,510.8 L 538.3,511.8 L 536.9,509.2 L 536.0,509.9 L 536.3,509.3 L 535.7,508.7 L 536.3,508.9 L 535.0,507.7 L 535.5,509.2 L 535.0,507.9 L 534.1,507.7 L 533.3,506.3 L 531.0,504.4 L 531.0,503.8 L 529.0,503.4 L 528.1,502.4 L 528.5,501.6 L 527.8,500.8 L 527.8,499.7 L 526.5,498.4 L 526.4,496.7 L 525.5,495.8 L 523.2,497.1 L 521.9,500.6 L 523.2,501.0 L 521.8,501.1 L 523.8,509.1 L 524.4,509.8 L 523.1,508.7 L 522.5,506.5 L 520.8,504.9 L 519.2,501.7 L 518.5,502.8 L 515.9,504.4 L 516.1,504.7 L 515.3,504.6 L 514.3,506.5 L 515.0,504.3 L 516.4,503.4 L 516.7,501.6 L 516.4,500.4 L 515.4,501.0 L 514.7,500.6 L 515.6,500.6 L 515.0,499.0 L 513.4,498.8 L 512.6,499.8 L 512.0,499.5 L 513.4,498.8 L 514.6,498.2 L 513.7,495.9 L 513.3,496.1 L 513.8,495.5 L 513.0,492.8 L 513.3,491.6 L 512.0,488.7 L 512.4,486.6 L 511.6,486.6 L 512.3,486.2 L 511.7,485.6 L 511.6,484.0 L 512.3,483.7 L 512.8,484.1 L 513.0,483.7 L 512.3,483.3 L 512.1,481.2 L 513.7,478.9 L 513.1,478.5 L 512.4,479.7 L 512.3,478.9 L 511.4,478.9 L 511.0,478.4 L 511.6,477.2 L 510.4,477.5 L 510.2,476.7 L 509.1,477.2 L 509.0,477.9 L 509.0,476.8 L 508.4,476.3 L 509.2,476.3 L 509.4,475.2 L 510.2,475.5 L 510.2,475.1 L 508.7,474.3 L 510.0,474.3 L 509.8,471.2 L 509.1,471.2 L 508.7,470.3 L 506.8,472.0 L 507.4,471.0 L 506.6,470.9 L 507.6,470.0 L 507.1,469.0 L 506.4,469.2 L 506.9,468.9 L 507.1,469.0 L 507.4,469.3 L 507.8,467.4 L 506.6,467.1 L 507.9,467.1 L 508.1,467.7 L 508.5,465.7 L 507.9,465.7 L 507.2,464.6 L 506.9,463.7 L 506.4,463.4 L 506.1,464.2 L 505.5,462.7 L 503.9,462.8 L 503.3,463.4 L 503.6,462.0 L 504.1,462.1 L 503.6,461.4 L 504.8,461.4 L 504.2,460.5 L 503.5,460.8 L 502.3,459.7 L 501.3,459.9 L 500.7,458.9 L 499.3,459.9 L 499.6,457.9 L 498.4,457.6 L 498.7,457.1 L 499.7,457.1 L 497.1,454.7 L 497.1,453.7 L 496.1,453.9 L 497.4,452.9 L 495.3,450.2 L 496.1,450.7 L 497.3,449.1 L 496.6,447.4 L 498.6,448.7 L 499.6,448.0 L 499.6,447.3 L 500.0,449.4 L 500.7,450.3 L 502.6,450.7 L 501.6,449.4 L 502.3,449.1 L 502.1,448.8 L 501.5,448.8 L 500.6,447.7 L 500.7,446.7 L 500.3,446.4 L 500.9,445.7 L 499.2,443.8 L 500.0,443.7 L 499.5,443.4 L 499.5,442.4 L 498.9,442.2 L 498.3,443.2 L 497.0,443.1 L 497.3,442.1 L 496.7,442.2 L 496.7,441.7 L 497.3,440.5 L 496.4,441.5 L 496.3,440.2 L 496.0,441.5 L 495.3,441.2 L 495.8,440.3 L 494.8,440.8 L 495.3,439.9 L 494.6,440.1 L 494.6,437.2 L 493.7,437.9 L 492.0,436.7 L 491.5,438.2 L 492.7,438.6 L 491.4,439.4 L 491.0,439.3 L 490.8,439.9 L 490.5,439.8 L 490.4,439.2 L 488.8,438.9 L 488.9,438.6 L 487.4,437.1 L 487.8,436.7 L 486.5,435.7 L 486.8,435.2 L 487.5,435.3 L 487.4,434.0 L 486.8,434.2 L 486.3,433.3 L 484.6,432.9 L 484.9,433.4 L 483.7,432.7 L 483.2,431.0 L 480.7,431.9 L 479.6,431.6 L 478.6,430.4 L 478.9,431.2 L 478.0,429.7 L 477.7,426.5 L 477.1,425.7 L 475.4,425.4 L 475.1,427.1 L 475.8,428.8 L 476.4,429.0 L 476.0,429.1 L 473.2,428.4 L 471.4,425.5 L 470.9,426.0 L 471.2,425.1 L 471.5,425.2 L 471.6,424.4 L 470.1,423.8 L 471.5,423.7 L 471.2,422.3 L 470.4,421.9 L 471.2,422.2 L 471.2,421.6 L 470.8,420.3 L 470.6,420.4 L 470.5,420.1 L 469.4,418.2 L 468.7,416.4 L 468.2,417.2 L 465.0,416.3 L 463.5,417.2 L 463.3,416.5 L 461.9,416.0 L 461.4,416.7 L 461.6,415.9 L 460.9,415.9 L 460.6,417.0 L 460.3,415.3 L 458.7,412.7 L 459.3,411.7 L 458.3,409.7 L 458.4,410.4 L 456.8,412.7 L 454.8,412.4 L 453.9,411.6 L 453.5,411.7 L 453.8,411.0 L 452.6,410.6 L 452.4,409.1 L 449.3,408.8 L 444.7,405.4 L 440.3,399.3 L 442.6,393.6 L 441.8,393.4 L 442.6,392.8 L 442.4,391.8 L 442.1,391.4 L 442.9,391.6 L 442.7,390.7 L 442.3,390.4 L 442.1,390.8 L 441.7,390.1 L 441.2,390.2 L 440.8,389.7 L 440.0,389.5 L 439.4,390.1 L 439.8,389.2 L 439.1,388.9 L 439.6,388.8 L 439.2,388.2 L 438.5,388.5 L 438.1,385.9 L 438.1,386.9 L 435.2,382.5 L 434.9,380.3 L 435.8,378.3 L 436.5,377.0 L 435.8,376.7 L 436.5,376.8 L 437.0,375.6 L 437.1,376.0 L 437.8,375.7 L 437.8,373.8 L 438.5,372.7 L 437.8,370.7 L 438.5,370.4 L 438.2,368.7 L 439.6,367.2 L 439.2,365.9 L 438.7,366.8 L 438.6,366.7 L 439.1,365.8 L 437.7,363.5 L 438.1,360.4 L 436.5,358.4 L 435.4,353.2 L 434.1,351.2 L 434.4,349.5 L 435.9,346.9 L 435.1,346.0 L 434.6,346.9 L 433.9,347.1 L 433.4,346.0 L 431.5,347.3 L 431.1,346.7 L 431.5,346.0 L 430.9,345.7 L 430.2,343.9 L 429.3,343.2 L 429.0,342.2 L 426.9,340.6 L 424.6,336.7 L 424.4,334.9 L 423.0,334.4 L 423.3,331.2 L 424.1,329.8 L 423.3,329.5 L 425.1,329.6 L 424.0,326.9 L 425.1,324.4 L 423.6,320.6 L 422.1,320.3 L 423.0,317.8 L 422.4,316.9 L 422.8,314.8 L 421.7,312.6 L 422.0,310.7 L 419.4,309.2 L 420.8,309.5 L 421.1,308.6 L 420.5,307.6 L 420.1,307.6 L 421.7,304.8 L 421.4,304.1 L 423.3,303.1 L 422.8,301.7 L 422.1,302.6 L 421.0,302.4 L 420.5,299.5 L 419.8,298.8 L 420.5,299.2 L 421.6,297.2 L 423.6,295.3 L 423.4,294.5 L 421.7,294.5 L 420.2,292.3 L 420.5,291.2 L 417.5,290.7 L 417.1,290.0 L 416.6,290.6 L 416.6,289.9 L 415.8,290.2 L 415.1,288.7 L 413.6,288.0 L 413.6,286.4 L 412.9,286.0 L 412.6,284.6 L 409.9,284.0 L 409.5,282.7 L 407.0,282.5 L 405.4,280.4 L 405.4,279.2 L 406.4,277.5 L 404.8,277.3 L 405.3,274.7 L 403.2,272.0 L 402.5,272.0 L 401.7,273.7 L 400.4,274.5 L 400.7,274.7 L 399.9,274.6 L 398.6,275.3 L 397.1,275.1 L 395.5,273.6 L 394.9,273.7 L 394.9,275.5 L 394.2,277.1 L 390.7,279.4 L 388.7,279.2 L 388.3,280.1 L 388.0,279.1 L 386.3,278.7 L 385.0,277.6 L 383.5,275.3 L 382.5,271.3 L 382.2,266.1 L 380.6,264.7 L 380.1,262.1 L 378.5,259.3 L 379.5,255.0 L 380.4,253.7 L 379.2,253.6 L 380.2,253.6 L 380.6,250.6 L 380.2,249.3 L 378.9,248.0 L 379.1,244.1 L 378.6,242.8 L 378.6,237.6 L 379.9,235.3 L 378.3,235.7 L 377.5,235.3 L 376.2,236.2 L 376.6,237.2 L 375.9,237.7 L 375.9,237.2 L 375.0,236.9 L 375.6,236.6 L 374.9,236.3 L 375.0,234.6 L 376.9,230.7 L 376.3,230.4 L 377.3,229.1 L 374.2,227.2 L 373.3,225.7 L 372.4,226.1 L 373.5,225.4 L 373.3,223.3 L 372.7,222.6 L 371.0,221.5 L 369.8,221.5 L 370.1,221.9 L 369.4,221.2 L 369.0,221.8 L 368.4,221.2 L 369.0,216.9 L 368.1,215.7 L 369.0,216.3 L 371.6,212.1 L 372.6,212.3 L 372.9,211.7 L 372.1,211.2 L 371.1,211.8 L 370.6,210.2 L 369.3,209.5 L 367.6,210.5 L 366.1,210.4 L 363.1,207.7 L 363.4,202.5 L 362.6,198.0 L 363.8,196.0 L 363.2,194.3 L 362.1,193.0 L 362.1,187.6 L 360.3,184.3 L 359.2,184.6 L 358.6,185.5 L 359.2,184.0 L 358.5,183.6 L 357.2,183.9 L 357.9,182.7 L 357.2,181.7 L 357.2,182.2 L 356.3,181.7 L 355.9,182.3 L 356.5,183.7 L 355.6,183.0 L 355.2,183.7 L 354.7,183.9 L 355.3,180.9 L 356.0,180.7 L 357.7,178.6 L 356.5,178.0 L 355.7,176.8 z M 468.7,416.4 L 468.8,416.3 L 468.6,415.9 L 468.7,416.4 z M 468.6,415.9 L 467.9,414.2 L 467.3,413.7 L 468.6,415.9 z M 513.8,500.6 L 514.3,500.6 L 514.0,501.0 L 513.8,500.6 z M 560.3,551.3 L 559.8,552.8 L 559.6,551.7 L 560.3,551.3 z M 568.4,570.5 L 568.9,570.8 L 568.0,570.8 L 568.4,570.5 z M 572.5,573.8 L 572.6,573.8 L 572.7,574.8 L 572.5,573.8 z " id="path719" fill="none" fill-rule="evenodd" stroke="#000000" stroke-width="1.1750000" stroke-linecap="round" stroke-linejoin="round" stroke-miterlimit="4.0000000" stroke-opacity="1.0000000"/>
</svg>
