<?xml version="1.0" encoding="UTF-8" standalone="no"?>
<!-- Created with Inkscape (http://www.inkscape.org/) -->
<svg xmlns="http://www.w3.org/2000/svg" xmlns:cc="http://web.resource.org/cc/" xmlns:dc="http://purl.org/dc/elements/1.1/" xmlns:inkscape="http://www.inkscape.org/namespaces/inkscape" xmlns:rdf="http://www.w3.org/1999/02/22-rdf-syntax-ns#" xmlns:sodipodi="http://sodipodi.sourceforge.net/DTD/sodipodi-0.dtd" xmlns:xlink="http://www.w3.org/1999/xlink" height="297mm" id="svg4130" sodipodi:docbase="/home/cgoerner/workspace/openclipart/images" sodipodi:docname="western-australia-outline.svg" sodipodi:version="0.32" width="210mm">
  
  <defs id="defs4132">
    <linearGradient id="linearGradient2690">
      <stop id="stop2691" offset="0.0000000" stop-color="#cabc77" stop-opacity="1.0000000"/>
      <stop id="stop2692" offset="1.0000000" stop-color="#7d8e5d" stop-opacity="1.0000000"/>
    </linearGradient>
  </defs>
  <sodipodi:namedview bordercolor="#666666" borderopacity="1.0" id="base" inkscape:cx="305.25953" inkscape:cy="417.84947" inkscape:pageopacity="0.0" inkscape:pageshadow="2" inkscape:window-height="528" inkscape:window-width="640" inkscape:window-x="0" inkscape:window-y="46" inkscape:zoom="0.43415836" pagecolor="#ffffff"/>
  <path d="M 534.8,261.5 L 529.4,260.8 L 529.2,262.0 L 529.1,260.8 L 527.9,259.8 L 525.8,259.7 L 526.8,260.4 L 524.5,259.2 L 523.8,259.7 L 523.9,260.0 L 523.2,259.7 L 519.9,260.8 L 522.9,262.6 L 522.2,262.7 L 522.9,263.3 L 522.3,263.7 L 523.2,264.7 L 523.6,264.3 L 523.5,265.7 L 524.0,266.3 L 520.6,262.4 L 521.5,264.9 L 522.9,265.4 L 523.2,266.2 L 522.9,265.6 L 521.9,265.6 L 522.3,266.3 L 521.9,266.0 L 521.9,266.4 L 522.0,267.2 L 521.3,267.0 L 520.0,265.6 L 519.6,266.0 L 519.4,265.4 L 520.4,268.2 L 520.0,267.3 L 519.4,268.3 L 519.9,267.7 L 519.4,267.0 L 518.9,267.7 L 519.0,266.9 L 517.7,264.9 L 517.7,266.0 L 517.3,265.6 L 516.6,266.0 L 517.3,265.2 L 516.3,265.7 L 515.4,267.6 L 515.4,268.3 L 516.7,269.9 L 516.0,269.3 L 516.1,270.2 L 517.0,270.6 L 516.8,271.1 L 516.1,270.3 L 516.1,271.2 L 518.4,274.5 L 518.7,277.8 L 519.1,278.5 L 520.2,278.5 L 519.3,279.1 L 518.6,278.7 L 517.7,274.7 L 513.8,270.8 L 513.1,272.4 L 514.0,273.4 L 514.1,274.7 L 513.8,274.7 L 513.5,277.1 L 512.5,278.8 L 512.8,279.1 L 510.9,279.4 L 512.1,278.4 L 513.0,276.4 L 512.2,274.2 L 510.8,273.6 L 512.2,273.9 L 513.0,273.4 L 513.0,270.3 L 512.1,268.2 L 513.0,267.6 L 513.0,264.4 L 513.8,262.6 L 512.5,262.6 L 512.5,263.0 L 512.5,262.3 L 515.4,261.7 L 515.0,259.2 L 514.0,258.8 L 515.8,259.2 L 515.7,258.1 L 514.3,258.1 L 512.2,256.4 L 511.8,256.8 L 511.8,256.1 L 509.8,254.6 L 508.9,255.8 L 508.3,254.6 L 508.8,253.8 L 507.1,252.3 L 506.3,252.8 L 506.9,252.0 L 506.6,251.2 L 505.5,251.9 L 505.6,250.5 L 504.6,250.2 L 504.3,249.3 L 503.6,249.9 L 504.3,248.9 L 502.0,246.6 L 501.3,245.0 L 498.3,243.0 L 497.4,243.4 L 497.7,242.5 L 497.0,242.7 L 497.3,242.1 L 496.7,242.1 L 496.4,242.7 L 496.3,242.1 L 495.8,242.3 L 496.0,240.5 L 495.0,239.7 L 495.0,239.1 L 494.4,239.8 L 493.1,238.2 L 492.2,238.5 L 492.9,239.2 L 492.5,239.7 L 493.2,240.5 L 493.8,240.2 L 493.4,240.5 L 492.1,240.1 L 492.4,239.7 L 491.1,239.2 L 490.8,238.2 L 489.9,238.4 L 489.3,240.1 L 488.8,239.5 L 488.9,238.4 L 487.8,240.5 L 487.0,240.4 L 487.2,239.7 L 486.5,239.1 L 486.6,238.1 L 485.6,238.7 L 486.0,236.8 L 485.2,237.2 L 485.2,236.1 L 484.9,236.8 L 484.7,236.4 L 484.2,236.5 L 484.6,235.9 L 484.0,235.8 L 483.9,235.1 L 483.7,235.5 L 482.9,234.3 L 481.6,234.5 L 482.4,235.1 L 482.0,235.3 L 480.7,234.8 L 480.0,235.1 L 481.0,236.1 L 480.1,236.1 L 479.8,236.6 L 479.3,235.5 L 477.4,236.1 L 479.0,239.7 L 479.8,239.5 L 481.6,241.0 L 482.1,240.7 L 481.1,241.2 L 479.7,240.8 L 479.4,241.2 L 477.7,240.8 L 477.8,241.2 L 477.0,241.5 L 476.4,241.0 L 476.4,242.3 L 477.0,242.5 L 477.7,241.8 L 477.8,242.8 L 477.1,243.3 L 477.0,244.7 L 476.4,245.1 L 476.1,244.1 L 474.9,243.7 L 475.2,246.1 L 474.8,246.7 L 474.1,246.6 L 474.4,248.3 L 473.8,247.9 L 473.1,248.3 L 473.1,245.6 L 471.9,246.0 L 471.3,245.4 L 471.8,244.0 L 470.8,244.8 L 470.2,244.6 L 471.2,243.3 L 470.9,242.3 L 472.9,240.4 L 473.2,240.7 L 472.2,240.1 L 471.2,241.0 L 470.9,242.0 L 469.8,242.1 L 469.8,241.7 L 468.5,242.5 L 468.5,243.6 L 467.0,243.6 L 467.3,244.7 L 466.6,244.8 L 466.2,246.0 L 467.9,247.3 L 466.6,247.6 L 466.4,248.7 L 466.4,248.7 L 465.9,248.0 L 465.6,248.7 L 465.7,247.9 L 465.1,248.6 L 464.7,248.3 L 464.7,249.0 L 464.1,248.7 L 464.6,247.9 L 465.0,248.0 L 464.9,247.2 L 463.7,247.3 L 463.4,246.9 L 463.9,246.0 L 463.1,246.0 L 464.1,245.6 L 464.0,244.4 L 462.8,245.6 L 463.4,244.3 L 462.4,244.4 L 464.3,243.1 L 463.7,242.5 L 462.1,243.0 L 464.3,242.1 L 463.3,241.7 L 461.4,243.4 L 462.6,242.0 L 461.7,241.7 L 462.7,240.5 L 460.7,241.2 L 461.3,240.5 L 460.7,240.5 L 460.8,239.8 L 460.1,241.1 L 459.4,240.5 L 458.7,240.8 L 460.7,242.3 L 461.3,242.0 L 460.7,243.1 L 461.1,243.8 L 460.4,243.7 L 460.3,242.4 L 459.5,242.3 L 459.1,242.7 L 460.0,243.4 L 459.4,243.7 L 459.2,243.1 L 458.8,244.6 L 458.8,243.4 L 458.1,242.5 L 457.8,242.8 L 458.8,245.0 L 459.2,245.3 L 461.1,244.7 L 462.8,246.4 L 462.3,246.7 L 462.7,247.3 L 462.0,248.7 L 460.1,249.5 L 461.0,251.9 L 459.0,253.2 L 458.4,253.2 L 458.7,253.8 L 459.4,253.6 L 460.3,256.7 L 459.1,256.5 L 459.1,257.8 L 458.1,256.5 L 456.9,257.1 L 456.7,258.1 L 457.5,259.8 L 457.2,260.3 L 456.9,259.8 L 457.1,260.7 L 456.5,260.3 L 456.4,260.7 L 456.9,260.1 L 456.7,259.5 L 454.8,258.4 L 455.2,257.8 L 454.6,257.4 L 455.2,257.1 L 454.3,256.2 L 455.5,255.6 L 455.2,255.1 L 454.1,255.8 L 454.3,255.1 L 453.9,254.8 L 453.3,255.8 L 452.5,255.9 L 452.8,255.1 L 452.3,254.5 L 452.8,254.2 L 452.0,254.1 L 451.9,255.4 L 450.0,260.7 L 451.2,256.5 L 450.3,255.1 L 450.5,254.4 L 450.0,254.8 L 450.5,254.1 L 450.0,253.5 L 450.7,252.8 L 450.5,252.2 L 452.0,252.3 L 451.9,251.8 L 451.3,251.9 L 452.0,250.8 L 451.3,251.3 L 449.9,249.7 L 449.7,250.5 L 449.5,249.5 L 448.6,249.6 L 448.9,250.3 L 448.4,249.9 L 448.0,250.3 L 448.6,250.6 L 448.2,251.8 L 448.7,252.5 L 448.4,253.2 L 449.3,253.6 L 448.6,256.8 L 449.2,257.1 L 448.2,258.0 L 448.9,258.2 L 447.1,258.4 L 447.9,257.1 L 446.1,257.1 L 446.3,258.2 L 445.6,257.7 L 445.9,258.5 L 445.1,259.0 L 445.4,259.7 L 444.7,259.4 L 445.0,260.8 L 444.6,259.5 L 444.1,260.3 L 444.4,259.2 L 444.0,258.1 L 442.4,260.1 L 443.0,258.8 L 442.8,257.2 L 442.3,257.7 L 442.4,258.8 L 442.0,258.7 L 441.8,259.2 L 441.2,258.7 L 441.2,259.1 L 440.1,259.8 L 440.4,260.8 L 441.0,260.5 L 442.0,261.3 L 440.4,261.4 L 440.4,262.3 L 439.7,261.6 L 439.1,261.7 L 439.1,263.1 L 438.8,262.6 L 438.2,262.8 L 438.5,263.9 L 437.8,263.4 L 437.4,263.9 L 438.1,265.0 L 438.9,265.0 L 438.5,266.3 L 439.2,266.9 L 440.1,266.0 L 439.9,266.9 L 441.1,266.4 L 441.5,267.0 L 441.7,266.6 L 441.8,267.2 L 442.3,267.2 L 441.4,267.7 L 441.5,268.6 L 440.5,267.7 L 440.4,268.3 L 440.1,268.0 L 438.7,269.5 L 439.2,269.2 L 439.7,269.6 L 440.5,268.9 L 440.5,269.9 L 441.8,269.2 L 441.1,269.8 L 441.4,270.3 L 442.5,269.9 L 443.0,270.5 L 443.3,270.0 L 444.1,270.9 L 444.3,269.2 L 444.7,270.6 L 446.1,270.0 L 443.5,271.5 L 443.4,272.1 L 444.1,271.9 L 444.4,272.4 L 443.1,273.1 L 445.9,273.5 L 447.1,274.4 L 446.7,273.9 L 444.6,274.4 L 443.7,273.8 L 442.5,274.1 L 442.8,274.8 L 442.3,274.1 L 442.4,274.7 L 441.2,274.1 L 441.2,272.9 L 441.0,273.4 L 439.9,273.1 L 438.2,274.7 L 437.2,273.1 L 437.4,271.8 L 436.8,271.5 L 436.6,272.4 L 435.9,272.5 L 436.2,271.8 L 435.5,271.6 L 436.3,270.3 L 434.9,270.6 L 434.5,270.3 L 434.5,271.8 L 435.3,272.8 L 434.9,273.8 L 434.5,273.2 L 433.6,274.4 L 431.9,273.8 L 429.9,275.4 L 430.0,276.0 L 431.6,275.5 L 430.7,276.2 L 431.2,276.5 L 430.9,277.5 L 431.5,277.1 L 431.2,278.0 L 432.7,276.5 L 432.6,276.0 L 433.5,276.4 L 433.3,276.0 L 433.9,275.2 L 434.0,276.1 L 434.5,274.8 L 434.9,275.2 L 435.3,274.8 L 435.8,275.4 L 434.3,277.1 L 433.5,276.4 L 432.3,277.1 L 432.2,277.4 L 432.9,277.4 L 432.2,277.7 L 432.6,278.4 L 432.0,278.0 L 431.2,279.0 L 431.7,279.0 L 431.6,279.7 L 432.2,279.4 L 431.7,279.8 L 432.9,280.1 L 435.1,278.1 L 435.3,278.7 L 436.5,279.0 L 436.3,277.7 L 436.8,278.1 L 436.9,277.7 L 436.6,279.6 L 438.2,279.1 L 436.6,279.8 L 436.2,282.3 L 441.0,285.6 L 436.8,282.9 L 435.8,283.2 L 435.9,284.2 L 435.6,283.9 L 435.5,284.6 L 434.9,284.6 L 435.1,283.2 L 434.5,283.9 L 434.5,283.4 L 433.5,283.4 L 434.6,282.6 L 433.9,281.6 L 433.5,282.1 L 433.3,281.1 L 432.6,281.3 L 432.7,280.7 L 431.3,280.1 L 431.2,280.7 L 430.2,280.6 L 430.4,279.0 L 429.9,279.7 L 428.9,279.0 L 428.1,280.6 L 427.6,280.4 L 428.6,279.3 L 428.0,278.7 L 427.6,279.1 L 427.9,278.7 L 427.1,278.8 L 427.1,278.1 L 426.7,278.8 L 426.1,278.1 L 425.8,279.4 L 426.6,279.3 L 426.8,279.8 L 425.7,280.0 L 425.8,280.8 L 427.0,280.4 L 427.0,280.8 L 428.0,280.8 L 426.1,282.0 L 426.1,283.4 L 426.7,283.7 L 426.4,284.3 L 425.7,284.0 L 425.4,282.7 L 425.1,285.3 L 424.8,284.7 L 424.0,285.3 L 424.0,284.7 L 423.2,284.9 L 422.2,284.0 L 420.5,285.0 L 421.7,284.6 L 422.1,285.5 L 421.2,285.0 L 420.9,285.9 L 419.8,286.3 L 420.2,287.0 L 419.6,288.3 L 420.1,287.5 L 420.2,287.9 L 420.8,287.6 L 420.4,288.3 L 420.9,289.1 L 420.2,289.6 L 419.8,288.6 L 419.6,289.9 L 418.9,289.2 L 418.6,289.8 L 419.2,289.8 L 419.5,291.1 L 420.1,290.9 L 419.1,290.9 L 420.1,295.1 L 420.4,294.4 L 420.8,294.8 L 421.1,293.1 L 421.2,294.4 L 421.9,295.1 L 421.8,296.7 L 422.1,296.1 L 422.7,296.3 L 422.4,298.1 L 424.8,293.1 L 426.8,291.4 L 426.1,292.4 L 427.1,292.1 L 427.3,291.2 L 427.1,292.1 L 428.7,292.5 L 427.4,292.8 L 426.7,294.0 L 427.0,294.5 L 426.1,293.8 L 425.0,295.0 L 425.4,295.7 L 425.0,297.0 L 425.8,297.3 L 424.7,297.1 L 424.4,297.8 L 425.0,298.6 L 424.4,298.4 L 424.8,300.7 L 425.4,300.6 L 425.4,299.7 L 425.7,300.3 L 426.3,300.3 L 425.0,301.2 L 424.1,301.0 L 423.2,302.4 L 423.8,303.2 L 424.7,303.0 L 423.2,303.6 L 423.7,303.0 L 423.1,302.6 L 423.0,303.0 L 423.0,302.2 L 421.7,300.9 L 422.1,300.1 L 421.1,299.9 L 421.1,302.9 L 421.4,302.9 L 420.1,302.7 L 419.6,303.9 L 420.5,304.3 L 419.9,305.5 L 420.5,306.0 L 420.2,307.2 L 421.2,307.6 L 425.4,306.2 L 425.1,306.6 L 427.9,306.6 L 430.9,308.4 L 433.2,308.2 L 434.3,306.3 L 435.1,307.1 L 434.5,306.9 L 433.3,308.2 L 431.2,309.1 L 431.5,308.6 L 429.1,307.8 L 421.8,308.9 L 420.1,307.3 L 418.9,309.4 L 420.2,309.1 L 421.1,310.9 L 422.7,311.1 L 422.2,311.2 L 422.8,312.0 L 421.8,311.1 L 421.2,311.2 L 421.2,312.2 L 421.8,312.4 L 421.2,312.2 L 421.4,312.8 L 421.1,312.4 L 420.7,313.1 L 420.9,311.5 L 420.2,309.9 L 418.6,310.7 L 416.6,310.5 L 418.2,310.5 L 418.8,309.8 L 418.6,309.2 L 416.0,309.5 L 415.2,307.9 L 414.7,308.2 L 415.2,307.6 L 414.7,306.8 L 413.3,306.2 L 411.3,306.2 L 410.9,305.8 L 410.3,306.0 L 408.0,304.8 L 408.1,305.3 L 409.3,305.8 L 409.0,306.0 L 410.7,306.8 L 410.3,307.2 L 409.7,306.5 L 408.6,307.1 L 410.0,308.9 L 410.9,309.2 L 409.4,308.9 L 410.0,309.9 L 409.6,309.6 L 408.7,308.8 L 409.4,308.8 L 407.4,307.2 L 408.3,308.5 L 407.4,308.4 L 408.0,308.6 L 407.4,308.5 L 407.8,310.4 L 407.0,310.1 L 407.3,311.1 L 406.3,308.8 L 407.4,309.1 L 407.0,307.9 L 406.3,307.6 L 405.8,308.2 L 403.4,306.3 L 404.4,306.3 L 404.2,305.9 L 405.1,306.5 L 403.9,304.6 L 404.8,305.5 L 404.8,305.0 L 405.5,305.2 L 404.8,304.8 L 405.2,304.3 L 402.5,303.0 L 403.2,303.7 L 402.8,303.7 L 403.1,304.0 L 402.7,303.6 L 402.7,304.6 L 402.2,303.6 L 401.2,304.3 L 400.5,304.0 L 400.9,304.8 L 400.3,304.2 L 399.6,304.3 L 400.8,305.9 L 399.3,304.5 L 398.9,304.8 L 399.1,305.6 L 400.1,305.6 L 399.2,305.8 L 399.9,306.0 L 399.6,306.3 L 400.8,306.8 L 399.5,306.5 L 399.9,306.8 L 399.3,307.3 L 398.9,306.9 L 398.8,307.3 L 400.2,308.4 L 400.9,308.2 L 400.5,307.3 L 402.2,308.5 L 402.7,308.2 L 402.9,309.5 L 403.4,309.5 L 401.9,309.5 L 401.9,309.8 L 401.8,309.2 L 401.1,309.4 L 402.4,310.7 L 403.4,310.7 L 401.1,310.9 L 400.9,311.4 L 400.3,310.5 L 398.6,310.5 L 399.9,311.2 L 397.8,310.9 L 401.8,312.2 L 401.9,312.8 L 400.1,313.1 L 401.9,313.5 L 400.3,313.7 L 397.2,312.5 L 396.9,312.7 L 397.8,313.7 L 396.0,313.5 L 397.2,313.8 L 398.3,315.8 L 398.5,315.0 L 399.2,315.1 L 398.8,314.4 L 400.3,314.1 L 401.5,314.8 L 400.3,314.8 L 400.9,315.7 L 400.6,315.1 L 399.8,315.4 L 399.5,316.0 L 400.1,316.6 L 398.3,317.0 L 398.3,317.6 L 401.4,317.6 L 402.9,319.3 L 403.7,318.7 L 403.7,319.3 L 404.4,320.2 L 404.2,320.9 L 405.1,321.6 L 405.2,320.9 L 405.2,321.6 L 405.7,321.9 L 405.0,321.6 L 405.0,322.5 L 406.1,323.3 L 408.1,321.9 L 409.6,321.6 L 409.0,320.0 L 409.7,320.7 L 410.0,319.9 L 409.7,320.4 L 410.3,320.7 L 409.7,321.0 L 409.7,321.9 L 406.7,324.6 L 408.0,324.8 L 407.4,325.2 L 408.1,326.2 L 408.6,326.2 L 408.0,326.5 L 406.8,325.6 L 406.0,325.9 L 406.7,327.5 L 407.4,327.5 L 406.7,327.6 L 407.1,329.2 L 408.6,330.8 L 409.4,330.7 L 409.9,332.4 L 409.3,331.0 L 408.3,331.2 L 406.8,330.4 L 403.9,327.1 L 403.4,328.1 L 403.1,327.2 L 402.7,327.4 L 402.4,326.1 L 402.9,326.2 L 402.1,325.8 L 401.4,326.4 L 401.9,326.8 L 401.4,326.8 L 401.2,325.6 L 400.3,327.4 L 400.9,328.9 L 403.7,331.8 L 402.4,331.1 L 402.8,332.1 L 401.9,331.2 L 401.6,335.0 L 400.9,335.9 L 400.8,337.0 L 401.6,337.4 L 400.8,337.3 L 400.8,337.9 L 401.8,339.6 L 401.6,341.8 L 401.1,342.0 L 401.2,342.6 L 401.2,339.9 L 400.3,340.0 L 401.1,339.6 L 400.3,339.0 L 399.3,339.3 L 399.8,337.9 L 397.6,335.6 L 397.2,335.0 L 395.9,335.1 L 396.3,334.8 L 396.0,333.0 L 394.7,330.7 L 393.6,329.7 L 393.3,330.0 L 393.0,327.6 L 391.9,326.1 L 390.0,325.2 L 389.4,325.3 L 390.4,323.5 L 389.7,322.0 L 388.8,321.7 L 389.1,322.3 L 388.5,321.9 L 388.3,320.7 L 389.0,320.3 L 389.1,319.0 L 388.4,319.7 L 387.7,319.4 L 387.7,318.6 L 387.5,319.4 L 387.0,319.3 L 386.5,317.6 L 386.1,317.1 L 385.4,318.1 L 385.4,317.3 L 384.4,316.7 L 385.7,315.0 L 384.7,315.0 L 385.2,314.1 L 384.9,313.5 L 385.7,313.1 L 386.4,313.7 L 387.2,312.5 L 386.7,312.8 L 385.7,312.0 L 386.1,311.7 L 385.7,311.1 L 386.1,310.5 L 384.4,311.8 L 383.2,311.7 L 382.6,313.1 L 382.8,314.4 L 381.6,315.1 L 382.3,315.6 L 381.8,315.3 L 380.2,316.8 L 380.6,316.0 L 379.5,317.6 L 379.0,319.9 L 379.6,320.6 L 380.0,320.2 L 379.9,321.2 L 381.3,322.2 L 380.2,321.5 L 380.3,322.0 L 380.0,321.6 L 379.5,322.0 L 379.6,321.5 L 379.0,322.3 L 376.4,323.2 L 375.9,322.3 L 375.0,322.3 L 374.4,323.6 L 375.0,324.0 L 374.4,323.9 L 374.1,324.8 L 376.0,327.6 L 373.7,327.4 L 372.8,326.1 L 372.8,328.2 L 372.0,328.5 L 372.6,327.2 L 371.5,327.9 L 370.1,329.1 L 371.0,329.5 L 370.3,329.4 L 367.7,332.1 L 367.9,333.0 L 368.8,332.3 L 368.5,332.7 L 369.2,332.7 L 368.4,333.0 L 369.2,333.3 L 368.2,333.1 L 367.5,333.6 L 366.7,335.7 L 365.8,336.4 L 365.4,338.9 L 365.5,344.4 L 367.1,347.2 L 367.2,349.2 L 368.2,349.2 L 367.2,349.7 L 367.8,354.0 L 366.9,355.0 L 367.9,355.9 L 368.8,353.9 L 369.0,354.4 L 371.4,354.6 L 372.0,355.0 L 372.1,357.9 L 370.8,359.9 L 368.4,360.9 L 367.9,362.5 L 367.8,361.8 L 366.4,363.9 L 364.8,364.5 L 363.8,366.4 L 362.2,367.7 L 360.2,368.8 L 359.5,368.1 L 358.9,368.4 L 358.3,369.4 L 358.6,370.0 L 359.0,369.6 L 358.6,370.6 L 358.3,369.8 L 357.3,371.7 L 357.9,371.7 L 356.9,371.9 L 358.4,372.7 L 358.7,373.9 L 357.7,374.4 L 357.4,375.3 L 356.4,375.3 L 356.0,375.9 L 354.8,375.6 L 354.7,376.0 L 354.4,375.6 L 354.6,376.6 L 355.4,377.2 L 355.4,378.9 L 355.3,378.5 L 354.3,380.1 L 353.8,382.1 L 354.4,381.8 L 353.3,382.1 L 353.5,382.8 L 352.5,384.7 L 352.4,386.3 L 348.4,393.3 L 345.8,396.6 L 339.6,401.8 L 321.7,411.2 L 316.0,412.3 L 312.5,413.8 L 310.9,413.5 L 311.1,414.0 L 310.8,413.8 L 310.2,414.2 L 310.6,414.3 L 310.2,415.6 L 309.3,415.9 L 309.8,414.6 L 308.9,415.1 L 309.3,415.1 L 308.8,416.1 L 306.2,417.6 L 306.5,417.2 L 303.9,415.6 L 303.4,416.1 L 302.4,415.6 L 301.3,416.3 L 301.4,415.6 L 296.7,415.2 L 296.4,416.8 L 297.7,417.2 L 296.4,416.9 L 295.8,416.1 L 294.7,415.6 L 294.1,417.2 L 292.1,418.1 L 291.8,420.4 L 289.6,423.3 L 290.2,424.1 L 289.5,423.5 L 288.8,424.6 L 289.8,424.8 L 287.5,425.0 L 286.9,425.4 L 287.5,425.9 L 287.0,426.0 L 286.9,425.3 L 286.3,426.3 L 286.0,426.4 L 286.3,425.9 L 285.2,426.9 L 284.4,426.9 L 284.9,426.6 L 284.4,426.7 L 284.7,426.4 L 284.3,426.0 L 282.7,426.4 L 283.7,426.6 L 283.0,427.0 L 283.9,426.9 L 283.0,427.1 L 283.9,427.3 L 283.3,427.7 L 282.8,427.1 L 283.0,427.9 L 282.0,426.6 L 281.6,427.4 L 281.7,426.6 L 281.0,427.1 L 281.1,427.7 L 280.5,427.1 L 280.4,428.0 L 279.1,427.7 L 278.7,428.4 L 277.7,428.2 L 277.5,428.9 L 277.1,428.6 L 277.1,427.7 L 275.6,428.4 L 276.2,428.6 L 274.9,428.7 L 274.9,429.3 L 273.9,429.2 L 273.5,429.9 L 272.9,428.4 L 269.0,432.5 L 267.4,433.2 L 267.4,434.3 L 268.2,434.6 L 268.3,434.2 L 268.4,434.6 L 267.2,434.8 L 267.0,435.8 L 266.1,435.2 L 266.0,435.6 L 266.4,435.8 L 263.8,438.4 L 264.4,438.8 L 263.7,438.5 L 262.0,439.5 L 261.7,438.8 L 261.5,439.7 L 261.2,439.1 L 260.8,440.1 L 260.7,439.2 L 260.1,439.5 L 260.5,438.8 L 259.2,439.4 L 259.5,440.1 L 258.7,440.3 L 258.7,440.8 L 258.5,440.3 L 256.1,441.1 L 255.8,442.1 L 255.6,441.4 L 254.8,441.5 L 254.6,442.8 L 254.2,441.7 L 253.8,442.8 L 253.2,442.6 L 253.8,442.4 L 253.8,441.8 L 250.3,441.5 L 249.7,440.8 L 249.6,441.4 L 249.9,440.5 L 249.3,440.4 L 249.7,439.7 L 249.2,438.7 L 248.0,440.4 L 247.1,439.7 L 246.0,441.1 L 245.8,440.5 L 244.7,441.0 L 243.4,443.0 L 241.1,443.0 L 239.8,442.0 L 241.2,437.9 L 239.9,438.2 L 239.4,439.7 L 239.8,439.5 L 238.6,441.0 L 239.1,441.1 L 236.3,443.6 L 237.1,443.9 L 236.8,444.3 L 235.3,444.4 L 235.6,444.9 L 233.6,445.1 L 234.2,445.6 L 233.6,445.3 L 233.7,446.0 L 233.0,446.9 L 231.9,447.3 L 232.3,447.7 L 230.7,447.5 L 228.1,449.5 L 227.1,449.5 L 227.4,448.9 L 226.1,448.5 L 225.8,449.9 L 226.5,449.8 L 225.8,450.3 L 225.8,452.3 L 221.4,454.8 L 220.1,456.4 L 219.8,456.1 L 218.2,459.7 L 217.9,460.8 L 218.3,460.8 L 217.2,461.0 L 217.2,461.6 L 216.6,461.1 L 216.6,461.6 L 216.3,461.1 L 216.0,462.1 L 215.2,462.0 L 214.9,463.1 L 214.3,462.9 L 214.3,463.7 L 213.3,464.0 L 213.7,464.7 L 213.0,464.6 L 212.7,465.2 L 213.2,465.3 L 212.7,465.7 L 212.6,465.2 L 211.9,466.3 L 212.1,466.6 L 211.0,467.3 L 211.0,469.5 L 210.8,468.9 L 210.4,468.8 L 210.8,469.5 L 210.3,469.1 L 210.3,469.9 L 210.0,468.9 L 209.6,470.1 L 209.4,469.6 L 208.5,469.8 L 208.3,470.2 L 208.8,470.3 L 207.1,471.2 L 207.4,471.6 L 207.0,471.4 L 205.1,472.1 L 204.9,471.6 L 204.9,472.4 L 203.8,472.7 L 204.2,473.1 L 203.5,472.7 L 202.6,473.8 L 203.1,474.2 L 202.5,474.4 L 201.9,473.5 L 200.3,475.2 L 198.6,475.2 L 197.7,476.7 L 197.5,475.8 L 196.9,477.0 L 197.0,476.4 L 196.2,477.3 L 196.4,477.4 L 193.0,479.4 L 192.3,480.4 L 192.4,481.3 L 192.4,480.4 L 191.6,480.9 L 191.6,482.6 L 192.0,482.6 L 191.1,483.2 L 191.0,485.2 L 190.7,484.9 L 190.4,485.6 L 190.4,485.2 L 189.7,486.8 L 189.1,486.0 L 189.4,485.6 L 188.7,485.5 L 188.4,485.9 L 189.7,487.1 L 189.0,487.3 L 189.1,487.8 L 189.5,487.5 L 189.1,488.3 L 189.5,489.1 L 188.8,489.1 L 189.2,489.8 L 187.8,490.1 L 189.1,491.5 L 188.7,491.1 L 188.0,491.2 L 188.7,492.2 L 187.8,492.2 L 188.4,492.8 L 187.7,493.0 L 188.5,493.4 L 188.4,493.8 L 189.0,494.4 L 188.0,493.7 L 187.2,494.5 L 188.4,495.1 L 187.1,495.5 L 187.7,496.3 L 187.1,496.3 L 187.7,497.1 L 186.9,497.6 L 187.7,498.1 L 187.1,498.1 L 186.7,499.6 L 186.2,499.0 L 186.2,500.0 L 185.5,497.9 L 184.5,497.9 L 183.3,498.7 L 183.1,500.2 L 182.0,500.7 L 181.5,500.2 L 180.9,500.9 L 181.3,500.2 L 180.8,498.0 L 181.3,497.6 L 180.8,497.6 L 181.9,496.1 L 181.8,494.8 L 180.9,495.1 L 180.2,496.4 L 180.5,494.0 L 178.9,491.5 L 179.5,483.6 L 180.3,482.2 L 179.6,481.4 L 177.9,482.4 L 175.9,484.5 L 174.7,487.2 L 173.1,497.0 L 171.8,499.3 L 171.2,502.5 L 170.0,504.2 L 171.1,506.2 L 171.0,507.8 L 172.8,508.1 L 175.6,513.1 L 176.0,515.4 L 175.7,516.7 L 174.6,517.9 L 176.0,522.2 L 176.3,527.1 L 175.9,528.5 L 173.0,531.7 L 172.3,535.1 L 171.4,536.0 L 171.2,537.7 L 170.5,539.2 L 170.8,542.1 L 170.0,543.2 L 171.0,546.8 L 170.0,548.1 L 171.4,554.7 L 177.3,560.5 L 177.9,562.1 L 178.7,562.2 L 178.0,562.8 L 177.9,562.2 L 177.7,563.2 L 178.6,563.7 L 178.7,564.7 L 179.0,564.2 L 179.7,565.1 L 179.3,566.0 L 179.7,567.8 L 181.6,570.0 L 184.1,571.1 L 184.5,573.0 L 185.1,573.2 L 184.8,572.7 L 185.6,573.7 L 187.5,577.5 L 190.1,579.9 L 191.0,582.1 L 194.3,584.1 L 193.7,584.7 L 194.3,585.7 L 197.0,586.3 L 196.7,589.4 L 197.9,590.4 L 195.7,590.3 L 197.5,592.5 L 197.3,592.9 L 196.6,592.2 L 197.6,594.3 L 197.2,594.6 L 196.9,593.6 L 196.3,595.5 L 198.0,598.9 L 197.3,600.7 L 196.6,600.8 L 196.6,601.5 L 194.9,603.3 L 192.0,600.5 L 191.6,599.2 L 191.1,599.2 L 191.1,598.2 L 190.4,598.4 L 190.4,597.5 L 191.0,598.1 L 190.4,596.9 L 190.5,595.3 L 189.7,595.1 L 188.8,590.9 L 188.2,590.9 L 188.5,591.6 L 188.0,590.9 L 188.8,593.6 L 187.5,597.1 L 186.9,598.1 L 186.4,597.6 L 185.6,597.9 L 184.4,593.9 L 185.1,593.0 L 185.2,589.6 L 184.2,589.1 L 183.9,587.3 L 181.0,585.8 L 180.0,583.8 L 178.9,583.7 L 177.7,580.9 L 176.4,584.1 L 176.4,586.8 L 178.0,588.1 L 177.2,586.7 L 177.3,585.5 L 177.6,585.7 L 177.9,588.9 L 179.3,589.7 L 179.6,591.6 L 180.8,592.0 L 181.8,595.8 L 183.1,595.8 L 182.8,595.9 L 184.5,597.5 L 184.8,598.5 L 188.1,599.2 L 189.8,600.8 L 190.5,604.6 L 189.5,606.7 L 190.0,607.6 L 189.2,607.3 L 189.1,608.3 L 188.1,607.7 L 187.5,608.7 L 187.8,609.6 L 187.8,608.9 L 186.9,608.4 L 187.2,609.3 L 186.9,609.0 L 186.7,609.6 L 187.1,609.6 L 186.9,610.3 L 186.8,609.9 L 185.9,610.3 L 185.8,608.4 L 185.2,608.9 L 184.5,605.1 L 184.6,607.0 L 184.2,605.9 L 183.9,607.7 L 184.9,609.2 L 184.2,610.0 L 184.2,608.9 L 184.1,609.6 L 183.6,608.3 L 183.5,609.0 L 183.2,608.7 L 183.5,606.3 L 182.8,605.6 L 182.5,602.5 L 181.6,600.8 L 180.9,600.8 L 180.6,601.7 L 181.8,603.0 L 181.5,605.4 L 181.8,606.1 L 181.0,606.1 L 180.9,602.4 L 179.0,598.1 L 178.4,598.1 L 178.2,597.2 L 178.3,598.5 L 177.9,598.5 L 177.7,596.8 L 176.6,594.6 L 177.9,599.8 L 177.3,599.7 L 177.0,602.1 L 178.7,604.6 L 178.2,604.6 L 177.6,602.8 L 176.9,603.3 L 177.2,602.4 L 176.3,600.7 L 175.3,595.1 L 174.8,595.5 L 175.4,601.0 L 174.7,599.5 L 172.3,599.1 L 175.6,602.3 L 176.4,604.8 L 183.9,610.5 L 189.7,616.4 L 196.6,625.1 L 199.9,630.2 L 201.9,635.1 L 202.1,633.4 L 202.4,634.5 L 201.2,639.1 L 203.9,645.6 L 205.8,647.3 L 207.8,648.2 L 211.1,651.9 L 213.7,654.1 L 216.3,658.1 L 216.8,660.9 L 216.0,661.4 L 216.9,661.6 L 217.8,663.6 L 224.1,668.9 L 225.8,672.2 L 228.6,678.1 L 228.6,683.2 L 229.9,687.5 L 230.1,691.5 L 230.0,692.8 L 231.6,695.3 L 231.7,697.3 L 232.6,697.4 L 233.0,698.3 L 232.6,699.5 L 233.3,699.9 L 234.5,703.3 L 234.3,704.2 L 235.3,705.2 L 235.3,705.9 L 238.5,711.0 L 238.6,712.0 L 239.6,712.4 L 242.1,715.3 L 246.4,722.9 L 247.9,724.4 L 248.6,724.2 L 248.0,724.7 L 254.5,733.4 L 256.1,738.0 L 256.2,741.8 L 257.1,740.8 L 256.8,740.1 L 257.8,740.1 L 258.4,738.9 L 259.2,738.9 L 258.4,739.2 L 258.9,740.8 L 259.7,740.3 L 258.9,741.1 L 258.5,740.1 L 257.9,740.8 L 257.2,740.5 L 256.4,741.8 L 257.6,745.1 L 257.4,747.1 L 256.1,747.4 L 257.6,748.8 L 257.2,750.0 L 258.1,750.9 L 258.4,752.6 L 258.1,754.6 L 257.5,753.9 L 256.4,756.2 L 256.1,758.1 L 259.7,768.1 L 260.4,774.3 L 260.7,771.5 L 261.1,774.2 L 260.4,774.9 L 259.7,774.6 L 258.2,780.4 L 255.3,784.1 L 251.9,785.0 L 250.2,784.6 L 248.9,783.1 L 247.1,782.5 L 248.0,785.1 L 247.1,787.0 L 248.1,789.5 L 248.0,791.3 L 249.4,797.4 L 250.9,799.5 L 250.9,801.1 L 253.9,803.9 L 254.5,802.7 L 253.6,801.5 L 255.3,800.5 L 254.2,801.8 L 254.3,802.4 L 256.2,801.7 L 258.4,801.7 L 265.9,804.7 L 266.7,804.3 L 266.0,804.9 L 273.1,810.0 L 274.6,812.9 L 278.2,812.6 L 283.0,814.1 L 284.3,813.4 L 283.3,812.8 L 283.7,812.2 L 286.4,813.9 L 283.1,814.2 L 285.9,815.8 L 286.7,815.4 L 289.2,816.5 L 290.3,815.7 L 291.5,815.5 L 290.5,814.9 L 291.1,814.4 L 291.6,814.4 L 291.3,815.2 L 292.4,814.8 L 294.1,815.7 L 295.4,815.5 L 296.0,814.4 L 299.3,814.4 L 300.4,814.9 L 301.0,813.6 L 304.2,813.9 L 304.0,813.2 L 304.7,813.2 L 307.8,814.7 L 309.2,814.2 L 310.6,815.4 L 311.2,815.2 L 311.1,813.5 L 311.8,812.8 L 313.9,812.9 L 316.7,814.2 L 317.8,814.2 L 318.3,813.4 L 319.3,813.5 L 318.7,812.9 L 317.4,813.2 L 316.8,812.1 L 316.8,813.2 L 315.4,812.5 L 315.5,811.9 L 316.8,811.9 L 317.1,810.8 L 316.5,809.5 L 317.5,809.5 L 317.4,808.6 L 317.7,810.3 L 317.1,810.9 L 317.8,811.2 L 319.3,811.2 L 320.6,810.0 L 321.7,810.0 L 322.4,810.9 L 322.7,809.8 L 321.7,809.2 L 321.7,808.6 L 324.9,806.9 L 326.5,807.3 L 326.8,806.6 L 326.2,806.3 L 326.0,805.4 L 326.9,802.8 L 332.4,799.7 L 333.4,798.2 L 332.4,797.5 L 332.8,796.4 L 334.3,795.2 L 335.8,795.1 L 334.4,793.8 L 335.4,794.2 L 339.0,793.5 L 342.5,794.1 L 342.6,794.9 L 343.3,794.9 L 343.9,794.2 L 343.8,792.6 L 344.9,792.3 L 345.6,793.2 L 346.5,792.5 L 345.8,791.6 L 346.2,790.3 L 347.6,790.2 L 347.6,790.9 L 348.1,791.0 L 349.7,790.2 L 348.1,789.6 L 347.6,787.9 L 346.8,788.0 L 347.6,787.9 L 348.9,784.1 L 349.9,782.4 L 352.5,780.7 L 353.3,779.1 L 355.3,778.5 L 355.3,777.6 L 355.6,777.8 L 355.3,778.4 L 356.1,778.5 L 357.3,777.2 L 358.0,776.9 L 359.9,777.5 L 362.5,776.6 L 366.7,777.4 L 369.2,775.8 L 369.1,775.2 L 369.8,774.8 L 374.7,774.2 L 375.9,773.0 L 378.9,773.0 L 381.1,772.2 L 382.6,772.9 L 383.1,771.9 L 384.5,771.9 L 385.2,771.0 L 386.8,770.7 L 390.7,770.7 L 393.0,772.3 L 394.0,771.2 L 396.2,772.2 L 398.5,771.2 L 398.6,770.2 L 400.5,769.7 L 402.4,771.2 L 403.7,774.5 L 405.8,774.0 L 406.0,773.3 L 407.3,773.6 L 407.0,772.3 L 408.7,770.9 L 410.7,771.0 L 411.9,771.7 L 412.7,771.2 L 413.3,771.9 L 413.7,771.2 L 413.5,770.6 L 414.0,770.0 L 416.9,769.7 L 417.6,769.1 L 418.8,770.0 L 421.4,768.7 L 421.9,769.0 L 422.7,768.1 L 425.1,769.0 L 426.0,770.2 L 425.7,770.9 L 426.4,771.3 L 426.3,772.0 L 428.9,770.9 L 430.4,768.4 L 432.7,768.4 L 434.2,769.1 L 434.9,767.7 L 436.2,767.4 L 436.6,766.6 L 438.8,765.0 L 438.4,764.1 L 438.8,762.5 L 440.8,760.7 L 440.7,759.8 L 442.8,758.3 L 443.4,753.0 L 445.1,746.8 L 447.3,743.8 L 450.9,741.6 L 456.9,740.2 L 459.8,738.9 L 464.0,735.0 L 465.6,734.4 L 469.9,731.4 L 474.8,729.4 L 480.8,723.8 L 483.9,721.8 L 486.5,721.3 L 489.3,719.9 L 493.8,720.9 L 500.1,721.2 L 511.9,719.6 L 518.4,717.6 L 522.5,715.4 L 530.1,713.1 L 535.1,710.8 L 543.1,706.9 L 549.7,702.5 M 534.9,261.0 L 549.5,702.2" id="path2879" fill="none" fill-rule="evenodd" stroke="#000000" stroke-width="1.2500000" stroke-linecap="round" stroke-linejoin="round" stroke-miterlimit="4.0000000" stroke-opacity="1.0000000"/>
</svg>
