<?xml version="1.0" encoding="UTF-8" standalone="no"?>
<!-- Created with Inkscape (http://www.inkscape.org/) -->
<svg xmlns="http://www.w3.org/2000/svg" xmlns:cc="http://web.resource.org/cc/" xmlns:dc="http://purl.org/dc/elements/1.1/" xmlns:inkscape="http://www.inkscape.org/namespaces/inkscape" xmlns:rdf="http://www.w3.org/1999/02/22-rdf-syntax-ns#" xmlns:sodipodi="http://inkscape.sourceforge.net/DTD/sodipodi-0.dtd" xmlns:svg="http://www.w3.org/2000/svg" xmlns:xlink="http://www.w3.org/1999/xlink" height="128.00000px" id="svg2" width="128.00000px">
  
  <defs id="defs3">
    <linearGradient id="linearGradient2057" inkscape:collect="always">
      <stop id="stop2059" offset="0" stop-color="#000000" stop-opacity="1"/>
      <stop id="stop2061" offset="1" stop-color="#000000" stop-opacity="0"/>
    </linearGradient>
    <radialGradient cx="14.207293" cy="222.04396" fx="14.207293" fy="222.04396" gradientTransform="scale(1.395230,0.716728)" gradientUnits="userSpaceOnUse" id="radialGradient2063" inkscape:collect="always" r="8.2519293" xlink:href="#linearGradient2057"/>
    <radialGradient cx="14.207293" cy="222.04396" fx="14.207293" fy="222.04396" gradientTransform="scale(1.395230,0.716728)" gradientUnits="userSpaceOnUse" id="radialGradient1315" inkscape:collect="always" r="8.2519293" xlink:href="#linearGradient2057"/>
    <radialGradient cx="14.207293" cy="222.04396" fx="14.207293" fy="222.04396" gradientTransform="scale(1.395230,0.716728)" gradientUnits="userSpaceOnUse" id="radialGradient1319" inkscape:collect="always" r="8.2519293" xlink:href="#linearGradient2057"/>
    <radialGradient cx="14.207293" cy="222.04396" fx="14.207293" fy="222.04396" gradientTransform="scale(1.395230,0.716728)" gradientUnits="userSpaceOnUse" id="radialGradient1323" inkscape:collect="always" r="8.2519293" xlink:href="#linearGradient2057"/>
    <radialGradient cx="14.207293" cy="222.04396" fx="14.207293" fy="222.04396" gradientTransform="scale(1.395230,0.716728)" gradientUnits="userSpaceOnUse" id="radialGradient1327" inkscape:collect="always" r="8.2519293" xlink:href="#linearGradient2057"/>
    <radialGradient cx="14.207293" cy="222.04396" fx="14.207293" fy="222.04396" gradientTransform="scale(1.395230,0.716728)" gradientUnits="userSpaceOnUse" id="radialGradient1331" inkscape:collect="always" r="8.2519293" xlink:href="#linearGradient2057"/>
    <radialGradient cx="14.207293" cy="222.04396" fx="14.207293" fy="222.04396" gradientTransform="scale(1.395230,0.716728)" gradientUnits="userSpaceOnUse" id="radialGradient1335" inkscape:collect="always" r="8.2519293" xlink:href="#linearGradient2057"/>
    <radialGradient cx="14.207293" cy="222.04396" fx="14.207293" fy="222.04396" gradientTransform="scale(1.395230,0.716728)" gradientUnits="userSpaceOnUse" id="radialGradient1339" inkscape:collect="always" r="8.2519293" xlink:href="#linearGradient2057"/>
    <radialGradient cx="14.207293" cy="222.04396" fx="14.207293" fy="222.04396" gradientTransform="scale(1.395230,0.716728)" gradientUnits="userSpaceOnUse" id="radialGradient1343" inkscape:collect="always" r="8.2519293" xlink:href="#linearGradient2057"/>
    <radialGradient cx="14.207293" cy="222.04396" fx="14.207293" fy="222.04396" gradientTransform="scale(1.395230,0.716728)" gradientUnits="userSpaceOnUse" id="radialGradient1347" inkscape:collect="always" r="8.2519293" xlink:href="#linearGradient2057"/>
    <radialGradient cx="14.207293" cy="222.04396" fx="14.207293" fy="222.04396" gradientTransform="scale(1.395230,0.716728)" gradientUnits="userSpaceOnUse" id="radialGradient1351" inkscape:collect="always" r="8.2519293" xlink:href="#linearGradient2057"/>
    <radialGradient cx="14.207293" cy="222.04396" fx="14.207293" fy="222.04396" gradientTransform="scale(1.395230,0.716728)" gradientUnits="userSpaceOnUse" id="radialGradient1355" inkscape:collect="always" r="8.2519293" xlink:href="#linearGradient2057"/>
    <radialGradient cx="14.207293" cy="222.04396" fx="14.207293" fy="222.04396" gradientTransform="scale(1.395230,0.716728)" gradientUnits="userSpaceOnUse" id="radialGradient1359" inkscape:collect="always" r="8.2519293" xlink:href="#linearGradient2057"/>
    <radialGradient cx="14.207293" cy="222.04396" fx="14.207293" fy="222.04396" gradientTransform="scale(1.395230,0.716728)" gradientUnits="userSpaceOnUse" id="radialGradient1363" inkscape:collect="always" r="8.2519293" xlink:href="#linearGradient2057"/>
    <radialGradient cx="14.207293" cy="222.04396" fx="14.207293" fy="222.04396" gradientTransform="scale(1.395230,0.716728)" gradientUnits="userSpaceOnUse" id="radialGradient1367" inkscape:collect="always" r="8.2519293" xlink:href="#linearGradient2057"/>
    <radialGradient cx="14.207293" cy="222.04396" fx="14.207293" fy="222.04396" gradientTransform="scale(1.395230,0.716728)" gradientUnits="userSpaceOnUse" id="radialGradient1371" inkscape:collect="always" r="8.2519293" xlink:href="#linearGradient2057"/>
    <radialGradient cx="14.207293" cy="222.04396" fx="14.207293" fy="222.04396" gradientTransform="scale(1.395230,0.716728)" gradientUnits="userSpaceOnUse" id="radialGradient1375" inkscape:collect="always" r="8.2519293" xlink:href="#linearGradient2057"/>
  </defs>
  
  <g id="layer1" inkscape:groupmode="layer" inkscape:label="Layer 1">
    <g id="g2039" transform="matrix(2.101543,0.000000,0.000000,2.101543,-20.51805,-62.14422)">
      <path d="M 25.4,57.3 C 24.6,57.3 24.3,58.1 23.3,59.1 C 23.0,59.4 22.6,59.7 22.3,59.9 C 21.7,60.4 21.3,61.0 20.9,61.6 C 20.4,62.2 19.7,62.7 19.1,63.3 C 18.3,64.2 17.0,64.7 16.0,65.5 C 15.2,66.1 15.0,65.9 14.6,66.8 C 14.3,67.4 13.2,68.2 12.7,68.8 C 12.2,69.4 12.3,69.7 11.7,70.3 C 11.2,70.8 10.9,70.6 11.6,71.3 C 11.9,71.6 12.3,71.7 12.6,71.9 C 13.4,72.4 14.1,72.7 15.0,73.0 C 16.3,73.5 17.6,73.4 18.9,73.6 C 19.1,73.7 19.3,73.7 19.4,73.7 C 20.3,73.9 22.0,74.5 22.8,74.3 C 23.5,74.2 26.0,75.0 27.7,74.0 C 29.7,73.3 33.2,72.4 35.2,72.9 C 36.3,73.1 37.4,73.6 37.6,72.5 C 37.7,72.0 37.6,71.4 37.4,71.0 C 37.1,70.4 36.6,70.4 36.4,69.8 C 36.2,69.0 36.6,68.5 36.8,67.8 C 37.1,66.7 36.7,66.2 38.1,66.5 C 38.9,66.7 39.5,66.8 40.3,67.1 C 42.2,67.9 44.4,68.0 46.5,68.0 C 47.9,68.0 49.4,66.9 50.8,66.6 C 51.6,66.5 54.1,64.5 54.6,64.4 C 55.1,64.2 56.5,66.8 56.2,68.1 C 57.5,68.4 58.3,69.1 59.4,69.8 C 60.4,70.3 61.6,70.6 62.7,70.6 C 64.7,70.6 66.4,70.5 68.5,70.0 C 69.7,69.7 70.1,69.8 70.1,68.6 C 70.1,67.7 69.5,67.1 68.9,66.5 C 68.4,66.0 67.9,65.4 67.4,65.0 C 66.9,64.6 66.5,63.9 66.3,63.4 C 65.9,62.7 65.6,62.1 65.2,61.4 C 64.9,60.7 64.5,60.4 63.9,59.9 C 63.1,59.3 62.7,58.6 62.2,57.8 C 61.5,56.7 60.6,55.1 60.1,53.8 C 60.0,53.7 59.9,53.6 59.9,53.4 C 59.6,52.9 59.2,52.4 58.8,52.0 C 58.1,51.3 57.3,51.8 56.7,52.2 C 55.3,53.3 54.8,53.3 53.7,54.4 C 53.0,55.1 52.1,56.2 51.7,56.9 C 51.3,57.7 50.7,57.3 50.1,57.0 C 49.5,56.7 49.1,56.3 48.5,55.9 C 47.8,55.3 47.0,54.4 46.5,53.8 C 45.8,53.2 45.0,52.5 44.1,52.5 C 42.9,52.5 41.7,50.5 41.1,49.6 C 40.5,48.7 39.6,48.1 38.5,48.1 C 37.2,48.1 36.0,49.7 34.9,50.4 C 33.9,51.0 33.5,51.0 33.2,52.2 C 32.9,52.9 32.5,53.5 32.3,54.2 C 32.2,55.0 31.8,55.7 31.5,56.4 C 31.2,57.1 30.8,57.4 30.5,58.0 C 30.2,58.7 29.0,60.0 28.3,59.6 C 27.7,59.3 27.3,58.9 27.0,58.2 C 26.8,57.9 25.7,57.4 25.4,57.3 z " id="path2166" sodipodi:nodetypes="ccccccccccccccccccccccccccccccccccccccccccccccccccccccccc" fill="#e4e4e4" fill-opacity="1.0000000" fill-rule="evenodd" stroke="none" stroke-width="1.0000000px" stroke-linecap="butt" stroke-linejoin="miter" stroke-opacity="1.0000000"/>
      <path d="M 25.6,56.9 C 25.6,57.0 25.6,57.0 25.5,57.1 C 24.9,58.3 23.3,58.4 22.5,59.2 C 22.3,59.4 22.2,59.6 22.0,59.7 C 21.2,60.5 20.8,61.8 19.9,62.7 C 19.3,63.2 18.7,63.6 18.0,63.8 C 17.4,63.9 16.7,64.5 16.2,65.0 C 15.5,65.7 14.9,66.3 14.4,66.8 C 13.7,67.5 13.0,68.2 12.2,68.8 C 11.8,69.1 11.5,70.1 11.4,70.5 C 11.3,71.0 11.0,71.5 11.6,71.8 C 12.3,72.2 12.9,72.3 13.6,72.9 C 14.2,73.5 14.7,73.6 15.4,73.9 C 16.0,74.3 17.2,74.2 17.9,74.2 C 18.6,74.2 19.4,74.5 20.2,74.5 C 21.5,74.5 22.0,75.0 23.1,74.3 C 23.4,74.2 23.4,73.2 23.3,72.7 C 23.2,72.1 23.0,71.5 23.0,70.8 C 23.0,70.1 23.1,69.5 23.2,68.9 C 23.3,68.1 23.7,67.6 23.9,66.8 C 24.1,66.0 24.7,65.2 25.0,64.3 C 25.3,63.6 25.5,62.9 25.6,62.2 C 25.8,61.5 25.8,60.6 25.8,59.9 C 25.8,59.3 25.8,58.6 25.8,58.0 C 25.8,57.5 25.8,57.5 25.6,56.9 z " id="path2168" fill="#c8c8c8" fill-opacity="1.0000000" fill-rule="evenodd" stroke="none" stroke-width="1.0000000px" stroke-linecap="butt" stroke-linejoin="miter" stroke-opacity="1.0000000"/>
      <path d="M 38.3,48.2 C 38.2,48.7 38.6,49.9 38.4,50.8 C 38.2,51.7 37.3,51.8 37.3,52.8 C 37.3,53.6 37.0,54.2 37.0,55.0 C 37.0,55.7 37.7,56.4 37.8,57.2 C 38.0,57.9 37.8,59.0 37.5,59.6 C 37.1,60.4 37.1,61.2 36.7,62.0 C 36.4,62.5 36.0,63.5 35.9,63.7 C 35.6,64.1 36.4,64.7 36.6,65.2 C 36.8,65.6 36.8,66.2 36.8,66.7 C 36.8,67.5 36.6,67.9 36.4,68.6 C 36.2,69.3 36.4,70.8 35.9,70.3 C 35.4,69.8 34.4,68.9 33.9,68.4 C 33.4,67.9 33.5,67.2 33.4,66.4 C 33.2,65.8 32.8,65.4 32.5,64.9 C 32.2,64.3 32.0,63.7 31.3,63.2 C 30.6,62.7 30.3,62.0 29.7,61.6 C 29.1,61.1 28.8,60.3 28.8,59.5 C 28.8,58.8 29.9,58.3 30.4,57.8 C 31.0,57.2 31.1,56.2 31.9,55.7 C 32.5,55.3 32.8,54.4 32.9,53.6 C 33.1,52.8 33.7,51.8 34.1,51.0 C 34.1,50.9 34.2,50.7 34.3,50.6 C 34.5,50.1 35.8,50.0 36.3,49.7 C 37.0,49.2 38.0,48.9 38.3,48.2 z " id="path2170" sodipodi:nodetypes="ccccccccccccccccccccccccc" fill="#c8c8c8" fill-opacity="1.0000000" fill-rule="evenodd" stroke="none" stroke-width="1.0000000px" stroke-linecap="butt" stroke-linejoin="miter" stroke-opacity="1.0000000"/>
      <path d="M 58.0,52.3 C 58.0,52.7 57.6,53.7 57.4,54.4 C 57.3,55.3 57.1,56.1 56.9,56.9 C 56.7,57.6 56.7,58.2 56.5,58.9 C 56.3,59.6 56.9,60.3 57.3,60.8 C 57.8,61.5 57.8,62.6 57.5,63.4 C 57.2,64.1 57.3,65.1 57.1,65.9 C 57.0,66.5 57.2,67.3 56.7,67.7 C 56.6,67.9 56.4,66.2 56.3,66.1 C 55.6,65.8 55.6,64.3 55.5,64.0 C 55.3,63.2 54.6,62.6 54.3,62.0 C 53.9,61.2 53.1,60.7 52.7,59.9 C 52.3,59.1 51.3,58.7 51.1,58.0 C 51.1,57.9 51.1,57.7 51.0,57.6 C 50.9,57.1 51.9,56.1 52.1,55.9 C 53.1,54.9 55.1,53.4 56.2,52.7 C 56.8,52.4 57.3,52.5 58.0,52.3 z " id="path2172" sodipodi:nodetypes="ccccccccccccccccc" fill="#c8c8c8" fill-opacity="1.0000000" fill-rule="evenodd" stroke="none" stroke-width="1.0000000px" stroke-linecap="butt" stroke-linejoin="miter" stroke-opacity="1.0000000"/>
      <path d="M 37.6,47.3 L 36.9,48.1 C 36.5,48.5 35.5,49.4 34.7,49.9 C 32.9,51.0 32.7,51.4 32.3,53.2 C 31.8,55.1 31.1,56.6 29.7,58.1 L 28.5,59.5 L 27.4,58.2 C 26.7,57.5 26.1,56.9 25.9,56.9 C 24.6,56.9 21.1,59.7 20.7,61.0 C 20.4,61.9 18.6,63.6 17.5,64.0 C 15.7,64.7 15.2,65.0 14.3,65.9 C 13.2,67.0 10.7,70.6 10.7,70.9 C 10.7,71.6 11.5,70.9 12.5,69.4 C 14.4,66.7 15.6,65.5 17.1,65.0 C 19.0,64.3 20.1,63.4 21.3,61.6 C 22.5,59.8 23.3,59.1 24.7,58.3 L 25.8,57.7 L 26.5,58.5 C 26.8,58.9 27.5,59.8 27.9,60.4 C 28.3,61.0 29.4,62.3 30.4,63.3 C 31.8,64.6 32.3,65.3 32.5,66.4 C 33.2,68.6 33.9,69.7 35.5,70.6 C 36.4,71.1 36.9,71.6 36.9,71.9 C 36.9,72.2 37.0,72.5 37.1,72.6 C 37.5,72.9 37.7,72.7 37.7,72.1 C 37.7,71.3 37.2,70.7 35.8,70.0 C 34.7,69.5 33.4,67.6 33.4,66.7 C 33.4,65.6 32.6,64.3 31.1,63.0 C 30.4,62.3 29.5,61.4 29.2,61.0 L 28.7,60.2 L 30.1,58.8 C 31.5,57.3 33.1,54.5 33.1,53.5 C 33.1,52.4 33.8,51.4 35.3,50.5 C 36.1,50.0 36.9,49.4 37.1,49.2 C 37.8,48.7 37.7,49.1 37.1,51.3 C 36.7,52.5 36.4,54.1 36.3,54.9 C 36.1,56.1 36.2,56.3 36.8,57.2 C 37.6,58.3 37.6,58.5 36.7,60.9 C 35.3,64.7 35.3,65.0 36.2,64.7 C 36.4,64.6 36.7,64.2 36.7,63.9 C 36.8,63.6 37.2,62.5 37.6,61.5 C 38.4,59.2 38.5,58.2 37.7,57.0 C 37.0,55.7 37.1,53.3 38.0,51.9 C 38.1,51.7 38.3,50.9 38.4,50.1 C 38.6,48.9 38.7,48.7 39.2,48.7 C 40.1,48.7 40.9,49.5 41.2,50.5 C 41.5,51.7 41.7,51.9 44.0,53.1 C 46.4,54.3 48.9,56.5 48.9,57.4 C 48.9,57.8 49.4,58.2 50.5,58.7 C 51.5,59.3 52.0,59.7 52.1,60.2 C 52.3,61.1 53.5,62.6 54.0,62.6 C 54.6,62.6 54.5,61.9 53.7,61.5 C 53.3,61.2 53.0,60.6 52.9,60.1 C 52.8,59.4 52.5,59.0 51.9,58.8 C 50.9,58.3 50.9,58.1 52.0,56.9 C 52.5,56.3 53.4,55.3 54.1,54.5 C 54.8,53.7 55.6,53.1 55.9,53.1 C 56.2,53.1 56.6,52.9 56.8,52.8 C 57.4,52.2 57.4,52.7 56.8,53.8 C 56.4,54.6 56.3,55.2 56.4,56.5 C 56.5,57.7 56.4,58.2 56.0,58.7 C 55.5,59.4 55.4,59.4 56.2,60.4 C 57.2,61.6 57.4,64.0 56.8,65.7 C 56.5,66.4 56.3,67.2 56.3,67.6 C 56.2,68.4 56.7,68.8 56.8,68.0 C 56.8,67.7 57.1,66.8 57.5,66.0 C 58.1,64.2 58.0,62.2 57.2,60.5 C 56.8,59.8 56.7,59.2 56.8,59.0 C 57.0,58.8 57.1,57.7 57.2,56.6 C 57.3,54.7 57.4,54.4 58.0,53.7 L 58.8,53.0 L 59.5,53.5 C 60.1,54.0 60.4,54.5 60.7,56.0 C 61.0,57.7 61.2,58.0 62.8,59.6 C 63.7,60.5 64.6,61.3 64.7,61.3 C 65.0,61.3 65.7,63.0 66.1,64.4 C 66.3,65.2 66.9,66.0 67.9,67.0 C 68.7,67.8 69.4,68.7 69.4,68.9 C 69.4,69.1 69.7,69.2 70.0,69.2 C 70.9,69.2 70.6,68.6 68.8,66.8 C 67.4,65.3 67.0,64.7 66.6,63.4 C 66.2,62.0 65.8,61.4 63.9,59.6 C 62.7,58.4 61.7,57.3 61.7,57.0 C 61.7,56.4 61.6,55.8 61.4,54.8 C 61.1,53.9 58.6,51.5 57.8,51.5 C 57.4,51.5 57.1,51.6 57.0,51.7 C 56.9,51.8 56.4,52.0 56.0,52.1 C 54.9,52.3 53.3,53.7 51.7,55.9 C 50.5,57.5 50.0,57.8 50.0,57.1 C 50.0,56.3 46.4,53.4 44.4,52.4 C 42.6,51.6 42.4,51.4 42.1,50.4 C 41.7,49.0 41.0,48.4 39.1,47.8 L 37.6,47.3 z M 25.4,58.5 C 25.2,58.5 25.2,59.1 25.3,59.7 C 25.6,61.6 25.0,63.9 24.0,65.1 C 23.5,65.6 23.0,66.3 22.9,66.6 C 22.5,67.6 22.2,70.1 22.4,70.9 C 22.5,71.4 22.7,71.7 23.0,71.7 C 23.6,71.7 23.6,71.3 23.3,70.4 C 22.9,69.6 23.6,67.2 24.6,65.9 C 25.0,65.2 25.6,64.1 25.9,63.3 C 26.6,61.0 26.3,58.5 25.4,58.5 z " id="path1737" fill="#5c2700" fill-opacity="1.0000000"/>
    </g>
  </g>
</svg>
