<?xml version="1.0" encoding="UTF-8" standalone="no"?>
<!-- Created with Inkscape (http://www.inkscape.org/) -->
<svg xmlns="http://www.w3.org/2000/svg" xmlns:cc="http://web.resource.org/cc/" xmlns:dc="http://purl.org/dc/elements/1.1/" xmlns:inkscape="http://www.inkscape.org/namespaces/inkscape" xmlns:rdf="http://www.w3.org/1999/02/22-rdf-syntax-ns#" xmlns:sodipodi="http://inkscape.sourceforge.net/DTD/sodipodi-0.dtd" xmlns:svg="http://www.w3.org/2000/svg" xmlns:xlink="http://www.w3.org/1999/xlink" height="128.00000px" id="svg2" width="128.00000px">
  
  <defs id="defs3">
    <linearGradient id="linearGradient2057" inkscape:collect="always">
      <stop id="stop2059" offset="0" stop-color="#000000" stop-opacity="1"/>
      <stop id="stop2061" offset="1" stop-color="#000000" stop-opacity="0"/>
    </linearGradient>
    <radialGradient cx="14.207293" cy="222.04396" fx="14.207293" fy="222.04396" gradientTransform="scale(1.395230,0.716728)" gradientUnits="userSpaceOnUse" id="radialGradient1598" inkscape:collect="always" r="8.2519293" xlink:href="#linearGradient2057"/>
  </defs>
  
  <g id="layer1" inkscape:groupmode="layer" inkscape:label="Layer 1">
    <g id="g1901" transform="matrix(2.469674,0.000000,0.000000,2.469674,-368.4758,-300.6608)">
      <path d="M 170.6,128.7 C 170.0,129.2 170.0,130.0 169.7,130.6 C 169.2,131.5 168.2,131.5 167.8,132.5 C 167.4,133.5 167.1,134.4 166.7,135.5 C 166.7,136.5 167.0,137.3 166.7,138.3 C 166.5,139.4 166.5,140.6 165.8,141.5 C 165.0,142.7 165.3,144.5 166.4,145.5 C 167.3,146.3 168.0,147.3 168.6,148.3 C 169.4,149.2 170.4,149.9 170.9,151.0 C 171.4,151.8 172.1,152.5 172.7,153.2 C 173.0,153.7 173.3,154.2 173.8,154.5 C 174.4,154.7 174.7,153.9 175.3,153.8 C 175.9,153.6 176.5,154.1 177.1,154.1 C 178.3,154.2 179.5,153.6 180.1,152.6 C 180.4,152.1 180.4,151.4 180.3,150.9 C 180.0,149.8 179.3,148.8 179.3,147.7 C 179.4,146.6 179.5,145.5 179.5,144.4 C 179.3,142.8 178.5,141.6 177.8,140.2 C 177.4,139.3 176.9,138.4 176.6,137.5 C 176.2,136.5 175.4,135.7 175.4,134.6 C 175.2,133.7 175.5,132.4 175.1,131.6 C 174.7,130.8 174.4,130.3 174.0,129.6 C 173.5,128.9 172.4,128.8 171.6,128.7 C 171.3,128.6 170.9,128.8 170.6,128.7 z " id="path2835" sodipodi:nodetypes="cccccccccccccccccccccccc" fill="#00b300" fill-opacity="1.0000000" fill-rule="evenodd" stroke="none" stroke-width="1.0000000px" stroke-linecap="butt" stroke-linejoin="miter" stroke-opacity="1.0000000"/>
      <path d="M 28.4 158.6 A 7.9 4.0 0 1 1  12.5,158.6 A 7.9 4.0 0 1 1  28.4 158.6 z" id="path1345" sodipodi:cx="20.457939" sodipodi:cy="158.69876" sodipodi:rx="7.9437737" sodipodi:ry="4.0807056" sodipodi:type="arc" transform="translate(156.0283,2.707904)" fill="url(#radialGradient1598)" fill-opacity="1.0000000" fill-rule="evenodd" stroke="none" stroke-width="2.0000000" stroke-miterlimit="4.0000000" stroke-opacity="1.0000000"/>
      <path d="M 171.5,128.4 C 170.5,128.4 169.3,129.3 169.3,130.1 C 169.3,130.3 169.2,130.6 169.0,130.7 C 168.3,131.0 166.9,133.4 166.6,134.9 C 166.4,136.0 166.4,136.6 166.6,137.1 C 166.9,137.8 166.8,138.1 166.1,139.5 C 165.7,140.4 165.3,141.2 165.2,141.2 C 164.8,141.4 165.0,143.9 165.4,144.3 C 165.6,144.4 165.8,144.8 165.9,145.2 C 166.2,145.9 167.5,147.9 169.0,149.6 C 173.3,154.7 173.7,155.2 173.8,156.2 C 173.9,156.8 174.0,157.6 174.1,158.1 C 174.2,158.7 174.2,159.2 173.9,159.7 C 173.5,160.3 173.4,160.4 174.0,160.7 C 174.3,160.8 174.5,161.2 174.5,161.5 C 174.5,161.9 174.6,162.0 175.0,161.8 C 175.3,161.6 175.7,161.3 175.9,161.1 C 176.4,160.5 177.0,160.5 177.9,161.2 C 179.1,162.2 179.3,161.5 178.4,159.5 C 177.6,158.0 177.4,156.4 177.5,154.9 C 177.5,154.6 177.9,154.4 178.5,154.3 C 179.4,154.1 180.6,153.0 180.9,151.9 C 181.0,151.6 180.9,150.9 180.4,150.2 C 179.8,149.2 179.8,148.7 179.8,146.2 C 179.8,143.6 179.7,143.3 179.1,142.4 C 178.6,141.8 178.3,141.0 178.3,140.5 C 178.3,139.6 177.6,138.0 177.2,138.0 C 177.1,138.0 176.7,137.1 176.4,136.1 C 176.1,135.1 175.7,134.2 175.6,134.0 C 175.4,133.8 175.4,133.1 175.5,132.4 C 175.6,131.5 175.6,131.0 175.2,130.5 C 174.6,129.6 172.6,128.4 171.5,128.4 z M 172.1,128.9 C 172.6,129.0 173.1,129.4 173.8,129.9 C 174.6,130.5 174.6,130.7 174.7,132.3 C 174.7,133.3 174.8,134.3 175.0,134.5 C 175.1,134.7 175.3,135.3 175.4,135.8 C 175.5,136.4 176.1,137.4 176.6,138.1 C 177.3,139.0 177.5,139.6 177.5,140.3 C 177.5,141.0 177.8,141.7 178.3,142.3 C 179.0,143.3 179.0,143.5 179.1,146.5 C 179.1,149.3 179.2,149.7 179.7,150.5 L 180.4,151.4 L 179.8,152.4 L 179.3,153.4 L 176.8,153.6 C 175.5,153.6 174.3,153.8 174.1,153.9 C 173.7,154.1 171.8,151.9 171.1,150.5 C 170.8,150.0 170.0,149.1 169.2,148.4 C 168.3,147.7 167.5,146.8 167.1,146.0 C 166.8,145.3 166.4,144.5 166.2,144.3 C 165.4,143.3 165.5,142.0 166.5,140.1 C 167.4,138.3 167.7,136.9 167.2,136.9 C 166.8,136.9 167.1,134.5 167.6,133.5 C 168.1,132.6 169.1,131.5 169.4,131.7 C 169.8,131.8 170.1,131.1 170.2,130.3 C 170.2,129.8 170.4,129.4 170.8,129.1 C 171.2,128.8 171.6,128.7 172.1,128.9 z M 176.5,154.0 C 177.0,154.2 177.0,154.3 176.2,154.6 C 175.3,154.9 174.8,154.6 175.5,154.1 C 175.8,153.9 176.1,153.8 176.5,154.0 z " id="path1309" fill="#5c2700" fill-opacity="1.0000000"/>
    </g>
  </g>
</svg>
