<?xml version="1.0" encoding="UTF-8" standalone="no"?>
<!-- Created with Sodipodi ("http://www.sodipodi.com/") -->
<svg xmlns="http://www.w3.org/2000/svg" xmlns:sodipodi="http://sodipodi.sourceforge.net/DTD/sodipodi-0.dtd" xmlns:xlink="http://www.w3.org/1999/xlink" height="200mm" id="svg665" sodipodi:docbase="/home/scarlet/sodipodi-flags/nations/" sodipodi:docname="/home/scarlet/sodipodi-flags/nations/liberia.svg" sodipodi:version="0.32" width="299.999mm">
  
  <defs id="defs667"/>
  <sodipodi:namedview id="base"/>
  <rect height="708.661473" id="rect560" width="1062.992065" x="0.000000" y="0.000830" font-size="12" fill="#ffffff" fill-rule="evenodd" stroke-width="1pt" fill-opacity="1"/>
  <rect height="322.206696" id="rect668" width="322.195068" x="-0.000020" y="-0.114805" font-size="12" fill="#000066" fill-rule="evenodd" stroke-width="1pt" fill-opacity="1"/>
  <rect height="65.2393799" id="rect669" width="1063.01831" x="0.00000000" y="643.423096" font-size="12" fill="#cc0000" fill-rule="evenodd" stroke-width="1pt" fill-opacity="1"/>
  <rect height="64.473160" id="rect670" width="1063.018311" x="0.000000" y="644.189316" font-size="12" fill="#cc0000" fill-rule="evenodd" stroke-width="1pt" fill-opacity="1"/>
  <rect height="63.970389" id="rect672" width="1063.018311" x="3.340836" y="515.580331" font-size="12" fill="#cc0000" fill-rule="evenodd" stroke-width="1pt" fill-opacity="1"/>
  <rect height="64.648773" id="rect673" width="1060.338867" x="3.340836" y="386.468613" font-size="12" fill="#cc0000" fill-rule="evenodd" stroke-width="1pt" fill-opacity="1"/>
  <rect height="64.363297" id="rect675" width="740.852844" x="322.087952" y="-0.038150" font-size="12" fill="#cc0000" fill-rule="evenodd" stroke-width="1pt" fill-opacity="1"/>
  <rect height="64.780930" id="rect676" width="740.852844" x="322.088043" y="257.457657" font-size="12" fill="#cc0000" fill-rule="evenodd" stroke-width="1pt" fill-opacity="1"/>
  <rect height="64.363258" id="rect677" width="740.852844" x="322.088043" y="129.127228" font-size="12" fill="#cc0000" fill-rule="evenodd" stroke-width="1pt" fill-opacity="1"/>
  <path d="M 266.1 534.4 L 255.7 527.0 L 245.4 534.5 L 249.2 522.3 L 238.9 514.7 L 251.7 514.6 L 255.6 502.5 L 259.7 514.6 L 272.5 514.6 L 262.2 522.2 L 266.1 534.4 z " id="path205" transform="matrix(6.745325,0.000000,0.000000,5.771256,-1565.221,-2838.881)" font-size="12" fill="#ffffff" fill-rule="evenodd" stroke-width="0.112872" fill-opacity="1"/>
</svg>
