<?xml version="1.0" encoding="UTF-8" standalone="no"?>
<!DOCTYPE svg [
<!ATTLIST svg xmlns:xlink CDATA #FIXED "http://www.w3.org/1999/xlink">
]>
<!-- Created with Sodipodi ("http://www.sodipodi.com/") -->
<!-- /Creative Commons Public Domain -->
<!--

-->
<svg xmlns="http://www.w3.org/2000/svg" xmlns:xlink="http://www.w3.org/1999/xlink" height="496.062988" id="svg548" version="1" width="744.094482" x="0.00000000" y="0.00000000">
  
  <defs id="defs550"/>
  <g id="g589" transform="matrix(4.133858,0.000000,0.000000,4.133858,0.000000,-1.525879e-5)" font-size="12">
    <rect height="120.000000" id="rect583" width="180.000000" x="0.00000000" y="0.00000000" fill="#0099ff" fill-rule="evenodd" stroke-width="1pt"/>
    <path d="M 0 7.1e-15 L 180 7.1e-15 L 0 120 L 0 7.1e-15 z " id="path584" fill="#009900" fill-rule="evenodd" stroke-width="1pt"/>
    <path d="M 0 120 L 40 120 L 180 25 L 180 7.1e-15 L 140 7.1e-15 L 0 95 L 0 120 z " id="path586" fill-rule="evenodd" stroke-width="1pt"/>
    <path d="M 0 91.4 L 137.1 7.1e-15 L 150.7 7.1e-15 L 0 100.4 L 0 91.4 z " id="path587" fill="#ffff00" fill-rule="evenodd" stroke-width="1pt"/>
    <path d="M -0.7 95.4 L 150 -4.9 L 150 4.0 L 12.8 95.4 L -0.7 95.4 z " id="path588" transform="translate(30.00000,24.53000)" fill="#ffff00" fill-rule="evenodd" stroke-width="1pt"/>
  </g>
</svg>
