<?xml version="1.0" encoding="UTF-8" standalone="no"?>
<!-- Created with Sodipodi ("http://www.sodipodi.com/") -->
<svg xmlns="http://www.w3.org/2000/svg" xmlns:sodipodi="http://sodipodi.sourceforge.net/DTD/sodipodi-0.dtd" xmlns:xlink="http://www.w3.org/1999/xlink" height="708.661" id="svg378" sodipodi:docbase="/home/skrut" sodipodi:docname="/home/skrut/qatar" sodipodi:version="0.32" version="1" width="1062.99" x="0" y="0">
  
  <sodipodi:namedview id="base"/>
  <defs id="defs380"/>
  <rect height="708.661" id="rect171" sodipodi:fill-cmyk="(0 1 0.15 0.6)" width="1062.99" x="0" y="0" font-size="12" fill="#660057" fill-rule="evenodd" stroke-width="1pt" fill-opacity="1"/>
  <path d="M 216.6 708.3 L 0 708.6 L 0 -2.4e-14 L 215.6 0.1 L 354.7 44.8 L 216.6 88.4 L 216.6 88.4 L 354.7 133.4 L 216.6 177.0 L 216.6 177.0 L 354.7 222.0 L 216.6 265.6 L 216.6 265.6 L 354.7 310.6 L 216.6 354.2 L 216.6 354.2 L 354.7 399.1 L 216.6 442.8 L 216.6 442.8 L 354.7 487.7 L 216.6 531.3 L 216.6 531.3 L 354.7 576.3 L 216.6 619.9 L 216.6 619.9 L 354.7 664.9 L 216.6 708.5 " id="path193" font-size="12" fill="#ffffff" fill-rule="evenodd" stroke-width="1pt"/>
</svg>
