<?xml version="1.0" encoding="UTF-8" standalone="no"?>
<!DOCTYPE svg [
<!ATTLIST svg xmlns:xlink CDATA #FIXED "http://www.w3.org/1999/xlink">
]>
<!-- Created with Sodipodi ("http://www.sodipodi.com/") -->
<svg xmlns="http://www.w3.org/2000/svg" xmlns:xlink="http://www.w3.org/1999/xlink" height="708.661" id="svg378" version="1" width="1062.99" x="0" y="0">
  
  <defs id="defs380"/>
  <rect height="708.661" id="rect149" width="1062.99" x="0" y="0" font-size="12" fill="#ffffff" fill-rule="evenodd" stroke-width="1pt"/>
  <rect height="354.331" id="rect148" width="1062.99" x="0" y="0" font-size="12" fill="#df0000" fill-rule="evenodd" stroke-width="1pt"/>
  <path d="M 263.3 473.6 C 240.2 478.9 222.9 496.1 218.1 519.4 C 211.4 551.1 232.1 582.2 263.9 588.8 C 231.8 597.9 198.6 579.5 189.5 547.7 C 180.5 515.9 198.9 482.7 230.7 473.6 C 241.9 470.5 252.2 470.4 263.3 473.6 z " id="path141" transform="matrix(2.11676,0,0,2.11676,-312.396,-943.158)" font-size="12" fill="#ffffff" fill-rule="evenodd" stroke-width="0.524368"/>
  <polygon id="polygon142" points="266.186,534.45 255.778,527.018 245.421,534.523 249.273,522.327 238.935,514.796 251.725,514.691 255.692,502.532 259.744,514.663 272.534,514.679 262.249,522.281 266.186,534.45 " transform="matrix(1.83411,0,0,1.83411,-255.129,-795.563)" font-size="12" fill="#ffffff" fill-rule="evenodd" stroke-width="0.524368"/>
  <polygon id="polygon144" points="266.186,534.45 255.778,527.018 245.421,534.523 249.273,522.327 238.935,514.796 251.725,514.691 255.692,502.532 259.744,514.663 272.534,514.679 262.249,522.281 266.186,534.45 " transform="matrix(1.83411,0,0,1.83411,-229.205,-718.704)" font-size="12" fill="#ffffff" fill-rule="evenodd" stroke-width="0.524368"/>
  <polygon id="polygon145" points="266.186,534.45 255.778,527.018 245.421,534.523 249.273,522.327 238.935,514.796 251.725,514.691 255.692,502.532 259.744,514.663 272.534,514.679 262.249,522.281 266.186,534.45 " transform="matrix(1.83411,0,0,1.83411,-142.945,-719.269)" font-size="12" fill="#ffffff" fill-rule="evenodd" stroke-width="0.524368"/>
  <polygon id="polygon146" points="266.186,534.45 255.778,527.018 245.421,534.523 249.273,522.327 238.935,514.796 251.725,514.691 255.692,502.532 259.744,514.663 272.534,514.679 262.249,522.281 266.186,534.45 " transform="matrix(1.83411,0,0,1.83411,-117.224,-795.502)" font-size="12" fill="#ffffff" fill-rule="evenodd" stroke-width="0.524368"/>
  <polygon id="polygon147" points="266.186,534.45 255.778,527.018 245.421,534.523 249.273,522.327 238.935,514.796 251.725,514.691 255.692,502.532 259.744,514.663 272.534,514.679 262.249,522.281 266.186,534.45 " transform="matrix(1.83411,0,0,1.83411,-185.512,-846.078)" font-size="12" fill="#ffffff" fill-rule="evenodd" stroke-width="0.524368"/>
</svg>
