<?xml version="1.0" encoding="UTF-8" standalone="no"?>
<!-- Created with Sodipodi ("http://www.sodipodi.com/") -->
<svg xmlns="http://www.w3.org/2000/svg" xmlns:sodipodi="http://sodipodi.sourceforge.net/DTD/sodipodi-0.dtd" xmlns:xlink="http://www.w3.org/1999/xlink" height="140mm" id="svg661" sodipodi:docbase="/home/chris/Plastic/" sodipodi:docname="/home/chris/Plastic/coflag.svg" sodipodi:version="0.32" width="210mm">
  
  <defs id="defs663"/>
  <sodipodi:namedview id="base"/>
  <rect height="496.062886" id="rect568" width="744.094437" x="0.000009" y="0.000036" font-size="12" fill="#ffffff" fill-rule="evenodd" stroke-width="1pt"/>
  <rect height="110.236214" id="rect584" transform="matrix(1.500000,0.000000,0.000000,1.500053,-95.53807,70.41378)" width="496.062500" x="63.692055" y="173.519814" font-size="12" fill="#192f5d" fill-rule="evenodd" stroke-width="1pt"/>
  <rect height="110.236214" id="rect556" transform="matrix(1.500000,0.000000,0.000000,1.500053,-32.45842,-19.70667)" width="496.063019" x="21.638947" y="13.137322" font-size="12" fill="#192f5d" fill-rule="evenodd" stroke-width="1pt"/>
  <path d="M 408.8,167.7 A 52.0,52.0 0 1 1 407.3,108.9 L 365.2,139.4 z" id="path559" sodipodi:cx="365.208527" sodipodi:cy="139.428268" sodipodi:end="5.656745" sodipodi:rx="52.056000" sodipodi:ry="52.056000" sodipodi:start="0.575366" sodipodi:type="arc" transform="matrix(3.175298,8.203826e-2,-8.204342e-2,3.175410,-834.0459,-224.6716)" font-size="12" fill="#bd3d44" fill-rule="evenodd" stroke-width="1pt"/>
  <path d="M 165.8 203.3 A 57.0 57.0 0 1 0 51.8,203.3 A 57.0 57.0 0 1 0 165.8 203.3 L 108.8 203.3 z" id="path562" sodipodi:cx="108.837708" sodipodi:cy="203.343536" sodipodi:rx="57.010227" sodipodi:ry="57.010231" sodipodi:type="arc" transform="matrix(1.450233,0.000000,0.000000,1.450284,156.3255,-46.87440)" font-size="12" fill="#fff500" fill-rule="evenodd" stroke-width="1pt"/>
</svg>
