<?xml version="1.0" encoding="UTF-8" standalone="no"?>
<!DOCTYPE svg [
<!ATTLIST svg xmlns:xlink CDATA #FIXED "http://www.w3.org/1999/xlink">
]>
<!-- Created with Sodipodi ("http://www.sodipodi.com/") -->
<svg xmlns="http://www.w3.org/2000/svg" xmlns:sodipodi="http://sodipodi.sourceforge.net/DTD/sodipodi-0.dtd" xmlns:xlink="http://www.w3.org/1999/xlink" height="140mm" id="svg548" sodipodi:docbase="/home/digitect/flags" sodipodi:docname="/home/digitect/flags/us_alabama.svg" sodipodi:version="0.32" width="210mm">
  
  <defs id="defs550"/>
  <sodipodi:namedview id="base"/>
  <rect height="496.093371" id="rect552" width="744.130079" x="0.041633" y="0.052065" font-size="12" fill="#ffffff" fill-rule="evenodd" stroke-width="1pt" fill-opacity="1"/>
  <path d="M 0.6 442.3 L 298.7 249.8 L 0.6 55.4 C 0.6 55.4 1.2 1.0 0.9 0.7 C 0.6 0.4 58.4 0.7 58.4 0.7 L 372.5 200.4 L 685.6 0.7 L 744.3 0.7 L 745.3 55.4 C 745.3 55.4 445.0 247.9 445.3 247.9 C 445.6 247.9 744.6 436.0 744.6 436.0 C 744.6 436.0 744.6 497 744.6 496.6 C 744.6 496.3 681.8 496.6 681.8 496.6 L 373.1 295.4 L 57.3 496.2 L 0.1 496.2 L 0.7 442.3 " id="path554" sodipodi:nodetypes="ccccccccccccccccc" fill="#993300" fill-rule="evenodd" stroke="#993300" stroke-opacity="1" stroke-width="1pt" stroke-linejoin="miter" stroke-linecap="butt" fill-opacity="1"/>
</svg>
