<?xml version="1.0" encoding="UTF-8" standalone="no"?>
<!-- Created with Sodipodi ("http://www.sodipodi.com/") -->
<svg xmlns="http://www.w3.org/2000/svg" xmlns:sodipodi="http://sodipodi.sourceforge.net/DTD/sodipodi-0.dtd" xmlns:xlink="http://www.w3.org/1999/xlink" height="6.100000cm" id="svg1350" sodipodi:docname="E:\sodipodi\travail_drapeau\comté nice.svg" sodipodi:version="0.34" width="272.72pt">
  
  <defs id="defs1352">
    <defs id="defs5117"/>
    <sodipodi:namedview id="namedview5116"/>
  </defs>
  <sodipodi:namedview bordercolor="#000000" borderlayer="top" borderopacity="1" id="base" showgrid="false"/>
  <path d="M 102.4 175.6 C 105.2 170.1 107.9 168.2 108.9 164.7 C 109.9 161.2 112.1 158.9 116.1 155.7 C 123.1 149.4 130.5 146.1 137.6 151.3 C 141.6 154.2 138.8 161.0 143.7 163.4 C 148.7 165.8 151.8 176.4 151.2 180.2 C 144.9 175.0 138.7 173.2 132.5 177.7 C 127.7 180.9 122.7 182.1 117.3 178.3 C 112.0 174.4 102.3 175.6 102.4 175.6 L 102.4 175.6 z " id="path632" sodipodi:nodetypes="cccsccccc" font-size="12" fill="#00d700" fill-rule="evenodd" stroke="#000000" stroke-width="1.049996"/>
  <path d="M 185.5 67.6 C 183.8 78.2 187.7 87.7 192.4 86.0 C 193.2 89.8 196.7 92.9 199.5 92.6 C 199.1 96.6 204.0 104.8 208.1 104.4 C 210.2 110.0 213.7 118.5 219.1 113.8 C 220.6 120.3 224.0 127.7 229.2 126.1 C 231.6 125.4 227.5 40.6 227.9 42.0 L 185.5 67.6 L 185.5 67.6 z " id="path619" sodipodi:nodetypes="cccccscc" font-size="12" fill="#ff0000" fill-rule="evenodd" stroke="#000000" stroke-width="1.049996"/>
  <path d="M 209.1 120.8 C 200.2 118.2 199.9 114.5 197.7 110.0 C 195.5 105.5 195.4 99.1 188.7 95.9 C 183.4 93.3 182.9 89.9 182.4 86.5 C 181.8 83.1 185.3 68.2 185.3 68.2 C 185.3 68.2 183.7 68.3 183.2 67.6 C 185.5 67.3 191.3 69.8 193.2 67.1 C 194.5 68.7 196.4 68.8 197.7 67.6 C 198.8 69.6 203.8 69.4 204.4 67.1 C 207.1 68.5 212.0 65.8 211.2 63.7 C 215.1 64.7 218.2 61.5 217.4 58.6 C 222.9 58.5 223.0 54.1 220.7 51.8 C 222.9 51.5 224.2 49.2 222.4 47.3 C 224.7 45.6 226.4 49.0 226.4 51.8 C 226.4 54.6 228.8 105.1 228.8 110.2 C 228.8 115.3 230.4 124.2 232.0 127.6 C 235.3 134.6 238.0 135.6 242.2 135.2 C 238.9 129.5 238.8 123.5 238.2 119.0 C 237.6 114.5 235.3 53.8 235.0 53.8 L 235.0 53.8 C 237.1 54.4 238.7 53.8 239.8 53.0 C 237.8 52.8 236.9 50.7 236.5 50.1 C 235.6 48.3 234.8 43.3 233.7 40.5 C 232.5 37.7 225.2 25.0 221.3 22.4 C 216.8 20.0 209.6 17.1 207.8 20.7 C 205.2 25.2 210.1 34.3 212.9 34.8 C 215.7 35.4 209.5 32.6 210.1 36.0 C 210.6 39.4 212.3 43.3 210.6 45.6 C 208.9 47.8 206.7 49.0 204.4 49.0 C 202.2 49.0 201.1 49.0 199.9 50.7 C 198.8 52.4 196.0 53.5 193.8 51.8 C 191.5 50.1 188.1 49.5 186.5 49.5 C 184.8 49.5 180.9 50.2 180.7 49.6 L 180.8 42.5 C 182.2 43.5 187.7 42.3 189.9 39.8 C 186.3 39.5 184.2 34.2 184.3 32.0 C 186.2 32.3 188.2 31.1 189.8 29.9 C 187.3 29.8 184.3 26.6 183.5 22.9 C 185.6 23.0 186.1 21.7 187.7 20.5 C 185.1 20.7 180.5 17.1 179.3 13.9 C 177.6 12.2 166.2 11.9 162.9 11.9 C 159.5 11.9 160.0 12.8 160.0 14.5 C 160.0 16.2 161.2 15.1 157.2 17.3 C 151.4 18.9 151.0 25.2 154.0 27.4 C 155.1 26.3 155.4 25.2 156.3 24.1 C 157.1 23.3 158.9 23.6 159.6 24.6 C 160.1 25.3 161.5 26.3 162.5 26.3 C 163.5 26.3 164.5 25.6 165.8 26.6 C 172.0 29.4 168.3 37.5 160.6 37.1 C 162.1 40.5 164.8 41.6 169.5 39.9 C 168.9 41.8 166.8 45.0 165.6 46.1 C 157.2 50.8 151.5 61.0 155.1 75.2 C 157.4 79.1 162.1 91.0 154.4 94.7 C 146.6 98.1 146.1 102.7 144.1 107.6 C 141.8 112.8 136.0 121.3 131.4 120.7 C 134.9 126.5 147.9 117.7 149.9 114.0 C 151.7 118.1 151.7 124.2 156.8 125.4 C 153.7 117.9 156.3 114.4 162.9 109.1 C 166.4 113.7 159.4 134.9 150.7 137.0 C 154.7 139.0 160.6 135.9 162.7 135.4 C 161.9 137.3 152.3 143.2 147.7 143.3 C 154.3 148.8 162.2 140.6 165.7 137.1 C 165.2 140.9 155.7 150.1 151.4 150.9 C 151.6 157.7 187.8 159.1 189.0 151.5 C 184.5 150.3 177.4 144.1 175.2 137.7 C 180.9 143.4 185.6 147.6 193.3 143.7 C 185.7 141.8 181.4 138.2 179.7 136.0 C 183.5 137.1 185.3 137.7 189.8 137.2 C 183.6 134.0 175.5 116.4 177.0 108.6 C 184.8 113.9 185.7 118.3 183.5 125.4 C 190.2 125.6 189.7 115.5 191.0 112.3 C 195.0 119.8 202.4 125.9 209.1 120.8 L 209.1 120.8 L 209.1 120.8 L 209.1 120.8 L 209.1 120.8 L 209.1 120.8 L 209.1 120.8 L 209.1 120.8 L 209.1 120.8 L 209.1 120.8 L 209.1 120.8 L 209.1 120.8 L 209.1 120.8 L 209.1 120.8 z " id="path1831" sodipodi:nodetypes="ccsccccccccccccscccccscsscccccccccccccccccccssscccscsscccccccccccccccccccccccccccccc" font-size="12" fill="#ff0000" fill-rule="evenodd" stroke="#000000" stroke-width="1.049996"/>
  <path d="M 167.9 29.0 C 163.6 28.6 159.2 29.2 156.8 30.4 C 154.4 31.6 149.4 32.1 146.0 30.9 C 148.2 34.7 152.5 35.7 157.5 33.5 C 160.2 32.3 164.2 30.8 165.9 31.2 C 170.3 32.1 168.6 29.2 167.9 29.0 L 167.9 29.0 z " id="path1832" sodipodi:nodetypes="cccscc" font-size="12" fill="#ff0000" fill-rule="evenodd" stroke="#000000" stroke-width="1.049996"/>
  <path d="M 153.9 68.3 C 156.3 75.4 155.0 85.6 148.4 86.3 C 147.1 89.4 144.3 91.5 140.9 92.5 C 139.5 98.8 135.9 105.1 132.6 103.2 C 131.1 109.7 124.8 119.5 121.8 113.1 C 120.4 122.0 112.7 128.2 109.6 124.6 C 107.1 121.6 112.7 48.3 112.7 48.3 L 153.9 68.3 L 153.9 68.3 z " id="path611" sodipodi:nodetypes="cccccccc" font-size="12" fill="#ff0000" fill-rule="evenodd" stroke="#000000" stroke-width="1.049996"/>
  <path d="M 160.7 49.5 C 155.5 48.7 150.0 49.8 148.0 51.4 C 146.0 53.0 141.1 53.6 139.9 52.0 C 138.7 50.4 137.1 49.6 135.2 49.2 C 127.5 47.1 128.4 34.6 131.6 33.2 C 136.7 31.2 138.3 21.2 131.2 21.1 C 123.6 21.0 118.2 21.7 115.0 24.9 C 111.8 28.0 108.3 33.4 107.3 39.6 C 106.5 45.1 103.6 52.0 99.8 55.1 C 102.0 56.0 103.7 55.4 104.4 55.3 C 103.0 58.8 104.4 123.1 98.6 133.1 C 97.4 137.1 105.7 136.3 108.5 129.9 C 111.3 123.5 114.9 52.8 115.3 49.2 C 115.7 45.6 116.9 50.3 118.9 51.7 C 117.9 56.1 119.6 58.8 122.4 59.4 C 122.3 63.2 126.4 63.9 128.4 63.2 C 128.2 65.8 131.0 66.8 134.0 66.0 C 135.5 69.0 140.1 69.5 141.3 67.7 C 143.3 70.2 145.8 68.3 146.7 66.8 C 148.8 68.9 154.1 70.6 153.9 67.2 C 153.2 62.3 157.1 51.8 160.7 49.5 L 160.7 49.5 L 160.7 49.5 z " id="path610" sodipodi:nodetypes="ccccsscscccccccccccscc" font-size="12" fill="#ff0000" fill-rule="evenodd" stroke="#000000" stroke-width="1.049996"/>
  <path d="M 123.5 62.7 C 123.7 71.1 123.4 110.7 121.5 114.1 " id="path612" sodipodi:nodetypes="cc" font-size="12" fill="#ff0000" fill-rule="evenodd" stroke="#000000" stroke-width="1.049996"/>
  <path d="M 132.6 103.2 C 133.8 96.6 132.9 65.9 132.9 65.9 " id="path616" sodipodi:nodetypes="cc" font-size="12" fill="#ff0000" fill-rule="evenodd" stroke="#000000" stroke-width="1.049996"/>
  <path d="M 141.1 92.6 C 141.6 87.0 141.5 67.9 141.5 67.9 " id="path617" sodipodi:nodetypes="cc" font-size="12" fill="#ff0000" fill-rule="evenodd" stroke="#000000" stroke-width="1.049996"/>
  <path d="M 148.5 86.1 C 148.9 80.9 148.1 68.0 148.1 68.0 " id="path618" sodipodi:nodetypes="cc" font-size="12" fill="#ff0000" fill-rule="evenodd" stroke="#000000" stroke-width="1.049996"/>
  <path d="M 192.2 86.0 C 190.5 81.6 192.2 67.8 192.2 67.8 " id="path620" sodipodi:nodetypes="cc" font-size="12" fill="#ff0000" fill-rule="evenodd" stroke="#000000" stroke-width="1.049996"/>
  <path d="M 199.5 92.6 C 197.6 88.2 199.0 68.6 199.0 68.6 " id="path621" sodipodi:nodetypes="cc" font-size="12" fill="#ff0000" fill-rule="evenodd" stroke="#000000" stroke-width="1.049996"/>
  <path d="M 208.1 104.4 C 206.1 97.6 208.1 67.1 208.1 67.1 " id="path622" sodipodi:nodetypes="cc" font-size="12" fill="#ff0000" fill-rule="evenodd" stroke="#000000" stroke-width="1.049996"/>
  <path d="M 219.1 113.4 C 216.8 106.5 217.0 61.1 217.0 61.1 " id="path623" sodipodi:nodetypes="cc" font-size="12" fill="#ff0000" fill-rule="evenodd" stroke="#000000" stroke-width="1.049996"/>
  <path d="M 123.1 153.4 C 123.1 155.2 121.9 157.0 120.8 158.4 C 120.7 158.6 121.3 158.1 121.6 158.0 C 122.7 157.6 123.9 157.2 125.0 156.5 C 125.5 156.3 125.7 156.4 125.9 155.9 " id="path629" font-size="12" fill="none" fill-rule="evenodd" stroke="#000000" stroke-width="1.049996"/>
  <path d="M 134.8 158.6 C 136.5 159.1 138.2 160.3 139.1 161.9 " id="path630" font-size="12" fill="#ff0000" fill-rule="evenodd" stroke="#000000" stroke-width="1.049996"/>
  <path d="M 118.0 91.2 C 118.7 81.4 118.6 61.3 118.0 58.6 " id="path849" sodipodi:nodetypes="cc" font-size="12" fill="#ff0000" fill-rule="evenodd" stroke="#000000" stroke-width="1.049996"/>
  <path d="M 221.9 56.5 C 221.7 65.1 220.8 85.8 223.0 92.4 " id="path850" sodipodi:nodetypes="cc" font-size="12" fill="#ff0000" fill-rule="evenodd" stroke="#000000" stroke-width="1.049996"/>
  <path d="M 199.1 121.7 C 204.0 129.2 206.6 135.1 207.9 139.1 C 209.3 143.1 212.5 145.2 217.0 146.4 C 220.9 147.3 223.1 150.7 221.9 153.4 C 212.5 147.0 201.8 148.0 198.8 154.1 C 196.9 150.4 199.5 148.7 201.7 147.3 C 204.0 145.9 206.4 145.0 204.0 141.2 C 201.5 137.4 192.2 126.0 189.9 123.0 C 188.6 121.5 190.1 116.3 190.8 113.5 C 193.0 117.0 199.1 121.9 199.1 121.7 L 199.1 121.7 L 199.1 121.7 L 199.1 121.7 L 199.1 121.7 z " id="path851" sodipodi:nodetypes="ccsccccsccccc" font-size="12" fill="#ff0000" fill-rule="evenodd" stroke="#000000" stroke-width="1.049996"/>
  <path d="M 151.5 122.9 C 145.4 128.5 138.1 138.9 137.1 141.0 C 136.1 143.1 135.9 144.8 137.8 146.4 C 139.7 148.0 143.3 151.7 141.9 153.9 C 133.3 146.3 127.6 147.3 119.1 153.2 C 117.4 150.8 118.7 147.6 122.0 146.2 C 125.3 145.1 128.1 145.9 130.9 142.1 C 133.6 138.2 139.2 123.4 141.1 121.3 C 144.0 119.8 147.5 116.5 149.7 115.6 C 151.0 117.7 151.8 122.9 151.5 122.7 L 151.5 122.9 L 151.5 122.9 L 151.5 122.9 z " id="path852" sodipodi:nodetypes="cccccscccccc" font-size="12" fill="#ff0000" fill-rule="evenodd" stroke="#000000" stroke-width="1.049996"/>
  <path d="M 161.1 11.8 C 158.9 10.9 158.1 9.2 159.1 7.9 C 164.4 6.4 177.1 5.8 180.2 8.8 C 183.2 10.1 181.3 12.2 179.2 13.4 C 174.8 12.2 163.1 11.6 162.6 11.8 L 162.6 11.8 L 161.1 11.8 L 161.1 11.8 z " id="path853" sodipodi:nodetypes="ccccccc" font-size="12" fill="#ff0000" fill-rule="evenodd" stroke="#000000" stroke-width="1.049996"/>
  <path d="M 152.7 15.3 A 2.2 2.2 0 1 0 148.2 15.3 A 2.2 2.2 0 1 0  152.7 15.3 z" id="path854" sodipodi:cx="150.46875" sodipodi:cy="15.3788509" sodipodi:rx="2.23345184" sodipodi:ry="2.23345757" sodipodi:type="arc" transform="matrix(0.942317,0,0,0.947683,16.11339,-8.826338)" fill-rule="evenodd" stroke="#000000" fill="#ff0000" fill-opacity="1" stroke-opacity="1" stroke-width="0.625" stroke-linejoin="miter" stroke-linecap="butt" stroke-dasharray="none"/>
  <path d="M 152.7 15.3 A 2.2 2.2 0 1 0 148.2 15.3 A 2.2 2.2 0 1 0  152.7 15.3 z" id="path855" sodipodi:cx="150.46875" sodipodi:cy="15.3788509" sodipodi:rx="2.23345184" sodipodi:ry="2.23345757" sodipodi:type="arc" transform="matrix(0.942317,0,0,0.947683,41.3732,-7.026849)" fill-rule="evenodd" stroke="#000000" fill="#ff0000" fill-opacity="1" stroke-opacity="1" stroke-width="0.625" stroke-linejoin="miter" stroke-linecap="butt" stroke-dasharray="none"/>
  <path d="M 152.7 15.3 A 2.2 2.2 0 1 0 148.2 15.3 A 2.2 2.2 0 1 0  152.7 15.3 z" id="path856" sodipodi:cx="150.46875" sodipodi:cy="15.3788509" sodipodi:rx="2.23345184" sodipodi:ry="2.23345757" sodipodi:type="arc" transform="matrix(0.942317,0,0,0.947683,37.44113,-9.239316)" fill-rule="evenodd" stroke="#000000" fill="#ff0000" fill-opacity="1" stroke-opacity="1" stroke-width="0.625" stroke-linejoin="miter" stroke-linecap="butt" stroke-dasharray="none"/>
  <path d="M 152.7 15.3 A 2.2 2.2 0 1 0 148.2 15.3 A 2.2 2.2 0 1 0  152.7 15.3 z" id="path857" sodipodi:cx="150.46875" sodipodi:cy="15.3788509" sodipodi:rx="2.23345184" sodipodi:ry="2.23345757" sodipodi:type="arc" transform="matrix(0.942317,0,0,0.947683,33.33582,-10.49353)" fill-rule="evenodd" stroke="#000000" fill="#ff0000" fill-opacity="1" stroke-opacity="1" stroke-width="0.625" stroke-linejoin="miter" stroke-linecap="butt" stroke-dasharray="none"/>
  <path d="M 152.7 15.3 A 2.2 2.2 0 1 0 148.2 15.3 A 2.2 2.2 0 1 0  152.7 15.3 z" id="path858" sodipodi:cx="150.46875" sodipodi:cy="15.3788509" sodipodi:rx="2.23345184" sodipodi:ry="2.23345757" sodipodi:type="arc" transform="matrix(0.942317,0,0,0.947683,29.03559,-10.86461)" fill-rule="evenodd" stroke="#000000" fill="#ff0000" fill-opacity="1" stroke-opacity="1" stroke-width="0.625" stroke-linejoin="miter" stroke-linecap="butt" stroke-dasharray="none"/>
  <path d="M 152.7 15.3 A 2.2 2.2 0 1 0 148.2 15.3 A 2.2 2.2 0 1 0  152.7 15.3 z" id="path859" sodipodi:cx="150.46875" sodipodi:cy="15.3788509" sodipodi:rx="2.23345184" sodipodi:ry="2.23345757" sodipodi:type="arc" transform="matrix(0.942317,0,0,0.947683,24.77439,-10.74095)" fill-rule="evenodd" stroke="#000000" fill="#ff0000" fill-opacity="1" stroke-opacity="1" stroke-width="0.625" stroke-linejoin="miter" stroke-linecap="butt" stroke-dasharray="none"/>
  <path d="M 152.7 15.3 A 2.2 2.2 0 1 0 148.2 15.3 A 2.2 2.2 0 1 0  152.7 15.3 z" id="path860" sodipodi:cx="150.46875" sodipodi:cy="15.3788509" sodipodi:rx="2.23345184" sodipodi:ry="2.23345757" sodipodi:type="arc" transform="matrix(0.942317,0,0,0.947683,20.5478,-10.23753)" fill-rule="evenodd" stroke="#000000" fill="#ff0000" fill-opacity="1" stroke-opacity="1" stroke-width="0.625" stroke-linejoin="miter" stroke-linecap="butt" stroke-dasharray="none"/>
  <path d="M 160.3 16.3 C 161.9 21.2 166.9 19.2 167.4 16.6 C 167.9 15.2 163.1 16.3 160.3 16.3 L 160.3 16.3 z " id="path861" sodipodi:nodetypes="ccc" fill="#000000" fill-rule="evenodd" stroke="none" stroke-opacity="1" stroke-width="1pt" stroke-linejoin="miter" stroke-linecap="butt" fill-opacity="1"/>
  <path d="M 161.7 178.5 C 164.7 175.0 173.5 173.6 177.5 176.7 C 181.4 179.8 183.1 180.9 186.5 181.2 C 187.4 176.0 192.5 170.2 192.4 168.5 C 188.0 163.0 187.9 159.9 185.2 158.3 C 183.0 157.2 181.0 157.0 180.0 152.4 C 177.3 140.2 160.5 146.9 159.9 150.3 C 159.2 153.3 159.2 155.2 155.0 159.0 C 150.8 162.9 148.2 166.1 149.9 170.8 C 151.6 175.4 149.4 182.1 155.1 181.9 C 159.1 181.1 161.7 178.5 161.7 178.5 L 161.7 178.5 z " id="path633" sodipodi:nodetypes="ccccssscccc" font-size="12" fill="#00d700" fill-rule="evenodd" stroke="#000000" stroke-width="1.049996"/>
  <path d="M 231.8 173.7 C 231.4 167.5 228.3 161.7 223.8 160.6 C 220.9 159.8 220.2 155.4 217.9 152.5 C 215.7 149.7 203.2 148.3 201.6 151.7 C 200.1 155.1 199.8 156.8 198.0 158.5 C 196.2 160.2 195.3 162.3 193.2 168.8 C 184.2 181.4 185.3 184.5 193.2 178.1 C 195.5 176.3 207.8 175.0 210.1 177.6 C 213.0 181.4 220.2 183.2 223.3 179.4 C 225.2 177.6 229.3 176.0 231.8 173.7 L 231.8 173.7 z " id="path624" sodipodi:nodetypes="csccccsccc" font-size="12" fill="#00d700" fill-rule="evenodd" stroke="#000000" stroke-width="1.049996"/>
  <path d="M 213.7 165.1 C 213.4 167.4 210.4 169.8 208.5 170.7 C 208.3 170.8 208.1 170.8 207.9 170.9 " id="path625" font-size="12" fill="none" fill-rule="evenodd" stroke="#000000" stroke-width="1.049996"/>
  <path d="M 221.9 163.8 C 222.8 165.8 223.2 166.6 224.8 168.3 C 226.4 170.1 228.3 172.1 230.3 173.4 C 230.5 173.5 230.7 173.5 230.9 173.5 " id="path626" font-size="12" fill="none" fill-rule="evenodd" stroke="#000000" stroke-width="1.049996"/>
  <path d="M 160.7 158.5 C 161.8 159.9 165.2 163.1 162.2 164.4 C 160.9 164.9 160.1 165.3 158.7 165.3 " id="path627" font-size="12" fill="none" fill-rule="evenodd" stroke="#000000" stroke-width="1.049996"/>
  <path d="M 166.1 169.5 C 167.2 171.8 169.3 173.0 171.2 174.6 " id="path628" font-size="12" fill="none" fill-rule="evenodd" stroke="#000000" stroke-width="1.049996"/>
  <path d="M 113.8 173.0 C 115.5 173.0 120.7 170.1 122.5 169.3 C 122.5 169.3 122.2 169.6 121.6 170.4 C 119.9 172.5 119.4 175.0 118.2 177.3 " id="path631" font-size="12" fill="none" fill-rule="evenodd" stroke="#000000" stroke-width="1.049996"/>
  <g id="g744" transform="matrix(1.047018,0,0,1.05298,0.480287,-13.21358)" stroke="#0000d7" stroke-opacity="1">
    <g id="g638" transform="matrix(0.821837,0,0,0.782572,7.122774,42.89063)" font-size="12" stroke="#0000d7" stroke-width="7.75" stroke-linecap="square" stroke-opacity="1">
      <path d="M 36.4 198.0 C 42.2 191.7 47.9 191.7 54.4 198.0 " id="path634" sodipodi:nodetypes="cc" font-size="12" fill="none" fill-rule="evenodd" stroke="#0000d7" stroke-width="7.75" stroke-opacity="1" stroke-dasharray="none" stroke-linejoin="miter" stroke-linecap="square"/>
      <path d="M 72.4 197.9 C 66.6 204.1 60.8 204.2 54.3 198.0 " id="path637" sodipodi:nodetypes="cc" font-size="12" fill="none" fill-rule="evenodd" stroke="#0000d7" stroke-width="7.75" stroke-opacity="1" stroke-dasharray="none" stroke-linejoin="miter" stroke-linecap="square"/>
    </g>
    <g id="g641" transform="matrix(0.821837,0,0,0.782572,36.65403,42.81249)" font-size="12" stroke="#0000d7" stroke-width="7.75" stroke-linecap="square" stroke-opacity="1">
      <path d="M 36.4 198.0 C 42.2 191.7 47.9 191.7 54.4 198.0 " id="path642" sodipodi:nodetypes="cc" font-size="12" fill="none" fill-rule="evenodd" stroke="#0000d7" stroke-width="7.75" stroke-opacity="1" stroke-dasharray="none" stroke-linejoin="miter" stroke-linecap="square"/>
      <path d="M 72.4 197.9 C 66.6 204.1 60.8 204.2 54.3 198.0 " id="path643" sodipodi:nodetypes="cc" font-size="12" fill="none" fill-rule="evenodd" stroke="#0000d7" stroke-width="7.75" stroke-opacity="1" stroke-dasharray="none" stroke-linejoin="miter" stroke-linecap="square"/>
    </g>
    <g id="g644" transform="matrix(0.821837,0,0,0.782572,66.15363,42.70198)" font-size="12" stroke="#0000d7" stroke-width="7.75" stroke-linecap="square" stroke-opacity="1">
      <path d="M 36.4 198.0 C 42.2 191.7 47.9 191.7 54.4 198.0 " id="path645" sodipodi:nodetypes="cc" font-size="12" fill="none" fill-rule="evenodd" stroke="#0000d7" stroke-width="7.75" stroke-opacity="1" stroke-dasharray="none" stroke-linejoin="miter" stroke-linecap="square"/>
      <path d="M 72.4 197.9 C 66.6 204.1 60.8 204.2 54.3 198.0 " id="path646" sodipodi:nodetypes="cc" font-size="12" fill="none" fill-rule="evenodd" stroke="#0000d7" stroke-width="7.75" stroke-opacity="1" stroke-dasharray="none" stroke-linejoin="miter" stroke-linecap="square"/>
    </g>
    <g id="g647" transform="matrix(0.821837,0,0,0.782572,95.65324,42.59146)" font-size="12" stroke="#0000d7" stroke-width="7.75" stroke-linecap="square" stroke-opacity="1">
      <path d="M 36.4 198.0 C 42.2 191.7 47.9 191.7 54.4 198.0 " id="path648" sodipodi:nodetypes="cc" font-size="12" fill="none" fill-rule="evenodd" stroke="#0000d7" stroke-width="7.75" stroke-opacity="1" stroke-dasharray="none" stroke-linejoin="miter" stroke-linecap="square"/>
      <path d="M 72.4 197.9 C 66.6 204.1 60.8 204.2 54.3 198.0 " id="path649" sodipodi:nodetypes="cc" font-size="12" fill="none" fill-rule="evenodd" stroke="#0000d7" stroke-width="7.75" stroke-opacity="1" stroke-dasharray="none" stroke-linejoin="miter" stroke-linecap="square"/>
    </g>
    <g id="g650" transform="matrix(0.821837,0,0,0.782572,125.1529,42.48095)" font-size="12" stroke="#0000d7" stroke-width="7.75" stroke-linecap="square" stroke-opacity="1">
      <path d="M 36.4 198.0 C 42.2 191.7 47.9 191.7 54.4 198.0 " id="path651" sodipodi:nodetypes="cc" font-size="12" fill="none" fill-rule="evenodd" stroke="#0000d7" stroke-width="7.75" stroke-opacity="1" stroke-dasharray="none" stroke-linejoin="miter" stroke-linecap="square"/>
      <path d="M 72.4 197.9 C 66.6 204.1 60.8 204.2 54.3 198.0 " id="path652" sodipodi:nodetypes="cc" font-size="12" fill="none" fill-rule="evenodd" stroke="#0000d7" stroke-width="7.75" stroke-opacity="1" stroke-dasharray="none" stroke-linejoin="miter" stroke-linecap="square"/>
    </g>
    <g id="g653" transform="matrix(0.821837,0,0,0.782572,154.6525,42.37044)" font-size="12" stroke="#0000d7" stroke-width="7.75" stroke-linecap="square" stroke-opacity="1">
      <path d="M 36.4 198.0 C 42.2 191.7 47.9 191.7 54.4 198.0 " id="path654" sodipodi:nodetypes="cc" font-size="12" fill="none" fill-rule="evenodd" stroke="#0000d7" stroke-width="7.75" stroke-opacity="1" stroke-dasharray="none" stroke-linejoin="miter" stroke-linecap="square"/>
      <path d="M 72.4 197.9 C 66.6 204.1 60.8 204.2 54.3 198.0 " id="path655" sodipodi:nodetypes="cc" font-size="12" fill="none" fill-rule="evenodd" stroke="#0000d7" stroke-width="7.75" stroke-opacity="1" stroke-dasharray="none" stroke-linejoin="miter" stroke-linecap="square"/>
    </g>
    <g id="g656" transform="matrix(0.821837,0,0,0.782572,184.1521,42.25993)" font-size="12" stroke="#0000d7" stroke-width="7.75" stroke-linecap="square" stroke-opacity="1">
      <path d="M 36.4 198.0 C 42.2 191.7 47.9 191.7 54.4 198.0 " id="path657" sodipodi:nodetypes="cc" font-size="12" fill="none" fill-rule="evenodd" stroke="#0000d7" stroke-width="7.75" stroke-opacity="1" stroke-dasharray="none" stroke-linejoin="miter" stroke-linecap="square"/>
      <path d="M 72.4 197.9 C 66.6 204.1 60.8 204.2 54.3 198.0 " id="path658" sodipodi:nodetypes="cc" font-size="12" fill="none" fill-rule="evenodd" stroke="#0000d7" stroke-width="7.75" stroke-opacity="1" stroke-dasharray="none" stroke-linejoin="miter" stroke-linecap="square"/>
    </g>
    <g id="g659" transform="matrix(0.821837,0,0,0.782572,213.6517,42.14942)" font-size="12" stroke="#0000d7" stroke-width="7.75" stroke-linecap="square" stroke-opacity="1">
      <path d="M 36.4 198.0 C 42.2 191.7 47.9 191.7 54.4 198.0 " id="path660" sodipodi:nodetypes="cc" font-size="12" fill="none" fill-rule="evenodd" stroke="#0000d7" stroke-width="7.75" stroke-opacity="1" stroke-dasharray="none" stroke-linejoin="miter" stroke-linecap="square"/>
      <path d="M 72.4 197.9 C 66.6 204.1 60.8 204.2 54.3 198.0 " id="path661" sodipodi:nodetypes="cc" font-size="12" fill="none" fill-rule="evenodd" stroke="#0000d7" stroke-width="7.75" stroke-opacity="1" stroke-dasharray="none" stroke-linejoin="miter" stroke-linecap="square"/>
    </g>
    <g id="g662" transform="matrix(0.821837,0,0,0.782572,243.1513,42.03891)" font-size="12" stroke="#0000d7" stroke-width="7.75" stroke-linecap="square" stroke-opacity="1">
      <path d="M 36.4 198.0 C 42.2 191.7 47.9 191.7 54.4 198.0 " id="path663" sodipodi:nodetypes="cc" font-size="12" fill="none" fill-rule="evenodd" stroke="#0000d7" stroke-width="7.75" stroke-opacity="1" stroke-dasharray="none" stroke-linejoin="miter" stroke-linecap="square"/>
      <path d="M 72.4 197.9 C 66.6 204.1 60.8 204.2 54.3 198.0 " id="path664" sodipodi:nodetypes="cc" font-size="12" fill="none" fill-rule="evenodd" stroke="#0000d7" stroke-width="7.75" stroke-opacity="1" stroke-dasharray="none" stroke-linejoin="miter" stroke-linecap="square"/>
    </g>
    <path d="M 36.4 198.0 C 42.2 191.7 47.9 191.7 54.4 198.0 " id="path666" sodipodi:nodetypes="cc" transform="matrix(0.821837,0,0,0.782572,272.6509,41.92839)" font-size="12" fill="none" fill-rule="evenodd" stroke="#0000d7" stroke-width="7.75" stroke-linecap="square" stroke-opacity="1"/>
    <path d="M 322.0 199.4 C 320.0 199.4 317.8 198.2 315.5 195.7 " id="path667" sodipodi:nodetypes="cc" font-size="12" fill="none" fill-rule="evenodd" stroke="#0000d7" stroke-width="5.752861" stroke-linecap="square" stroke-opacity="1"/>
    <g id="g670" transform="matrix(-0.821837,2.012853e-16,1.916685e-16,0.782572,81.70657,42.91961)" font-size="12" stroke="#0000d7" stroke-width="7.7466" stroke-linecap="square" stroke-dasharray="none" stroke-opacity="1">
      <path d="M 36.4 198.0 C 42.2 191.7 47.9 191.7 54.4 198.0 " id="path671" sodipodi:nodetypes="cc" font-size="12" fill="none" fill-rule="evenodd" stroke="#0000d7" stroke-width="7.7466" stroke-opacity="1" stroke-dasharray="none" stroke-linejoin="miter" stroke-linecap="square"/>
      <path d="M 72.4 197.9 C 66.6 204.1 60.8 204.2 54.3 198.0 " id="path672" sodipodi:nodetypes="cc" font-size="12" fill="none" fill-rule="evenodd" stroke="#0000d7" stroke-width="7.7466" stroke-opacity="1" stroke-dasharray="none" stroke-linejoin="miter" stroke-linecap="square"/>
    </g>
    <path d="M 22.2 197.8 C 17.5 192.9 12.8 192.9 7.4 197.8 " id="path673" sodipodi:nodetypes="cc" font-size="12" fill="none" fill-rule="evenodd" stroke="#0000d7" stroke-width="6.2125" stroke-linecap="square" stroke-dasharray="none" stroke-opacity="1"/>
    <path d="M 3.0 200.8 C 5.0 200.9 8.8 196.6 9.4 196.4 " id="path674" sodipodi:nodetypes="cc" font-size="12" fill="none" fill-rule="evenodd" stroke="#0000d7" stroke-width="6.2125" stroke-linecap="square" stroke-dasharray="none" stroke-opacity="1"/>
  </g>
  <g id="g779" transform="matrix(1.047018,0,0,1.05298,0.480288,0.573534)" stroke="#0000d7" stroke-opacity="1">
    <g id="g780" transform="matrix(0.821837,0,0,0.782572,7.122774,42.89063)" font-size="12" stroke="#0000d7" stroke-width="7.75" stroke-linecap="square" stroke-opacity="1">
      <path d="M 36.4 198.0 C 42.2 191.7 47.9 191.7 54.4 198.0 " id="path781" sodipodi:nodetypes="cc" font-size="12" fill="none" fill-rule="evenodd" stroke="#0000d7" stroke-width="7.75" stroke-opacity="1" stroke-dasharray="none" stroke-linejoin="miter" stroke-linecap="square"/>
      <path d="M 72.4 197.9 C 66.6 204.1 60.8 204.2 54.3 198.0 " id="path782" sodipodi:nodetypes="cc" font-size="12" fill="none" fill-rule="evenodd" stroke="#0000d7" stroke-width="7.75" stroke-opacity="1" stroke-dasharray="none" stroke-linejoin="miter" stroke-linecap="square"/>
    </g>
    <g id="g783" transform="matrix(0.821837,0,0,0.782572,36.65403,42.81249)" font-size="12" stroke="#0000d7" stroke-width="7.75" stroke-linecap="square" stroke-opacity="1">
      <path d="M 36.4 198.0 C 42.2 191.7 47.9 191.7 54.4 198.0 " id="path784" sodipodi:nodetypes="cc" font-size="12" fill="none" fill-rule="evenodd" stroke="#0000d7" stroke-width="7.75" stroke-opacity="1" stroke-dasharray="none" stroke-linejoin="miter" stroke-linecap="square"/>
      <path d="M 72.4 197.9 C 66.6 204.1 60.8 204.2 54.3 198.0 " id="path785" sodipodi:nodetypes="cc" font-size="12" fill="none" fill-rule="evenodd" stroke="#0000d7" stroke-width="7.75" stroke-opacity="1" stroke-dasharray="none" stroke-linejoin="miter" stroke-linecap="square"/>
    </g>
    <g id="g786" transform="matrix(0.821837,0,0,0.782572,66.15363,42.70198)" font-size="12" stroke="#0000d7" stroke-width="7.75" stroke-linecap="square" stroke-opacity="1">
      <path d="M 36.4 198.0 C 42.2 191.7 47.9 191.7 54.4 198.0 " id="path787" sodipodi:nodetypes="cc" font-size="12" fill="none" fill-rule="evenodd" stroke="#0000d7" stroke-width="7.75" stroke-opacity="1" stroke-dasharray="none" stroke-linejoin="miter" stroke-linecap="square"/>
      <path d="M 72.4 197.9 C 66.6 204.1 60.8 204.2 54.3 198.0 " id="path788" sodipodi:nodetypes="cc" font-size="12" fill="none" fill-rule="evenodd" stroke="#0000d7" stroke-width="7.75" stroke-opacity="1" stroke-dasharray="none" stroke-linejoin="miter" stroke-linecap="square"/>
    </g>
    <g id="g789" transform="matrix(0.821837,0,0,0.782572,95.65324,42.59146)" font-size="12" stroke="#0000d7" stroke-width="7.75" stroke-linecap="square" stroke-opacity="1">
      <path d="M 36.4 198.0 C 42.2 191.7 47.9 191.7 54.4 198.0 " id="path790" sodipodi:nodetypes="cc" font-size="12" fill="none" fill-rule="evenodd" stroke="#0000d7" stroke-width="7.75" stroke-opacity="1" stroke-dasharray="none" stroke-linejoin="miter" stroke-linecap="square"/>
      <path d="M 72.4 197.9 C 66.6 204.1 60.8 204.2 54.3 198.0 " id="path791" sodipodi:nodetypes="cc" font-size="12" fill="none" fill-rule="evenodd" stroke="#0000d7" stroke-width="7.75" stroke-opacity="1" stroke-dasharray="none" stroke-linejoin="miter" stroke-linecap="square"/>
    </g>
    <g id="g792" transform="matrix(0.821837,0,0,0.782572,125.1529,42.48095)" font-size="12" stroke="#0000d7" stroke-width="7.75" stroke-linecap="square" stroke-opacity="1">
      <path d="M 36.4 198.0 C 42.2 191.7 47.9 191.7 54.4 198.0 " id="path793" sodipodi:nodetypes="cc" font-size="12" fill="none" fill-rule="evenodd" stroke="#0000d7" stroke-width="7.75" stroke-opacity="1" stroke-dasharray="none" stroke-linejoin="miter" stroke-linecap="square"/>
      <path d="M 72.4 197.9 C 66.6 204.1 60.8 204.2 54.3 198.0 " id="path794" sodipodi:nodetypes="cc" font-size="12" fill="none" fill-rule="evenodd" stroke="#0000d7" stroke-width="7.75" stroke-opacity="1" stroke-dasharray="none" stroke-linejoin="miter" stroke-linecap="square"/>
    </g>
    <g id="g795" transform="matrix(0.821837,0,0,0.782572,154.6525,42.37044)" font-size="12" stroke="#0000d7" stroke-width="7.75" stroke-linecap="square" stroke-opacity="1">
      <path d="M 36.4 198.0 C 42.2 191.7 47.9 191.7 54.4 198.0 " id="path796" sodipodi:nodetypes="cc" font-size="12" fill="none" fill-rule="evenodd" stroke="#0000d7" stroke-width="7.75" stroke-opacity="1" stroke-dasharray="none" stroke-linejoin="miter" stroke-linecap="square"/>
      <path d="M 72.4 197.9 C 66.6 204.1 60.8 204.2 54.3 198.0 " id="path797" sodipodi:nodetypes="cc" font-size="12" fill="none" fill-rule="evenodd" stroke="#0000d7" stroke-width="7.75" stroke-opacity="1" stroke-dasharray="none" stroke-linejoin="miter" stroke-linecap="square"/>
    </g>
    <g id="g798" transform="matrix(0.821837,0,0,0.782572,184.1521,42.25993)" font-size="12" stroke="#0000d7" stroke-width="7.75" stroke-linecap="square" stroke-opacity="1">
      <path d="M 36.4 198.0 C 42.2 191.7 47.9 191.7 54.4 198.0 " id="path799" sodipodi:nodetypes="cc" font-size="12" fill="none" fill-rule="evenodd" stroke="#0000d7" stroke-width="7.75" stroke-opacity="1" stroke-dasharray="none" stroke-linejoin="miter" stroke-linecap="square"/>
      <path d="M 72.4 197.9 C 66.6 204.1 60.8 204.2 54.3 198.0 " id="path800" sodipodi:nodetypes="cc" font-size="12" fill="none" fill-rule="evenodd" stroke="#0000d7" stroke-width="7.75" stroke-opacity="1" stroke-dasharray="none" stroke-linejoin="miter" stroke-linecap="square"/>
    </g>
    <g id="g801" transform="matrix(0.821837,0,0,0.782572,213.6517,42.14942)" font-size="12" stroke="#0000d7" stroke-width="7.75" stroke-linecap="square" stroke-opacity="1">
      <path d="M 36.4 198.0 C 42.2 191.7 47.9 191.7 54.4 198.0 " id="path802" sodipodi:nodetypes="cc" font-size="12" fill="none" fill-rule="evenodd" stroke="#0000d7" stroke-width="7.75" stroke-opacity="1" stroke-dasharray="none" stroke-linejoin="miter" stroke-linecap="square"/>
      <path d="M 72.4 197.9 C 66.6 204.1 60.8 204.2 54.3 198.0 " id="path803" sodipodi:nodetypes="cc" font-size="12" fill="none" fill-rule="evenodd" stroke="#0000d7" stroke-width="7.75" stroke-opacity="1" stroke-dasharray="none" stroke-linejoin="miter" stroke-linecap="square"/>
    </g>
    <g id="g804" transform="matrix(0.821837,0,0,0.782572,243.1513,42.03891)" font-size="12" stroke="#0000d7" stroke-width="7.75" stroke-linecap="square" stroke-opacity="1">
      <path d="M 36.4 198.0 C 42.2 191.7 47.9 191.7 54.4 198.0 " id="path805" sodipodi:nodetypes="cc" font-size="12" fill="none" fill-rule="evenodd" stroke="#0000d7" stroke-width="7.75" stroke-opacity="1" stroke-dasharray="none" stroke-linejoin="miter" stroke-linecap="square"/>
      <path d="M 72.4 197.9 C 66.6 204.1 60.8 204.2 54.3 198.0 " id="path806" sodipodi:nodetypes="cc" font-size="12" fill="none" fill-rule="evenodd" stroke="#0000d7" stroke-width="7.75" stroke-opacity="1" stroke-dasharray="none" stroke-linejoin="miter" stroke-linecap="square"/>
    </g>
    <path d="M 36.4 198.0 C 42.2 191.7 47.9 191.7 54.4 198.0 " id="path807" sodipodi:nodetypes="cc" transform="matrix(0.821837,0,0,0.782572,272.6509,41.92839)" font-size="12" fill="none" fill-rule="evenodd" stroke="#0000d7" stroke-width="7.75" stroke-linecap="square" stroke-opacity="1"/>
    <path d="M 322.0 199.4 C 320.0 199.4 317.8 198.2 315.5 195.7 " id="path808" sodipodi:nodetypes="cc" font-size="12" fill="none" fill-rule="evenodd" stroke="#0000d7" stroke-width="5.752861" stroke-linecap="square" stroke-opacity="1"/>
    <g id="g809" transform="matrix(-0.821837,2.012853e-16,1.916685e-16,0.782572,81.70657,42.91961)" font-size="12" stroke="#0000d7" stroke-width="7.7466" stroke-linecap="square" stroke-dasharray="none" stroke-opacity="1">
      <path d="M 36.4 198.0 C 42.2 191.7 47.9 191.7 54.4 198.0 " id="path810" sodipodi:nodetypes="cc" font-size="12" fill="none" fill-rule="evenodd" stroke="#0000d7" stroke-width="7.7466" stroke-opacity="1" stroke-dasharray="none" stroke-linejoin="miter" stroke-linecap="square"/>
      <path d="M 72.4 197.9 C 66.6 204.1 60.8 204.2 54.3 198.0 " id="path811" sodipodi:nodetypes="cc" font-size="12" fill="none" fill-rule="evenodd" stroke="#0000d7" stroke-width="7.7466" stroke-opacity="1" stroke-dasharray="none" stroke-linejoin="miter" stroke-linecap="square"/>
    </g>
    <path d="M 22.2 197.8 C 17.5 192.9 12.8 192.9 7.4 197.8 " id="path812" sodipodi:nodetypes="cc" font-size="12" fill="none" fill-rule="evenodd" stroke="#0000d7" stroke-width="6.2125" stroke-linecap="square" stroke-dasharray="none" stroke-opacity="1"/>
    <path d="M 3.0 200.8 C 5.0 200.9 8.8 196.6 9.4 196.4 " id="path813" sodipodi:nodetypes="cc" font-size="12" fill="none" fill-rule="evenodd" stroke="#0000d7" stroke-width="6.2125" stroke-linecap="square" stroke-dasharray="none" stroke-opacity="1"/>
  </g>
  <g id="g814" transform="matrix(1.047018,0,0,1.05298,0.480288,-27.06719)" stroke="#0000d7" stroke-opacity="1">
    <g id="g815" transform="matrix(0.821837,0,0,0.782572,7.122774,42.89063)" font-size="12" stroke="#0000d7" stroke-width="7.75" stroke-linecap="square" stroke-opacity="1">
      <path d="M 36.4 198.0 C 42.2 191.7 47.9 191.7 54.4 198.0 " id="path816" sodipodi:nodetypes="cc" font-size="12" fill="none" fill-rule="evenodd" stroke="#0000d7" stroke-width="7.75" stroke-opacity="1" stroke-dasharray="none" stroke-linejoin="miter" stroke-linecap="square"/>
      <path d="M 72.4 197.9 C 66.6 204.1 60.8 204.2 54.3 198.0 " id="path817" sodipodi:nodetypes="cc" font-size="12" fill="none" fill-rule="evenodd" stroke="#0000d7" stroke-width="7.75" stroke-opacity="1" stroke-dasharray="none" stroke-linejoin="miter" stroke-linecap="square"/>
    </g>
    <g id="g818" transform="matrix(0.821837,0,0,0.782572,36.65403,42.81249)" font-size="12" stroke="#0000d7" stroke-width="7.75" stroke-linecap="square" stroke-opacity="1">
      <path d="M 36.4 198.0 C 42.2 191.7 47.9 191.7 54.4 198.0 " id="path819" sodipodi:nodetypes="cc" font-size="12" fill="none" fill-rule="evenodd" stroke="#0000d7" stroke-width="7.75" stroke-opacity="1" stroke-dasharray="none" stroke-linejoin="miter" stroke-linecap="square"/>
      <path d="M 72.4 197.9 C 66.6 204.1 60.8 204.2 54.3 198.0 " id="path820" sodipodi:nodetypes="cc" font-size="12" fill="none" fill-rule="evenodd" stroke="#0000d7" stroke-width="7.75" stroke-opacity="1" stroke-dasharray="none" stroke-linejoin="miter" stroke-linecap="square"/>
    </g>
    <g id="g821" transform="matrix(0.821837,0,0,0.782572,66.15363,42.70198)" font-size="12" stroke="#0000d7" stroke-width="7.75" stroke-linecap="square" stroke-opacity="1">
      <path d="M 36.4 198.0 C 42.2 191.7 47.9 191.7 54.4 198.0 " id="path822" sodipodi:nodetypes="cc" font-size="12" fill="none" fill-rule="evenodd" stroke="#0000d7" stroke-width="7.75" stroke-opacity="1" stroke-dasharray="none" stroke-linejoin="miter" stroke-linecap="square"/>
      <path d="M 72.4 197.9 C 66.6 204.1 60.8 204.2 54.3 198.0 " id="path823" sodipodi:nodetypes="cc" font-size="12" fill="none" fill-rule="evenodd" stroke="#0000d7" stroke-width="7.75" stroke-opacity="1" stroke-dasharray="none" stroke-linejoin="miter" stroke-linecap="square"/>
    </g>
    <g id="g824" transform="matrix(0.821837,0,0,0.782572,95.65324,42.59146)" font-size="12" stroke="#0000d7" stroke-width="7.75" stroke-linecap="square" stroke-opacity="1">
      <path d="M 36.4 198.0 C 42.2 191.7 47.9 191.7 54.4 198.0 " id="path825" sodipodi:nodetypes="cc" font-size="12" fill="none" fill-rule="evenodd" stroke="#0000d7" stroke-width="7.75" stroke-opacity="1" stroke-dasharray="none" stroke-linejoin="miter" stroke-linecap="square"/>
      <path d="M 72.4 197.9 C 66.6 204.1 60.8 204.2 54.3 198.0 " id="path826" sodipodi:nodetypes="cc" font-size="12" fill="none" fill-rule="evenodd" stroke="#0000d7" stroke-width="7.75" stroke-opacity="1" stroke-dasharray="none" stroke-linejoin="miter" stroke-linecap="square"/>
    </g>
    <g id="g827" transform="matrix(0.821837,0,0,0.782572,125.1529,42.48095)" font-size="12" stroke="#0000d7" stroke-width="7.75" stroke-linecap="square" stroke-opacity="1">
      <path d="M 36.4 198.0 C 42.2 191.7 47.9 191.7 54.4 198.0 " id="path828" sodipodi:nodetypes="cc" font-size="12" fill="none" fill-rule="evenodd" stroke="#0000d7" stroke-width="7.75" stroke-opacity="1" stroke-dasharray="none" stroke-linejoin="miter" stroke-linecap="square"/>
      <path d="M 72.4 197.9 C 66.6 204.1 60.8 204.2 54.3 198.0 " id="path829" sodipodi:nodetypes="cc" font-size="12" fill="none" fill-rule="evenodd" stroke="#0000d7" stroke-width="7.75" stroke-opacity="1" stroke-dasharray="none" stroke-linejoin="miter" stroke-linecap="square"/>
    </g>
    <g id="g830" transform="matrix(0.821837,0,0,0.782572,154.6525,42.37044)" font-size="12" stroke="#0000d7" stroke-width="7.75" stroke-linecap="square" stroke-opacity="1">
      <path d="M 36.4 198.0 C 42.2 191.7 47.9 191.7 54.4 198.0 " id="path831" sodipodi:nodetypes="cc" font-size="12" fill="none" fill-rule="evenodd" stroke="#0000d7" stroke-width="7.75" stroke-opacity="1" stroke-dasharray="none" stroke-linejoin="miter" stroke-linecap="square"/>
      <path d="M 72.4 197.9 C 66.6 204.1 60.8 204.2 54.3 198.0 " id="path832" sodipodi:nodetypes="cc" font-size="12" fill="none" fill-rule="evenodd" stroke="#0000d7" stroke-width="7.75" stroke-opacity="1" stroke-dasharray="none" stroke-linejoin="miter" stroke-linecap="square"/>
    </g>
    <g id="g833" transform="matrix(0.821837,0,0,0.782572,184.1521,42.25993)" font-size="12" stroke="#0000d7" stroke-width="7.75" stroke-linecap="square" stroke-opacity="1">
      <path d="M 36.4 198.0 C 42.2 191.7 47.9 191.7 54.4 198.0 " id="path834" sodipodi:nodetypes="cc" font-size="12" fill="none" fill-rule="evenodd" stroke="#0000d7" stroke-width="7.75" stroke-opacity="1" stroke-dasharray="none" stroke-linejoin="miter" stroke-linecap="square"/>
      <path d="M 72.4 197.9 C 66.6 204.1 60.8 204.2 54.3 198.0 " id="path835" sodipodi:nodetypes="cc" font-size="12" fill="none" fill-rule="evenodd" stroke="#0000d7" stroke-width="7.75" stroke-opacity="1" stroke-dasharray="none" stroke-linejoin="miter" stroke-linecap="square"/>
    </g>
    <g id="g836" transform="matrix(0.821837,0,0,0.782572,213.6517,42.14942)" font-size="12" stroke="#0000d7" stroke-width="7.75" stroke-linecap="square" stroke-opacity="1">
      <path d="M 36.4 198.0 C 42.2 191.7 47.9 191.7 54.4 198.0 " id="path837" sodipodi:nodetypes="cc" font-size="12" fill="none" fill-rule="evenodd" stroke="#0000d7" stroke-width="7.75" stroke-opacity="1" stroke-dasharray="none" stroke-linejoin="miter" stroke-linecap="square"/>
      <path d="M 72.4 197.9 C 66.6 204.1 60.8 204.2 54.3 198.0 " id="path838" sodipodi:nodetypes="cc" font-size="12" fill="none" fill-rule="evenodd" stroke="#0000d7" stroke-width="7.75" stroke-opacity="1" stroke-dasharray="none" stroke-linejoin="miter" stroke-linecap="square"/>
    </g>
    <g id="g839" transform="matrix(0.821837,0,0,0.782572,243.1513,42.03891)" font-size="12" stroke="#0000d7" stroke-width="7.75" stroke-linecap="square" stroke-opacity="1">
      <path d="M 36.4 198.0 C 42.2 191.7 47.9 191.7 54.4 198.0 " id="path840" sodipodi:nodetypes="cc" font-size="12" fill="none" fill-rule="evenodd" stroke="#0000d7" stroke-width="7.75" stroke-opacity="1" stroke-dasharray="none" stroke-linejoin="miter" stroke-linecap="square"/>
      <path d="M 72.4 197.9 C 66.6 204.1 60.8 204.2 54.3 198.0 " id="path841" sodipodi:nodetypes="cc" font-size="12" fill="none" fill-rule="evenodd" stroke="#0000d7" stroke-width="7.75" stroke-opacity="1" stroke-dasharray="none" stroke-linejoin="miter" stroke-linecap="square"/>
    </g>
    <path d="M 36.4 198.0 C 42.2 191.7 47.9 191.7 54.4 198.0 " id="path842" sodipodi:nodetypes="cc" transform="matrix(0.821837,0,0,0.782572,272.6509,41.92839)" font-size="12" fill="none" fill-rule="evenodd" stroke="#0000d7" stroke-width="7.75" stroke-linecap="square" stroke-opacity="1"/>
    <path d="M 322.0 199.4 C 320.0 199.4 317.8 198.2 315.5 195.7 " id="path843" sodipodi:nodetypes="cc" font-size="12" fill="none" fill-rule="evenodd" stroke="#0000d7" stroke-width="5.752861" stroke-linecap="square" stroke-opacity="1"/>
    <g id="g844" transform="matrix(-0.821837,2.012853e-16,1.916685e-16,0.782572,81.70657,42.91961)" font-size="12" stroke="#0000d7" stroke-width="7.7466" stroke-linecap="square" stroke-dasharray="none" stroke-opacity="1">
      <path d="M 36.4 198.0 C 42.2 191.7 47.9 191.7 54.4 198.0 " id="path845" sodipodi:nodetypes="cc" font-size="12" fill="none" fill-rule="evenodd" stroke="#0000d7" stroke-width="7.7466" stroke-opacity="1" stroke-dasharray="none" stroke-linejoin="miter" stroke-linecap="square"/>
      <path d="M 72.4 197.9 C 66.6 204.1 60.8 204.2 54.3 198.0 " id="path846" sodipodi:nodetypes="cc" font-size="12" fill="none" fill-rule="evenodd" stroke="#0000d7" stroke-width="7.7466" stroke-opacity="1" stroke-dasharray="none" stroke-linejoin="miter" stroke-linecap="square"/>
    </g>
    <path d="M 22.2 197.8 C 17.5 192.9 12.8 192.9 7.4 197.8 " id="path847" sodipodi:nodetypes="cc" font-size="12" fill="none" fill-rule="evenodd" stroke="#0000d7" stroke-width="6.2125" stroke-linecap="square" stroke-dasharray="none" stroke-opacity="1"/>
    <path d="M 3.0 200.8 C 5.0 200.9 8.8 196.6 9.4 196.4 " id="path848" sodipodi:nodetypes="cc" font-size="12" fill="none" fill-rule="evenodd" stroke="#0000d7" stroke-width="6.2125" stroke-linecap="square" stroke-dasharray="none" stroke-opacity="1"/>
  </g>
  <path d="M 180.4 49.1 C 178.6 50.0 174.8 53.2 175.8 52.4 " id="path862" font-size="12" fill="none" fill-rule="evenodd" stroke="#000000" stroke-width="1.049996"/>
  <path d="M 211.8 63.6 C 211.8 66.7 212.1 63.3 211.1 68.5 " id="path863" font-size="12" fill="none" fill-rule="evenodd" stroke="#000000" stroke-width="1.049996"/>
  <path d="M 203.3 68.2 C 201.9 70.9 202.6 68.7 202.6 73.6 C 202.6 73.4 202.6 73.9 202.6 74.1 " id="path864" font-size="12" fill="none" fill-rule="evenodd" stroke="#000000" stroke-width="1.049996"/>
  <path d="M 194.9 68.2 C 194.8 70.2 194.8 75.7 195.0 76.4 " id="path865" sodipodi:nodetypes="cc" font-size="12" fill="none" fill-rule="evenodd" stroke="#000000" stroke-width="1.049996"/>
  <path d="M 188.2 68.2 C 188.2 69.3 188.0 74.0 188.0 74.5 " id="path866" sodipodi:nodetypes="cc" font-size="12" fill="none" fill-rule="evenodd" stroke="#000000" stroke-width="1.049996"/>
  <path d="M 128.0 62.9 C 129.3 67.4 128.6 80.9 128.0 84.1 " id="path867" sodipodi:nodetypes="cc" font-size="12" fill="none" fill-rule="evenodd" stroke="#000000" stroke-width="1.049996"/>
  <path d="M 137.2 68.2 C 138.1 70.9 137.4 74.0 137.3 76.8 " id="path868" sodipodi:nodetypes="cc" font-size="12" fill="none" fill-rule="evenodd" stroke="#000000" stroke-width="1.049996"/>
  <path d="M 144.4 68.8 C 145.0 70.6 144.5 73.4 144.5 75.9 " id="path869" sodipodi:nodetypes="cc" font-size="12" fill="none" fill-rule="evenodd" stroke="#000000" stroke-width="1.049996"/>
  <path d="M 150.9 68.9 C 150.9 70.7 150.9 72.5 150.9 74.3 " id="path870" font-size="12" fill="none" fill-rule="evenodd" stroke="#000000" stroke-width="1.049996"/>
</svg>
