<?xml version="1.0" encoding="UTF-8" standalone="no"?>
<!-- Created with Inkscape (http://www.inkscape.org/) -->
<svg xmlns="http://www.w3.org/2000/svg" xmlns:cc="http://web.resource.org/cc/" xmlns:dc="http://purl.org/dc/elements/1.1/" xmlns:inkscape="http://www.inkscape.org/namespaces/inkscape" xmlns:rdf="http://www.w3.org/1999/02/22-rdf-syntax-ns#" xmlns:sodipodi="http://sodipodi.sourceforge.net/DTD/sodipodi-0.dtd" xmlns:xlink="http://www.w3.org/1999/xlink" height="550.00000pt" id="svg13535" sodipodi:docbase="/root/img/svg" sodipodi:docname="feet-in-sandals.svg" sodipodi:version="0.32" width="210mm">
  
  <defs id="defs3"/>
  <sodipodi:namedview bordercolor="#666666" borderopacity="1.0" id="base" inkscape:current-layer="layer1" inkscape:cx="378.96535" inkscape:cy="413.24286" inkscape:pageopacity="0.0" inkscape:pageshadow="2" inkscape:window-height="536" inkscape:window-width="640" inkscape:window-x="96" inkscape:window-y="96" inkscape:zoom="0.43415836" pagecolor="#ffffff"/>
  <g id="layer1" inkscape:groupmode="layer" inkscape:label="Layer 1">
    <g id="g13500" transform="matrix(10.21292,0.000000,0.000000,10.21292,-3713.690,-6100.828)">
      <path d="M 371.4,651.7 C 369.4,652.2 367.9,653.5 368.0,654.4 C 368.3,655.8 370.5,657.8 372.2,658.3 C 375.0,659.0 377.7,658.1 381.2,658.0 C 383.9,658.0 384.8,655.5 389.1,655.0 C 392.3,654.6 395.6,655.6 398.8,655.4 C 400.5,655.3 402.8,654.8 403.8,654.1 C 404.2,653.8 403.3,652.9 403.0,652.2" id="path13358" sodipodi:nodetypes="csssssss" fill="#5d3909" fill-opacity="1.0000000" fill-rule="evenodd" stroke="#000000" stroke-width="0.25000000pt" stroke-linecap="butt" stroke-linejoin="miter" stroke-opacity="1.0000000"/>
      <path d="M 391.5,599.4 C 391.3,612.4 392.3,626.0 392.3,639.7 C 392.2,640.6 385.5,644.9 381.4,649.2 C 380.4,650.3 377.2,649.7 375.7,650.0 C 374.6,650.3 373.6,650.6 372.6,651.0 C 372.5,651.1 370.9,651.5 370.8,651.9 C 370.6,652.3 370.6,652.7 372.7,652.1 C 370.7,652.5 370.1,652.9 369.9,653.5 C 369.7,654.1 370.1,654.8 371.2,655.1 C 369.7,655.5 370.6,655.1 370.6,655.8 C 370.7,656.8 371.0,657.4 372.5,657.3 C 373.8,657.2 374.8,657.1 376.2,657.2 C 377.2,657.2 378.7,657.9 379.6,657.5 C 379.6,657.5 386.6,654.1 389.6,654.0 C 392.5,653.8 400.3,654.5 400.3,654.5 C 404.5,654.4 404.5,652.3 404.2,650.4 C 403.8,648.2 403.0,646.0 403.1,643.7 C 403.1,640.9 404.0,638.1 404.5,635.3 C 405.9,623.6 405.7,612.6 404.0,599.9" id="path13337" sodipodi:nodetypes="ccsssscsccssssssscc" fill="#c6ac72" fill-opacity="1.0000000" fill-rule="evenodd" stroke="#000000" stroke-width="0.25000000pt" stroke-linecap="butt" stroke-linejoin="miter" stroke-opacity="1.0000000"/>
      <g id="g13355">
        <path d="M 371.0,657.0 C 370.4,656.1 370.2,655.0 370.3,654.3 C 370.7,652.4 372.9,653.2 374.2,652.8 C 375.8,652.4 377.3,652.2 378.9,651.9" id="path13352" sodipodi:nodetypes="csss" fill="#c6ac72" fill-opacity="1.0000000" fill-rule="evenodd" stroke="#000000" stroke-width="0.25000000pt" stroke-linecap="butt" stroke-linejoin="miter" stroke-opacity="1.0000000"/>
        <path d="M 370.6,653.7 C 371.4,653.8 372.4,654.1 373.2,654.2 C 373.4,653.8 373.6,653.4 373.4,653.0" id="path13354" sodipodi:nodetypes="ccc" fill="none" fill-opacity="0.75000000" fill-rule="evenodd" stroke="#000000" stroke-width="0.12500000" stroke-linecap="butt" stroke-linejoin="miter" stroke-miterlimit="4.0000000" stroke-opacity="1.0000000"/>
      </g>
      <path d="M 375.8,649.9 C 378.0,650.6 378.9,650.9 378.7,651.9 C 380.6,653.0 381.4,654.3 381.7,656.4 C 382.3,656.2 382.9,656.0 383.4,655.7 C 383.3,654.1 383.2,652.6 381.4,651.3 C 382.4,650.4 383.4,649.6 384.3,648.7 C 386.7,649.9 387.2,652.2 387.3,654.3 C 388.0,654.2 388.8,654.0 389.5,653.9 C 389.8,651.4 388.5,648.7 386.1,647.1 C 387.4,646.1 388.7,645.1 390.1,644.1 C 392.2,647.2 393.5,650.5 394.6,653.9 C 395.4,654.0 396.1,654.1 396.9,654.2 C 395.9,649.8 394.3,646.7 392.1,642.7 C 394.9,644.3 397.8,644.4 400.7,644.5 C 398.8,647.7 397.4,650.9 395.8,654.1 C 396.7,654.2 397.6,654.2 398.6,654.2 C 400.1,650.8 401.5,647.4 403.0,644.0 C 403.1,643.3 403.1,642.6 403.2,642.0 C 399.3,642.1 395.5,641.8 391.9,640.1 C 388.2,643.2 384.6,646.4 380.9,649.5 C 379.2,649.6 377.5,649.8 375.8,649.9 z " id="path13359" sodipodi:nodetypes="ccccccccccccccccccccc" fill="#5d3909" fill-opacity="1.0000000" fill-rule="nonzero" stroke="#000000" stroke-width="0.25000000pt" stroke-linecap="butt" stroke-linejoin="miter" stroke-opacity="1.0000000"/>
    </g>
    <g id="g13437" transform="matrix(10.21255,-8.631498e-2,8.631498e-2,10.21255,-3802.942,-6112.528)">
      <path d="M 401.6,658.1 C 397.7,658.6 396.1,660.6 396.2,661.5 C 396.7,664.6 398.7,664.9 400.4,665.4 C 403.2,666.1 405.9,665.2 409.4,665.1 C 412.1,665.1 413.5,663.9 417.8,663.4 C 421.0,663.0 423.8,662.7 427.0,662.5 C 428.7,662.4 431.0,661.9 432.0,661.2 C 432.4,660.9 431.5,659.9 431.2,659.3" id="path13373" sodipodi:nodetypes="csssssss" fill="#5d3909" fill-opacity="1.0000000" fill-rule="evenodd" stroke="#000000" stroke-width="0.25000000pt" stroke-linecap="butt" stroke-linejoin="miter" stroke-opacity="1.0000000"/>
      <path d="M 419.7,606.5 C 418.9,619.5 420.7,633.1 420.5,646.7 C 420.5,647.7 413.7,652.0 409.6,656.3 C 408.6,657.4 405.4,656.8 403.9,657.1 C 402.8,657.4 406.9,665.0 407.8,664.6 C 407.8,664.6 414.5,663.4 417.8,662.6 C 420.6,662.0 428.5,661.6 428.5,661.6 C 432.7,661.5 432.7,659.4 432.4,657.5 C 432.0,655.3 431.2,653.0 431.3,650.8 C 431.3,648.0 432.2,645.2 432.7,642.4 C 433.4,630.6 434.0,619.7 432.2,606.9" id="path13374" sodipodi:nodetypes="ccssssssscc" fill="#c6ac72" fill-opacity="1.0000000" fill-rule="evenodd" stroke="#000000" stroke-width="0.25000000pt" stroke-linecap="butt" stroke-linejoin="miter" stroke-opacity="1.0000000"/>
      <g id="g13421">
        <g id="g13418">
          <path d="M 405.2,657.0 C 404.1,657.1 403.0,657.2 401.9,657.3 C 401.2,657.4 400.7,657.6 399.9,657.7 C 398.7,657.8 396.7,658.0 396.7,658.8 C 396.7,660.1 397.6,661.5 398.8,661.3 C 402.6,660.4 404.8,659.6 408.1,659.1" id="path13403" sodipodi:nodetypes="csssss" fill="#c6ac72" fill-opacity="1.0000000" fill-rule="evenodd" stroke="#000000" stroke-width="0.25000000pt" stroke-linecap="butt" stroke-linejoin="miter" stroke-opacity="1.0000000"/>
          <path d="M 396.7,659.3 C 397.7,659.3 398.8,659.1 399.8,658.8 C 400.0,658.5 400.1,658.1 400.1,657.7" id="path13417" sodipodi:nodetypes="ccc" fill="none" fill-opacity="0.75000000" fill-rule="evenodd" stroke="#000000" stroke-width="0.14375000" stroke-linecap="butt" stroke-linejoin="miter" stroke-miterlimit="4.0000000" stroke-opacity="1.0000000"/>
        </g>
        <g id="g13414">
          <path d="M 406.6,661.7 C 404.2,662.1 401.9,663.2 399.7,663.1 C 398.3,663.0 397.5,661.0 398.2,660.7 C 400.2,660.0 403.8,659.1 407.4,658.7" id="path13404" sodipodi:nodetypes="csss" fill="#c6ac72" fill-opacity="1.0000000" fill-rule="evenodd" stroke="#000000" stroke-width="0.25000000pt" stroke-linecap="butt" stroke-linejoin="miter" stroke-opacity="1.0000000"/>
          <path d="M 398.0,661.1 C 398.6,661.1 399.3,661.0 399.9,660.8 C 400.2,660.7 400.3,660.5 400.3,660.2" id="path13413" sodipodi:nodetypes="ccc" fill="none" fill-opacity="0.75000000" fill-rule="evenodd" stroke="#000000" stroke-width="0.12500000" stroke-linecap="butt" stroke-linejoin="miter" stroke-miterlimit="4.0000000" stroke-opacity="1.0000000"/>
        </g>
        <g id="g13410">
          <path d="M 407.2,662.6 C 404.7,663.0 402.5,664.1 400.3,664.0 C 398.8,663.9 398.1,661.9 398.7,661.6 C 400.8,660.9 404.3,660.0 408.0,659.6" id="path13402" sodipodi:nodetypes="csss" fill="#c6ac72" fill-opacity="1.0000000" fill-rule="evenodd" stroke="#000000" stroke-width="0.25000000pt" stroke-linecap="butt" stroke-linejoin="miter" stroke-opacity="1.0000000"/>
          <path d="M 398.6,662.2 C 399.2,662.1 399.9,661.9 400.5,661.7 C 400.7,661.5 400.8,661.3 400.8,661.0" id="path13409" sodipodi:nodetypes="ccc" fill="none" fill-opacity="0.75000000" fill-rule="evenodd" stroke="#000000" stroke-width="0.12500000" stroke-linecap="butt" stroke-linejoin="miter" stroke-miterlimit="4.0000000" stroke-opacity="1.0000000"/>
        </g>
        <g id="g13406">
          <path d="M 410.9,664.1 C 408.4,664.5 406.2,665.5 404.0,665.4 C 402.5,665.3 401.8,663.3 402.4,663.1 C 404.4,662.3 408.0,661.5 411.6,661.1" id="path13398" sodipodi:nodetypes="csss" transform="translate(-2.427795,-0.864735)" fill="#c6ac72" fill-opacity="1.0000000" fill-rule="evenodd" stroke="#000000" stroke-width="0.25000000pt" stroke-linecap="butt" stroke-linejoin="miter" stroke-opacity="1.0000000"/>
          <path d="M 399.9,662.9 C 400.5,662.8 401.1,662.6 401.7,662.4 C 402.0,662.2 402.1,662.0 402.0,661.7" id="path13405" sodipodi:nodetypes="ccc" fill="none" fill-opacity="0.75000000" fill-rule="evenodd" stroke="#000000" stroke-width="0.12500000" stroke-linecap="butt" stroke-linejoin="miter" stroke-miterlimit="4.0000000" stroke-opacity="1.0000000"/>
        </g>
        <g id="g13394">
          <path d="M 410.9,664.1 C 408.4,664.5 405.7,665.3 403.5,665.2 C 402.0,665.1 401.5,663.3 402.1,663.1 C 404.2,662.3 407.1,661.6 410.8,661.2" id="path13391" sodipodi:nodetypes="csss" fill="#c6ac72" fill-opacity="1.0000000" fill-rule="evenodd" stroke="#000000" stroke-width="0.25000000pt" stroke-linecap="butt" stroke-linejoin="miter" stroke-opacity="1.0000000"/>
          <path d="M 402.0,663.3 L 403.9,663.2 L 404.3,662.6" id="path13392" fill="none" fill-opacity="0.75000000" fill-rule="evenodd" stroke="#000000" stroke-width="0.12500000" stroke-linecap="butt" stroke-linejoin="miter" stroke-miterlimit="4.0000000" stroke-opacity="1.0000000"/>
        </g>
      </g>
      <path d="M 404.0,657.0 C 405.4,657.4 405.6,657.9 406.0,658.8 C 409.3,659.4 410.1,662.1 410.2,664.4 C 410.7,664.1 411.1,664.2 411.7,664.0 C 412.1,661.6 411.4,659.7 409.6,658.3 C 410.6,657.5 411.6,656.6 412.5,655.8 C 415.0,657.0 416.2,660.7 416.2,662.9 C 416.9,662.7 417.7,662.6 418.5,662.5 C 418.7,660.0 416.7,655.7 414.3,654.2 C 415.6,653.2 417.0,652.2 418.3,651.2 C 420.5,654.3 421.7,658.4 422.8,661.8 C 423.6,661.9 424.5,661.8 425.3,661.9 C 424.3,657.5 422.5,653.8 420.3,649.8 C 423.1,651.4 426.0,651.5 428.9,651.5 C 427.0,654.8 425.8,658.4 424.1,661.7 C 425.1,661.7 426.1,661.8 427.0,661.8 C 428.5,658.4 429.7,654.5 431.2,651.0 C 431.3,650.4 431.3,649.7 431.4,649.1 C 427.5,649.2 423.8,648.9 420.1,647.2 C 416.4,650.3 412.8,653.4 409.1,656.6 C 407.4,656.7 405.7,656.9 404.0,657.0 z " id="path13378" sodipodi:nodetypes="ccccccccccccccccccccc" fill="#5d3909" fill-opacity="1.0000000" fill-rule="nonzero" stroke="#000000" stroke-width="0.25000000pt" stroke-linecap="butt" stroke-linejoin="miter" stroke-opacity="1.0000000"/>
    </g>
  </g>
</svg>
