<?xml version="1.0" encoding="UTF-8" standalone="no"?>
<!-- Created with Sodipodi ("http://www.sodipodi.com/") -->
<svg xmlns="http://www.w3.org/2000/svg" xmlns:sodipodi="http://sodipodi.sourceforge.net/DTD/sodipodi-0.dtd" xmlns:xlink="http://www.w3.org/1999/xlink" height="500" id="svg1" sodipodi:docbase="/home/scarlet/sodipodi-flags/Regional/" sodipodi:docname="/home/scarlet/sodipodi-flags/Regional/canada_newfoundland.svg" sodipodi:version="0.32" width="1000">
  
  <defs id="defs3"/>
  <sodipodi:namedview gridspacingx="50pt" gridspacingy="50pt" id="base" showborder="true" showgrid="false"/>
  <rect height="499.999988" id="rect565" width="1000.000061" x="0.000000" y="-0.000005" font-size="12" fill="#ffffff" fill-rule="evenodd" stroke-width="1pt" fill-opacity="1"/>
  <g id="NFLD_flag">
    <rect height="500" id="rect564" width="1000" x="0" y="0" font-size="12" fill="none" fill-rule="evenodd" stroke-width="1.25" stroke="#000000" stroke-opacity="1" stroke-dasharray="none"/>
    <g id="past">
      <path d="M 30 50 L 30 220 L 340 220 L 30 50 z " id="path568" fill="#21219c" fill-rule="evenodd" stroke="#21219c" stroke-width="1" stroke-opacity="1" fill-opacity="1"/>
      <path d="M 400 190 L 400 30 L 110 30 L 400 190 z " id="path569" fill="#21219c" fill-rule="evenodd" stroke="#21219c" stroke-width="1pt" stroke-opacity="1" fill-opacity="1"/>
      <path d="M 30 280 L 30 450 L 340 280 L 30 280 z " id="path570" fill="#21219c" fill-rule="evenodd" stroke="#21219c" stroke-width="1" stroke-opacity="1" fill-opacity="1"/>
      <path d="M 400 310 L 400 470 L 110 470 L 400 310 z " id="path571" fill="#21219c" fill-rule="evenodd" stroke="#21219c" stroke-width="1" stroke-opacity="1" fill-opacity="1"/>
    </g>
    <g id="future">
      <path d="M 460 30 L 460 200 L 970 30 L 460 30 z " id="path572" fill="#cc0000" fill-rule="evenodd" stroke="#cc0000" stroke-width="1"/>
      <path d="M 480 50 L 480 175 L 850 50 L 480 50 z " id="path576" fill="#ffffff" fill-rule="evenodd" stroke="#ffffff" stroke-width="1"/>
      <path d="M 460 300 L 460 470 L 970 470 L 460 300 z " id="path573" fill="#cc0000" fill-rule="evenodd" stroke="#d62929" stroke-width="1" stroke-opacity="1"/>
      <path d="M 480 330 L 480 450 L 850 450 L 480 330 z " id="path577" fill="#ffffff" fill-rule="evenodd" stroke="#ffffff" stroke-width="1" stroke-opacity="1"/>
      <path d="M 460 220 L 950 220 L 975 250 L 950 280 L 460 280 L 490 250 L 460 220 z " id="path574" fill="#cc0000" fill-rule="evenodd" stroke="#cc0000" stroke-width="1" fill-opacity="1"/>
      <path d="M 490 230 L 940 230 L 960 250 L 940 270 L 490 270 L 510 250 L 490 230 z " id="path575" fill="#ffff00" fill-rule="evenodd" stroke="#ffff00" stroke-width="1" fill-opacity="1"/>
    </g>
  </g>
</svg>
