<?xml version="1.0" encoding="UTF-8" standalone="no"?>
<!-- Created with Sodipodi ("http://www.sodipodi.com/") -->
<svg xmlns="http://www.w3.org/2000/svg" xmlns:sodipodi="http://sodipodi.sourceforge.net/DTD/sodipodi-0.dtd" xmlns:xlink="http://www.w3.org/1999/xlink" height="140mm" id="svg589" sodipodi:docbase="/home/james/Images/flags/" sodipodi:docname="/home/james/Images/flags/manitoba.svg" sodipodi:version="0.32" width="280mm">
  
  <defs id="defs591"/>
  <sodipodi:namedview gridspacingx="35mm" gridspacingy="35mm" id="base" showgrid="true" snaptogrid="false"/>
  <rect height="496" id="rect603" width="280mm" x="0" y="0" font-size="12" fill="#cc1025" fill-rule="evenodd" stroke-width="1pt" fill-opacity="1"/>
  <path d="M 664.2 208.2 L 822.7 208.1 L 822.8 252.9 C 819.6 301.4 782.0 340.9 743.3 358.4 C 707.9 341.2 669.1 304.5 664.2 254.8 L 664.2 208.2 z " id="path604" sodipodi:nodetypes="cccccc" fill="#016a28" fill-rule="evenodd" stroke="#fedd00" stroke-opacity="1" stroke-width="3.54331" stroke-linejoin="miter" stroke-linecap="butt" fill-opacity="1" stroke-dasharray="none"/>
  <path d="M 796.9 259.1 C 797.0 259.9 797.0 250.4 798.3 246.5 C 799.4 243.1 804.4 238.2 804.2 237.2 C 804.1 236.5 798.2 238.9 797.5 241.1 C 795.8 246.2 796.7 258.1 796.9 259.1 z " id="path626" sodipodi:nodetypes="cssss" fill="#4a0f00" fill-rule="evenodd" stroke="none" stroke-opacity="1" stroke-width="0.708661" stroke-linejoin="miter" stroke-linecap="butt" fill-opacity="1" stroke-dasharray="none"/>
  <path d="M 774.7 273.7 C 774.7 274.0 786.5 286.4 786.5 286.4 C 788.0 289.5 789.6 292.1 790.7 294.9 C 791.2 295.0 796.1 295.1 796.1 294.8 C 796.1 294.5 788.2 280.8 788.2 280.8 C 787.5 271.6 788.8 261.5 786.2 253.2 C 784.8 248.8 775.5 240.7 774.3 242.9 C 771.7 247.5 774.9 263.6 774.7 273.7 z " id="path625" sodipodi:nodetypes="csssssss" fill="#febb30" fill-rule="evenodd" stroke="#4a0f00" stroke-opacity="1" stroke-width="0.708661" stroke-linejoin="miter" stroke-linecap="butt" fill-opacity="1" stroke-dasharray="none"/>
  <g id="g593" transform="matrix(0.496063,0.000000,0.000000,0.496063,0.000000,-1.525879e-5)">
    <defs id="defs3"/>
    <sodipodi:namedview id="namedview595"/>
    <g id="g578" transform="scale(16.66667,16.66667)">
      <rect height="30" id="rect124" width="60" x="0" y="0" font-size="12" fill="#000066" stroke-width="1pt"/>
      <g id="g584" font-size="12">
        <path d="M 0 0 L 0 3.3 L 53.2 30 L 60 30 L 60 26.6 L 6.7 0 L 0 0 z M 60 0 L 60 3.3 L 6.7 30 L 0 30 L 0 26.6 L 53.2 0 L 60 0 z " id="path146" font-size="12" fill="#ffffff" stroke-width="1pt"/>
        <path d="M 25 0 L 25 30 L 35 30 L 35 0 L 25 0 z M 0 10 L 0 20 L 60 20 L 60 10 L 0 10 z " id="path136" font-size="12" fill="#ffffff" stroke-width="1pt"/>
        <path d="M 0 12 L 0 18 L 60 18 L 60 12 L 0 12 z M 27 0 L 27 30 L 33 30 L 33 0 L 27 0 z " id="path141" font-size="12" fill="#cc0000" stroke-width="1pt"/>
        <path d="M 0 30 L 20 20 L 24.4 20 L 4.4 30 L 0 30 z M 0 0 L 20 10 L 15.5 10 L 0 2.2 L 0 0 z M 35.5 10 L 55.5 0 L 60 0 L 40 10 L 35.5 10 z M 60 30 L 40 20 L 44.4 20 L 60 27.7 L 60 30 z " id="path150" font-size="12" fill="#cc0000" stroke-width="1pt"/>
      </g>
    </g>
  </g>
  <rect height="20.920670" id="rect608" width="66.015518" x="755.025318" y="142.720954" font-size="12" fill="#ffffff" fill-rule="evenodd" stroke-width="1pt" fill-opacity="1"/>
  <rect height="21.076919" id="rect607" width="66.805314" x="665.953978" y="142.720236" font-size="12" fill="#ffffff" fill-rule="evenodd" stroke-width="1pt" fill-opacity="1"/>
  <rect height="20.842546" id="rect606" width="66.492814" x="665.955506" y="185.559002" font-size="12" fill="#ffffff" fill-rule="evenodd" stroke-width="1pt" fill-opacity="1"/>
  <rect height="20.217547" id="rect609" width="66.032611" x="755.025348" y="186.218698" font-size="12" fill="#ffffff" fill-rule="evenodd" stroke-width="1pt" fill-opacity="1"/>
  <rect height="67.190628" id="rect613" width="158.604095" x="664.199341" y="140.966171" font-size="12" fill="none" fill-rule="evenodd" stroke="#fedd00" stroke-width="3.53717" stroke-opacity="1"/>
  <path d="M 702.4 286.7 C 708.2 286.4 730.6 292.0 748.4 294.8 C 758.8 294.8 771.6 297.2 782.7 296.8 C 790.8 296.6 798.5 297.2 806.0 299.4 C 787.8 327.5 772.7 341.4 743.3 356.6 C 700.7 331.6 689.7 314.0 678.7 295.1 C 686.4 292.2 690.0 287.3 702.4 286.7 z " id="path656" sodipodi:nodetypes="ccscccs" fill="#01289a" fill-rule="evenodd" stroke="none" stroke-opacity="1" stroke-width="3.54331" stroke-linejoin="miter" stroke-linecap="butt" fill-opacity="1" stroke-dasharray="none"/>
  <path d="M 748.8 301.5 C 749.3 300.3 781.4 304.4 793.0 305.4 C 795.0 305.7 788.7 308.7 789.6 312.2 C 785.1 309.3 748.4 302.6 748.8 301.5 z M 701.3 311.3 C 699.7 315.5 738.4 329.1 755.2 333.5 C 758.8 328.2 769.7 325.8 774.9 323.9 C 776.1 321.5 768.5 315.8 765.0 314.5 C 763.2 313.9 761.2 318.4 759.0 318.3 C 754.9 318.3 753.2 315 746.5 314.6 C 745.9 314.6 754.5 318.4 755.0 319.5 C 755.3 320.1 749.7 318.5 748.6 319.2 C 747.9 319.6 750.8 323.2 749.7 323.0 C 742.0 321.8 722.2 314.1 722.2 315.2 C 722.4 318.5 746.4 323.0 744.2 325.6 C 740.9 329.3 702.0 309.4 701.3 311.3 z M 738.0 335.1 C 731.0 333.6 717.3 327.2 713.7 327.1 C 712.0 327.0 721.0 332.1 722.2 334.6 C 722.6 335.3 719.6 335.8 718.6 335.3 C 717.0 334.5 715.9 332.2 714.5 330.7 C 714.5 330.7 714.5 333.3 714.2 333.3 C 714.0 333.3 709.6 332.2 706.5 330.9 C 697.6 324.3 687.6 309.1 682.2 301.0 C 681.5 298.1 696.9 301.5 699.8 303.3 C 710.3 304.2 721.1 303.0 731.5 304.6 C 747.9 307.2 776.2 313.6 779.8 315.7 C 782.2 317.1 771.3 314.7 771.3 315.7 C 771.4 317.0 778.3 322.6 780.4 322.7 C 781.5 322.7 780.6 318.3 781.9 317.5 C 783.7 316.5 790.6 319.2 789.6 317.3 C 788.1 313.5 760.7 309.0 742.4 303.3 C 731.4 299.9 713.8 301.4 703.9 299.4 C 702.7 299.2 703.9 295.6 705.2 295.6 C 713.0 295.0 728.6 295.9 731.0 297.6 C 737.6 295.3 774.9 298.6 796.6 299.9 C 799.3 300.1 805.5 300.4 804.4 302.3 C 797.2 314.8 784.4 327.9 775.7 335.6 C 772.9 337.8 765.0 334.0 762.8 334.3 C 762.0 334.4 764.3 337.1 765.1 338.2 C 765.1 338.2 749.9 334.8 749.9 335.1 C 749.9 335.3 759.7 340.2 759.7 340.2 C 757.8 340.4 754.2 339.3 753.2 340.0 C 752.7 340.3 754.9 342.2 754.5 342.6 C 754.1 343.0 750.5 341.9 750.9 342.3 C 752.0 343.4 759.8 345.4 758.9 347.0 C 757.2 350.0 746.1 355.1 743.4 356.3 C 741.4 355.4 719.6 342.6 719.9 342.6 C 727.1 342.1 740.1 342.1 740.1 342.1 C 741.9 340.5 745.7 339.0 745.5 337.4 C 745.1 335.2 739.9 331.4 738.1 330.8 C 737.4 330.6 739.1 335.3 738.0 335.1 z " id="path657" sodipodi:nodetypes="cscscccssssssssscssssscccssssssssscsccssssssscccssss" fill="#536383" fill-rule="evenodd" stroke="none" stroke-opacity="1" stroke-width="1pt" stroke-linejoin="miter" stroke-linecap="butt" fill-opacity="1"/>
  <path d="M 690.1 257.8 C 690.1 263.4 693.2 264.1 694.6 265.6 C 697.5 268.5 701.3 270.0 703.4 273.6 C 706.4 278.9 710.1 277.2 710.9 280.1 C 712.0 278.5 711.8 276.0 707.8 272.6 C 711.0 272.4 715.2 276.8 715.0 279.0 C 717.4 277.1 715.4 271.1 715.0 267.9 C 714.9 266.8 717.0 270.6 719.6 270.5 C 720.2 276.4 724.8 279.5 730.0 280.6 C 732.6 284.8 739.5 289.6 741.3 287.8 C 742.0 287.4 736.6 286.0 737.6 284.6 C 738.8 283.4 740.5 286.0 743.3 284.7 C 740.1 282.7 740.5 280.9 740.6 278.5 C 741.7 280.2 745.4 280.3 746.0 279.8 C 744.1 279.3 743.4 277.6 743.9 275.9 C 749.4 275.4 751.9 272.4 755.0 268.4 C 756.9 268.7 773.1 271.5 774.0 272.9 C 774.5 274.3 782.3 279.0 783.1 279.5 C 782.8 278.6 781.4 276.4 781.8 276.1 C 782.2 275.8 783.4 277.5 785.0 278.8 C 783.9 276.0 783.5 271.9 784.0 271.8 C 784.4 273.0 786.7 275.3 787.8 277.3 C 787.8 273.1 788.3 260.5 786.6 256.2 C 785.9 253.8 758.7 239.5 744.2 232.3 C 738.2 229.3 732.8 226.4 726.6 226.1 C 721.9 226.0 716.9 228.0 712.9 230.2 C 706.8 233.5 700.7 237.4 695.1 241.6 C 693.1 243.1 690.3 244.9 689.7 247.2 C 688.8 250.3 688.4 254.6 690.1 257.8 z " id="path658" sodipodi:nodetypes="csscccsccsccccccscscccssssssc" fill="#4a0f00" fill-rule="evenodd" stroke="none" stroke-opacity="1" stroke-width="1pt" stroke-linejoin="miter" stroke-linecap="butt" fill-opacity="1"/>
  <path d="M 698.5 271.5 C 697.2 270.2 702.3 268.1 705.1 262.7 C 709.4 268.0 700.6 273.4 698.5 271.5 z " id="path647" sodipodi:nodetypes="ccs" fill="#dc6207" fill-rule="evenodd" stroke="#000000" stroke-opacity="1" stroke-width="0.354331" stroke-linejoin="miter" stroke-linecap="butt" fill-opacity="1" stroke-dasharray="none"/>
  <path d="M 692.9 258.6 C 692.9 258.6 693.5 265.3 696.0 266.4 C 696.0 269.0 696.0 269.8 696.3 269.8 C 701.6 270.1 705.0 263.6 705.0 263.6 C 707.3 269.1 699.7 270.8 699.9 271.8 C 705.4 276.1 704.1 269.7 706.1 268.7 C 712.9 269.2 708.5 262.8 709.5 263.2 C 711.5 263.0 715.7 260.0 713.7 253.8 C 712.0 251.7 705.8 256.9 705.0 259.1 C 706.4 256.3 702.5 253.8 703.3 253.8 C 705.3 254.6 700.8 253.5 699.9 254.3 C 697.6 255.8 695.3 257.2 692.9 258.6 z " id="path638" sodipodi:nodetypes="cccccccccccc" fill="#febb30" fill-rule="evenodd" stroke="#4a0f00" stroke-opacity="1" stroke-width="0.708661" stroke-linejoin="miter" stroke-linecap="butt" fill-opacity="1" stroke-dasharray="none"/>
  <path d="M 711.7 230.5 C 711.2 230.6 703.4 235.8 702.2 236.5 C 699.7 237.6 689.9 242.1 688.4 244.7 C 686.6 247.8 686.0 253.0 687.4 255.5 C 689.1 258.5 693.1 257.0 694.5 258.3 C 697.3 260.9 699.7 256.5 700.1 254.6 C 700.0 251.5 698.2 245.7 697.2 242.2 C 699.2 242.9 702.1 244.8 704.2 244.2 C 704.8 244.2 703.2 241.4 703.8 241.6 C 706.4 242.3 711.1 246.3 713.9 247.0 C 715.4 247.1 713.6 244.1 714.1 244.3 C 716.0 245.5 719.4 248.6 721.3 251.2 C 716.9 251.9 724.7 256.7 724.3 258.2 C 724.0 259.1 720.4 254.1 719.2 258.3 C 717.1 262.6 722.3 265.4 722.0 266.6 C 721.7 267.3 717.6 262.1 717.5 263.8 C 717.5 268.5 727.2 279.2 734.4 278.5 C 735.7 278.5 732.6 272.9 733.5 272.6 C 734.8 272.3 740.9 283.3 741.8 276.7 C 742.4 274.3 738.7 268.9 738.9 265.5 C 739.9 265.2 751.0 269.9 753.5 260.1 C 753.0 265.9 756.2 272.5 759.8 274.1 C 759.8 278.0 763.3 279.9 763.1 282.9 C 763.0 285.2 759.9 287.1 758.9 289.4 C 758.5 290.5 759.3 291.9 758.9 292.9 C 758.3 294.5 755.0 295.5 755.0 297.3 C 754.9 298.1 759.3 299.3 760.4 298.8 C 761.7 298.1 759.8 296.7 760.5 296.1 C 762.1 294.7 768.5 288.7 770.3 285.4 C 771.1 284.1 768.7 283.2 768.8 280.6 C 768.9 276.5 777.4 273.3 779.0 265.3 C 779.7 262.2 780.0 258.5 779.3 255.5 C 778.4 252.0 773.9 245.4 774.2 245.5 C 779.6 248.6 779.8 269.6 788.9 269.2 C 797.0 268.8 797.1 258.3 796.6 252.2 C 796.0 243.6 798.4 246.9 798.0 241.7 C 798.0 241.7 790.3 243.3 790.5 249.5 C 790.5 253.2 792.8 255.0 793.1 258.5 C 792.7 263.8 790.2 265.5 788.9 265.0 C 786.9 264.2 785.2 258.1 783.4 254.7 C 781.3 251.0 780.4 246.1 777.3 243.6 C 773.9 240.8 768.7 238.7 764.0 238.8 C 758.0 239.4 754.1 237.9 748.9 234.6 C 747.6 233.8 744.3 233.2 744.3 233.7 C 744.4 234.3 750.1 238.1 749.2 237.9 C 747.1 237.5 739.7 233.1 735.5 232.1 C 734.8 231.9 735.0 234.6 734.4 234.5 C 733.4 234.2 732.0 232.1 730.8 230.9 C 730.8 230.9 730.1 236.6 730.1 236.3 C 730.1 236.1 726.4 231.1 726.4 231.1 C 725.9 232.3 725.8 234.7 725.0 234.9 C 724.0 235.1 722.0 232.0 721.0 232.4 C 720.3 232.8 722.6 236.1 721.8 235.9 C 719.3 235.1 713.3 230.4 711.7 230.5 z " id="path659" sodipodi:nodetypes="cssssscsssscssssssscccssssssssssssssssssssssssssssssss" fill="#febb30" fill-rule="evenodd" stroke="#3a1400" stroke-opacity="1" stroke-width="0.708661" stroke-linejoin="miter" stroke-linecap="butt" fill-opacity="1" stroke-dasharray="none"/>
  <path d="M 729.7 280.8 C 729.3 285.2 730.3 288.3 728.4 290.4 C 727.8 291.1 729.2 292.5 728.5 293.1 C 727.3 294.0 724.5 296.6 729.5 296.5 C 734.1 296.4 733.4 293.8 733.0 292.5 C 732.4 290.4 733.8 286.5 733.1 284.1 C 732.7 282.6 729.8 279.9 729.7 280.8 z " id="path661" sodipodi:nodetypes="cssssss" transform="translate(0.000000,-1.525879e-5)" fill="#febb30" fill-rule="evenodd" stroke="#4a0f00" stroke-opacity="1" stroke-width="0.708661" stroke-linejoin="miter" stroke-linecap="butt" fill-opacity="1" stroke-dasharray="none"/>
  <path d="M 737.9 287.5 C 738.6 288.8 738.3 290.8 738.5 292.5 C 738.5 292.5 737.9 293.0 737.9 293.3 C 737.9 293.5 738.4 293.5 738.7 295.1 C 738.8 297.0 736.5 298.5 734.1 298.0 C 733.1 297.8 731.3 298.5 731.3 297.5 C 731.3 295.2 734.0 293.8 733.9 292.5 C 733.8 290.8 732.5 291.0 732.5 289.4 C 732.5 287.5 732.7 284.3 733.7 283.9 C 734.6 283.6 737.0 286.0 737.9 287.5 z " id="path660" sodipodi:nodetypes="csssssssss" fill="#febb30" fill-rule="evenodd" stroke="#4a0f00" stroke-opacity="1" stroke-width="0.708661" stroke-linejoin="miter" stroke-linecap="butt" fill-opacity="1" stroke-dasharray="none"/>
  <path d="M 726.1 238.0 C 726.9 238.9 736.8 254.1 736.8 254.1 C 735.9 253.8 735.1 253.5 734.2 253.2 C 735.8 255.6 737.4 257.9 739.0 260.2 C 737.4 260.8 733.0 254.6 730.0 251.8 C 730.7 255.8 724.6 247.5 721.9 245.4 C 723.6 245.9 725.4 246.5 727.2 247.0 C 725.1 245.1 723.1 243.1 721.0 241.1 C 723.2 241.9 725.3 242.6 727.5 243.4 C 727.0 241.6 726.5 239.8 726.1 238.0 z " id="path627" sodipodi:nodetypes="cccccccccc" fill="#4a0f00" fill-rule="evenodd" stroke="none" stroke-opacity="1" stroke-width="0.708661" stroke-linejoin="miter" stroke-linecap="butt" fill-opacity="1" stroke-dasharray="none"/>
  <path d="M 753.6 253.5 C 752.8 246.2 757.6 242.8 759.2 242.5 C 759.8 242.5 761.8 245.9 761.8 245.9 C 756.0 245.4 754.1 257.2 753.6 253.5 z " id="path628" sodipodi:nodetypes="csss" fill="#4a0f00" fill-rule="evenodd" stroke="none" stroke-opacity="1" stroke-width="0.708661" stroke-linejoin="miter" stroke-linecap="butt" fill-opacity="1" stroke-dasharray="none"/>
  <path d="M 693.8 242.5 C 690.2 245.6 688.2 249.8 689.3 254.9 C 689.3 254.9 692.1 254.3 692.4 254.3 C 692.6 254.3 695.7 256.9 695.7 256.9 C 695.7 256.9 696.8 251.1 696.6 251.3 C 695.2 252.7 688.8 249.8 693.8 242.5 z " id="path629" sodipodi:nodetypes="cssssc" fill="#4a0f00" fill-rule="evenodd" stroke="none" stroke-opacity="1" stroke-width="1.24016" stroke-linejoin="miter" stroke-linecap="butt" fill-opacity="1" stroke-dasharray="none"/>
  <path d="M 708.9 235.0 C 713.8 236.2 715.6 238.0 717.6 240.3 " id="path630" sodipodi:nodetypes="cc" fill="none" fill-rule="evenodd" stroke="#480f00" stroke-opacity="1" stroke-width="1.24016" stroke-linejoin="miter" stroke-linecap="butt" fill-opacity="1" stroke-dasharray="none"/>
  <path d="M 711.5 232.1 C 715.3 233.5 717.7 235.3 720.2 238.0 " id="path631" sodipodi:nodetypes="cc" transform="translate(0.000000,-1.525879e-5)" fill="none" fill-rule="evenodd" stroke="#4a0f00" stroke-opacity="1" stroke-width="1.24016" stroke-linejoin="miter" stroke-linecap="butt" fill-opacity="1" stroke-dasharray="none"/>
  <path d="M 771.3 258.6 C 771.6 262.2 766.5 272.3 765.4 274.5 C 764.9 275.2 764.4 273.9 763.7 271.5 " id="path632" sodipodi:nodetypes="csc" fill="none" fill-rule="evenodd" stroke="#4a0f00" stroke-opacity="1" stroke-width="1pt" stroke-linejoin="miter" stroke-linecap="butt" fill-opacity="1"/>
  <path d="M 775.5 261.4 C 772.7 266.2 772.2 270.0 768 272.6 " id="path633" sodipodi:nodetypes="cc" fill="none" fill-rule="evenodd" stroke="#4a0f00" stroke-opacity="1" stroke-width="1.24016" stroke-linejoin="miter" stroke-linecap="butt" fill-opacity="1" stroke-dasharray="none"/>
  <path d="M 766.0 282.2 C 766.0 282.3 766.0 282.4 766.0 282.4 " id="path634" fill="none" fill-rule="evenodd" stroke="black" stroke-opacity="1" stroke-width="1pt" stroke-linejoin="miter" stroke-linecap="butt" fill-opacity="1"/>
  <path d="M 760.6 292.8 C 760.6 289.4 766.5 288.7 765.7 282.4 " id="path635" sodipodi:nodetypes="cc" fill="none" fill-rule="evenodd" stroke="#4a0f00" stroke-opacity="1" stroke-width="1.24016" stroke-linejoin="miter" stroke-linecap="butt" fill-opacity="1" stroke-dasharray="none"/>
  <path d="M 728.0 235.2 C 726.8 239.2 737.0 256.0 742.4 258.6 C 743.7 259.1 741.5 251.9 743.2 251.8 C 745.2 251.8 747.2 258.3 748.8 256.3 C 750.6 254.6 752.2 251.3 752.8 250.7 C 753.3 250.1 755.0 243.4 755.0 243.4 C 755.0 243.4 749.4 243.1 749.1 243.1 C 748.8 243.1 742.7 237.2 742.7 237.2 C 743.0 239.0 744.5 242.1 743.8 242.5 C 741.2 244.0 737.6 236.4 735.9 236.4 C 734.9 236.3 736.9 242.4 735.9 242.3 C 734.2 242.0 728.4 233.7 728.0 235.2 z " id="path636" sodipodi:nodetypes="csssssssssss" fill="#fee5a3" fill-rule="evenodd" stroke="none" stroke-opacity="1" stroke-width="0.708661" stroke-linejoin="miter" stroke-linecap="butt" fill-opacity="1" stroke-dasharray="none"/>
  <path d="M 757.3 248.4 C 753.7 253.2 757.7 264.7 760.4 267.0 C 763.0 269.8 757.0 253.3 759.5 254.9 C 763.2 257.1 762.3 258.8 764.3 261.1 C 767.8 265.7 771.9 260.8 771.3 253.8 C 771.0 250.4 760.4 246.4 760.6 246.5 C 763.5 247.6 759.2 246.2 757.3 248.4 z " id="path637" sodipodi:nodetypes="cssssss" fill="#fee5a3" fill-rule="evenodd" stroke="none" stroke-opacity="1" stroke-width="0.708661" stroke-linejoin="miter" stroke-linecap="butt" fill-opacity="1" stroke-dasharray="none"/>
  <path d="M 703.0 253.5 C 703.8 251.8 704.9 243.8 696.6 242.0 C 702.1 250.8 698.0 250.2 699.7 253.2 C 700.2 254.1 702.7 254.3 703.0 253.5 z " id="path639" sodipodi:nodetypes="ccss" fill="#feffff" fill-rule="evenodd" stroke="#4a0f00" stroke-opacity="1" stroke-width="0.708661" stroke-linejoin="miter" stroke-linecap="butt" fill-opacity="1" stroke-dasharray="none"/>
  <path d="M 695.4 260.0 C 695.4 259.9 695.4 259.8 695.4 259.7 " id="path640" fill="none" fill-rule="evenodd" stroke="black" stroke-opacity="1" stroke-width="1pt" stroke-linejoin="miter" stroke-linecap="butt" fill-opacity="1"/>
  <path d="M 703.3 258.6 C 701.6 261.9 698.5 261.4 694.9 260.2 " id="path641" sodipodi:nodetypes="cc" fill="none" fill-rule="evenodd" stroke="#4a0f00" stroke-opacity="1" stroke-width="0.708661" stroke-linejoin="miter" stroke-linecap="butt" fill-opacity="1" stroke-dasharray="none"/>
  <path d="M 695.2 261.1 C 695.3 261.1 695.4 261.1 695.4 261.1 " id="path642" fill="none" fill-rule="evenodd" stroke="black" stroke-opacity="1" stroke-width="1pt" stroke-linejoin="miter" stroke-linecap="butt" fill-opacity="1"/>
  <path d="M 696.6 266.4 C 696.0 265.6 699.1 265.7 698.5 264.9 C 696.9 264.1 697.1 261.6 694.3 260.5 " id="path643" sodipodi:nodetypes="ccc" fill="none" fill-rule="evenodd" stroke="#4a0f00" stroke-opacity="1" stroke-width="0.708661" stroke-linejoin="miter" stroke-linecap="butt" fill-opacity="1" stroke-dasharray="none"/>
  <path d="M 791.0 295.1 C 791.3 295.1 795.8 295.1 795.8 295.1 C 795.8 295.1 796.1 300.1 795.8 300.1 C 795.5 300.1 788.5 299.9 788.5 299.9 C 788.5 299.9 790.7 295.1 791.0 295.1 z " id="path644" sodipodi:nodetypes="cssss" fill="#000000" fill-rule="evenodd" stroke="none" stroke-opacity="1" stroke-width="0.708661" stroke-linejoin="miter" stroke-linecap="butt" fill-opacity="1" stroke-dasharray="none"/>
  <path d="M 775.7 252.8 C 780.9 256.6 779.2 270.0 769.6 276.3 C 768.2 277.4 768.3 283.3 767.7 283.1 C 766.9 282.9 766.3 278.7 768.1 274.0 C 772.6 269.6 778.3 263.8 775.7 252.8 z " id="path645" sodipodi:nodetypes="csscc" fill="#fee5a3" fill-rule="evenodd" stroke="none" stroke-opacity="1" stroke-width="0.708661" stroke-linejoin="miter" stroke-linecap="butt" fill-opacity="1" stroke-dasharray="none"/>
  <path d="M 706.9 259.9 C 706.6 259.1 710.2 255.1 711.5 255.6 C 713.3 256.5 712.0 259.4 711.2 260.1 C 710.4 260.7 707.2 261.4 706.9 259.9 z " id="path646" sodipodi:nodetypes="csss" fill="#490f00" fill-rule="evenodd" stroke="none" stroke-opacity="1" stroke-width="1pt" stroke-linejoin="miter" stroke-linecap="butt" fill-opacity="1"/>
</svg>
