<?xml version="1.0" encoding="UTF-8" standalone="no"?>
<!-- Generator: Adobe Illustrator 12.0.0, SVG Export Plug-In . SVG Version: 6.00 Build 51448)  -->
<svg xmlns="http://www.w3.org/2000/svg" xmlns:cc="http://web.resource.org/cc/" xmlns:dc="http://purl.org/dc/elements/1.1/" xmlns:inkscape="http://www.inkscape.org/namespaces/inkscape" xmlns:rdf="http://www.w3.org/1999/02/22-rdf-syntax-ns#" xmlns:sodipodi="http://inkscape.sourceforge.net/DTD/sodipodi-0.dtd" xmlns:svg="http://www.w3.org/2000/svg" height="271.846" id="Layer_1" version="1.0" viewBox="0 0 207.865 271.846" width="207.865" xml:space="preserve" overflow="visible" enable-background="new 0 0 207.865 271.846">
<defs id="defs186"/>


<path d="M17.1,7.3c-1.3,1.3-3.1,1.2-4.7,1.8c-1.1,0.4-2.4,2.3-3.9,1.6  c-1.6-0.8,2.2-2.8,2.9-3.1c1.8-0.7,3.8-0.7,5.7-0.2C17.1,7.4,17.1,7.3,17.1,7.3" id="path3" fill="#E6B8A1"/>

<path d="M17.1,7.3  c-1.3,1.3-3.1,1.2-4.7,1.8c-1.1,0.4-2.4,2.3-3.9,1.6c-1.6-0.8,2.2-2.8,2.9-3.1  c1.8-0.7,3.8-0.7,5.7-0.2" id="path5" fill="none" stroke="#000000" stroke-width="0.1" stroke-linecap="square" stroke-miterlimit="10"/>

<path d="M96.1,74.0c-2.1-2.1-4.2-4.2-6.4-6.4c-2.0-2.0-3.6-4.3-4.9-6.9  c-1.2-2.4-3.1-4.7-4.7-6.9c-0.8-1.2-1.9-2.3-2.6-3.6c-0.6-1.3-1.1-2.8-1.7-4.2  c-1.1-2.6-2.2-5.2-3.5-7.8c-0.6-1.3-1.3-2.7-2.0-4.0c-0.6-1.1-1.2-2.5-2.0-3.5  c-0.9-1.1-1.6-2.4-2.6-3.5c-1.0-1.3-2.1-2.2-3.4-3.3c-2.3-1.9-4.8-3.6-7.4-5.3  c-4.8-3.3-10.1-6.1-15.2-9.2c-2.5-1.5-5.2-3.0-7.7-4.7c-2.5-1.6-5.4-2.1-8.4-2.4  C20.3,1.5,17.6,1.7,15.0,1.2C12.4,0.6,9.8,0.6,7.1,0.3C5.7,0.2,4.4,0.0,3.0,0.0  c-0.3,0-4.0-0.0-2.6,0.8c2.2,1.5,5.0,1.0,7.5,1.6c-0.9,0.9-1.8,1.8-2.7,2.7  c-0.9,0.9-2.1,1.6-3.1,2.6C1.7,8.1,0.9,8.4,0.9,9.0C0.9,9.7,1.9,9.5,2.3,9.3  c0.2-0.0,0.4-0.3,0.7-0.4c0.2-0.1,0.6-0.1,0.7-0.2c0.2-0.1,0.7-0.5,0.8-0.6  c-0.3,0.4-1.4,1.4-1.5,2.0c-0.0,1.0,1.5,0.2,1.9-0.0C5.6,9.3,6.4,8.9,7.1,8.5  c0.5-0.3,1.3-0.7,1.9-1.0C8.1,8.4,7.2,9.1,6.5,10.1c-0.2,0.3-0.6,0.6-0.3,1.0  c0.3,0.3,0.9,0.0,1.3-0.1c2.2-1.4,4.1-3.2,6.9-3.2c0.5,0,1.4,0.2,2.0,0.4  c0.7,0.2,1.3,0.2,2.0,0.2c1.4,0,2.8-0.5,4.2-0.8c2.9-0.5,5.7,1.2,8.1,2.8  c4.9,3.3,9.4,7.2,13.6,11.4c2.0,2.0,4.0,4.3,6.4,6.0c1.1,0.8,2.3,1.7,3.4,2.6  c0.9,0.8,2.4,1.6,3.1,2.7c1.5,2.4,2.3,5.3,3.6,8.0c1.3,2.6,2.4,5.2,3.4,8.0  c0.4,1.3,0.9,2.6,1.4,3.9c0.4,1.3,1.2,2.6,1.5,4.1c0.2,1.4,0.1,2.6-1.0,3.5  c-0.2,0.1-2.9-2.5-3.2-2.8c-2.4-2.2-4.7-4.2-7.4-6.1c-1.0-0.7-2.0-1.5-3.3-2.0  c-1.3-0.5-2.8-1.5-4.3-1.6c-1.6-0.2-3.1-0.6-4.6-0.1c-1.7,0.5-2.8,1.1-4.4,2.1  c-1.0,0.6-1.8,2.1-2.3,3.2c-0.6,1.3-1.2,2.6-1.4,4.2c-0.3,2.7,2.0,5.5,3.8,7.4  c0.4,0.4,1.0,0.6,1.5,1.0c0.5,0.3,0.8,0.7,1.2,1.2c0.8,0.8,1.7,1.6,2.7,2.3  c1.1,0.7,2.3,1.2,3.5,1.8c0.2,0.1,0.6,0.0,0.9,0.2c0.3,0.1,0.6,0.6,0.8,0.8  c0.5,0.5,1.0,1.0,1.5,1.5c0.9,0.9,1.8,1.9,2.1,3.2c0.3,1.5-0.1,2.4-0.9,3.6  c-0.7,1.0-1.5,2.2-2.5,3.0c2.6,2.1,5.2,4.2,7.9,6.3c0.7,0.5-0.0,2.2-0.1,3.1  c-0.3,1.7-0.6,3.4-0.9,5.2c-0.0,0.1,0.5,0.6,0.6,0.7c0.7,0.7,1.4,1.5,2.1,2.3  c0.2,0.2,2.8,3.4,3.0,3.3c1.5-0.6,3.1-1.3,4.7-2.0c0.7-0.3,2.2-0.6,2.8-1.2  c4.5-4.8,9.0-9.7,13.6-14.6c2.8-3.0,5.6-6.1,8.5-9.2c0.9-0.9,1.8-1.9,2.7-2.9  C95.6,74.9,96.4,74.3,96.1,74.0" id="path7" fill="#FFCCCC"/>

<path d="M96.1,74.0  c-2.1-2.1-4.2-4.2-6.4-6.4c-2.0-2.0-3.6-4.3-4.9-6.9c-1.2-2.4-3.1-4.7-4.7-6.9  c-0.8-1.2-1.9-2.3-2.6-3.6c-0.6-1.3-1.1-2.8-1.7-4.2c-1.1-2.6-2.2-5.2-3.5-7.8  c-0.6-1.3-1.3-2.7-2.0-4.0c-0.6-1.1-1.2-2.5-2.0-3.5c-0.9-1.1-1.6-2.4-2.6-3.5  c-1.0-1.3-2.1-2.2-3.4-3.3c-2.3-1.9-4.8-3.6-7.4-5.3c-4.8-3.3-10.1-6.1-15.2-9.2  c-2.5-1.5-5.2-3.0-7.7-4.7c-2.5-1.6-5.4-2.1-8.4-2.4C20.3,1.5,17.6,1.7,15.0,1.2  C12.4,0.6,9.8,0.6,7.1,0.3C5.7,0.2,4.4,0.0,3.0,0.0c-0.3,0-4.0-0.0-2.6,0.8  c2.2,1.5,5.0,1.0,7.5,1.6c-0.9,0.9-1.8,1.8-2.7,2.7c-0.9,0.9-2.1,1.6-3.1,2.6  C1.7,8.1,0.9,8.4,0.9,9.0C0.9,9.7,1.9,9.5,2.3,9.3c0.2-0.0,0.4-0.3,0.7-0.4  c0.2-0.1,0.6-0.1,0.7-0.2c0.2-0.1,0.7-0.5,0.8-0.6c-0.3,0.4-1.4,1.4-1.5,2.0  c-0.0,1.0,1.5,0.2,1.9-0.0C5.6,9.3,6.4,8.9,7.1,8.5c0.5-0.3,1.3-0.7,1.9-1.0  C8.1,8.4,7.2,9.1,6.5,10.1c-0.2,0.3-0.6,0.6-0.3,1.0c0.3,0.3,0.9,0.0,1.3-0.1  c2.2-1.4,4.1-3.2,6.9-3.2c0.5,0,1.4,0.2,2.0,0.4c0.7,0.2,1.3,0.2,2.0,0.2  c1.4,0,2.8-0.5,4.2-0.8c2.9-0.5,5.7,1.2,8.1,2.8c4.9,3.3,9.4,7.2,13.6,11.4  c2.0,2.0,4.0,4.3,6.4,6.0c1.1,0.8,2.3,1.7,3.4,2.6c0.9,0.8,2.4,1.6,3.1,2.7  c1.5,2.4,2.3,5.3,3.6,8.0c1.3,2.6,2.4,5.2,3.4,8.0c0.4,1.3,0.9,2.6,1.4,3.9  c0.4,1.3,1.2,2.6,1.5,4.1c0.2,1.4,0.1,2.6-1.0,3.5c-0.2,0.1-2.9-2.5-3.2-2.8  c-2.4-2.2-4.7-4.2-7.4-6.1c-1.0-0.7-2.0-1.5-3.3-2.0c-1.3-0.5-2.8-1.5-4.3-1.6  c-1.6-0.2-3.1-0.6-4.6-0.1c-1.7,0.5-2.8,1.1-4.4,2.1c-1.0,0.6-1.8,2.1-2.3,3.2  c-0.6,1.3-1.2,2.6-1.4,4.2c-0.3,2.7,2.0,5.5,3.8,7.4c0.4,0.4,1.0,0.6,1.5,1.0  c0.5,0.3,0.8,0.7,1.2,1.2c0.8,0.8,1.7,1.6,2.7,2.3c1.1,0.7,2.3,1.2,3.5,1.8  c0.2,0.1,0.6,0.0,0.9,0.2c0.3,0.1,0.6,0.6,0.8,0.8c0.5,0.5,1.0,1.0,1.5,1.5  c0.9,0.9,1.8,1.9,2.1,3.2c0.3,1.5-0.1,2.4-0.9,3.6c-0.7,1.0-1.5,2.2-2.5,3.0  c2.6,2.1,5.2,4.2,7.9,6.3c0.7,0.5-0.0,2.2-0.1,3.1c-0.3,1.7-0.6,3.4-0.9,5.2  c-0.0,0.1,0.5,0.6,0.6,0.7c0.7,0.7,1.4,1.5,2.1,2.3c0.2,0.2,2.8,3.4,3.0,3.3  c1.5-0.6,3.1-1.3,4.7-2.0c0.7-0.3,2.2-0.6,2.8-1.2c8.5-9.2,17.1-18.5,25.7-27.7" id="path9" fill="none" stroke="#000000" stroke-width="0.1" stroke-linecap="square" stroke-miterlimit="10"/>

<path d="M48.2,261.2c11.9-2.0,23.8-4.0,35.8-6.0c6.3-1.0,12.6-2.1,19.0-2.8  c5.8-0.6,11.7-0.5,17.6-0.7c5.9-0.2,12.1-0.7,18.0,0.0c3.2,0.4,6.3,1.0,9.5,1.7  c2.7,0.6,5.4,1.2,8.3,1.3c11.8,0.6,24.4-4.5,35.8,0.3c1.5,0.6,3.1,1.2,4.5,1.9  c1.4,0.7,2.7,1.6,4.1,2.4c1.2,0.7,2.3,1.9,3.4,2.9c0.8,0.7,2.2,2.0,2.5,3.1  c0.1,0.3,0.7,1.8,0.5,2.1c-0.2,0.4-0.7,1.8-1.1,2.0c-1.2,0.4-2.5,1.2-3.8,1.3  c-1.8,0.1-3.6,0.3-5.4,0.4c-1.5,0.1-3.1-0.1-4.6-0.2c-3.1-0.1-6.2-0.2-9.3-0.2  c-2.6-0.0-5.3-0.4-8.0-0.5c-6.1-0.3-12.3-0.9-18.5-1.3c-12.3-0.6-24.6-1.2-37.0-0.6  c-12.7,0.6-25.4,1.4-38.2,2.1c-5.5,0.3-11.1,0.5-16.6,0.7c-6.3,0.2-12.8,0.5-19.1-0.2  c-0.9-0.1-1.8-0.2-2.7-0.3c-0.6-0.0-1.3-0.6-1.8-0.8c-1.5-0.7-0.8-2.8-0.0-3.9  c0.9-1.3,2.2-2.3,3.6-3.1c0.5-0.3,1.2-0.5,1.9-0.8C46.8,261.9,48.1,261.4,48.2,261.2" id="path11" fill="#999999"/>

<path d="M80.7,139.0c12.4-6.4,24.8-12.8,37.2-19.2c1.7-0.9,3.5-1.8,5.2-2.7  c0.2-0.1,2.3,5.5,2.6,6.2c1.2,2.7,2.6,5.4,3.4,8.3c0.3,1.4,0.6,2.8,0.9,4.2  c0.2,1.3,0.6,2.8,1.2,4.1c1.2,2.8,2.5,5.6,3.4,8.6c0.8,2.7,1.8,5.5,2.6,8.3  c0.7,2.9,1.5,5.7,2.2,8.7c0.6,2.8,1.4,6.0,1.4,9.0c0,3.0,0.6,5.9,1.1,8.9  c0.2,1.4,0.7,2.8,1.0,4.3c0.2,1.4,0.6,2.8,0.9,4.2c0.6,2.7,1.6,5.6,3.0,8.1  c1.4,2.6,2.8,5.2,3.6,8.1c1.6,5.9,2.6,11.9,3.3,18.0c0.2,2.4,0.1,6.4-2.3,7.8  c-1.3,0.7-2.6,0.9-4.1,0.4c-1.2-0.4-2.7-1.2-3.5-2.3c-3.3-5.0-5.6-10.6-7.4-16.4  c-0.8-2.8-1.3-5.8-2.2-8.7c-0.8-2.8-1.8-5.4-3.3-8.0c-0.6-1.1-1.5-2.2-2.2-3.3  c-0.7-1.4-1.3-2.8-1.9-4.3c-1.0-2.6-1.3-5.5-1.8-8.2c-1.1-5.5-4.5-10.5-7.0-15.5  c-1.3-2.6-2.6-5.4-3.7-8.1c-0.6-1.4-1.2-2.9-1.7-4.5c-0.3-0.9-0.9-2.6-1.6-3.3  c-2.0-2.0-5.1-2.0-7.3-0.0c-2.2,1.9-3.0,4.8-4.4,7.3c-1.4,2.6-2.9,5.3-4.5,7.9  c-0.7,1.2-1.6,2.3-2.5,3.4c-0.9,1.1-1.6,2.5-2.5,3.7c-1.7,2.3-3.1,4.9-4.6,7.4  c-0.7,1.2-1.5,2.5-2.2,3.8c-0.6,1.3-1.5,2.7-2.1,4.1c-0.5,1.3-1.2,2.7-1.7,4.0  c-0.4,1.3-1.0,2.8-1.6,4.0c-0.6,1.1-1.2,2.6-2.1,3.6c-0.9,1.1-2.1,2.1-2.9,3.3  c-1.7,2.4-3.4,4.8-4.5,7.6c-1.0,2.7-2.0,5.5-3.3,8.1c-1.3,2.6-3.2,5.1-5.1,7.4  c-1.7,2.2-3.3,5.0-5.6,6.9c-1.0,0.8-2.3,2.1-3.7,2.5c-0.6,0.2-1.3,0.4-2.0,0.4  c-1.0,0-1.3-0.1-2.2-0.6c-1.0-0.6-1.2-2.6-1.2-3.7c0.1-1.8,0.5-3.2,1.0-5.0  c1.7-5.6,4.1-11.0,6.8-16.2c1.4-2.7,2.9-5.2,4.4-7.9c0.6-1.2,1.4-2.3,1.9-3.5  c0.5-1.3,1.1-2.7,1.7-4.0c0.5-1.3,1.2-2.6,1.9-3.9c0.6-1.2,0.9-2.5,1.5-3.7  c0.6-1.2,0.8-2.7,1.3-4.1c0.4-1.3,0.7-2.7,1.1-4.0c0.8-3.0,1.7-6.0,2.8-9.0  c0.9-2.7,1.5-5.5,2.4-8.3c0.7-2.2,1.4-4.4,2.1-6.6c0.6-1.9,1.0-4.0,1.9-5.9  c0.9-2.0,1.9-3.9,2.9-5.9c0.4-0.9,1.1-1.8,1.1-2.9c0-0.6-0.2-0.7,0.1-1.2  C80.1,140.0,80.6,139.4,80.7,139.0" id="path13" fill="#85756F"/>

<path d="M80.7,139.0  c12.4-6.4,24.8-12.8,37.2-19.2c1.7-0.9,3.5-1.8,5.2-2.7c0.2-0.1,2.3,5.5,2.6,6.2  c1.2,2.7,2.6,5.4,3.4,8.3c0.3,1.4,0.6,2.8,0.9,4.2c0.2,1.3,0.6,2.8,1.2,4.1  c1.2,2.8,2.5,5.6,3.4,8.6c0.8,2.7,1.8,5.5,2.6,8.3c0.7,2.9,1.5,5.7,2.2,8.7  c0.6,2.8,1.4,6.0,1.4,9.0c0,3.0,0.6,5.9,1.1,8.9c0.2,1.4,0.7,2.8,1.0,4.3  c0.2,1.4,0.6,2.8,0.9,4.2c0.6,2.7,1.6,5.6,3.0,8.1c1.4,2.6,2.8,5.2,3.6,8.1  c1.6,5.9,2.6,11.9,3.3,18.0c0.2,2.4,0.1,6.4-2.3,7.8c-1.3,0.7-2.6,0.9-4.1,0.4  c-1.2-0.4-2.7-1.2-3.5-2.3c-3.3-5.0-5.6-10.6-7.4-16.4c-0.8-2.8-1.3-5.8-2.2-8.7  c-0.8-2.8-1.8-5.4-3.3-8.0c-0.6-1.1-1.5-2.2-2.2-3.3c-0.7-1.4-1.3-2.8-1.9-4.3  c-1.0-2.6-1.3-5.5-1.8-8.2c-1.1-5.5-4.5-10.5-7.0-15.5c-1.3-2.6-2.6-5.4-3.7-8.1  c-0.6-1.4-1.2-2.9-1.7-4.5c-0.3-0.9-0.9-2.6-1.6-3.3c-2.0-2.0-5.1-2.0-7.3-0.0  c-2.2,1.9-3.0,4.8-4.4,7.3c-1.4,2.6-2.9,5.3-4.5,7.9c-0.7,1.2-1.6,2.3-2.5,3.4  c-0.9,1.1-1.6,2.5-2.5,3.7c-1.7,2.3-3.1,4.9-4.6,7.4c-0.7,1.2-1.5,2.5-2.2,3.8  c-0.6,1.3-1.5,2.7-2.1,4.1c-0.5,1.3-1.2,2.7-1.7,4.0c-0.4,1.3-1.0,2.8-1.6,4.0  c-0.6,1.1-1.2,2.6-2.1,3.6c-0.9,1.1-2.1,2.1-2.9,3.3c-1.7,2.4-3.4,4.8-4.5,7.6  c-1.0,2.7-2.0,5.5-3.3,8.1c-1.3,2.6-3.2,5.1-5.1,7.4c-1.7,2.2-3.3,5.0-5.6,6.9  c-1.0,0.8-2.3,2.1-3.7,2.5c-0.6,0.2-1.3,0.4-2.0,0.4c-1.0,0-1.3-0.1-2.2-0.6  c-1.0-0.6-1.2-2.6-1.2-3.7c0.1-1.8,0.5-3.2,1.0-5.0c1.7-5.6,4.1-11.0,6.8-16.2  c1.4-2.7,2.9-5.2,4.4-7.9c0.6-1.2,1.4-2.3,1.9-3.5c0.5-1.3,1.1-2.7,1.7-4.0  c0.5-1.3,1.2-2.6,1.9-3.9c0.6-1.2,0.9-2.5,1.5-3.7c0.6-1.2,0.8-2.7,1.3-4.1  c0.4-1.3,0.7-2.7,1.1-4.0c0.8-3.0,1.7-6.0,2.8-9.0c0.9-2.7,1.5-5.5,2.4-8.3  c0.7-2.1,1.4-4.3,2.1-6.5c0.6-1.9,1.0-4.0,1.8-5.8c0.9-2.0,1.9-3.9,2.9-5.9  c0.4-0.9,0.9-1.7,1.1-2.8c0.0-0.4-0.2-0.9-0.0-1.2c0.3-0.5,0.7-1.0,1.0-1.5" id="path15" fill="none" stroke="#000000" stroke-width="0.1" stroke-linecap="square" stroke-miterlimit="10"/>

<path d="M18.0,7.8c2.0,0.4,4.3-0.8,6.4-0.8c0.3,0,1.2,0.2,1.3,0.0  c0.3-0.4,0.6-0.8,1.0-1.1c0.5-0.5,1.3-1.1,2.1-1.0c-1.6-1.6-4.1-1.3-6.0-0.1  c-0.8,0.5-1.0,1.6-1.8,2.2C20.6,7.2,18.4,8.3,18.0,7.8" id="path17" fill="#E6B8A1"/>

<path d="M63.9,74.7c0.7,1.1,1.2,2.4,2.0,3.6c0.8,1.2,1.7,1.8,2.8,2.7  c2.1,1.7,5.3,2.1,6.9,4.3c1.8,2.4,2.5,5.3,3.6,8.1c0.5,1.3,1.5,2.7,3.1,1.9  c1.4-0.7,0.8-2.7,0.4-3.9c-0.7-2.1-2.7-3.7-4.0-5.5c-0.7-0.9-1.6-1.7-2.5-2.5  c-0.8-0.7-1.6-1.7-2.4-2.4c-3.2-2.7-7.9-4.6-8.7-9.1C64.5,72.6,64.6,74.4,63.9,74.7" id="path19" fill="#FFCCCC"/>

<path d="M43.5,47.0c1.1,1.1,2.1,2.3,2.8,3.8c0.7,1.4,1.9,3.2-0.3,3.7  c1.5,1.5,3.0,3.1,4.7,4.5c0.1-0.4,0.7-0.8,1.1-0.5c0.5,0.5-0.2,1.1-0.1,1.6  c0.0,0.4,1.1,1.3,1.3,1.7c0.4,0.4,0.6,1.1,0.9,1.6c0.7,1.4,1.4,2.7,1.2,4.3  c-0.2,1.6-1.8,2.0-3.2,2.4c1.2,0.1,2.4,0.2,3.7,0.3c1.2,0.1,2.5-0.0,3.3,1.0  c1.2,1.7,2.1,4.2,4.3,5.1c0.3,0.1,3.1,1.6,3.1,1.0c0-1.0-1.3-1.6-0.7-2.8  c0.1-0.3,0.6-0.9,0.9-1.1c0.3-0.1,0.5-0.9,1.0-0.9c0.2-0.0,1.0,0.6,1.1,0.8  c0.3,0.4,0.4,1.0,0.6,1.5c0-1.4-0.0-2.8,0.3-4.2c0.2-0.8,0.6-0.9,1.4-1.2  c0.2-0.0,0.6,0.0,0.8-0.2c0.0-0.1-0.3-0.8-0.4-0.9c-2.1-2.1-4.1-4.3-6.3-6.3  C61.1,58.2,56.5,54.4,52.2,50.1c-1.2-1.2-2.6-2.2-4.1-2.9c-0.7-0.3-1.3-0.6-2.2-0.6  c-0.3,0-0.8-0.1-1.1,0.0C44.3,46.7,43.9,47,43.5,47.0" id="path21" fill="#F2AA9D"/>

<path d="M44.7,47.3c1.8,0.5,3.3,1.9,3.3,4.0c0,0.9,0.0,3.7-1.5,3.3  c0.4,0.8,1.5,1.1,2.0,1.9c0.6,0.8,1.4,1.3,2.1,2.1c0.3-1.3,1.7,0.0,1.5,1.0  c-0.0,0.2-0.4,0.3-0.2,0.5c0.2,0.2,0.3,0.4,0.4,0.6c0.2,0.3,0.6,0.6,0.8,0.9  c0.6-0.3,1.5-1.2,2.3-1.3c0.7-0.0,1.3,0.8,1.5,1.5c-0.6-1.8-1.7-4.7-4.0-4.7  c-0.6,0-1.1,0.0-1.6,0.1c-0.8,0.2-0.7,0.0-1.4-0.3c-0.6-0.4-1.6-1.2-1.9-1.9  c1.2-0.2,2.4-0.8,3.1-1.9c0.5-0.8,1.4-2.7,0.6-3.5c-0.8-0.8-2.3-1.5-3.5-1.6  C47.1,47.9,45.8,47.2,44.7,47.3" id="path23" fill="#D9828D"/>

<path d="M54.1,49.4c0,1.9,0.0,3.8,0.5,5.6c0.1,0.7,0.6,1.7,1.2,2.3  c0.5,0.5,1.4,1.3,1.8,2.0c0.7,1.5,1.2,3.7,0.8,5.4c-0.2,0.8-0.7,1.6-1.6,1.5  c-0.5-0.0-1.2-0.2-1.3-0.8c0.3,2.2,0.6,4.7-2.3,4.7c1.3,0,2.9-0.1,4.2,0.1  c1.6,0.4,1.6,1.6,2.7,2.6c0.8,0.8,2.0,1.0,2.5,2.1c0.2,0.5,1.0,0.9,1.4,1.3  c0.4,0.4,0.8,0.6,1.4,0.9c-0.1-0.8-0.1-1.4,0-2.3c0.1-0.9,0.3-1.3,0.8-2.1  c0.6-1.2,2.4-0.7,2.9,0.4c0.2-1.4,1.0-3.9,2.8-3.7c-0.5-0.8-1.0-1.7-1.5-2.7  c-0.4-1.0-0.5-2.0-0.8-3.0c-0.5-1.9-0.2-4.0-0.9-5.9c-1.5-4.1-3.1-8.2-4.5-12.4  c0.5,1.1,1.4,2.7,2.5,3.5c-1.1-3.0-3.4-5.1-5.0-7.6c1.8,3.1,2.6,6.6,4.0,9.9  c0.3,0.7,0.4,1.6,0.7,2.3c0.4,0.8,0.7,1.6,0.9,2.5c0.1,0.8,0.5,1.5,0.3,2.4  c-0.1,0.7-0.8,1.4-1.3,2.0c-2.0-2.0-4.0-4.2-6.2-6.2C58.3,53.0,56.0,51.3,54.1,49.4" id="path25" fill="#F2C2B6"/>

<path d="M47.9,66.3c1.6-0.4,2.3-2.0,3.4-3.1c0.9-0.9,2.8-2.5,4.3-2.4  c-0.4,0.7-1.0,1.3-1.3,2.1c-0.3,0.6-0.7,1.3-1.3,1.8c-0.7,0.5-1.5,0.8-2.3,1.2  C50.0,66.1,48.3,66.7,47.9,66.3" id="path27" fill="#FFFFFF"/>

<path d="M44.0,54.4c-0.5,0.4-1.1,0.3-1.6,0.6c-0.5,0.2-1.0,0.6-1.4,1.1  c-0.8,0.8-1.3,2.1-1.7,3.2c0.9-1.1,1.7-1.9,2.8-2.8c0.5-0.4,0.9-0.7,1.6-1.0  C44.3,55.3,44.6,55.0,44.0,54.4" id="path29" fill="#802626"/>

<path d="M47.7,54.9c1.1-0.3,2.0-1.3,2.8-2.1c-0.2,0.3-0.1,0.6-0.4,0.9  c-0.2,0.2-0.3,0.5-0.5,0.7c-0.3,0.3-0.9,0.7-1.5,0.8c0.2,0.3,0.5,0.8,0.6,1.1  c-0.2-0.2-2.0-1.8-0.8-1.5C47.8,54.9,47.8,54.9,47.7,54.9" id="path31"/>

<path d="M47.9,54.4c0.4-1.6,1.4-2.1,2.8-2.8c-0.6,1.1-1.8,2.2-2.8,3.0  C47.9,54.5,47.9,54.5,47.9,54.4" id="path33"/>

<path d="M49.7,53.1c-0.1-0.0-0.2,0.0-0.3-0.1c-0.0,0.1-0.4,0.1-0.5,0.3  c-0.0,0.2,0.1,0.6,0.4,0.6C49.8,53.9,50.2,53.6,49.7,53.1" id="path35"/>

<path d="M50.8,61.0c-0.1,0.2-0.6,0.5-0.9,0.5c-0.2,0-0.6,0.5-0.1,0.5  C50.2,62.0,50.8,61.5,50.8,61.0" id="path37" fill="#802626"/>

<path d="M51.4,60.3c0.1-0.1,1.1-1.3,1.1-0.5C52.6,60.0,51.8,60.3,51.4,60.3" id="path39" fill="#802626"/>

<path d="M52.3,60.0c0.1,0.6-0.8,0.6-1.1,1.0c0.4,0.1,0.5,0.5,0.8,1.0  c0.1,0.2-0.1,0.3,0.3,0.3c0.2-0.0,0.3-0.3,0.5-0.5c0.3-0.2,0.9-0.4,0.8-1.1  C53.5,59.8,52.6,60.2,52.3,60.0" id="path41" fill="#CC8FA3"/>

<path d="M46.5,61.7c0.7,0.7,1.3,1.8,1.3,2.8c0,0.7,0.2,2.1,1.3,1.8  c-0.6,0.2-0.9,0.4-1.6,0c-0.5-0.3-0.3-0.8-0.4-1.4C47.1,64.4,47.2,61.8,46.5,61.7" id="path43" fill="#F2AA9D"/>

<path d="M52.5,62.5c-0.4,0.7-1.4,1.5-2.0,2.1c-0.5,0.6-1.1,0.9-1.6,1.3  c1.3-1.4,2.2-3.5,4.1-4.5c0.7-0.3,1.5-0.8,2.3-0.8c0.5,0-0.1-1.3-0.2-1.6  c0.4,0.3,0.7,0.7,1.0,1.1c0.2,0.3,0.5,1.2-0.2,0.8c-0.6-0.3-1.1,0.3-1.6,0.5  c-0.3,0.1-1.3,0.7-1.4,1.1C52.6,62.7,52.5,62.6,52.5,62.5" id="path45" fill="#B33636"/>

<path d="M53.1,63.9c-1.1,1.3-2.9,1.4-4.3,2.1c0.4,0.0,0.7-0.1,1.1-0.1  c0.4,0,0.9,0.0,1.3,0c0.7-0.0,1.7-0.3,2.2-0.9c0.5-0.5,1.0-1.1,1.3-1.8  c0.1-0.3,0.2-0.8,0.4-1.1c0.1-0.3-0.0-0.8,0.2-1.0C54.6,61.7,54.2,63.2,53.1,63.9" id="path47" fill="#FF4D4D"/>

<path d="M27.0,52.1c-0.4,2.2-0.5,4.6-0.5,7.3c0,1.3-0.0,2.7,0.9,3.8  c0.5,0.5,0.8,0.9,1.0,1.6c0.1,0.5,0.4,1.5,0.7,2.0c0.9,1.1,1.9,2.1,3.0,3.0  c0.5,0.4,1.0,0.8,1.6,1.1c0.6,0.4,2.3,3.0,2.9,3.4c4.4,2.6,7.8,8.3,13.4,5.1  c0.0-0.0,0.1-0.1,0.2-0.1C40.1,72.8,29.6,65.1,27.0,52.1z" id="path49" fill="#805426"/>

<path d="M65.2,65.3c-0.2-0.6-0.0-1.8,0.1-2.4c0.2-0.8,0.7-1.2,1.2-1.9  c-0.1-0.6-0.0-1.3-0.1-1.9c-0.1-0.6-0.0-1.6-0.3-2.1c-0.3-0.5-0.5-1.1-1.1-1.6  c-0.6-0.4-1.1-0.4-1.3-1.3c-0.2-1.5-0.0-2.5-1.4-3.6c-1.0-0.8-2.5-1.6-3.1-2.9  c-0.6-1.4-0.9-2.3-2.3-3.2c-1.1-0.6-2.2-1.2-3.4-1.8c-2.3-1.1-4.3-2.1-7.0-2.5  c-2.5-0.3-5.9-0.7-8.3,0.6c-2.6,1.5-4.9,2.4-7.0,4.7c-2.0,2.2-3.0,4.6-3.5,7.0  c2.5,13.0,13.0,20.6,23.6,27.4c1.1-0.6,2.2-1.7,2.7-2.9c0.6-1.6-0.2-2.5-1.3-3.5  c-1.0-0.9-2.4-1.4-3.6-2.2c-1.2-0.8-2.5-1.6-3.7-2.4c-2.3-1.4-4.8-3.2-6.5-5.4  c-0.9-1.3-1.5-2.6-1.7-4.2c-0.1-1.0,0.3-3.0,1.3-3.5c1.2-0.7,2.5-1.4,3.7-2.2  c1.2-0.8,1.7-2.0,2.4-3.3c0.3-0.6,0.6-1.2,0.9-1.8c0.2-0.4,1.3,0.3,1.7,0.3  c1.4,0,2.7-0.0,3.9,0.7c2.4,1.6,4.6,3.6,6.3,6.0c1.7,2.3,3.6,4.7,3.0,7.9  c-0.3,2.2-0.9,3.7-2.6,5.4c3.6-0.9,6.9-0.3,9.6,2.3C66.3,68.7,65.8,67.0,65.2,65.3z" id="path51" fill="#AB7233"/>

<path d="M66.5,60.9  c-0.1-0.6-0.0-1.3-0.1-1.9c-0.1-0.6-0.0-1.6-0.3-2.1c-0.3-0.5-0.5-1.1-1.1-1.6  c-0.6-0.4-1.1-0.4-1.3-1.3c-0.2-1.5-0.0-2.5-1.4-3.6c-1.0-0.8-2.5-1.6-3.1-2.9  c-0.6-1.4-0.9-2.3-2.3-3.2c-1.1-0.6-2.2-1.2-3.4-1.8c-2.3-1.1-4.3-2.1-7.0-2.5  c-2.5-0.3-5.9-0.7-8.3,0.6c-2.6,1.5-4.9,2.4-7.0,4.7c-3.8,4.3-4.1,8.7-4.1,14.4  c0,1.3-0.0,2.7,0.9,3.8c0.5,0.5,0.8,0.9,1.0,1.6c0.1,0.5,0.4,1.5,0.7,2.0  c0.9,1.1,1.9,2.1,3.0,3.0c0.5,0.4,1.0,0.8,1.6,1.1c0.6,0.4,2.3,3.0,2.9,3.4  c4.4,2.6,7.8,8.3,13.4,5.1c1.1-0.6,2.4-1.8,2.9-3.1c0.6-1.6-0.2-2.5-1.3-3.5  c-1.0-0.9-2.4-1.4-3.6-2.2c-1.2-0.8-2.5-1.6-3.7-2.4c-2.3-1.4-4.8-3.2-6.5-5.4  c-0.9-1.3-1.5-2.6-1.7-4.2c-0.1-1.0,0.3-3.0,1.3-3.5c1.2-0.7,2.5-1.4,3.7-2.2  c1.2-0.8,1.7-2.0,2.4-3.3c0.3-0.6,0.6-1.2,0.9-1.8c0.2-0.4,1.3,0.3,1.7,0.3  c1.4,0,2.7-0.0,3.9,0.7c2.4,1.6,4.6,3.6,6.3,6.0c1.7,2.3,3.6,4.7,3.0,7.9  c-0.3,2.2-0.9,3.7-2.6,5.4c3.6-0.9,6.9-0.3,9.6,2.3c-0.6-1.6-1.2-3.3-1.8-5.0  c-0.2-0.6-0.0-1.8,0.1-2.4C65.5,62.0,66.1,61.6,66.5,60.9" id="path53" fill="none" stroke="#000000" stroke-width="0.1" stroke-linecap="square" stroke-miterlimit="10"/>

<path d="M49.4,55.8c0.1-0.1,0.0-0.3,0.1-0.5c0.1-0.1,0.2-0.1,0.4-0.2  c0.2-0.2,0.5-0.3,0.9-0.5c0.7-0.4,1.0-1.2,1.6-1.8c0.6,0.4,0.7,1.3,0.8,2.0  c0.0,0.4,0.2,0.7,0.0,1.2c-0.0,0.1,0.0,0.4-0.0,0.5c-0.0,0.1-0.3,0.1-0.3,0.2  C52.6,57.6,49.6,56.9,49.4,55.8" id="path55" fill="#E6A1A1"/>

<path d="M65.8,81.0c-0.9,0.9-2.1,1.5-3.2,2.3c-0.8,0.5-2.0,1.8-3.0,2.0  c0.3,0.2,1.1,0.2,1.1,0.8c0,0.7-0.5,1.5-0.8,2.2c-0.1,0.4-0.4,1.7,0.4,1.7  c0.7,0,1.4-0.4,1.6-1.1c0.4-1.6,0.9-3.1,1.7-4.6c0.3-0.6,0.8-1.2,1.2-1.9  c0.2-0.4,0.5-1.3,1.0-1.5C65.9,81.0,65.9,81.0,65.8,81.0" id="path57" fill="#F2C2B6"/>

<path d="M54.5,73.9c2.3,2.3,5.3,4.0,8.6,4.9c-1.4-0.8-2.8-1.6-4.3-2.4  C57.2,75.6,55.7,75.1,54.5,73.9" id="path59" fill="#F2C2B6"/>

<path d="M63.4,25.4c-4.6-3.7-9.5-7.0-14.6-10.1c-2.6-1.6-5.2-3.3-7.9-4.9  C38.2,8.8,35.5,7.4,33.1,5.7c-2.4-1.8-4.9-3.1-8.0-3.4c-2.8-0.2-5.7-0.2-8.6-0.6  c-1.4-0.1-2.8-0.3-4.2-0.6c-1.3-0.2-2.6-0.1-4.0-0.3c-1.3-0.1-2.8-0.1-4.1-0.3  C3.1,0.2,2.4,0.2,1.6,0.2c-0.1,0-1.8,0.1-1.1,0.5C1.4,1.2,2.2,1.5,3.1,1.8  C3.8,2.1,5.2,2.2,5.9,2.2c1.0,0,1.5,0.2,2.5-0.3c0.6-0.4,2.1-0.5,2.9-0.5  c1.9,0,4.0-0.1,5.8,0.8c1.0,0.6,1.2,0.9,1.2,2.1c0,0.8-0.3,2.0-1.0,2.5  c0.6-0.2,1.3-0.5,1.9-0.9c0.7-0.4,0.5-1.2,0.7-1.8c0.2-0.7,0.4-1.2,1.3-1.3  c0.7-0.0,1.5,0,2.3,0c2.9,0,5.2,0.9,7.3,3.0c1.9,1.9,4.4,3.6,6.5,5.3  c2.4,2.0,5.0,3.9,7.4,6.0c3.2,2.7,6.9,5.0,10.4,7.5c-1.2-1.2-2.3-2.5-3.3-3.9  c-0.3-0.4-0.8-1.7,0.2-1.3c0.8,0.2,1.6,0.5,2.4,0.9c3.1,1.4,5.8,3.3,8.6,5.2  C63.6,25.5,63.5,25.4,63.4,25.4" id="path61" fill="#F2AA9D"/>

<path d="M59.6,24.8c1.0,1.2,1.5,2.0,0.2,3.2c-0.4,0.4-1.0,0.6-1.5,0.8  c-0.9,0.4,0.0,0.7,0.6,0.7c1.3,0,2.4-0.7,3.7-1.0c0.6-0.1,1.4-0.4,2.0-0.3  c0.5,0.1,1.1,0.7,1.5,1.1c-0.8-1.1-1.5-2.4-2.7-3.3c-0.2-0.1-0.4-0.3-0.7-0.4  c-0.2-0.1-0.7,0.2-1.0,0.0C60.9,25.5,60.3,25.4,59.6,24.8" id="path63" fill="#F2C2B6"/>

<path d="M68.5,33.6c1.7,3.2,3.3,6.4,4.7,9.8c0.5,1.2,1.3,3.3,1.3,4.6  c0,0.8,0.1,2.0-0.9,2.0c-0.9,0-1.5-0.4-2.4-0.8c1.2,1.1,2.7,2.6,4.3,3.2  c0.8,0.2,1.6,0.3,2.4,0.7c0.7,0.3,1.4,0.8,2.0,1.3c-1.3-1.4-2.5-2.9-3.4-4.6  c-0.9-1.7-1.6-3.7-2.4-5.6c-0.7-1.8-1.4-3.7-2.3-5.5C71.1,36.8,69.8,35.3,68.5,33.6" id="path65" fill="#F2C2B6"/>

<path d="M72.2,54.3c1.9,4.1,2.6,9.8,6.2,12.9c1.7,1.4,4.0,2.4,6.3,2.8  c2.2,0.3,4.5,0.6,6.6,1.6c-1.7-1.1-3.4-2.4-4.9-3.9c-1.6-1.6-2.7-3.6-4.5-5.0  c-1.7-1.4-3.7-2.0-5.6-3.3C74.4,58.1,73.4,56.2,72.2,54.3" id="path67" fill="#F2C2B6"/>

<path d="M74.3,63.9c1.2,2.5,3.2,4.4,4.9,6.7c0.8,1.1,1.5,2.5,2.4,3.6  c0.9,1.1,1.8,1.8,2.9,2.7c0.3,0.2,1.4,1.2,1.9,0.8c0.5-0.4-0.0-1.7-0.2-2.1  c-0.4-1.1-1.7-2.3-2.6-3.2c-2.0-2.0-4.7-3.5-6.7-5.6C76.0,66.0,75.2,64.8,74.3,63.9" id="path69" fill="#F2C2B6"/>

<path d="M55.0,232.4c1.9-2.3,3.9-4.6,5.6-7.1c1.5-2.1,3.4-4.5,4.2-7.1  c1.8-5.6,4.6-10.7,8.4-15.3c1.8-2.1,3.5-4.5,4.5-7.2c1.0-2.7,2.2-5.6,3.6-8.2  c2.7-5.2,5.8-10.5,9.3-15.2c1.5-2.0,2.9-4.1,4.2-6.3c1.2-2.0,2.3-4.1,3.5-6.2  c1.1-2.0,2.1-4.1,3.3-6.1c1.2-2.0,3.4-3.4,5.9-3.2c-0.4-2.8-0.9-5.7-2.1-8.4  c-1.2-2.6-2.8-5.7-5.5-7.1c-2.6-1.3-5.9-1.6-7.9,1.1c-1.8,2.5-3.2,5.4-4.4,8.4  c-1.1,2.9-1.8,6.0-2.6,9.0c-0.3,1.3-0.6,2.6-0.9,4.0c-0.3,1.4-0.5,2.9-0.9,4.3  c-1.9,5.7-5.0,10.7-7.6,16.2c-0.6,1.3-1.3,2.7-1.8,4.2c-0.4,1.4-0.7,2.8-1.0,4.3  c-0.6,2.9-2.3,5.1-4.1,7.5c-0.4,0.5-0.7,1.0-1.0,1.6c-0.4,0.7-0.5,1.4-0.8,2.2  c-0.5,1.2-0.8,2.8-1.7,3.9c-1.6,2.2-3.7,4.0-5.6,6.0c-4.1,4.6-7.0,9.9-9.1,15.8  c-1,2.7-1.9,5.5-2.5,8.4c-0.3,1.7-0.5,3.1-0.5,4.8c0,0.3,0.1,1.6,0.5,1.6  c1.0,0.1,1.3-0.0,2.2-0.4c1.0-0.5,1.9-1.8,2.7-2.7C53.2,234.7,54.9,233.2,55.0,232.4" id="path71" fill="#755D55"/>

<path d="M55.0,232.4c1.9-2.3,3.9-4.6,5.6-7.1c1.5-2.1,3.4-4.5,4.2-7.1  c0.9-2.9,2.1-5.6,3.6-8.3c1.4-2.5,3.0-4.7,4.8-7.0c0.3-0.4,1.0-0.9,1.3-1.5  c0.4-0.7,0.8-1.4,1.2-2.1c0.7-1.2,1.2-2.5,1.8-3.8c1.3-2.6,2.3-5.3,3.6-8.0  c2.7-5.2,5.8-10.5,9.3-15.2c2.9-3.9,5.6-8.1,7.8-12.5c1.0-2.0,2.0-4.2,3.3-6.1  c1.3-1.9,3.4-3.3,5.8-3.1c-0.1-1.1-0.1-1.6-0.8-2.6c-0.5-0.8-1.5-0.8-2.3-0.5  c-1.7,0.7-3.0,2.1-4.1,3.6c-1.1,1.5-1.9,3.2-2.7,4.9c-0.7,1.7-1.4,3.7-2.7,5.0  c-1.2-2.4-0.4-5.6-1.0-8.2c-1.2,0.6-1.6,2.5-2.1,3.8c-0.4,1.3-1.0,2.6-1.4,3.9  c-0.9,2.9-2.1,5.8-3.1,8.7c-2.0,5.6-4.2,11.2-7.3,16.4c-1.5,2.5-3.5,4.8-4.5,7.6  c-0.4,1.3-0.5,2.7-0.8,4.1c-0.3,1.5-0.9,2.8-2.0,3.9c-2.0,2.0-4.8,3.1-6.5,5.5  c-1.4,2.2-1.7,5.4-2.5,8.0c-1.1,3.8-3.7,7.1-6.0,10.3c-1.1,1.5-2.3,3.1-3.4,4.7  c-0.8,1.2-2.7,3.4-2.3,4.9C52.4,234.2,54.8,233.2,55.0,232.4" id="path73" fill="#593C33"/>

<path d="M130.2,197.3c-1.6-2.3-3.0-5.1-3.5-7.9c-0.3-1.5-0.5-3.0-0.9-4.4  c-0.3-1.3-0.3-2.8-0.9-4.1c-0.2-0.6-0.4-1.3-0.6-2.0c-0.1-0.6-0.6-1.2-0.9-1.8  c-0.5-1.3-1.2-2.5-1.9-3.8c-1.5-2.6-2.8-5.4-4.1-8.2c-1.2-2.7-2.5-5.6-3.7-8.4  c-0.5-1.3-0.9-2.7-1.7-3.9c-0.4-0.6-1.0-0.9-1.5-1.5c-0.5-0.5-1.4-0.2-2.1-0.5  c1.1-1.0,2.1-2.2,3.6-2.6c1.6-0.4,2.2,0.5,2.7,2.0c0.8,2.8,1.4,5.7,2.2,8.5  c1.7,5.6,4.0,11.3,7.2,16.2c1.1,1.7,2.1,3.4,2.9,5.4c0.7,1.7,0.8,3.9,0.9,5.8  c0.1,1.9,0.3,3.8,0.6,5.7c0.3,2.1,1.0,3.9,1.9,5.9C130.3,197.4,130.3,197.3,130.2,197.3" id="path75" fill="#593C33"/>

<path d="M154.2,226.7c-0.7-5.9-1.4-12.2-3.4-17.9c-1.0-2.8-2.0-5.7-3.6-8.3  c-1.4-2.4-2.1-5.2-2.9-7.9c-1.6-5.6-2.8-11.3-3.3-17.2c-0.4-6.1-1.9-12.0-3.5-17.9  c-1.5-5.7-3.6-11.4-6.0-16.9c-1.1-2.5-1.4-5.5-2.1-8.2c-0.8-2.9-2.1-5.7-3.4-8.5  c-0.6-1.4-1.3-2.9-2.0-4.4c-0.2-0.4-0.4-0.7-0.8-1.1c-0.3-0.3-1.1-1.6-1.6-1.7  c-0.4-0.0-1.8-0.5-2.1-0.3c-0.5,0.3-1.4,0.8-1.8,1.3c-0.8,1.3-1.6,2.4-2.2,3.9  c-1.1,2.9-1.6,5.9-2.1,9.1c-0.1,1.2-0.1,2.7,0.1,4.0c0.1,0.6,0.2,1.4,0.6,1.9  c0.4,0.6,0.9,1.2,1.4,1.8c3.5,4.4,9.2,8.0,10.0,14.2c0.3,2.9,0.5,6.0,1.3,8.9  c0.7,2.9,1.6,5.8,2.5,8.7c0.4,1.5,0.9,3.1,1.4,4.6c0.2,0.8,1.0,3.0,0.5,3.9  c-0.7,1.2-1.9,2.2-0.2,3.3c1.1,0.7,2.5,1.2,3.6,2.1c2.2,1.8,1.7,5.8,0.4,8.0  c-1.4,2.3,1.6,5.5,2.6,7.4c1.4,2.6,3.4,5.0,3.9,8.1c0.5,2.8,0.8,5.8,1.5,8.6  c0.3,1.5,0.6,3.1,1.0,4.7c0.3,1.4,0.9,2.9,1.3,4.4c0.7,2.5,2.0,5.6,4.9,6.2  c1.2,0.2,2.6,0.2,3.3-1.0C154.4,229.4,154.2,228.0,154.2,226.7" id="path77" fill="#755D55"/>

<path d="M154.2,226.7c-0.7-5.9-1.4-12.2-3.4-17.9c-1.0-2.8-2.0-5.7-3.6-8.3  c-1.4-2.4-2.1-5.2-2.9-7.9c-0.3-1.3-0.6-2.8-0.9-4.2c-0.2-1.4-0.8-2.8-1.0-4.2  c-0.2-1.4-0.6-2.7-0.8-4.1c-0.1-1.5-0.2-3.0-0.3-4.5c-0.4-6.1-1.9-12.0-3.5-17.9  c-1.5-5.7-3.6-11.4-6.0-16.9c-1.1-2.5-1.4-5.5-2.1-8.2c-0.8-2.9-2.1-5.7-3.4-8.5  c-0.5-1.2-1.0-2.5-1.6-3.7c-0.3-0.6-0.7-1.3-1.1-1.9c-0.5-0.8-1.0-0.4-0.8,0.4  c0.2,1.4,0.6,2.8,1.1,4.1c0.5,1.4,1.4,2.6,2.1,3.9c1.2,2.4,1.8,5.5,1.8,8.3  c0,1.5,0.0,2.9,0.3,4.4c0.2,1.4,1.1,2.7,1.7,4.0c0.5,1.3,1.5,2.4,2.1,3.7  c0.6,1.3,1.3,2.6,2.0,3.9c1.3,2.7,2.5,5.5,3.5,8.4c1.8,5.6,2.5,12.0,2.1,17.9  c-0.1,2.8-0.8,5.6,0.3,8.4c0.5,1.3,1.1,2.7,1.4,4.1c0.1,0.5-0.3,1.3-0.7,1.7  c-0.6,0.6-0.2,1.2,0.0,1.9c0.6,1.2,1.6,2.4,2.6,3.5c0.9,1.1,1.7,2.5,2.4,3.8  c1.3,2.4,2.5,5.1,3.2,7.8c1.2,4.5,2.4,9.0,2.9,13.7c0.1,1.1,0.2,2.2,0.3,3.4  c0.0,1.0-0.1,2.1,0.1,3.2c0.1,0.9,1.1,1.8,1.7,0.6C154.3,228.9,154.2,227.6,154.2,226.7" id="path79" fill="#593C33"/>

<path d="M9.0,6.9c-0.0,0.3-1.2,0.7-1.6,0.9C6.7,8.3,6.0,8.7,5.3,9.1  C6.5,8.1,7.6,6.7,8.9,5.7c1.5-1.1,3.1-1.3,5.0-1.3c-0.9,0.3-2.0,0.7-2.9,1.3  c-0.5,0.3-1.7,0.8-1.9,1.4C9.0,7.0,9.0,7.0,9.0,6.9" id="path81" fill="#E6B8A1"/>

<path d="M8.5,3.9C7.3,4.8,6.2,5.7,5.0,6.5C4.3,6.9,2.4,7.9,2.2,8.8  C2.8,8.4,3.4,8.5,3.9,8.0c0.4-0.4,1.0-0.8,1.5-1.3C6.3,5.7,7.7,4.9,8.5,3.9" id="path83" fill="#E6B8A1"/>

<path d="M58.9,65.5c-0.2,1.0-1.0,1.9-1.7,2.6c-0.6,0.6-1.2,1.6-2.1,1.9  c1.5-0.5,2.9-0.2,3.7,1.2c0.3,0.5,0.7,0.9,1.0,1.5c0.1,0.3,0.9,1.2,1.3,1.2  c0.7,0,0.3-0.6,0.2-1.1c-0.2-0.7-0.8-1.8-0.6-2.5c0.3-1.5,2.6-2.6,3.8-1.3  c0.1-1.0-1.6-2.3-2.3-3.0c-0.4-0.4-1.0-0.7-1.6-0.9c-0.8-0.3-1.2-0.0-1.7,0.6  C58.9,65.6,58.9,65.5,58.9,65.5" id="path85" fill="#C7A697"/>

<path d="M164.4,269.6c2.0-0.1,7.2-0.1,7.2-3.2c0-2.9-3.4-4.3-4.4-6.8  c-0.5-1.3-0.4-2.9-1.5-4.0c-0.9-0.9-2.2-1.7-3.5-1.9c-2.7-0.3-6.1,0.2-7.6,2.7  c-1.0,1.7-1.0,3.5-1.3,5.4c-0.1,0.8-0.0,1.8,0.1,2.7c0.1,0.7,0.1,1.8,0.6,2.4  c0.5,0.4,1.6,0.7,2.2,1.1c0.7,0.5,1.4,0.7,2.3,0.9C160.4,269.6,162.4,269.6,164.4,269.6" id="path87" fill="#FFFFFF"/>

<path d="M164.4,269.6  c2.0-0.1,7.2-0.1,7.2-3.2c0-2.9-3.4-4.3-4.4-6.8c-0.5-1.3-0.4-2.9-1.5-4.0  c-0.9-0.9-2.2-1.7-3.5-1.9c-2.7-0.3-6.1,0.2-7.6,2.7c-1.0,1.7-1.0,3.5-1.3,5.4  c-0.1,0.8-0.0,1.8,0.1,2.7c0.1,0.7,0.1,1.8,0.6,2.4c0.5,0.4,1.6,0.7,2.2,1.1  c0.7,0.5,1.4,0.7,2.3,0.9C160.4,269.6,162.4,269.6,164.4,269.6" id="path89" fill="none" stroke="#000000" stroke-width="0.1" stroke-linecap="square" stroke-miterlimit="10"/>

<path d="M154.7,267.3c2.5,2.0,6.4,2.4,9.6,2.3c1.8-0.0,3.5-0.3,5.3-0.8  c0.6-0.1,1.4-0.9,1.7-1.5c0.3-0.9,0.0-1.6-0.2-2.4c0.4,1.6,0.4,3.2-1.5,3.6  c-1.6,0.3-3.2,0.2-4.9,0.2c-1.7,0-3.4,0.3-5.1,0.3C157.6,268.9,156.2,268.2,154.7,267.3" id="path91" fill="#404040"/>

<path d="M154.7,267.3  c2.5,2.0,6.4,2.4,9.6,2.3c1.8-0.0,3.5-0.3,5.3-0.8c0.6-0.1,1.4-0.9,1.7-1.5  c0.3-0.9,0.0-1.6-0.2-2.4c0.4,1.6,0.4,3.2-1.5,3.6c-1.6,0.3-3.2,0.2-4.9,0.2  c-1.7,0-3.4,0.3-5.1,0.3C157.6,268.9,156.2,268.2,154.7,267.3" id="path93" fill="none" stroke="#000000" stroke-width="0.1" stroke-linecap="square" stroke-miterlimit="10"/>

<path d="M31.8,270.5c2.5,0,6.4,0.1,8.2-2.1c1.0-1.3,0.5-2.4,0.5-3.9  c0-1.5,1.2-2.3,1.8-3.6c0.4-1.2,1.1-2.8,0.7-4.1c-0.2-1.1-1.2-2.9-2.4-3.5  c-1.4-0.7-2.7-1.4-4.4-1.5c-1.6-0.1-2.8,0.6-4.0,1.5c-1.2,0.8-2.2,3.5-2.6,4.9  c-0.6,1.9-1.3,3.7-2.1,5.6c-0.5,1.3-2.0,4.1-0.7,5.4c1.4,1.4,3.4,1.4,5.3,1.4  C31.9,270.5,31.9,270.5,31.8,270.5" id="path95" fill="#FFFFFF"/>

<path d="M31.8,270.5  c2.5,0,6.4,0.1,8.2-2.1c1.0-1.3,0.5-2.4,0.5-3.9c0-1.5,1.2-2.3,1.8-3.6  c0.4-1.2,1.1-2.8,0.7-4.1c-0.2-1.1-1.2-2.9-2.4-3.5c-1.4-0.7-2.7-1.4-4.4-1.5  c-1.6-0.1-2.8,0.6-4.0,1.5c-1.2,0.8-2.2,3.5-2.6,4.9c-0.6,1.9-1.3,3.7-2.1,5.6  c-0.5,1.3-2.0,4.1-0.7,5.4c1.4,1.4,3.4,1.4,5.3,1.4" id="path97" fill="none" stroke="#000000" stroke-width="0.1" stroke-linecap="square" stroke-miterlimit="10"/>

<path d="M26.3,268.3c1.4,2.8,5.8,2.3,8.5,2.1c1.7-0.1,3.2-0.6,4.7-1.4  c0.5-0.2,1.0-1.3,1.1-1.9c0.1-0.7,0.0-1.5-0.1-2.3c0.2,1.4,0.0,3.1-1.2,4.0  c-1.1,0.7-3.1,0.3-4.4,0.3c-1.4,0-3.0-0.3-4.3,0C28.9,269.5,27.4,269.4,26.3,268.3" id="path99" fill="#404040"/>

<path d="M26.3,268.3  c1.4,2.8,5.8,2.3,8.5,2.1c1.7-0.1,3.2-0.6,4.7-1.4c0.5-0.2,1.0-1.3,1.1-1.9  c0.1-0.7,0.0-1.5-0.1-2.3c0.2,1.4,0.0,3.1-1.2,4.0c-1.1,0.7-3.1,0.3-4.4,0.3  c-1.4,0-3.0-0.3-4.3,0C28.9,269.5,27.4,269.4,26.3,268.3" id="path101" fill="none" stroke="#000000" stroke-width="0.1" stroke-linecap="square" stroke-miterlimit="10"/>

<path d="M57.0,231.4c0,1.5-0.3,2.9-1.2,4.1c-0.3,0.5-0.6,1.1-1.0,1.5  c-0.4,0.5-1.0,0.9-1.6,1.4c-0.4,0.4-0.2,1.2-0.0,1.7c0.2,0.7,0.0,1.6-0.4,2.1  c-0.5,0.5-1.0,0.7-1.2,1.4c-0.2,0.5-0.0,1.5-0.5,2.0c-0.3,0.4-1.1,0.6-1.6,1.0  c-0.5,0.4-0.8,1.2-0.9,1.8c-0.0,0.3,0.0,0.7,0.1,1.0c0.1,0.3-0.1,0.6-0.1,0.9  c0,0.8-0.6,1.1-1.3,1.3c-1.2,0.4-2.1,0.9-2.1,2.2c0,1.3-0.0,2.8-0.4,4.2  c-0.4,1.8-2.1-0.2-2.8-0.9c-1.0-1.0-2.0-2.2-3.5-2.4c-1.3-0.1-2.8-0.3-4.2-0.3  c-0.4,0-4.1,0.1-3.6-0.9c0.6-1.2,1.7-2.0,2.1-3.4c0.3-1.3-0.0-2.9,0.9-3.9  c1.1-1.1,0.4-2.3,0.7-3.8c0.1-0.6,0.4-1.0,1.0-1.3c0.8-0.4,0.9-0.6,1.1-1.4  c0.1-0.6,0.0-1.3,0.5-1.8c0.4-0.5,1.0-0.5,1.6-0.8c1.3-0.6,0.4-2.3,1.5-3.2  c0.6-0.4,2.6-1.8,2.6-2.6c0-1.2,0.6-2.9,1.1-4.0c0.2-0.6,0.4-1.1,0.8-1.6  c0.5-0.6,0.7-0.7,1.4-0.2c1.1,0.7,2.4,1.5,3.6,2.2c2.4,1.3,4.9,2.8,7.4,4.1  C57.0,231.5,57.0,231.5,57.0,231.4" id="path103" fill="#FF7F00"/>

<path d="M57.0,231.4  c0,1.5-0.3,2.9-1.2,4.1c-0.3,0.5-0.6,1.1-1.0,1.5c-0.4,0.5-1.0,0.9-1.6,1.4  c-0.4,0.4-0.2,1.2-0.0,1.7c0.2,0.7,0.0,1.6-0.4,2.1c-0.5,0.5-1.0,0.7-1.2,1.4  c-0.2,0.5-0.0,1.5-0.5,2.0c-0.3,0.4-1.1,0.6-1.6,1.0c-0.5,0.4-0.8,1.2-0.9,1.8  c-0.0,0.3,0.0,0.7,0.1,1.0c0.1,0.3-0.1,0.6-0.1,0.9c0,0.8-0.6,1.1-1.3,1.3  c-1.2,0.4-2.1,0.9-2.1,2.2c0,1.3-0.0,2.8-0.4,4.2c-0.4,1.8-2.1-0.2-2.8-0.9  c-1.0-1.0-2.0-2.2-3.5-2.4c-1.3-0.1-2.8-0.3-4.2-0.3c-0.4,0-4.1,0.1-3.6-0.9  c0.6-1.2,1.7-2.0,2.1-3.4c0.3-1.3-0.0-2.9,0.9-3.9c1.1-1.1,0.4-2.3,0.7-3.8  c0.1-0.6,0.4-1.0,1.0-1.3c0.8-0.4,0.9-0.6,1.1-1.4c0.1-0.6,0.0-1.3,0.5-1.8  c0.4-0.5,1.0-0.5,1.6-0.8c1.3-0.6,0.4-2.3,1.5-3.2c0.6-0.4,2.6-1.8,2.6-2.6  c0-1.2,0.6-2.9,1.1-4.0c0.2-0.6,0.4-1.1,0.8-1.6c0.5-0.6,0.7-0.7,1.4-0.2  c1.1,0.7,2.4,1.5,3.6,2.2c2.4,1.3,4.9,2.8,7.4,4.1" id="path105" fill="none" stroke="#000000" stroke-width="0.1" stroke-linecap="square" stroke-miterlimit="10"/>

<path d="M155.1,223.6c0.1,1.4,0.3,2.7,1.1,3.9c0.3,0.5,0.9,0.9,1.1,1.4  c0.0,0.2,0.3,0.4,0.3,0.7c0,0.3-0.0,0.8,0.0,1.2c0.1,0.4,0.6,0.8,1.0,1.0  c0.5,0.2,0.7,1.2,0.7,1.8c0.1,1.3,0.1,2.8,0.5,4.1c0.3,1.3,1.1,2.2,1.7,3.5  c0.6,1.2,1.1,2.4,1.7,3.6c0.6,1.2,0.8,2.6,0.8,4.0c0,1.5,0.1,2.1,1.1,3.3  c0.9,1.0,0.6,2.2,0.6,3.5c-2.8-1.2-5.5-1.7-8.5-0.8c-1.2,0.3-2.5,1.3-3.2,2.4  c-0.4,0.6-2.0,3.3-2.2,1.3c-0.0-1.1,0.4-3.1-0.2-4.1c-0.6-1.0-2.3-1.5-2.6-2.7  c-0.3-1.3,0.2-2.8-0.1-4.2c-0.3-1.1-1.1-2.2-1.6-3.2c-1.3-2.6-1.9-5.6-3.0-8.3  c-0.5-1.3-1.3-2.5-1.9-3.9c-0.2-0.6-0.6-1.2-0.7-1.8c-0.1-0.6-0.5-0.9-0.5-1.6  c0.0-1.5,1.9-1.1,3.1-1.1c1.3,0,2.9-0.4,4.2-0.8c1.1-0.3,2.7-0.9,3.6-1.7  c0.7-0.6,1.2-2.3,2.4-1.7C154.9,223.5,155.0,223.6,155.1,223.6" id="path107" fill="#FF7F00"/>

<path d="M155.1,223.6  c0.1,1.4,0.3,2.7,1.1,3.9c0.3,0.5,0.9,0.9,1.1,1.4c0.0,0.2,0.3,0.4,0.3,0.7  c0,0.3-0.0,0.8,0.0,1.2c0.1,0.4,0.6,0.8,1.0,1.0c0.5,0.2,0.7,1.2,0.7,1.8  c0.1,1.3,0.1,2.8,0.5,4.1c0.3,1.3,1.1,2.2,1.7,3.5c0.6,1.2,1.1,2.4,1.7,3.6  c0.6,1.2,0.8,2.6,0.8,4.0c0,1.5,0.1,2.1,1.1,3.3c0.9,1.0,0.6,2.2,0.6,3.5  c-2.8-1.2-5.5-1.7-8.5-0.8c-1.2,0.3-2.5,1.3-3.2,2.4c-0.4,0.6-2.0,3.3-2.2,1.3  c-0.0-1.1,0.4-3.1-0.2-4.1c-0.6-1.0-2.3-1.5-2.6-2.7c-0.3-1.3,0.2-2.8-0.1-4.2  c-0.3-1.1-1.1-2.2-1.6-3.2c-1.3-2.6-1.9-5.6-3.0-8.3c-0.5-1.3-1.3-2.5-1.9-3.9  c-0.2-0.6-0.6-1.2-0.7-1.8c-0.1-0.6-0.5-0.9-0.5-1.6c0.0-1.5,1.9-1.1,3.1-1.1  c1.3,0,2.9-0.4,4.2-0.8c1.1-0.3,2.7-0.9,3.6-1.7c0.7-0.6,1.2-2.3,2.4-1.7  C154.9,223.5,155.0,223.6,155.1,223.6" id="path109" fill="none" stroke="#000000" stroke-width="0.1" stroke-linecap="square" stroke-miterlimit="10"/>

<path d="M35.4,254.7c1.4,0.1,2.8,0.3,4.1,0.9c1.2,0.6,1.7,1.9,2.8,2.7  c0.3,0.2,1.0,1.1,1.4,0.4c0.3-0.6,0.4-1.2,0.4-1.9c0-1.3-0.1-2.5,0.4-3.8  c0.5-1.1,2.4-0.8,3.0-2.1c0.6-1.3-0.4-2.9,0.9-3.9c1.1-0.8,2-1.3,2.2-2.8  c0.1-0.8,0.3-1.0,0.9-1.6c0.5-0.5,0.9-0.9,0.9-1.8c0-0.8-0.7-1.6,0-2.4  c0.1-0.1,0.4-0.0,0.5-0.2c0.2-0.2,0.4-0.4,0.6-0.6c0.3-0.3,0.6-0.7,0.8-1.1  c0.4-0.8,0.9-1.6,1.2-2.5c0.1-0.4,0.2-0.9,0.3-1.4c0.1-0.7-0.2-0.6-0.8-0.9  c-1.6-0.8-3.4-1.8-5.0-2.8c-1.8-1.2-3.7-2.2-5.5-3.3c2.2,2.2,4.9,3.6,7.6,5.2  c0.6,0.4,1.3,0.6,2.0,1.0c0.9,0.4,0.3,0.7-0.4,0.5c-1.6-0.4-3.0-0.7-4.5-1.6  c1.1,1.1,3.4,3.2,3.2,5.0c-0.2,1.9-4.2,0.0-5.0-0.6c0.8,1.4,2.7,3.7,2.3,5.6  c-0.2,1.2-0.8,1.6-2.1,1.2c-1.0-0.2-1.9-0.8-2.8-1.3c0.6,0.6,1.3,1.3,1.9,2.0  c0.5,0.6,1.4,1.2,1.4,2.1c0,1.9-3.9-0.1-4.7-0.4c1.1,1.1,2.3,2.5,1.2,4.1  c-0.5,0.7-1.0,1.2-1.9,1.4c-0.8,0.2-1.4,0.5-2.2,0.9c-1.3,0.6,2.4,3.4-0.8,3.4  C39.6,254.1,35.5,255.0,35.4,254.7" id="path111" fill="#FF4000"/>

<path d="M154.6,257.4c-0.2,0.3-1.4,2.6-2.0,2.3c-0.5-0.2,0.1-2.9,0.1-3.4  c0-1.2-0.4-2.3-1.7-2.7c-1.2-0.4-1.3-2.0-1.3-3.1c0-1.1-0.0-2.2-0.5-3.2  c-0.4-1.0-1.1-2.0-1.5-3.1c-0.9-2.4-1.3-5.1-2.6-7.3c1.7,2.8,3.1,7.7,7.1,7.7  c-0.8,0.7-3.0,2.1-1.5,3.2c1.2,0.8,2.9,0.1,4.2-0.3c-0.5,0.6-3.5,3.2-2.8,4.3  c1.0,1.5,3.6,0.0,4.8-0.5c-1.1,1.1-2.2,2.1-3.0,3.5c-0.3,0.6-1.0,1.4-0.6,2.1  c0.1,0.2,0.5,0.6,0.8,0.6C154.0,257.4,155.0,257.4,154.6,257.4" id="path113" fill="#FF4000"/>

<path d="M154.6,257.4c1.6-1.3,3.1-2.5,5.4-2.8c2.0-0.2,4.4,0.5,6.2,1.5  c0-0.5,0.0-1.1,0-1.6c-0.0-0.6-0.2-0.9-0.5-1.4c-0.2-0.5-0.8-0.7-1.1-1.2  c-0.2-0.5-0.1-1.1-0.1-1.6c-0.0-1.2-0.1-2.4-0.4-3.6c-0.3-1.2-0.9-2.1-1.4-3.2  c-0.9-1.8-2.7-4.0-2.7-6.2c0-1.0,0.0-2.5-0.3-3.6c-0.3-1.0-1.8-1.4-1.6-2.7  c0,1.0-0.5,1.9-0.5,3.0c0,0.3-0.3,1.1-0.0,1.4c0.3,0.3,0.8-0.4,1.2-0.4  c1.0,0.1,0.9,1.9,1.0,2.6c0.2,1.0,0.1,2.0,0.7,2.9c1.1,1.6,2.0,3.9,2.6,5.8  c0.3,0.9,0.5,2.0-0.8,2.0c-0.4,0-0.8-0.1-1.3-0.1c-0.3,0-0.6-0.1-0.8-0.1  c-0.2,0.0-0.5,0.2-0.8,0.1c0.8,0.1,1.6,0.1,2.4,0.5c0.8,0.4,1.3,0.9,2.0,1.5  c0.5,0.5,0.4,1.2-0.3,1.2c-0.9,0-1.7-0.1-2.7-0.1c1.4,0.5,2.8,1.0,4.0,1.8  c1.8,1.2-1.8,1.0-2.6,0.8c-0.7-0.1-1.4-0.2-2.1-0.1c-0.7,0.1-1.2,0.5-1.9,0.8  C156.4,255.3,155.6,256.9,154.6,257.4" id="path115" fill="#FF4000"/>

<path d="M72.9,137.9c-3.3-1.2-6.8-2.2-10.3-2.7c-1.8-0.2-3.7-0.5-5.5-0.7  c-0.9-0.0-4.7-0.8-5.0,0.4c3.2,1.6,7.0,1.7,10.5,2.4c3.5,0.7,7.4,1.0,11.0,1.0  C73.5,138.1,73.1,138.2,72.9,137.9" id="path117" fill="#F2C2B6"/>

<path d="M35.9,12.0c3.0,2.3,5.9,4.9,8.7,7.7c1.3,1.3,2.7,2.6,4.1,3.9  c1.3,1.2,2.7,2.7,4.5,3.2c-0.3-1.7-2.5-3.3-3.6-4.5c-1.3-1.3-2.9-2.6-4.4-3.8  C42.2,16.1,39.1,14.0,35.9,12.0" id="path119" fill="#F2C2B6"/>

<path d="M61.2,32.6c2.5,1.8,4.4,4.0,6.2,6.6c0.8,1.2,1.3,2.5,2.1,3.8  c0.6,1.1,1.2,2.8,0.9,4.1c-0.1,0.6-1.2,0.0-1.4-0.2c-0.5-0.6-1.0-1.2-1.5-1.8  c-0.9-1.1-1.5-2.5-2.3-3.8c-1.5-2.6-2.6-5.4-3.7-8.2C61.3,32.9,61.3,32.7,61.2,32.6" id="path121" fill="#F2C2B6"/>

<path d="M67.0,50.4c1.4,2.1,2.6,4.5,3.6,6.9c0.3,0.9,3.2,7.2,1.4,7.7  c-1.4,0.4-2.4-6.2-2.6-7.2c-0.2-1.2-0.8-2.3-1.1-3.6c-0.1-0.7-0.3-1.5-0.6-2.2  C67.5,51.5,67.0,50.9,67.0,50.4" id="path123" fill="#F2C2B6"/>

<path d="M72.4,51.4c1.4,1.8,3.3,2.4,5.2,3.5c0.9,0.5,1.8,1.0,2.8,1.6  c0.2,0.1,2.3,2.0,1.6,2.3c-1.6,0.8-4.5-1.7-5.7-2.7c-0.8-0.6-1.5-1.5-2.2-2.4  C73.6,53.2,72.5,52.2,72.4,51.4" id="path125" fill="#F2C2B6"/>

<path d="M37.7,59.7c0.4,0.5,0.5,1.1,0.7,1.8c0.2,0.7,0.8,1.2,1.0,1.9  c0.3,1.2,2.3,1.3,2.9,0.2c0.2-0.4,0.6-1.0,0.4-1.5c-0.2-0.4-1.2-0.2-1.7-0.2  c-0.6,0-1.5-0.1-2.0-0.6C38.7,60.8,38.2,59.8,37.7,59.7" id="path127" fill="#F2AA9D"/>

<path d="M43.0,65.2c1.4,1.0,3.5,2.3,5.4,2.3c0.4,0,0.9,0,1.3,0  c0.5,0,0.9-0.2,1.4-0.1c0.5,0.1,2.2,0.2,2.2,1.1c-0.0,1.2-4.6,0.0-5.2-0.1  c-1.0-0.4-2.1-0.7-3.0-1.4c-0.4-0.3-0.9-0.6-1.3-0.9C43.4,65.9,43.4,65.4,43.0,65.2" id="path129" fill="#F2AA9D"/>

<path d="M52.1,82.8c0.8-0.0,1.3-1.3,1.6-2.0c0.3-0.5,0.8-1.8,1.3-1.8  c0.5-0.0,1.7,0.8,2.2,1.1c0.7,0.3,2.2,0.5,2.9,0.4c0.1-0.0,0.9-0.3,0.9-0.1  c0,0.3-0.7,0.6-1.0,0.7c-0.8,0.3-1.8,0.7-2.7,0.9c-0.9,0.1-1.8,0.3-2.8,0.5  c-0.7,0.1-1.9,0.6-2.7,0.5C52.4,83.0,52.1,83.0,52.1,82.8" id="path131" fill="#F2C2B6"/>

<path d="M82.5,84.5c-0.2-1.2-0.1-3.2-0.8-4.3c-0.3-0.5-0.7-1.1-1.3-0.2  c-0.3,0.6-0.3,1.6-0.3,2.3c0,1.5,0.1,2.9,0.8,4.3c0.2,0.5,1.0,0.1,1.3-0.2  C82.5,85.9,82.5,85.1,82.5,84.5" id="path133" fill="#FFE6E6"/>

<path d="M73.1,91.3c-1.2-1.0-2.9-1.5-4.5-1.0c-0.6,0.2-1.3,0.8-1.3,1.5  c0,0.7,1.2,1.2,1.7,1.5c1.3,0.8,3.0,1.2,4.6,1.2c1.1,0,1.2-0.6,0.8-1.5  C74.3,92.6,73.6,91.3,73.1,91.3" id="path135" fill="#FFE6E6"/>

<path d="M82.9,141.1c-1.0,2.7-3.0,4.8-4.6,7.2c-1.5,2.5-2.6,5.1-3.5,8.0  c-1.7,5.9-3.0,11.9-4.6,17.8c-0.6,2.3-1.3,4.6-1.9,7.0c1.9-5.6,4.2-11.3,6.9-16.7  c1.3-2.7,2.5-5.5,3.4-8.5c0.8-2.7,1.3-5.6,2.1-8.4C81.4,145.4,82.1,143.3,82.9,141.1" id="path137" fill="#F0D5DC"/>

<path d="M66.5,191.0c-0.8,1-4.6,3.9-3.1,5.4c0.4,0.4,1.6-2.1,1.9-2.5  C65.6,193.5,66.8,191.4,66.5,191.0" id="path139" fill="#F0D5DC"/>

<path d="M60.7,201.5c-2.0,1.8-3.7,4.1-5.1,6.5c-1.3,2.4-2.7,4.8-3.5,7.4  c1.8-2.2,3.5-4.5,5.0-7.0C58.5,206.3,59.6,203.8,60.7,201.5" id="path141" fill="#F0D5DC"/>

<path d="M119.7,151.1c-1.7,1.7-1.5,4.7-1.1,6.9c0.4,2.5,1.3,5.0,2.3,7.4  c0.9,2.4,2.2,4.7,3.6,6.9c0.6,1.0,1.3,2.1,2.0,3.1c0.6,0.9,1.2,2.2,2.2,2.7  c0.1-0.9-0.8-2.6-1.1-3.5c-0.4-1.1-1.0-2.3-1.6-3.4c-1.1-2.2-2.1-4.2-2.7-6.6  c-0.6-2.3-0.6-4.9-1.0-7.3c-0.2-1.3-0.4-2.6-0.6-3.9c-0.0-0.4-0.3-1.0-0.5-1.4  C120.6,151.2,120.6,151.1,119.7,151.1" id="path143" fill="#F0D5DC"/>

<path d="M129.2,186.8c0,1.9,0.0,3.9,0.4,5.8c0.3,1.2,0.7,5.0,2.7,4.9  c1.5-0.0-0.8-4.3-1.2-5.1c-0.4-0.9-0.7-1.9-1.1-2.9C129.9,189.1,129.4,186.8,129.2,186.8" id="path145" fill="#F0D5DC"/>

<path d="M137.1,207.1c0.3,3.2,0.8,6.3,1.6,9.4c0.3,1.4,1.0,2.8,1.4,4.2  c0.3,1.0,0.8,3.6,2.0,4.0c0-1.5-0.5-3.0-1.0-4.5c-0.4-1.5-0.8-3.1-1.3-4.6  c-0.4-1.4-0.9-2.8-1.3-4.3C138.3,210.5,137.8,207.3,137.1,207.1" id="path147" fill="#F0D5DC"/>

<path d="M45.9,53.8c-0.2-0.2-1.2-0.4-0.7-0.9c0.5-0.5,1.0-1.1,1.6-1.5  c0.7-0.5,1.2-0.8,2.1-1.0c0.5-0.1,1.6,0.3,2.1,0.6c-1.3-0.2-2.2-0.2-3.3,0.5  c-0.4,0.2-0.5,0.4-0.7,0.8C46.7,52.6,46.3,53.7,45.9,53.8" id="path149" fill="#802626"/>

<path d="M44.3,56.6c-0.6,0.2-1.1,0.8-1.7,1.1c-0.6,0.3-0.7,1.4-1.1,2.0  c0.4-0.5,1.0-1.0,1.6-1.6c0.5-0.5,0.8-1.1,1.4-1.6C44.5,56.6,44.4,56.6,44.3,56.6" id="path151"/>

<path d="M44.3,57.3c0.0,0.7-1.3,2.0-2.0,2.1c0.3,0,0.6,0.0,0.9-0.1c0.2-0.1,0.2-0.4,0.5-0.5  C44.2,58.6,44.6,57.7,44.3,57.3" id="path153"/>

<path d="M43.5,58.0c-0.5-0.5-1.0,0.3-0.6,0.6C43.4,59.1,44.0,58.4,43.5,58.0" id="path155"/>

<path d="M78.1,141.0  c1.0,0,1.3-0.4,2.0-1.1c0.2-0.2,0.4-0.4,0.6-0.7c0.1-0.3,0.9-0.2,1.2-0.3  c1.8-0.6,3.8-0.7,5.7-1.2" id="path157" fill="none" stroke="#000000" stroke-width="0.1" stroke-linecap="square" stroke-miterlimit="10"/>

<path d="M80.0,134.2c-5.8,0-11.6-1.2-17.2-2.7c-2.8-0.7-5.3-2.1-8.0-3.1  c-1.3-0.5-2.6-1.0-4.0-1.4c-0.8-0.2-3.4-0.3-3.4-1.3c0-2.8,1.8-5.5,3.0-8.0  c1.2-2.6,2.8-5.3,3.6-8.1c0.3-1.2,0.6-3.0,1.7-3.8c0.5-0.4,0.9-1.0,1.5-1.4  c0.5-0.3,1.1-0.9,1.4-1.5c0.6-1.2,0.8-2.7,0.8-4.1c0-1.3,0.5-2.9,0.1-4.2  c-0.4-1.3-1.4-2.0-2.1-3.2c-0.2-0.4-0.2-0.7-0.6-1.0c-0.6-0.5-1.3-1.1-2.0-1.7  c-1.4-1.2-2.8-2.4-4.2-3.6c-0.1-0.1-1.6,1.0-1.8,1.2c-0.4,0.4-0.7,0.8-1.2,1.2  c-0.5,0.3-1.2,0.9-1.5,1.5c-0.3,0.6-0.7,1.1-1.0,1.8c-0.2,0.7-0.4,1.4-0.6,2.2  c-0.7,2.6-1.1,5.5-1.7,8.2c-0.6,2.7-0.3,5.8-1.4,8.4c-1.2,2.8-1.8,5.6-2.6,8.5  c-0.7,2.7-0.8,5.6-0.8,8.4c0,1.4,0.1,2.9,0.4,4.3c0.1,0.7,0.2,1.3,0.5,1.9  c0.1,0.3,1.5,0.7,1.9,0.8c5.6,2.3,11.8,3.2,17.6,4.7c5.7,1.4,11.6,2.1,17.4,2.9  c0.9,0.1,4.0,0.7,4.1-0.7c0.1-1.1,0.2-2.3,0.3-3.4C80.0,136.2,80.5,134.6,80.0,134.2" id="path159" fill="#FFCCCC"/>

<path d="M75.9,140.8c-1.1-0.2-1.4-1.5-0.6-2.3c0.9-1.0,1.3-1.8,1.3-3.2  c0-0.9-0.0-0.7-1.0-0.8c-0.9-0.0-1.9-0.1-2.8-0.2c-1.3-0.1-2.6-0.4-4-0.6  c-6.0-1.2-11.9-2.8-17.6-5.0c-1.3-0.5-2.8-1.0-4.1-1.7c-0.7-0.3-1.0-0.2-0.7-1.0  c0.3-1.0,0.7-2.0,1.1-3.1c0.9-2.7,1.7-5.5,2.5-8.3c1.5-5.7,2.9-11.6,4.2-17.4  c0.6-2.6,1.1-5.3,1.7-7.9c-0.6,0.2-1.1,0.5-1.7,0.7c-0.3,0.1-0.6,0.3-0.9,0.4  c-0.3,0.1-0.5,0.4-0.8,0.6c-1.4,0.7-1.8,1.8-1.6,3.3c0.1,1.3,0.2,2.9-0.1,4.2  c-0.5,1.5-1.2,2.3-2.3,3.5c-2.1,2.1-3.0,4.9-4.3,7.6c-1.1,2.6-2.3,5.6-2.6,8.5  c-0.0,0.4-0.0,1.4,0.4,1.7c0.6,0.3,1.3-0.6,1.7-1.0c0.9-0.9,1.3-2.5,2.0-3.7  c0.1-0.2,1.1-1.2,1.5-1.0c0.3,0.2,0.1,1.5,0.1,1.9c-0.4,1.4-0.9,2.7-1.6,4.1  c-0.6,1.2-1.7,2.3-2.8,3.1c-0.5,0.3-1.0,0.6-1.5,1.0c-0.3,0.2-1.5,0.8-1.6,1.2  c-0.4,1.3,0.3,2.7,1.0,3.8c0.4,0.6,2.9,1.8,2.8,2.6c-0.1,1.1-4.0,0.9-4.7,0.8  c5.7,2.3,11.8,3.5,17.9,5.1c5.8,1.5,12.0,2.0,18.0,2.9c0.5,0.0,1.0,0.1,1.5,0.2  C76.1,140.8,76.0,140.8,75.9,140.8" id="path161" fill="#F2C2B6"/>

<path d="M48.9,88.1c-3.0,0-3.6,3.4-4.2,5.8c-0.3,1.2-0.6,2.7-0.8,4.0  c-0.0,0.7-0.2,1.3-0.4,2.1c-0.1,0.5,0.0,1.5-0.3,2.0c0.4-0.3,0.4-1.0,0.7-1.5  c0.3-0.6,0.5-1.2,0.8-1.8c0.7-1.3,1.4-2.5,2.5-3.6c0.5-0.5,1.0-1.0,1.5-1.6  c0.4-0.5,0.5-1.0,0.8-1.6C49.9,90.8,50.2,88.5,48.9,88.1" id="path163" fill="#F2C2B6"/>

<path d="M42.5,105.8c-1.5,6.9-4.9,13.5-4.2,20.7c0.5-3.5,1.5-6.9,2.5-10.3  c0.5-1.8,0.8-3.7,1.3-5.6C42.3,109.8,43.2,106.5,42.5,105.8" id="path165" fill="#F2C2B6"/>

<path d="M96.1,73.5c2.0,2.0,3.4,4.4,5.0,6.9c1.6,2.4,3.4,4.8,4.9,7.3  c3.1,5.1,4.4,11.2,6.9,16.7c1.1,2.6,2.9,4.9,4.9,6.9c1.0,1.0,2.2,1.9,3.1,3.0  c0.5,0.6,2.5,2.1,2.3,3.1c-0.4,3.2-1.1,6.3-1.9,9.4c-0.7,2.9-1.9,5.6-3.0,8.4  c-1.0,2.8-2.6,5.6-4.4,8.1c-0.8,1.2-1.5,2.4-1.9,3.8c-0.2,0.7-0.5,1.2-0.7,2.0  c-0.0,0.3-0.3,0.5-0.3,0.8c0,0.4-0.0,0.8-0.1,1.2c-1.1-0.5-2.1-1.1-3.4-1.1  c-1.3,0-2.5,0.1-3.8,0.6c-0.7-2.3-1.5-4.5-3.3-6.3c-1.9-1.9-3.9-3.4-6.4-4.7  c-4.2-2.2-9.6-2.8-14.3-2.2c0-3.0-0.3-6.0-0.3-9.0c0-1.3,0-2.6,0-4.0c0-1.3,0.3-2.6,0.3-3.9  c0-1.1-1.3-2.5-2.0-3.4c-0.9-1.2-1.9-2.2-3.1-3.2c-2.2-1.9-4.6-3.5-7.1-5.0  c-1.1-0.6-2.1-1.3-3.0-2.2c-0.9-0.9-1.5-1.4-1.6-2.7c-0.0-1.5-0.1-2.6-0.5-4.1  c-0.4-1.4-0.9-2.7-1.6-4.1c-1.0-2.2-2.8-4.1-4.6-5.9c-1.8-1.8-3.8-3.7-6.2-4.9  c0.5-0.6,1.1-1.2,1.6-1.8c0.4-0.4,1.4,0.6,1.8,0.9c1.1,0.8,2.3,1.6,3.4,2.5  c2.2,1.8,4.5,3.6,6.9,5.3c2.3,1.6,5.1,3.1,8.1,3.1c3.1,0,5.5-1.5,7.8-3.5  c1.9-1.6,3.9-4.1,3.9-6.8c0-2.6-0.9-6.2-2.7-8.2c-0.9-1.1-1.8-2.3-2.9-3.4  c-1.0-1.0-2.3-1.9-3.5-2.9c-1.1-0.9-2.0-1.6-2.9-2.8c-0.9-1.1-1.7-2.3-2.1-3.8  c-0.1-0.5-0.6-1.2-0.7-1.7c-0.1-0.7-0.2-1.4-0.3-2.1c0.5,1.3,0.9,2.8,1.8,3.9  c0.9,1.2,1.9,2.2,3.1,3.2c2.0,1.6,5.0,2.0,7.2,3.3c1.1,0.6,2.3,1.3,3.5,1.9  c1.3,0.6,2.8,1.0,4.2,1.4c2.6,0.7,5.8,0.4,8.5,0.2C96.2,73.6,96.1,73.6,96.1,73.5" id="path167" fill="#FF7F00"/>

<path d="M96.1,73.5  c2.0,2.0,3.4,4.4,5.0,6.9c1.6,2.4,3.4,4.8,4.9,7.3c3.1,5.1,4.4,11.2,6.9,16.7  c1.1,2.6,2.9,4.9,4.9,6.9c1.0,1.0,2.2,1.9,3.1,3.0c0.5,0.6,2.5,2.1,2.3,3.1  c-0.4,3.2-1.1,6.3-1.9,9.4c-0.7,2.9-1.9,5.6-3.0,8.4c-1.0,2.8-2.6,5.6-4.4,8.1  c-0.8,1.2-1.5,2.4-1.9,3.8c-0.2,0.7-0.5,1.2-0.7,2.0c-0.0,0.3-0.3,0.5-0.3,0.8  c0,0.4-0.0,0.8-0.1,1.2c-1.1-0.5-2.1-1.1-3.4-1.1c-1.3,0-2.5,0.1-3.8,0.6  c-0.7-2.3-1.5-4.5-3.3-6.3c-1.9-1.9-3.9-3.4-6.4-4.7c-4.2-2.2-9.6-2.8-14.3-2.2  c0-3.0-0.3-6.0-0.3-9.0c0-1.3,0-2.6,0-4.0c0-1.3,0.3-2.6,0.3-3.9c0-1.1-1.3-2.5-2.0-3.4  c-0.9-1.2-1.9-2.2-3.1-3.2c-2.2-1.9-4.6-3.5-7.1-5.0c-1.1-0.6-2.1-1.3-3.0-2.2  c-0.9-0.9-1.5-1.4-1.6-2.7c-0.0-1.5-0.1-2.6-0.5-4.1c-0.4-1.4-0.9-2.7-1.6-4.1  c-1.0-2.2-2.8-4.1-4.6-5.9c-1.8-1.8-3.8-3.7-6.2-4.9c0.5-0.6,1.1-1.2,1.6-1.8  c0.4-0.4,1.4,0.6,1.8,0.9c1.1,0.8,2.3,1.6,3.4,2.5c2.2,1.8,4.5,3.6,6.9,5.3  c2.3,1.6,5.1,3.1,8.1,3.1c3.1,0,5.5-1.5,7.8-3.5c1.9-1.6,3.9-4.1,3.9-6.8  c0-2.6-0.9-6.2-2.7-8.2c-0.9-1.1-1.8-2.3-2.9-3.4c-1.0-1.0-2.3-1.9-3.5-2.9  c-1.1-0.9-2.0-1.6-2.9-2.8c-0.9-1.1-1.7-2.3-2.1-3.8c-0.1-0.5-0.6-1.2-0.7-1.7  c-0.1-0.7-0.2-1.4-0.3-2.1c0.5,1.3,0.9,2.8,1.8,3.9c0.9,1.2,1.9,2.2,3.1,3.2  c2.0,1.6,5.0,2.0,7.2,3.3c1.1,0.6,2.3,1.3,3.5,1.9c1.3,0.6,2.8,1.0,4.2,1.4  c2.6,0.7,5.8,0.4,8.5,0.2" id="path169" fill="none" stroke="#000000" stroke-width="0.1" stroke-linecap="square" stroke-miterlimit="10"/>

<path d="M79.7,124.9c-0.4,1.0-1.5,1.9-2.0,2.9c-0.2,0.4-0.6,0.8-0.8,1.2  c-0.1,0.5,0,1.5,0,2.1c0,2.7-0.5,5.7,0.0,8.4c0.4,1.7,2.0,1.4,3.0,0.4  c0.1-0.1,0.2-0.4,0.3-0.6c0.1-0.2,0.3-0.2,0.5-0.5c0.1-0.3,1.5-0.4,1.9-0.5  c1.3-0.3,2.9-0.8,4.2-0.8c1.1,0,2.4-1.2,1.1-2.0c-1.1-0.6-2.2-0.1-3.4-0.1  c-0.9,0-1.9,0.4-2.8,0.3c0.7-0.3,1.4-0.6,2.1-1.1c0.6-0.4,1.9-0.5,2.6-0.7  c1.0-0.2,4.1-0.5,4.6-1.7c0.8-1.7-3.6-0.8-4.2-0.8c-1.8,0-3.5,0.5-5.3,0.5  c1.2-0.6,2.5-0.9,3.8-1.3c1.3-0.4,2.8-0.4,4.1-0.8c0.4-0.1,1.6-0.4,1.7-0.9  c0.2-0.8-1.1-0.9-1.6-1.0c-1.3-0.2-2.8,0.0-4.1,0.3c-0.7,0.1-1.4,0.2-2.1,0.4  c-0.6,0.1-1.4,0.0-2.0,0.3c-0.5,0.2-0.9-0.0-0.5-0.5c0.3-0.3,0.8-0.8,1.3-1.1  c0.5-0.2,0.8-0.6,1.4-0.8c0.7-0.2,1.4-0.5,2.2-0.5c0.6,0,3.6-0.9,2.5-1.9  c-1.0-1.0-3.4-0.2-4.7-0.2c-1.1,0-3.3,0.5-4.1,1.5C79.7,125.0,79.7,125.0,79.7,124.9" id="path171" fill="#FFCCCC"/>

<path d="M79.7,124.9  c-0.4,1.0-1.5,1.9-2.0,2.9c-0.2,0.4-0.6,0.8-0.8,1.2c-0.1,0.5,0,1.5,0,2.1  c0,2.7-0.5,5.7,0.0,8.4c0.4,1.7,2.0,1.4,3.0,0.4c0.1-0.1,0.2-0.4,0.3-0.6  c0.1-0.2,0.3-0.2,0.5-0.5c0.1-0.3,1.5-0.4,1.9-0.5c1.3-0.3,2.9-0.8,4.2-0.8  c1.1,0,2.4-1.2,1.1-2.0c-1.1-0.6-2.2-0.1-3.4-0.1c-0.9,0-1.9,0.4-2.8,0.3  c0.7-0.3,1.4-0.6,2.1-1.1c0.6-0.4,1.9-0.5,2.6-0.7c1.0-0.2,4.1-0.5,4.6-1.7  c0.8-1.7-3.6-0.8-4.2-0.8c-1.8,0-3.5,0.5-5.3,0.5c1.2-0.6,2.5-0.9,3.8-1.3  c1.3-0.4,2.8-0.4,4.1-0.8c0.4-0.1,1.6-0.4,1.7-0.9c0.2-0.8-1.1-0.9-1.6-1.0  c-1.3-0.2-2.8,0.0-4.1,0.3c-0.7,0.1-1.4,0.2-2.1,0.4c-0.6,0.1-1.4,0.0-2.0,0.3  c-0.5,0.2-0.9-0.0-0.5-0.5c0.3-0.3,0.8-0.8,1.3-1.1c0.5-0.2,0.8-0.6,1.4-0.8  c0.7-0.2,1.4-0.5,2.2-0.5c0.6,0,3.6-0.9,2.5-1.9c-1.0-1.0-3.4-0.2-4.7-0.2  c-1.1,0-3.3,0.5-4.1,1.5" id="path173" fill="none" stroke="#000000" stroke-width="0.1" stroke-linecap="square" stroke-miterlimit="10"/>

<path d="M81.0,128.8c-1.0-0.0,1.3-1.7,1.6-1.9c0.7-0.8,2.6-1.0,3.5-1.0  c-0.8,0-1.9-0.1-2.7,0.1c-0.8,0.3-1.7,0.6-2.5,1.2c-0.4,0.3-1.3,1.2-1.0,1.7  c0.2,0.3,0.9,0.1,1.3,0C81.1,128.8,81.1,128.8,81.0,128.8" id="path175" fill="#666666"/>

<path d="M77.6,128.5c0,0.5-0.0,0.8,0.2,1.2c0.2,0.4,0.3,0.7,0.2,1.2  c-0.0,0.2-0.4,0.9-0.2,1.0c0.1,0.1,0.3,0.6,0.4,0.9c0.0,1.1-0.9,1.7-0.3,2.9  c0.4,0.8,0.8,1.4,0.4,2.3c-0.0,0.1-0.6,0.9-0.7,0.9c-0.4,0.0-0.3-0.7-0.4-1.0  c-0.2-1.0,0.0-2.1-0.1-3.1C76.7,133.0,76.9,130.5,77.6,128.5" id="path177" fill="#FFE6E6"/>

<path d="M78.0,140.8c1.0,0.1,1.5-0.8,2.1-1.4c0.7-0.7,1.4-0.9,2.5-1.1  c1.1-0.2,2.2-0.4,3.2-0.7c0.8-0.2,2.1-0.2,2.5-1.0c-0.1-0.2-0.3-0.6-0.6-0.6  c0-0.0,0-0.1,0-0.1c0.0,0.2,0.1,0.4,0.3,0.6c-0.2,0.5-1.8,0.7-2.5,0.8  c-1.1,0.1-2.2,0.3-3.3,0.5c-0.4,0.1-1.1,0.2-1.6,0.2c-0.6,0-0.6,0.2-0.8,0.6  C79.4,139.2,78.8,141.0,78.0,140.8" id="path179" fill="#595959"/>

<path d="M49.4,84.9  c-0.7,1.1-2.0,1.9-3.0,2.8c-1.0,1.0-1.6,2.2-2.0,3.6c-0.8,2.8-1.3,5.7-1.9,8.7  c-0.2,1.3-0.5,2.7-0.7,4.1c-0.1,1.3-0.1,2.7-0.6,4.0c-0.4,1.4-1.1,2.9-1.6,4.4  c-0.4,1.3-0.6,2.6-0.9,3.9c-0.7,2.8-1.1,5.8-1.1,8.8c0,1.4,0.1,2.7,0.3,4.1  c0.0,0.6,0.2,1.3,0.3,2.0c0.1,0.8,0.8,0.9,1.5,1.2c5.4,2.3,11.4,3.2,17.2,4.7  c3.9,0.9,7.9,1.7,11.9,2.2c1.8,0.2,3.6,0.6,5.5,0.8c1.5,0.2,4.2,0.9,5.3-0.3" id="path181" fill="none" stroke="#000000" stroke-width="0.1" stroke-linecap="square" stroke-miterlimit="10"/>

<path d="M76.6,134.0  c-2.7,0-5.6-0.6-8.3-1.1c-2.8-0.5-5.9-1.0-8.5-2.3c-2.6-1.3-5.4-2.2-8.1-3.3  c-1.3-0.5-2.8-0.7-4.1-1.0c-0.8-0.1,0.1-2.8,0.3-3.2c0.8-2.0,1.8-4.0,2.7-6.0  c0.8-1.7,1.5-3.6,2.4-5.4c0.9-1.8,1.1-3.9,2.4-5.6c0.8-1.1,3.7-2.7,3.4-4.4" id="path183" fill="none" stroke="#000000" stroke-width="0.1" stroke-linecap="square" stroke-miterlimit="10"/>


  
</svg>
