<?xml version="1.0" encoding="UTF-8"?>
<!DOCTYPE svg PUBLIC "-//W3C//DTD SVG 1.0//EN" "../../SVGTiny/REC-SVG-20010904/DTD/svg10.dtd">
<svg xmlns="http://www.w3.org/2000/svg" xmlns:xlink="http://www.w3.org/1999/xlink" enable-background="new 0 0 470.459 547.583" height="450.00000pt" id="svg1" overflow="visible" space="preserve" version="1.0" viewBox="0 0 470.459 547.583" width="385.00000pt">
  
  <defs id="defs104"/>
  <g transform="matrix(0.989101,0,0,0.989101,2.161069,4.442648)">
    <path d="M 287.5,298.9 C 320.8,211.4 77.7,199.3 68.8,330.1 C 62.5,421.8 31.3,467.6 95.8,519.7 C 158.8,570.5 285.4,551.0 297.9,467.6 C 310.4,384.3 283.3,405.1 272.9,373.9 C 262.5,342.6 287.5,298.9 287.5,298.9 z " id="path69"/>
    <path d="M 434.7,341.5 C 503.2,315.0 464.5,255.8 392.4,292.6 C 341.1,318.8 324.3,349.9 316.2,364.1 C 285.5,417.6 347.4,466.0 362.4,418.3 C 379.4,364.3 434.7,341.5 434.7,341.5 z " id="path71"/>
    <path d="M 354.2,109.3 C 384.3,54.2 332.2,27.1 302.1,82.2 C 271.9,137.3 269.3,128.2 253.9,180.5 C 238.5,232.8 278.2,240.6 301.5,196.2 C 324.9,151.8 354.2,109.3 354.2,109.3 z " id="path73"/>
    <path d="M 238.2,52.9 C 256.3,-7.3 185.5,-28.6 177.8,55.1 C 170.8,130.1 172.2,96.9 176.8,159.6 C 181.3,219.7 235.4,244.7 230.7,153.7 C 226.4,71.6 238.2,52.9 238.2,52.9 z " id="path75"/>
    <path d="M 120.8,73.9 C 109.7,8.7 51.4,35.2 68.9,90.1 C 86.5,145.0 81.1,145.5 110.0,197.2 C 135.4,242.6 181.3,236.4 153.8,172.3 C 129.5,115.6 120.8,73.9 120.8,73.9 z " id="path77"/>
    <path d="M 45.8,136.4 C 27.1,92.6 -16.6,115.6 6.5,166.8 C 26.2,210.1 36.6,211.8 61.1,237.4 C 95.8,273.9 120.8,240.6 92.1,207.7 C 54.7,164.9 45.8,136.4 45.8,136.4 z " id="path79"/>
  </g>
</svg>
