<?xml version="1.0" encoding="UTF-8" standalone="no"?>
<!-- Created with Sodipodi ("http://www.sodipodi.com/") -->
<svg xmlns="http://www.w3.org/2000/svg" xmlns:sodipodi="http://sodipodi.sourceforge.net/DTD/sodipodi-0.dtd" xmlns:xlink="http://www.w3.org/1999/xlink" height="400pt" id="svg548" sodipodi:docbase="/home/nicu/svg_gal/clock" sodipodi:docname="/home/nicu/svg_gal/clock/clock08.svg" sodipodi:version="0.32" width="400pt">
  
  <defs id="defs550"/>
  <sodipodi:namedview id="base" showgrid="true"/>
  <path d="M 487.1 224.6 A 211.8 211.8 0 1 0 63.4,224.6 A 211.8 211.8 0 1 0 487.1 224.6 L 275.3 224.6 z" id="path558" sodipodi:cx="275.333405" sodipodi:cy="224.666611" sodipodi:rx="211.851700" sodipodi:ry="211.851700" sodipodi:type="arc" transform="matrix(1.121161,0.000000,0.000000,1.117679,-57.20745,-0.602798)" fill-rule="evenodd" stroke="none" fill="#000000" fill-opacity="1" stroke-opacity="1" stroke-width="1pt" stroke-linejoin="miter" stroke-linecap="butt"/>
  <path d="M 487.1 224.6 A 211.8 211.8 0 1 0 63.4,224.6 A 211.8 211.8 0 1 0 487.1 224.6 L 275.3 224.6 z" id="path551" sodipodi:cx="275.333405" sodipodi:cy="224.666611" sodipodi:rx="211.851700" sodipodi:ry="211.851700" sodipodi:type="arc" transform="matrix(1.097561,0.000000,0.000000,1.094077,-51.95920,4.699669)" fill-rule="evenodd" stroke="none" fill="#0000ff" fill-opacity="1" stroke-opacity="1" stroke-width="1pt" stroke-linejoin="miter" stroke-linecap="butt"/>
  <path d="M 422.9 255.6 A 158.7 149.1 0 1 0 105.5,255.6 A 158.7 149.1 0 1 0 422.9 255.6 L 264.2 255.6 z" id="path553" sodipodi:cx="264.261017" sodipodi:cy="255.669296" sodipodi:rx="158.704224" sodipodi:ry="149.108170" sodipodi:type="arc" transform="matrix(1.260466,0.000000,0.000000,1.353960,-81.37948,-96.03298)" fill-rule="evenodd" stroke="none" fill="#ffffff" fill-opacity="1" stroke-opacity="1" stroke-width="1pt" stroke-linejoin="miter" stroke-linecap="butt"/>
  <path d="M 266.4 244.5 A 16.2 16.2 0 1 0 233.9,244.5 A 16.2 16.2 0 1 0 266.4 244.5 L 250.2 244.5 z" id="path555" sodipodi:cx="250.235992" sodipodi:cy="244.596893" sodipodi:rx="16.239502" sodipodi:ry="16.239502" sodipodi:type="arc" transform="matrix(1.022727,0.000000,0.000000,1.000000,-6.056290,-0.738144)" fill-rule="evenodd" stroke="none" fill="#000000" fill-opacity="1" stroke-opacity="1" stroke-width="1pt" stroke-linejoin="miter" stroke-linecap="butt"/>
  <path d="M 262.0 245.3 A 10.7 10.3 0 1 0 240.6,245.3 A 10.7 10.3 0 1 0 262.0 245.3 L 251.3 245.3 z" id="path556" sodipodi:cx="251.343231" sodipodi:cy="245.335052" sodipodi:rx="10.703308" sodipodi:ry="10.334229" sodipodi:type="arc" transform="matrix(1.310344,0.000000,0.000000,1.346886,-79.84822,-86.47350)" fill-rule="evenodd" stroke="none" fill="#0000ff" fill-opacity="1" stroke-opacity="1" stroke-width="1pt" stroke-linejoin="miter" stroke-linecap="butt"/>
  <path d="M 235.2 246.4 C 232.5 236.9 243.7 226.9 252.6 229.9 C 256.9 235.4 240.3 249.0 235.2 246.4 z " id="path557" sodipodi:nodetypes="ccc" fill="#ffffff" fill-rule="evenodd" stroke="none" stroke-opacity="1" stroke-width="1pt" stroke-linejoin="miter" stroke-linecap="butt" fill-opacity="0.5"/>
  <path d="M 37.8 343.7 C 6.2 266.2 12.5 191.2 52.5 127.5 C 91.2 76.2 144.7 12.1 272.5 19.1 C 144.6 20.5 81.2 101.2 60 136.2 C 41.2 170 9.1 217.5 37.8 343.7 z " id="path559" sodipodi:nodetypes="ccccc" fill="#ffffff" fill-rule="evenodd" stroke="none" stroke-opacity="1" stroke-width="1pt" stroke-linejoin="miter" stroke-linecap="butt" fill-opacity="0.5"/>
  <path d="M 253.7 453.7 C 331.2 437.5 426.2 371.2 435 327.5 C 451.2 273.7 315 212.5 413.7 128.7 C 477.5 212.5 458.3 304.7 450 325 C 439.9 351.3 390 452.5 253.7 453.7 z " id="path560" sodipodi:nodetypes="ccccc" fill="#ffffff" fill-rule="evenodd" stroke="none" stroke-opacity="1" stroke-width="1pt" stroke-linejoin="miter" stroke-linecap="butt" fill-opacity="0.496296"/>
  <path d="M 122.0 405.1 C 53.6 346.6 42.0 248.4 56.0 202.2 C 78.3 147.8 112.1 45.5 277.9 48.0 C 117.9 30.7 56.0 167.6 48.6 200.6 C 40.4 217.1 25.5 321.8 122.0 405.1 z " id="path561" sodipodi:nodetypes="ccccc" fill="#000000" fill-rule="evenodd" stroke="none" stroke-opacity="1" stroke-width="1pt" stroke-linejoin="miter" stroke-linecap="butt" fill-opacity="0.25"/>
  <path d="M 216.2 483.7 C 283.7 492.5 420 462.5 461.2 355 C 523.7 211.2 463.7 152.5 422.5 88.7 C 495 195 487.5 285 452.5 352.5 C 412.5 430 338.7 481.2 216.2 483.7 z " id="path562" sodipodi:nodetypes="ccccc" fill="#000000" fill-rule="evenodd" stroke="none" stroke-opacity="1" stroke-width="1pt" stroke-linejoin="miter" stroke-linecap="butt" fill-opacity="0.247059"/>
  <path d="" id="path597" sodipodi:nodetypes="c" fill="none" fill-rule="evenodd" stroke="black" stroke-opacity="1" stroke-width="1pt" stroke-linejoin="miter" stroke-linecap="butt" fill-opacity="1"/>
  <path d="M 243.1 49.9 L 255 49.9 L 255 74.9 L 243.1 74.3 L 243.1 49.9 z " id="path601" sodipodi:nodetypes="ccccc" fill="#0000ff" fill-rule="evenodd" stroke="black" stroke-opacity="1" stroke-width="1pt" stroke-linejoin="miter" stroke-linecap="butt" fill-opacity="1"/>
  <path d="M 243.1 49.9 L 255 49.9 L 255 74.9 L 243.1 74.3 L 243.1 49.9 z " id="path602" sodipodi:nodetypes="ccccc" transform="translate(1.875000,375.6251)" fill="#0000ff" fill-rule="evenodd" stroke="black" stroke-opacity="1" stroke-width="1pt" stroke-linejoin="miter" stroke-linecap="butt" fill-opacity="1"/>
  <path d="M 243.1 49.9 L 255 49.9 L 255 74.9 L 243.1 74.3 L 243.1 49.9 z " id="path603" sodipodi:nodetypes="ccccc" transform="matrix(6.123032e-17,1.000000,-1.000000,6.123032e-17,499.6874,-4.062691)" fill="#0000ff" fill-rule="evenodd" stroke="black" stroke-opacity="1" stroke-width="1pt" stroke-linejoin="miter" stroke-linecap="butt" fill-opacity="1"/>
  <path d="M 243.1 49.9 L 255 49.9 L 255 74.9 L 243.1 74.3 L 243.1 49.9 z " id="path604" sodipodi:nodetypes="ccccc" transform="matrix(6.123032e-17,1.000000,-1.000000,6.123032e-17,128.4374,-3.437691)" fill="#0000ff" fill-rule="evenodd" stroke="black" stroke-opacity="1" stroke-width="1pt" stroke-linejoin="miter" stroke-linecap="butt" fill-opacity="1"/>
  <path d="M 243.1 49.9 L 255 49.9 L 255 74.9 L 243.1 74.3 L 243.1 49.9 z " id="path605" sodipodi:nodetypes="ccccc" transform="matrix(0.841496,0.540263,-0.540263,0.841496,171.9937,-97.77775)" fill="#0000ff" fill-rule="evenodd" stroke="black" stroke-opacity="1" stroke-width="1pt" stroke-linejoin="miter" stroke-linecap="butt" fill-opacity="1"/>
  <path d="M 243.1 49.9 L 255 49.9 L 255 74.9 L 243.1 74.3 L 243.1 49.9 z " id="path606" sodipodi:nodetypes="ccccc" transform="matrix(0.841496,0.540263,-0.540263,0.841496,-28.00635,217.8473)" fill="#0000ff" fill-rule="evenodd" stroke="black" stroke-opacity="1" stroke-width="1pt" stroke-linejoin="miter" stroke-linecap="butt" fill-opacity="1"/>
  <path d="M 243.1 49.9 L 255 49.9 L 255 74.9 L 243.1 74.3 L 243.1 49.9 z " id="path607" sodipodi:nodetypes="ccccc" transform="matrix(-0.540263,0.841496,-0.841496,-0.540263,283.2587,-28.48759)" fill="#0000ff" fill-rule="evenodd" stroke="black" stroke-opacity="1" stroke-width="1pt" stroke-linejoin="miter" stroke-linecap="butt" fill-opacity="1"/>
  <path d="M 243.1 49.9 L 255 49.9 L 255 74.9 L 243.1 74.3 L 243.1 49.9 z " id="path608" sodipodi:nodetypes="ccccc" transform="matrix(-0.540263,0.841496,-0.841496,-0.540263,597.6337,172.1375)" fill="#0000ff" fill-rule="evenodd" stroke="black" stroke-opacity="1" stroke-width="1pt" stroke-linejoin="miter" stroke-linecap="butt" fill-opacity="1"/>
  <path d="M 243.1 49.9 L 255 49.9 L 255 74.9 L 243.1 74.3 L 243.1 49.9 z " id="path609" sodipodi:nodetypes="ccccc" transform="matrix(0.492743,0.870175,-0.870175,0.492743,345.7437,-86.97800)" fill="#0000ff" fill-rule="evenodd" stroke="black" stroke-opacity="1" stroke-width="1pt" stroke-linejoin="miter" stroke-linecap="butt" fill-opacity="1"/>
  <path d="M 243.1 49.9 L 255 49.9 L 255 74.9 L 243.1 74.3 L 243.1 49.9 z " id="path611" sodipodi:nodetypes="ccccc" transform="matrix(0.492743,0.870175,-0.870175,0.492743,14.49365,81.14708)" fill="#0000ff" fill-rule="evenodd" stroke="black" stroke-opacity="1" stroke-width="1pt" stroke-linejoin="miter" stroke-linecap="butt" fill-opacity="1"/>
  <path d="M 243.1 49.9 L 255 49.9 L 255 74.9 L 243.1 74.3 L 243.1 49.9 z " id="path612" sodipodi:nodetypes="ccccc" transform="matrix(-0.870175,0.492743,-0.492743,-0.870175,414.3779,14.43645)" fill="#0000ff" fill-rule="evenodd" stroke="black" stroke-opacity="1" stroke-width="1pt" stroke-linejoin="miter" stroke-linecap="butt" fill-opacity="1"/>
  <path d="M 243.1 49.9 L 255 49.9 L 255 74.9 L 243.1 74.3 L 243.1 49.9 z " id="path613" sodipodi:nodetypes="ccccc" transform="matrix(-0.870175,0.492743,-0.492743,-0.870175,586.2529,347.5615)" fill="#0000ff" fill-rule="evenodd" stroke="black" stroke-opacity="1" stroke-width="1pt" stroke-linejoin="miter" stroke-linecap="butt" fill-opacity="1"/>
  <g id="g616">
    <path d="M 235.8 227.6 C 244.0 221.3 257.0 223.1 261.9 227.6 C 273.2 200.0 253.3 91.5 249.0 79.4 C 244.0 89.4 222.6 200.6 235.8 227.6 z " id="path614" sodipodi:nodetypes="cccc" fill="#0000ff" fill-rule="evenodd" stroke="black" stroke-opacity="1" stroke-width="1pt" stroke-linejoin="miter" stroke-linecap="butt" fill-opacity="1"/>
    <path d="M 236.1 223.0 C 228.5 202.3 245.3 88.6 248.6 89.2 C 248.6 107.1 256.2 237.2 236.1 223.0 z " id="path615" sodipodi:nodetypes="ccc" fill="#ffffff" fill-rule="evenodd" stroke="none" stroke-opacity="1" stroke-width="1pt" stroke-linejoin="miter" stroke-linecap="butt" fill-opacity="0.498039"/>
  </g>
  <g id="g624" transform="matrix(0.475325,0.879810,-0.879810,0.475325,345.2252,-94.48048)">
    <path d="M 235.8 227.6 C 244.0 221.3 257.0 223.1 261.9 227.6 C 273.2 200.0 253.3 91.5 249.0 79.4 C 244.0 89.4 222.6 200.6 235.8 227.6 z " id="path620" sodipodi:nodetypes="cccc" transform="matrix(-1.259055,1.458564e-2,-6.503069e-3,-0.561417,567.7497,386.7605)" font-size="12" fill="#0000ff" fill-rule="evenodd" stroke="#000000" stroke-width="1pt"/>
    <path d="M 236.1 223.0 C 228.5 202.3 245.3 88.6 248.6 89.2 C 248.6 107.1 256.2 237.2 236.1 223.0 z " id="path621" sodipodi:nodetypes="ccc" transform="matrix(1.259055,1.458564e-2,6.503069e-3,-0.561417,-60.53352,389.2605)" font-size="12" fill="#ffffff" fill-opacity="0.498039" fill-rule="evenodd" stroke-width="1pt"/>
  </g>
</svg>
