<?xml version="1.0" encoding="UTF-8" standalone="no"?>
<!-- Generator: Adobe Illustrator 12.0.0, SVG Export Plug-In . SVG Version: 6.00 Build 51448)  -->
<svg xmlns="http://www.w3.org/2000/svg" xmlns:cc="http://web.resource.org/cc/" xmlns:dc="http://purl.org/dc/elements/1.1/" xmlns:inkscape="http://www.inkscape.org/namespaces/inkscape" xmlns:rdf="http://www.w3.org/1999/02/22-rdf-syntax-ns#" xmlns:sodipodi="http://inkscape.sourceforge.net/DTD/sodipodi-0.dtd" xmlns:svg="http://www.w3.org/2000/svg" height="194.568" id="Layer_1" version="1.0" viewBox="0 0 199.208 194.568" width="199.208" xml:space="preserve" overflow="visible" enable-background="new 0 0 199.208 194.568">
<defs id="defs104"/>


<path d="M118.3,84.9c4.2,0.5,9.4-0.7,10.1-5.2c0.6-4.4-1.6-9.0-1.6-13.6c0-3.3-1.3-10.4,0.1-13.3  c1.6-3.3,4.4,2.3,6.6,0.6c0.8,1.3,1.4,0.8,1.8,2.9c0.4,2.9,0.6,5.8,0.7,8.8  c0.0,3.2-1.5,15.9,1.5,17.8c5.4,3.3,8.1-9.0,8.5-11.6c0.7-6.5-0.6-13.1-0.9-19.7  c2.0,0.3,4.1-0.1,6.1,0.4c4.0,1.1,2.6,9.5,2.4,12.6c-0.1,2.4-0.3,5.0,0.1,7.5  c0.3,1.6,2.1,4.3,2.1,5.3c0,1.0,0.6,4.7,1.6,5.5c2.0,1.6,6.7-1.0,9.6,0.5  c1.5,0.8,3.1,2.1,4.8,2.5c2.1,0.5,4.2,0.5,5.8,2.3c4.0,4.5-0.8,7.5-4.2,9.8  c-4.9,3.2-4.6,7.2-3.1,12.5c1.2,4.5,3.4,12.1,8.2,13.7c1.7,0.5,4.7,0.3,4.6,3.1  c-0.1,2.6-4.2,3.1-5.6,4.5c-2.9,2.9-2.8,4.2-1.4,8.5c0.7,2.4,2.0,4.8,2.1,7.4  c0.0,0.7-1.6,1.9,0.0,2.8c3.4,1.7,7.2,3.0,10.5,5.1c2.1,1.3,3.9,3.0,6.0,4.2  c1.7,1.0,3.2,2.5,3.2,4.7c0,2.3,0.9,4.9,0.8,7.2c-0.2,5.3-7.9,10.1-12.7,11.4  c-11.2,3.0-23.2,2.7-34.5,5.9c-5.1,1.4-9.6,1.5-14.6,1.2c-2.5-0.1-5.1,0.6-7.7,0.6  c-5.0,0-10.6,1.6-15.6,2.6c-2.4,0.4-3.4,0.5-5.8-0.1c-2.0-0.5-3.9-0.9-6-1.1  c-4.0-0.3-7.9,0.3-12,0.3c4.7-18.0,9.4-36.1,14.2-54.1c3.2-12.5,6.5-25.0,9.8-37.6  C115.5,96.2,118.0,90.2,118.3,84.9" id="path3"/>

<path d="M90.0,193.3c-1.7-0.1-3.2-1.7-5-1.6c-1.5,0.0-3.0,1.3-4.8,1.2c-1.4-0.0-2.3-1.0-3.5-1.2  c-2.6-0.5-5.6,0.2-8.3,0c-4.1-0.3-8.6-1.0-12.6-2.0c-2.1-0.5-4.1-1.1-6.1-1.9  c-1.5-0.6-3.2-2.2-4.7-2.5c-2.3-0.4-2.5-0.2-4.5,0.0c-3.4,0.4-7.2-0.4-10.2,1.6  c-0.6-4.5-9.6,1.6-11.6,1.6c0.1-0.5-0.1-1.1,0-1.6c-1.3,0.6-3.0,1.5-4.6,0.8  c-0.7-0.3-0.9-1.2-1.6-1.6c-0.8-0.4-1.8-0.7-2.6-1.3c-2.4-1.9-1.4-3.5-4.8-1.8  c-2.1,1.1-3.9,4.0-4.8,0.6c-0.6-2.5,1.9-5.3,3.9-7.1c2.5-2.2,7.8-6.8,11.6-4.5c0.9,0.5,0.9,2.0,1.7,2.6  c1.6,1.0,2.7-0.2,4.7,0.1c3.8,0.7,5.3,4.7,8.5,4.1c4.7-0.9,0.5-8.3,1.1-11.5  c2.4-12.4,19.7-5.6,24.5-15.2c1.1-2.3,1.7-9.5,0.1-11.6c-0.6-0.7-3.8-1.5-4.9-2.5  c-2.3-2.0-2.9-4.4-1.5-7.2c0.8-1.6,2.7-2.7,3.6-4.4c1.1-2.0,1.6-3.9,2.1-6.2  c0.8-4.2,1.1-8.4,1.1-12.7c0-1.4,0.0-3.0-0.3-4.4c-0.5-1.8-2.5-0.8-4.3-1.4  c-2.8-0.9-8.8-6.3-6.8-9.9c2.2-4.0,4.6-8.4,9.8-8.5c3.2-0.0,9.7,4.7,11.3,0.2  c2.2-6.7-1.6-14.8,1.2-21.5c0.5-1.1,0.9-2.6,1.2-3.8c0.4-1.6-0.6-3.1-0.4-4.6  c0.5-3.5,1.7-0.5,3.7,0.2c0.7,0.2,2.2,1.2,2.7,0.3c0.6-1.2,1.1-1.6,2.2-1.2c2.7,1.3,0.3,3.6-0.2,5.2  c-0.5,1.5-0.1,3.4-0.3,5.1c-0.2,2.6-1.2,5.0-1.6,7.6c-0.4,3.4-0.1,6.7-0.9,10.0  c-1.0,4.8,4.0,6.0,8,5.1c4.4-1.0,4.3-9.3,4.4-13.2c0.2-5.1-0.2-10.2,0.1-15.3  c0.1-2.5-0.3-4.9,2.9-5.9c8.3-2.3,5.3,14.4,5.3,18.8c0,1.6-1.7,3.0-2.1,4.6  c-0.4,1.5,0.6,3.2,0.4,4.4c-0.2,1.2-1.8,4.7,0.6,4.7c0.9,0,1.3-0.4,2.2-0.6  c1.0-0.2,1.7,0.5,2.7,0.5c1.6,0.0,4.1,0.1,5.2-0.9c1.7-1.8,0.8-7.2,0.9-9.4  c0.1-4.5,0.6-9.0,0.6-13.6c-0.0-2.5-2.3-8.4,0.9-9.2c0.8-0.1,2.2,0.5,2.9,0.9  c1.5,0.7,3.5,0.6,5.3,0.6c-0.3,9.4-5.2,22.0,0.6,30.3c1.9,2.7,2.9,2.3,2.0,5.7  c-1.3,5.1-2.7,10.3-4.0,15.5c-7.7,29.4-15.4,58.9-23.2,88.4C90.3,192.1,90.2,192.7,90.0,193.3" id="path5"/>

<path d="M128.3,171.6c-1.4,3.7-8.8,6.6-12.6,6.6c-2.0,0.0-3.9-0.8-6-0.6  c-2.3,0.1-4.2,1.5-6.5,1.9c-2.0,0.4-4.0,1.0-6,1.8c-0.8,0.3-6.3-2.6-8-2.9  c-4.9-0.6-7.3,0.5-9.8-4.4c-1.0-2.1-4.8,1.1-6.1,1.7c-3.2,1.2-6.7,1.1-9.6-1  c-4.2-3.1-5.5-6.8-11.3-3.9c-3.8,1.9-7.0,1.2-10.1-1.9c-0.8-0.8-0.5-1.9-2-2.1  c-1.1-0.2-4.0,2.0-4.8,2.9c-3.3,4.0,4.2,7.6,7.0,8.5c10.0,3.3,19.8,2.9,30.2,3.3  c5.1,0.1,10.8-0.8,15.8,0.6c1.6,0.5,2.4,1.0,4.5,1.1c2.1,0.1,4.4,0.3,6.5,1.3  c2.7,1.3,10.0,0.5,12.9,0.0c5.3-0.8,10.4-3.1,15.9-3.2c-0.4,3.6-15.2,4.8-18.6,5  c-6.4,0.2-12.0-1.1-18.4-1.5c-1.8-0.1-3.6-0.1-5.2-0.6c-0.8-0.2-1.4-0.9-2.3-1.1  c-0.9-0.1-1.3,0.8-2.5,0.5c-1.6-0.4-1.6-0.0-3.4,0.0c-4.4,0.3-8.5-0.4-12.9,0.1  c-2.9,0.3-7.1,1.2-10,0.8c1.8,1.8,5.1,2.2,7.5,2.7c2.3,0.4,4.6,0.6,7.0,0.6c1.9,0,2.9,0.7,4.7,1.3  C79.0,191.0,85.2,190,90.0,190c3.4,0,7.1-0.3,10.5,0.1c4.8,0.6,9.1,1.9,13.9,0.8  c4.1-0.9,8.6-0.9,12.7-2.2c4.5-1.4,9.6,0.9,14.4-0.3C137.4,182.7,133.2,176.5,128.3,171.6" id="path7" fill="#FFFF00"/>

<path d="M141.7,188.3c9.6-0.2,18.3-4.4,27.7-5.5c4.0-0.4,8.3,0.2,12.3-0.6  c4.6-0.9,9.1-3.4,12.6-6.6c2.8-2.5,2.0-5.7-1.6-5.3c-3.3,0.3-5.7,3.9-8.9,4.9  c-3.7,1.1-6.5,1.6-10.6,1.6c4.9-2.4,12.4-3.0,15.9-7.7c4.1-5.5,1.9-7.6-2.6-12.2  c-3.4,4.0-7.5,10.1-13.2,12.7c-1.8,0.8-3.6,0.4-5.5,0.6c-2.3,0.2-3.5,1.0-5.5,2.1  c-2.1,1.1-5.3,3.1-7.9,2.7c-1.1-0.1-3.9-1.1-4.7-1.8c-2.9-2.3-5.5,0.2-8.5,0.2  c-1.1,0-2.3,0.1-3.5-0.1c-0.9-0.2-1.9-1.3-2.7-1.5c-2.2-0.4-4.7,1.9-6.6,0  C132.9,177.1,137.3,182.7,141.7,188.3" id="path9" fill="#FFFF00"/>

<path d="M65.0,166.6c-0.5,0.5-2.2,1.4-2.3,2.1c-0.1,1.4,3.0,3.6,4.2,3.9  c4.4,0.9,10.6-3.1,14.7-1.1c1.9,0.9,1.7,3.3,4.2,3.3c3.2,0,5.1-0.3,7.6,1.6  c3.0,2.5,7.7,1.7,11.3,0.6c3.8-1.2,5.9-2.3,10-2.3c5.7,0,14.6-0.0,16.9-6.7c-3.8,0-6.7,1.3-10.3,1.7  c-6.2,0.6-12.3-0.4-18.5,0c-5.3,0.4-10.2-1.6-15.5-1.7c-3.4-0.0-5.8-0.9-9.2-1.6  C73.9,165.6,69.4,166.6,65.0,166.6" id="path11" fill="#7A3D1C"/>

<path d="M51.7,161.6c-3.5-2.1-10.4,5.4-3.3,7.6C54.4,170.9,55.0,165.0,51.7,161.6" id="path13" fill="#7A3D1C"/>

<path d="M138.3,168.3c-0.4-0.2-1.1-0.2-1.6-0.6c-1.0,2.1,0.4,3.5,3.1,2.7  C143.2,169.4,141.3,166.8,138.3,168.3" id="path15" fill="#7A3D1C"/>

<path d="M148.3,164.8c-1.2,1.5-3.3,2.1-4.9,3.4c0.9,1.7,5.4,1.4,7.8,1.6  c1.0,0.1,2.1,0.2,2.9,1.0c1.2,1.2,3.4-0.1,4.9-0.6c7.4-2.4,17.3-3.5,21.3-11.1  c0.7-1.3,1.8-3.0-0.3-3.6c-1.3-0.3-1.2,0.0-1.8,1c-0.4,0.7,0.1,1.9-0.4,2.6  c-0.6,1.0-3.1,1.6-4.2,2.1c-3.9,1.7-7.9,1.9-12.0,2.7C157.4,165.0,152.6,165.3,148.3,164.8" id="path17" fill="#7A3D1C"/>

<path d="M120.0,166.6c5.3-1.2,11.0-0.5,16.5-1.0c3.8-0.3,6.7-1.1,10.1-2.2  c5.3-1.6,11.5-1.2,16.9-2.3c2.4-0.4,10.8-1.1,11.3-4.1c0.5-3.2-3.5-5.1-5.5-5.1  c-0.9,0-1.2-0.9-1.0-1.8c0.2-1.1,2.3-0.4,3.1-0.7c4.6-1.6,2.3-9.7-1-12.1  c-0.9-0.6-2.1-0.5-3.0-1.3c-1.2-0.9-1.4,0.3-2.9,0.0c-0.4-0.0-0.8-0.3-1.1-0.6  c1.2,4.3-11.6,0.2-13.6,0.1c-4.3-0.4-9.8,4.5-13.8,2.9c-1.1-0.4-2.0-1.8-3-2.6  c-1.3-1.1-3.7-0.3-5.3-0.1c-3.7,0.4-8.0,3.7-11.6,2.7c-1.1-0.3-1.9-1.2-3-1.5  c-0.9-0.2-2.2,0-3.2,0c-1.3,0-2.2,0.7-3.5,1.2c-1.4,0.6-2.9,0.2-4.4,0.4c-2.1,0.3-3.4,0.7-5.7,0.5  c-1.8-0.2-3.2-0.5-5.1-0.2c-3.4,0.6-5.1,1.4-8.4,0.5c-3.6-0.9-6.3-0.1-10,0.6  c-2.0,0.4-2.5-0.2-4.1-0.6c-0.4-0.1-0.9-0.6-1.5-0.7c-0.5-0.1-1.0,0.7-1.7,0.7  c-3.2-0.1-5.4-1.2-6.5,3.2c-0.8,3.9-0.3,8.4-0.0,12.4c0.1,2.8,0.1,9.1,3.0,10.1  c3.2,1.1,8.8-2.0,12.5-1.6c3.9,0.3,7.5,1.6,11.5,1.6c3.1,0,5.6,0.7,8.7,1.4  c5.1,1.1,9.9-0.3,15.2,0.6c0.7,0.1,7,1.8,7,1.1C116.7,166.6,119.0,166.5,120.0,166.6" id="path19" fill="#E4BC96"/>

<path d="M53.3,131.6c-1.5,0.2-1.9,2.1-1.5,3.5c0.4,1.7,3.8,1.4,5.2,1.4  c1.1,0,5.0-0.3,4.6-2.0C60.9,131.1,55.9,131.8,53.3,131.6" id="path21" fill="#7A3D1C"/>

<path d="M68.3,131.6c-1.2,1.1-3.2,0.5-4.4,1.7c-0.9,0.9-1.5,2.2-0.3,2.9  c1.6,1.0,5.0-0.4,6.8-0.5c2.7-0.1,6.9-1.1,9.5-0.8c3.4,0.5,4.6,2.7,8.5,1.6  c2.4-0.7,5.1-2.0,7.6-1.3c1.9,0.5,2.5,1.5,5.2,1.3c3.0-0.3,6.1-1.5,8.5-3.3  c-2.5-2.6-5.0-1.8-8.2-1.6c-4.0,0.1-8.1,0-12.2,0C82.3,131.6,75.6,132.0,68.3,131.6" id="path23" fill="#7A3D1C"/>

<path d="M118.3,131.6c-1.1,0.0-4.9-0.1-4.9,1.6c0.1,4.1,9.9,0.8,11.6,0  C123.7,130.4,120.8,131.4,118.3,131.6" id="path25" fill="#7A3D1C"/>

<path d="M146.7,129.8c-2.3,0.0-4.7,0.4-7.0,1.0c-1.3,0.3-4.2,0.1-5.2,0.8  c-3.1,2.3,3.0,3.2,4.8,3.2c4.7,0,7.7-3.3,13.0-1.6c3.5,1.1,5.0,1.4,8.9,0.9  c5.2-0.6,11.0-0.2,15.5-3.2c2.9-1.8,1.4-4.3-1.8-4.3c-2.7-0.0-5.0,2.6-7.9,3.2  c-1.8,0.3-4.2-0.2-6.1-0.4c-2.8-0.2-5.2,0.5-7.9,0.5C150.9,130,148.6,130.1,146.7,129.8" id="path27" fill="#7A3D1C"/>

<path d="M138.3,128.3c5.3-0.8,10.7-1.6,16.2-1.6c2.5,0,8.3,1.3,6.7-2.6  c-1.7-4.3,3.6-1.1,5.2-0.4c1.3,0.5,3.4-0.8,4.1-2.0c1.2-2.2-0.8-4.1-1.7-5.9  c-1.9-3.6-2.1-8.2-3.7-12.2c-0.5-1.3-2.1-5.1-3.8-5.0c-2.4,0.1-4.4,1.2-6.7,2.1  c-5.0,2.0-7.5,1.1-12.3-0.8c-3.8-1.5-5.8-1.0-9.6,0.0c-3.9,1.1-5.0,0.8-8.8-1.0  c-0.6-0.3-2.0-0.4-2.8-0.2c-1.1,0.2-1.2,1.6-2.6,1.6c-2.8,0-4.2,3.5-7.3,3.4  c-2.2-0.0-4.9-1.7-7.5-2c-4.5-0.4-9.1,1.5-13.6,0.5c-2.4-0.5-5.5,0.3-7.8-0.4  c-3.5-1.1-5.7-5.1-10.0-3.7c-2.5,0.8-4.9,3.0-7.8,2.4c-1.1-0.2-1.9-1.5-3.1-1.6  c-0.3-0.0-0.6-0.1-1-0.2c-0.2,0.8-1.5,1.3-1.6,1.7c-0.4,1.4,0.6,3.9,1.1,5.3  c1.0,2.7-1.1,4.1-1.1,7.3c0,2.8-0.4,5.2-0.7,8.0c-0.2,1.8,0.5,3.3,0.7,5.0c0.1,0.7-0.3,2.4,0,3.1  c1.2,2.1,5.7,1.2,7.8,1.2c5.1,0,10.3-0.1,15.5-0.2c9.4-0.2,18.6,0.2,28.0,0.2  c4.0,0,6.9-1.8,10.9-1.2C125.8,129.6,133.5,130.8,138.3,128.3" id="path29" fill="#E4BC96"/>

<path d="M108.3,99.8c4.9,1.8,8.1-2.6,12.3-4.2c3.3-1.3,6.4,1.2,9.8,1.4  c2.4,0.1,4.6-0.8,6.9-0.8c2.3,0,4.1,1.3,6.4,1.8c2.5,0.5,5.1,0.3,7.7,0.3c3.2,0,4.8-2.7,7.8-3.1  c2.8-0.4,6,1.6,8.7,1.9c2.8,0.2,7.9-3.0,7.4-6.2c-0.5-3.2-3.2-2.1-5.4-1.7  c-1.7,0.3-4.0-2.8-5.3-3.0c-2.4-0.3-6.5,1.1-9.1,1.7c-2.5,0.5-6.7,2.4-7.3-1.5  c-0.3-2.1,2.1-4.9-1.6-4.3c-0.9,0.1-2.5,1.7-3.6,2.1c-2.5,0.9-5.1,1.7-7.7,2.5  c-3.3,0.9-6.5,0.0-9.8,0.0c-1.9,0-4.4,1.0-6.0,0.7c-0.9-0.1-2.0-0.8-3-0.7  c-1.4,0.2-2.0,2.1-3.2,2.6c-0.5,0.2-0.9,0.5-1.5,0.7c0-5.0-2.3-5.3-7.5-4.8  c-2.7,0.2-5.4,1.0-8.0,1.5c-1.6,0.3-4.1,0.7-4.5,2.4c-2.8-1.9-6.3-2.4-9.9-2.4  c-0.9,0-3.0,0.0-3.8,0.3c-0.5,0.1-0.7-0.7-1.3-0.1c-0.4,0.4-0.6,1.2-1.1,1.6  c-6.8,5.5-12.3-2.7-19.8-2.7c-6.8,0-6.4,5.6-1.9,8.9c3.5,2.6,5.0,1.7,7.9-1.1c1.6-1.6,2.6,2.0,4,2.8  c1.1,0.6,2.4-0.0,3.5-0.5c2.2-1.1,3.6-1.3,6-0.8c6.3,1.5,12.0,4.4,18.9,4.3  C95.8,99.3,108.5,96.5,108.3,99.8" id="path31" fill="#FFFFFF"/>

<path d="M71.7,65c0.0-1.0,1.4-4.1,0.4-4.9c-2.1-1.5-2.6,2.4-3,3.4  c-2.1,6.5-0.1,13.4-0.3,20.3c-0.0,1.7-0.5,4.5,2.2,3.3c1.6-0.6-0.2-4.4-0.6-5.7  C68.8,76.8,71.4,69.8,71.7,65" id="path33" fill="#00FF00"/>

<path d="M91.7,61.6c0.0-2.4-2.0-4.4-1.7-6.6c-5.4,5.4-3.5,14.6-1.6,21.6  c1.3-2.9,0.8-5.4,1.6-8.3C90.7,65.8,91.8,64.5,91.7,61.6" id="path35" fill="#00FF00"/>

<path d="M110.0,63.3c0.0-0.9,1.7-9.2-1.5-8.3c-2.4,0.6-1.7,13.3-1.7,15.5  c0,1.6,1.0,12.9,3.2,9.9c0.9-1.2,0-6.7,0-8.3C110.0,69.1,110.0,66.2,110.0,63.3" id="path37" fill="#00FF00"/>

<path d="M131.7,63.3c0-2.5,0.3-2.6-1.7-3.7c-2.7-1.3-1.6,4.8-1.5,6.5  c0.1,2.4-0.1,10.4,2.7,10.4C133.7,76.6,131.7,64.9,131.7,63.3" id="path39" fill="#00FF00"/>

<path d="M146.7,59.9c1.1,0.7,0.1,2.5,1,3.1c1.7,1.2,2.0-1.5,2.1-2.6  c0.2-1.6,0.2-5.6-2.4-3.6C146.7,57.4,146.7,59.2,146.7,59.9" id="path41" fill="#00FF00"/>

<path d="M150.0,71.6c-3.8-1.0-4.4,7.0-1.2,8.5C154.7,82.7,150.3,73.8,150.0,71.6" id="path43" fill="#00FF00"/>

<path d="M131.7,181.6c2.3,0,4.8,0.2,7.1,0c3.3-0.4,6.4-1.5,10-1.6c6.0-0.1,11.6-1.8,17.8-1.7  c-0.6,3.6-13.1,3.3-16.2,3.4C146.3,181.8,134.2,186.4,131.7,181.6" id="path45"/>

<path d="M86.7,153.3c0.2-1.2-0.4-1.8-1.7-1.6c0.6-2.4,2.1-1.8,3.4-1.6c1.4,0.2,5.2,0.4,6.3,1.4  c2.2,1.8-2.9,3.3-4.1,3.4C88.1,155.1,89.0,154.1,86.7,153.3" id="path47"/>

<path d="M80.0,144.8c0.2,1.3-0.9,3.7-1.6,1.5C78.0,144.8,79.5,143.6,80.0,144.8" id="path49"/>

<path d="M66.7,113.3c0.9-1.0,3.8-1.9,3.3,0.5C69.6,115.7,66.9,115.0,66.7,113.3" id="path51"/>

<path d="M71.7,119.8c0.0,0.5,0,1.1,0,1.7c-0.4-0.3-1.2-1.0-1.7-1.6  C70.6,120.0,71.4,119.8,71.7,119.8" id="path53"/>

<path d="M66.7,31.6c3.0-3.4,3.7-5.6,3.7-10.2c-0.0-2.4,0.0-3.1,2.7-3.1c0.1,0,1.5,3.5,1.6,3.5  c-0.9,0.9-1.3,3.6-1.2,5.4c0.1,3.3,2.1,6.3,1.9,10.0c-0.1,2.4-3.2,9.7-6.2,6.7  C65.7,40.5,62.6,35.5,66.7,31.6" id="path55"/>

<path d="M88.3,30c1.4-1.7-0.0-5.9,2.1-6.7c3.4-1.1,2.4,3.0,2.4,4.7c-0.1,3.7,1.7,7.1,2.0,10.8  c0.2,3.0-3.5,6.7-4.9,9.4C81.7,44.0,82.9,35.4,88.3,30" id="path57"/>

<path d="M106.7,26.6c-0.1-2.2,1.3-7.6,4.2-3.9c0.8,1.0,0.5,1.9-0.2,3.3c-1.2,2.1-0.0,4.1-0.0,6.4  c-0.0,2.9-1.5,13.1-6.8,10.8C98.1,40.7,104.8,29.7,106.7,26.6" id="path59"/>

<path d="M128.3,28.3c1.0-1.1,1.9-4.3,4.1-3.7c2.0,0.6,0.5,3.9-0.2,5.3c-1.0,1.7,0.7,2.7,1.0,4.4  c0.2,1.4,0.2,2.9,0.2,4.4c0,4.7-2.6,5.2-6.5,4.1C118.9,40.7,126.9,31.7,128.3,28.3" id="path61"/>

<path d="M146.7,28.3c0-3.0-2.2-9.9,1.6-9.9c3.8,0,4.8,14.8,5.0,17.7c0.2,3.4,1.1,8.7-2.0,11.1  c-2.7,2.0-5.6-0.5-7.4-3C140.6,39.7,140.7,30.8,146.7,28.3" id="path63"/>

<path d="M173.3,36.6c3.2-3.0,0.1,2.8,0.1,3.1c0,0.6-1.5,0.3-1.6-0.5C171.6,38.2,172.9,36.9,173.3,36.6" id="path65"/>

<path d="M170.0,26.6c2.2-1.5,8.8-0.3,5.4,1C173.9,28.2,170.2,29.3,170.0,26.6" id="path67"/>

<path d="M161.7,16.6c3.9-1.5,7.6-3.6,11.6-5C174.3,15.0,160.5,24.3,161.7,16.6" id="path69"/>

<path d="M153.3,6.6c1.2-0.9,4.0-5.1,5.5-4.9c3.0,0.4-0.9,3.8-1.5,4.8c-0.7,1.2-0.0,4.2-1.4,4.9  C153.3,12.6,153.4,7.9,153.3,6.6" id="path71"/>

<path d="M143.3,3.3c0.1-1.0,0.1-2.1,0.1-3.3c3.1,0.2,4.4,5.4,4.9,8.0c0.2,1.0-3.3,2.6-3.3,0  C145.0,6.4,143.5,4.8,143.3,3.3" id="path73"/>

<path d="M128.3,4.9c1.1,1.1,6.1,5.1,1.1,5c-3.5-0.0-4.5-3.9-4.5-6.6C126.3,3.4,127.8,4.3,128.3,4.9" id="path75"/>

<path d="M118.3,9.9c-0.0-0.4,0.1-1.0,0.1-1.6c2.0,0.1,3.9,1.2,3.3,3.3  C120.8,14.5,118.8,11.8,118.3,9.9" id="path77"/>

<path d="M106.7,8.3c0.9-0.0,3.3-1.1,4.1-0.7c1.5,0.8-1.3,3.5-2.5,4.5  C104.3,15.7,103.8,11.0,106.7,8.3" id="path79"/>

<path d="M93.3,8.3c-0.5-2.8,4.7-3.2,2.8,0.5c-0.3,0.7-1.9,3.7-3.2,2.8C92.3,11.1,93.3,8.9,93.3,8.3" id="path81"/>

<path d="M81.7,4.9c2.7,1.1,1.7,8.1-0.8,5.8C79.4,9.2,79.6,5.2,81.7,4.9" id="path83"/>

<path d="M68.3,13.3c0.1,1.0,0.1,2.0,0.1,3.1c0,1.5-3.4-0.7-3.8-1.6C62.6,9.8,67.2,13.2,68.3,13.3" id="path85"/>

<path d="M55.0,21.6c1.2,0.1,2.4,0.7,3.4,1.7c-1.5,1.5-3.9,2.3-5.7,0.6C50.5,21.5,52.7,19.1,55.0,21.6" id="path87"/>

<path d="M50.0,26.6c0.8,0.8,9.7,2.8,3.5,3.4c-1.9,0.2-6.0,1.1-6.8-1.7C46.1,25.8,48.4,26.6,50.0,26.6" id="path89"/>

<path d="M45.0,36.6c2.7,0.1,10.2,2.5,4,3.4c-2.0,0.2-6.9-0.1-7.2-2.9C41.6,34.7,43.9,35.4,45.0,36.6" id="path91"/>

<path d="M68.3,38.3c4.5,5.5,6-5.8,2.6-6.6C68.4,31.1,65.2,38.2,68.3,38.3" id="path93" fill="#FFFF00"/>

<path d="M86.7,41.6c3.1,2.5,5.8-3.8,4.8-6.4C89.3,29.8,85.0,37.8,86.7,41.6" id="path95" fill="#FFFF00"/>

<path d="M108.3,34.9c-0.8,0.0-1.4-0.5-1.6-1.6C101.7,33.8,108.6,42.4,108.3,34.9" id="path97" fill="#FFFF00"/>

<path d="M130.0,36.6c0.7-2.7-3.8-1.7-2.6,1.6c0.2,0.8,1.4,2.7,2.6,1.8  C130.3,39.7,130.0,37.0,130.0,36.6" id="path99" fill="#FFFF00"/>

<path d="M145.0,36.6c-0.8,1.8-1.1,7,2.0,7c4.7,0,4.1-5.1,3.6-8.3  c-0.3-2.1-0.5-5.5-3.1-4.8C145.0,31.2,145.1,34.5,145.0,36.6" id="path101" fill="#FFFF00"/>


  
</svg>
