<?xml version="1.0" encoding="UTF-8" standalone="no"?>
<!-- Created with Sodipodi ("http://www.sodipodi.com/") -->
<svg xmlns="http://www.w3.org/2000/svg" xmlns:sodipodi="http://sodipodi.sourceforge.net/DTD/sodipodi-0.dtd" xmlns:xlink="http://www.w3.org/1999/xlink" height="486" id="islenskifaninn" sodipodi:docbase="/home/cschalle/sodipodi-flags/Regional" sodipodi:docname="/home/cschalle/sodipodi-flags/Regional/faroe_islands_denmark.svg" sodipodi:version="0.32" version="1" width="675" x="0" y="0">
  
  <sodipodi:namedview id="base"/>
  <defs id="defs380"/>
  <rect height="486.000000" id="blarfeldur" width="675.000000" x="0" y="0" fill="#ffffff" fill-rule="evenodd" stroke-width="0pt" fill-opacity="1"/>
  <path d="M 0 189 L 189 189 L 189 0 L 297 0 L 297 189 L 675 189 L 675 297 L 297 297 L 297 486 L 189 486 L 189 297 L 0 297 L 0 189 z " id="hviturkross" fill="#003897" fill-rule="evenodd" stroke-width="0pt" fill-opacity="1"/>
  <path d="M 0 216 L 216 216 L 216 0 L 270 0 L 270 216 L 675 216 L 675 270 L 270 270 L 270 486 L 216 486 L 216 270 L 0 270 L 0 216 z " id="raudurkross" transform="translate(0.000000,2.014488)" fill="#d72828" fill-rule="evenodd" stroke-width="0pt" fill-opacity="1"/>
</svg>
