<?xml version="1.0" encoding="UTF-8" standalone="no"?>
<!-- Created with Sodipodi ("http://www.sodipodi.com/") -->
<svg xmlns="http://www.w3.org/2000/svg" xmlns:inkscape="http://www.inkscape.org/namespaces/inkscape" xmlns:sodipodi="http://sodipodi.sourceforge.net/DTD/sodipodi-0.dtd" xmlns:xlink="http://www.w3.org/1999/xlink" height="140mm" id="svg378" sodipodi:docbase="tmp/" sodipodi:docname="tmp/flanders.svg" sodipodi:version="0.33pre" version="1" width="210mm" x="0" y="0">
  
  <sodipodi:namedview id="base" showgrid="false" snaptogrid="false"/>
  <defs id="defs380"/>
  <rect height="496.062561" id="rect135" width="744.094360" x="0.000076" y="-0.000008" font-size="12" fill="#ffff00" fill-rule="evenodd" stroke-width="1pt" fill-opacity="1"/>
  <path d="M 321.6 129.2 C 319.3 125.0 300.5 107.0 285.0 108.2 C 281.3 108.7 268.4 99.3 268.8 86.4 C 269.1 76.1 273.9 73.8 286.9 72.0 C 291.1 71.1 300.1 77.7 300.4 84.2 C 300.6 88.6 294.3 97.9 296.0 99.2 C 301.9 104.1 316.9 113.5 323.2 122.0 C 324.4 123.5 323.6 125.3 323.5 126.7 C 323.3 129.8 322.8 130.8 321.6 129.2 z " id="path635" sodipodi:nodetypes="cssssssss" font-size="12" fill="#ff0000" fill-rule="evenodd" stroke="#000000" stroke-width="1pt" stroke-opacity="1" fill-opacity="1"/>
  <path d="M 505.1 27.2 C 485.2 27.2 452.6 40.7 450.1 78.5 C 448.9 95.5 445.4 120.5 438.0 137.1 C 437.2 133.9 436.4 130.3 436.3 126.5 C 436.2 125.0 430.1 125.2 431.0 124.3 C 433.4 122.2 435.4 120.2 434.5 111.9 C 427.4 117.3 420.8 115.9 420.4 113.7 C 420.4 108.0 419.4 92.8 422.2 92.5 C 427.1 91.5 447.4 81.3 433.7 65.5 C 432.5 64.2 434.5 79.2 424.4 79.7 C 422.2 79.7 418.6 76.0 423.9 70.4 C 429.8 64.2 429.4 45.0 420.4 35.0 C 420.2 34.8 419.9 34.7 419.4 34.8 C 416.2 34.9 407.4 40.2 401.8 40.8 C 385.4 42.3 353.6 39.1 351.9 41.7 C 341.5 56.8 325.8 55.6 318.8 57.6 C 317.0 58.1 317.2 65.4 317.4 69.1 C 317.5 69.9 320.1 68.3 319.6 70.8 C 319.6 73.0 318.1 72.4 317.4 74.8 C 316.7 79.0 318.2 91.0 316.1 93.4 C 314.5 95.7 315.7 99.6 318.8 100.9 C 320.8 101.4 318.9 94.9 327.1 99.1 C 330.1 100.7 334.2 105.5 334.2 108.8 C 334.5 125.7 310.4 136.2 306.8 131.8 C 303.5 127.0 295.5 116.6 286.5 116.8 C 281.1 116.9 272.5 125.2 272.4 131.8 C 272.3 132.8 271.2 135.1 269.6 137.8 C 269.3 137.2 268.9 136.7 268.4 136.2 C 245.6 118.4 246.6 105.0 246.7 88.5 C 247.2 79.6 259.7 79.3 258.2 71.3 C 257.0 65.0 245.6 56.7 236.1 56.7 C 232.0 56.7 227.4 59.3 228.1 65.1 C 228.3 67.7 223.7 67.0 223.7 66.0 C 224.2 62.7 222.8 55.6 226.4 53.6 C 228.0 52.6 223.9 49.4 221.9 49.2 C 214.0 48.3 199.6 46.2 196.8 50.5 C 195.4 52.1 196.1 61.4 198.5 62.0 C 201.0 62.5 198.3 70.8 197.7 69.1 C 193.1 57.4 187.3 59.6 183.5 62.4 C 179.4 65.2 171.1 72.3 172.0 77.4 C 173.0 83.6 171.9 90.1 189.7 89.4 C 191.3 89.3 190.1 93.4 188.8 94.3 C 185.3 96.6 180.3 97.9 176.2 98.2 C 175.8 106.9 174.5 124.5 188.8 124.8 C 193.8 124.6 194.5 122.3 196.3 119.9 C 197.5 118.6 199.1 117.7 202.5 119.0 C 198.3 129.3 193.7 130.8 180.9 130.5 C 181.3 133.8 190.8 143.1 203.9 142.0 C 204.8 145.6 194.7 156.4 192.8 150.8 C 192.2 148.8 189.4 152.1 187.9 154.4 C 189.8 157.7 198.5 162.9 200.3 164.1 C 201.3 164.9 193.4 165.5 187.0 162.3 C 190.4 184.9 203.9 183.1 212.7 182.6 C 215.3 182.5 213.0 185.7 207.4 187.9 C 214.1 198.7 228.0 193.2 235.9 188.4 C 236.4 188.3 236.9 188.0 237.5 187.9 C 237.1 188.6 236.5 189.5 236.1 190.2 C 233.7 194.6 237.5 200.7 233.4 206.1 C 231.1 208.6 218.9 225.7 212.2 196.4 C 195.4 217.1 205.0 236.6 226.8 237.0 C 237.5 238.1 251.9 229.1 258.6 219.3 C 267.5 219.9 272.6 208.8 275.9 212.3 C 277.6 213.9 278.4 217.1 279.0 220.1 C 279.0 220.1 279.0 220.2 279.0 220.2 C 264.6 238.3 230.1 266.5 215.3 255.1 C 212.9 253.1 221.1 244.3 215.3 241.0 C 211.1 238.3 195.2 243.5 188.8 248.5 C 185.5 251.1 189.8 262.7 187.0 264.9 C 184.5 266.9 178.0 258.7 172.9 262.2 C 167.5 266.3 168.3 278.8 170.3 285.2 C 171.9 288.9 175.8 286.2 176.4 287.8 C 177.3 289.8 175.9 293.5 176.9 295.8 C 179.4 301.5 180.8 311.6 185.7 312.1 C 195.3 313.1 202.1 315.3 201.6 302.4 C 203.4 300.4 202.0 294.2 207.4 294.0 C 209.1 293.8 208.4 303.0 208.7 307.3 C 208.5 311.3 223.5 313.1 225.9 313.0 C 234.8 313.0 235.6 303.8 236.1 290.5 C 240.9 289.5 239.1 308.2 246.3 310.4 C 246.9 291.9 256.1 293.1 256.9 285.6 C 259.9 289.5 262.4 293.3 260.4 294.4 C 258.2 295.2 257.1 307.4 267.9 303.3 C 264.0 300.1 264.3 297.5 265.4 297.1 C 268.0 296.7 272.1 290.7 272.4 288.3 C 275.2 288.2 279.4 287.5 279.0 288.3 C 277.7 290.5 275.0 297.1 279.9 298.0 C 285.1 298.8 283.0 288.7 286.5 284.3 C 288.8 280.9 292.6 278.3 294.0 274.1 C 294.8 272.0 298.8 284.5 300.2 283.9 C 303.3 277.7 302.5 269.4 304.6 268.8 C 307.7 267.1 307.0 275.2 309.9 276.3 C 312.6 272.4 314.0 264.6 317.4 264.9 C 320.4 265.1 319.9 264.4 324.0 268.4 C 325.0 263.0 331.4 254.0 331.1 239.2 C 333.2 238.5 339.6 256.0 339.9 253.4 C 340.3 244.7 351.1 240.5 349.3 221.7 C 375.2 226.0 374.5 220.7 376.0 221.9 C 389.6 231.4 388.6 226.8 406.7 242.2 C 407.6 243.1 407.5 244.9 407.2 247.2 C 407.2 247.2 407.1 247.2 407.1 247.2 C 376.8 244.8 349.6 270.7 341.3 282.5 C 339.4 285.4 314.5 283.6 304.0 287.1 C 284.9 293.2 272.8 315.2 258.4 323.0 C 251.9 326.0 238.0 323.8 233.7 322.1 C 231.1 343.3 242.3 345.2 251.6 345.6 C 273.3 346.8 274.8 336.0 281.2 337.8 C 286.3 338.6 300.2 353.4 299.7 358.1 C 299.3 362.7 292.3 371.5 288.3 373.6 C 282.6 376.2 274.1 375.2 267.0 374.9 C 266.9 370.8 268.0 367.1 265.9 365.2 C 262.7 362.3 256.9 363.1 251.1 360.8 C 248.0 359.4 243.1 362.6 241.4 365.4 C 239.5 368.5 239.2 375.0 240.5 378.4 C 241.8 381.7 249.6 384.2 249.4 386.4 C 241.7 390.6 230.5 384.2 228.1 386.4 C 222.7 391.9 226.2 406.7 229.0 413.8 C 231.2 417.6 234.7 416.0 237.2 416.0 C 238.4 418.8 237.1 423.0 239.0 425.3 C 242.0 428.8 249.4 433.5 253.3 432.8 C 256.9 432.2 259.1 431.1 261.3 422.6 C 262.3 418.6 267.7 430.2 270.1 431.0 C 276.3 431.9 285.8 431.7 290.0 429.3 C 296.3 423.7 287.8 418.6 291.4 414.7 C 294.2 414.7 297.1 422.8 301.9 425.7 C 302.7 422.0 301.2 414.5 302.8 413.8 C 304.4 418.4 309.2 422.0 313.0 420.9 C 312.3 414.1 313.0 402.4 313.4 399.6 C 315.6 399.1 319.8 414.8 324.0 415.5 C 324.1 407.2 323.8 397.8 325.8 396.1 C 327.3 401.5 332.5 408.0 335.5 407.1 C 334.5 397.2 336.6 395.6 339.5 388.1 C 342.3 381.4 343.0 374.0 346.1 372.2 C 349.0 370.9 353.9 374.3 348.9 380.7 C 347.0 382.4 347.8 388.8 349.2 393.9 C 352.2 387.4 367.5 380.8 367.8 371.4 C 368.3 358.4 352.9 344.1 350.1 340.4 C 347.7 337.1 346.3 325.7 349.7 323.6 C 360.2 317.2 371.6 312.2 397.9 312.8 C 408.1 329.3 418.2 340.5 415.1 351.6 C 411.2 364.5 399.5 357.3 393.9 350.4 C 390.9 368.4 398.8 376.5 406.4 378.5 C 426.9 383.6 429.6 371.7 433.9 371.0 C 452.3 367.0 464.6 371.8 481.7 363.5 C 484.5 362.0 489.2 389.9 473.9 397.9 C 471.6 401.5 463.1 400.8 459.7 399.2 C 457.7 398.3 460.7 394.3 457.6 392.2 C 448.0 385.6 441.0 397.1 433.9 401.0 C 433.1 405.8 429.7 407.1 429.5 409.1 C 428.7 416.9 440.7 417.9 440.1 421.0 C 432.0 422.3 427.4 415.9 421.4 417.9 C 422.4 424.2 417.4 422.0 418.2 427.2 C 419.7 432.6 425.8 443.2 430.7 446.6 C 433.9 446.3 437.3 446.2 440.1 443.5 C 443.0 453.2 462.0 455.1 468.9 454.1 C 468.5 442.2 469.3 438.3 475.7 438.5 C 474.9 446.8 478.5 450.1 482.0 451.6 C 486.4 453.6 495.1 454.6 498.2 451.6 C 505.3 445.3 506.0 439.6 503.2 437.9 C 504.1 433.8 509.2 433.4 509.5 430.4 C 511.3 417.6 507.4 413.5 508.2 405.4 C 510.3 404.1 516.9 430.9 523.2 427.2 C 523.1 420.5 523.4 414.5 527.0 411.6 C 530.9 420.1 538.1 422.0 541.4 422.9 C 529.6 409.5 539.0 409.5 540.1 400.4 C 540.5 398.2 546.8 407.6 550.7 407.2 C 551.1 400.8 551.8 382.6 550.1 380.4 C 544.8 372.7 546.2 365.2 549.5 366.0 C 555.3 367.2 551.2 383.2 559.5 387.9 C 563.0 373.2 567.3 366.9 567.0 364.1 C 565.2 348.9 551.4 343.2 536.4 344.7 C 534.5 344.9 505.5 320.1 482.0 322.2 C 484.1 315.1 488.4 302.5 490.9 289.5 C 510.7 315.7 532.7 322.5 561.4 330.0 C 575.0 335.0 567.7 343.5 568.9 351.6 C 570.6 355.6 576.2 360.1 581.4 361.6 C 581.6 356.8 577.9 355.2 578.2 348.5 C 579.0 342.8 584.0 335.3 583.9 330.4 C 583.6 320.1 576.0 312.0 568.9 312.9 C 584.8 284.1 583.5 267.9 562.6 238.5 C 559.5 232.7 563.4 212.3 586.4 224.1 C 580.6 199.8 548.2 207.1 544.5 222.2 C 538.4 220.2 536.4 208.6 540.1 203.5 C 546.0 195.2 559.5 183.6 583.2 194.1 C 580.1 186.3 567.6 166.9 538.9 177.2 C 540.9 164.2 594.0 150.2 590.1 84.1 C 587.9 88.2 556.8 148.4 536.4 148.5 C 542.5 138.3 565.7 101.0 565.7 80.4 C 565.7 62.9 546.6 27.4 505.1 27.2 z M 523.9 61.6 C 536.4 60.9 547.4 71.3 547.6 84.1 C 537.4 114.2 491.0 158.5 491.4 194.1 C 491.7 230.7 543.8 270.1 544.9 277.3 C 547.9 286.1 533.4 295.3 526.4 295.4 C 517.8 295.4 504.0 272.0 491.7 262.4 C 491.1 260.1 490.5 257.9 489.5 256.0 C 460.0 198.5 439.4 192.2 416.8 170.0 C 413.0 166.3 412.7 171.5 408.9 163.0 C 411.6 161.3 411.4 158.7 412.4 159.7 C 424.1 170.2 431.5 159.2 431.4 151.7 C 431.4 150.5 424.8 155.1 420.4 153.5 C 419.1 153.1 422.3 144.9 423.9 146.4 C 425.1 147.9 434.4 149.5 438.1 148.2 C 438.7 147.8 439.0 147.3 439.3 146.7 C 446.1 146.3 447.3 140.9 452.0 141.0 C 445.8 158.4 456.0 183.6 465.7 183.5 C 461.0 160.7 463.7 150.8 473.2 138.9 C 476.6 134.6 477.1 123.7 482.0 119.7 C 488.4 128.7 482.2 143.9 483.2 158.5 C 493.3 151.1 506.0 118.2 497.6 99.1 C 507.1 99.6 521.4 98.7 527.6 81.6 C 517.7 82.9 511.5 78.4 511.4 75.4 C 511.1 71.7 519.2 62.3 523.9 61.6 z " id="path636" font-size="12" fill="#000000" fill-rule="evenodd" stroke="#ffffff" stroke-width="1pt" stroke-opacity="1" fill-opacity="1"/>
  <path d="M 175.4 71.3 C 169.1 66.3 171.9 63.5 166.2 57.9 C 175.6 58.0 178.2 61.2 182.0 63.8 C 181.8 68.8 179.9 72.0 175.4 71.3 z " id="path637" sodipodi:nodetypes="cccc" font-size="12" fill="#ff0000" fill-rule="evenodd" stroke="#000000" stroke-width="1pt" stroke-opacity="1" fill-opacity="1"/>
  <path d="M 203.8 49.2 C 203.2 43.1 203.1 40.4 201.3 36.3 C 210.6 36.7 215.7 45.6 218.2 49.8 C 215.7 51.0 205.0 52.3 203.8 49.2 z " id="path638" sodipodi:nodetypes="cccc" font-size="12" fill="#ff0000" fill-rule="evenodd" stroke="#000000" stroke-width="1pt" stroke-opacity="1" fill-opacity="1"/>
  <path d="M 241.9 57.9 C 245.0 55.0 247.7 51.0 247.7 42.5 C 251.6 48.2 257.7 56.2 253.2 60.9 C 251.9 62.2 254.2 64.6 254.0 66.5 C 252.3 68.5 239.8 60.8 241.9 57.9 z " id="path639" sodipodi:nodetypes="ccscc" font-size="12" fill="#ff0000" fill-rule="evenodd" stroke="#000000" stroke-width="1pt" stroke-opacity="1" fill-opacity="1"/>
  <path d="M 178.5 117.6 C 171.8 119.6 165.8 112.5 165.0 103.5 C 169.1 106.3 171.6 106.0 176.0 106.6 C 177.7 108.7 180.3 116.8 178.5 117.6 z " id="path640" sodipodi:nodetypes="cccc" font-size="12" fill="#ff0000" fill-rule="evenodd" stroke="#000000" stroke-width="1pt" stroke-opacity="1" fill-opacity="1"/>
  <path d="M 196.6 247.0 C 192.8 244.3 190.4 238.1 184.1 231.6 C 196.9 230.6 205.8 238.0 207.0 242.0 C 207.6 243.6 201.4 246.6 196.6 247.0 z " id="path641" sodipodi:nodetypes="ccsc" font-size="12" fill="#ff0000" fill-rule="evenodd" stroke="#000000" stroke-width="1pt" stroke-opacity="1" fill-opacity="1"/>
  <path d="M 154.1 282.6 C 152.9 272.4 166.0 269.9 169.1 267.6 C 172.0 267.4 172.7 277.6 171.3 279.5 C 164.6 279.7 161.5 280.1 154.1 282.6 z " id="path642" sodipodi:nodetypes="cccc" font-size="12" fill="#ff0000" fill-rule="evenodd" stroke="#000000" stroke-width="1pt" stroke-opacity="1" fill-opacity="1"/>
  <path d="M 176.9 298.1 C 173.8 298.7 167.0 307.3 175.4 321.0 C 177.9 313.6 182.3 313.1 185.1 311.0 C 186.7 304.0 179.6 297.6 176.9 298.1 z " id="path643" sodipodi:nodetypes="cccs" font-size="12" fill="#ff0000" fill-rule="evenodd" stroke="#000000" stroke-width="1pt" stroke-opacity="1" fill-opacity="1"/>
  <path d="M 352.7 46.0 C 352.0 45.9 347.8 58.2 352.1 60.4 C 355.1 62.2 355.4 65.3 353.6 66.4 C 351.1 68.1 351.7 69.9 351.8 72.5 C 351.8 74.9 349.7 75.3 350.2 76.8 C 351.6 82.5 370.0 77.8 378.7 82.3 C 380.0 82.9 375.9 72.2 372.3 68.1 C 369.1 64.5 363.2 63.6 359.4 60.6 C 355.3 57.8 358.1 46.8 352.7 46.0 z " id="path930" sodipodi:nodetypes="cssssssss" font-size="12" fill="#ffffff" stroke="#ffffff" stroke-opacity="1"/>
  <path d="M 204.7 318.2 C 212.2 315.3 211.5 316.1 211.3 308.8 C 215.8 308.7 220.9 310.4 225.5 312.6 C 226.5 315.4 213.0 325.4 204.7 318.2 z " id="path644" sodipodi:nodetypes="cccc" font-size="12" fill="#ff0000" fill-rule="evenodd" stroke="#000000" stroke-width="1pt" stroke-opacity="1" fill-opacity="1"/>
  <path d="M 245.0 446.7 C 237.5 442.3 233.8 434.2 238.1 426.7 C 243.8 426.9 251.3 430.6 252.1 433.1 C 250.0 436.3 242.8 439.8 245.0 446.7 z " id="path645" sodipodi:nodetypes="cccc" font-size="12" fill="#ff0000" fill-rule="evenodd" stroke="#000000" stroke-width="1pt" stroke-opacity="1" fill-opacity="1"/>
  <path d="M 206.6 410.1 C 211.6 398.7 215.5 398.9 224.2 393.2 C 225.7 398.8 226.8 404.0 226.6 410.8 C 221.8 406.5 213.7 407.7 206.6 410.1 z " id="path646" sodipodi:nodetypes="cccc" font-size="12" fill="#ff0000" fill-rule="evenodd" stroke="#000000" stroke-width="1pt" stroke-opacity="1" fill-opacity="1"/>
  <path d="M 245.7 368.2 C 239.8 364.6 234.6 359.7 230.7 355.4 C 241.7 353.7 246.9 359.0 249.2 361.0 C 249.6 364.5 252.8 369.8 245.7 368.2 z " id="path647" sodipodi:nodetypes="cccc" font-size="12" fill="#ff0000" fill-rule="evenodd" stroke="#000000" stroke-width="1pt" stroke-opacity="1" fill-opacity="1"/>
  <path d="M 268.8 444.5 C 273.6 439.1 275.3 437.0 271.9 429.7 C 276.9 428.9 281.9 428.5 286.9 429.5 C 282.7 437.6 281.3 442.8 268.8 444.5 z " id="path648" sodipodi:nodetypes="cccc" font-size="12" fill="#ff0000" fill-rule="evenodd" stroke="#000000" stroke-width="1pt" stroke-opacity="1" fill-opacity="1"/>
  <path d="M 438.4 406.2 C 432.7 400.6 428.2 393.3 421.2 389.4 C 425.5 387.5 437.2 391.8 444.1 393.0 C 451.0 394.2 450.5 391.4 455.2 393.2 C 453.6 397.8 442.7 409.1 438.4 406.2 z " id="path649" sodipodi:nodetypes="ccscc" font-size="12" fill="#ff0000" fill-rule="evenodd" stroke="#000000" stroke-width="1pt" stroke-opacity="1" fill-opacity="1"/>
  <path d="M 406.6 449.1 C 408.1 439.4 411.1 435.1 419.0 429.8 C 424.7 432.6 427.6 439.5 427.2 442.5 C 417.9 441.1 412.7 443.9 406.6 449.1 z " id="path650" sodipodi:nodetypes="cccc" font-size="12" fill="#ff0000" fill-rule="evenodd" stroke="#000000" stroke-width="1pt" stroke-opacity="1" fill-opacity="1"/>
  <path d="M 448.1 450.8 C 447.0 464.9 458.4 470.2 466.9 471.9 C 462.0 463.7 455.8 463.0 460.6 454.0 C 455.9 453.3 452.2 449.7 448.1 450.8 z " id="path651" sodipodi:nodetypes="cccc" font-size="12" fill="#ff0000" fill-rule="evenodd" stroke="#000000" stroke-width="1pt" stroke-opacity="1" fill-opacity="1"/>
  <path d="M 485.5 450.7 C 483.9 456.9 481.1 462.3 481.3 467.2 C 489.2 462.4 495.0 457.2 497.2 451.5 C 495.2 449.2 487.9 447.3 485.5 450.7 z " id="path652" sodipodi:nodetypes="cccc" font-size="12" fill="#ff0000" fill-rule="evenodd" stroke="#000000" stroke-width="1pt" stroke-opacity="1" fill-opacity="1"/>
  <path d="M 486.6 121.2 C 487.0 124.2 486.8 142.3 488.0 141.8 C 490.0 141.7 490.3 115.9 486.3 99.9 C 482.4 85.6 482.3 69.6 485.6 61.2 C 487.3 56.2 490.4 55.0 493.5 50.4 C 481.6 55.4 480.1 66.0 480.1 78.4 C 480.5 97.9 484.0 96.9 486.6 121.2 z " id="path823" sodipodi:nodetypes="csssccs" font-size="12" fill="#ffffff" stroke="#ffffff" stroke-opacity="1"/>
  <path d="M 336.6 107.3 C 337.0 119.9 328.7 132.3 318.2 133.0 C 317.8 133.0 317.8 134.4 318.2 134.4 C 329.4 135.5 341.7 117.5 336.6 107.3 " id="path826" sodipodi:nodetypes="cssc" font-size="12" fill="#ffffff" stroke="#ffffff" stroke-opacity="1"/>
  <path d="M 414.5 119.0 C 418.4 122.6 422.3 125.4 418.1 125.5 C 414.9 125.5 413.4 117.9 414.5 119.0 z " id="path828" sodipodi:nodetypes="css" font-size="12" fill="#ffffff" stroke="#ffffff" stroke-opacity="1"/>
  <path d="M 276.6 137.2 C 277.1 139.4 278.3 139.8 278.3 136.9 C 278.2 123.1 278.9 127.0 282.7 124.5 C 286.1 122.4 285.9 121.3 282.4 121.8 C 281.3 122.1 276.4 126.5 274.9 130.6 C 273.8 133.4 276.1 133.8 276.6 137.2 z " id="path830" sodipodi:nodetypes="csssss" font-size="12" fill="#ffffff" stroke="#ffffff" stroke-opacity="1"/>
  <path d="M 467.9 124.4 C 467.6 121.3 455.8 143.9 455.0 149.5 C 453.2 163.2 456.3 176.0 458.0 175.9 C 461.1 175.6 455.4 165.9 457.0 152.5 C 458.4 142.7 467.9 131.3 467.9 124.4 z " id="path832" sodipodi:nodetypes="cssss" font-size="12" fill="#ffffff" stroke="#ffffff" stroke-opacity="1"/>
  <path d="M 428.5 128.2 C 429.7 127.9 430.0 129.6 429.0 129.8 C 427.6 130.5 427.1 128.7 428.5 128.2 z " id="path834" sodipodi:nodetypes="css" font-size="12" fill="#ffffff" stroke="#ffffff" stroke-opacity="1"/>
  <path d="M 415.5 137.6 C 412.4 138.9 414.0 141.2 416.6 141.3 C 425.3 141.9 423.2 139.7 419.6 139.4 C 416.8 139.2 418.9 136.8 415.5 137.6 z " id="path838" sodipodi:nodetypes="csss" font-size="12" fill="#ffffff" stroke="#ffffff" stroke-opacity="1"/>
  <path d="M 411.4 148.0 C 409.9 143.8 406.6 155.2 413.1 155.1 C 418.4 155.3 412.7 153.2 411.4 148.0 z " id="path843" sodipodi:nodetypes="css" font-size="12" fill="#ffffff" stroke="#ffffff" stroke-opacity="1"/>
  <path d="M 386.3 153.2 C 386.4 153.2 392.8 159.8 394.4 159.8 C 400.6 159.8 405.6 159.9 406.5 158.8 C 408.9 157.1 395.5 158.0 394.9 157.6 C 391.3 155.1 393.3 152.7 386.3 153.2 z " id="path845" sodipodi:nodetypes="cssss" font-size="12" fill="#ffffff" stroke="#ffffff" stroke-opacity="1"/>
  <path d="M 297.7 158.7 C 298.2 171.1 288.0 178.6 285.9 182.2 C 282.4 187.9 282.4 191.7 281.8 194.6 C 281.1 197.6 283.0 200.0 283.1 196.8 C 283.3 188.4 288.5 181.9 290.5 178.7 C 291.2 177.7 294.7 178.2 298.9 165.9 C 299.4 164.5 301.5 162.8 300.2 162.7 C 298.6 162.7 298.7 159.7 298.8 158.7 C 299.1 155.0 297.6 155.0 297.7 158.7 z " id="path846" sodipodi:nodetypes="cssssssss" font-size="12" fill="#ffffff" stroke="#ffffff" stroke-opacity="1"/>
  <path d="M 318.2 156.4 C 316.9 168.8 324.3 172.0 325.1 179.8 C 325.8 185.8 324.5 194.4 322.0 196.8 C 319.6 198.8 312.9 189.5 306.3 191.7 C 290.2 197.0 289.6 215.5 302.2 223.5 C 303.4 224.4 298.2 227.3 296.7 226.7 C 280.6 220.5 282.0 209.0 280.1 210.6 C 275.8 213.4 287.0 229.7 299.0 229.0 C 307.0 228.2 312.4 226.8 312.4 223.4 C 312.4 221.8 303.7 221.5 301.3 219.8 C 291.5 212.9 297.9 192.7 310.5 195.6 C 314.0 196.3 317.5 201.9 318.2 203.9 C 318.8 206.4 321.0 205.6 321.6 204.3 C 324.9 196.4 328.4 192.5 328.4 183.6 C 328.4 178.8 324.3 168.9 322.0 164.3 C 320.9 161.2 318.7 153.6 318.2 156.4 z " id="path848" sodipodi:nodetypes="csssssssssssssss" font-size="12" fill="#ffffff" stroke="#ffffff" stroke-opacity="1"/>
  <path d="M 373.4 155.5 C 372.4 154.4 372.7 165.2 378.7 168.9 C 385.8 173.7 392.1 166.8 390.4 167.0 C 376.9 168.3 376.6 159.6 373.4 155.5 z " id="path849" sodipodi:nodetypes="csss" font-size="12" fill="#ffffff" stroke="#ffffff" stroke-opacity="1"/>
  <path d="M 261.1 200.2 C 260.6 210.7 257.4 214.4 259.4 214.4 C 261.9 214.2 265.3 203.4 266.6 188.5 C 268.0 175.1 283.0 163.6 279.2 164.9 C 274.3 166.5 261.9 180.2 261.1 200.2 z " id="path851" sodipodi:nodetypes="cssss" font-size="12" fill="#ffffff" stroke="#ffffff" stroke-opacity="1"/>
  <path d="M 196.9 176.5 C 192.6 172.9 196.9 174.0 199.0 175.6 C 202.0 178.2 200.2 178.9 196.9 176.5 z " id="path852" sodipodi:nodetypes="css" font-size="12" fill="#ffffff" stroke="#ffffff" stroke-opacity="1"/>
  <path d="M 225.6 175.6 C 225.1 169.7 223.6 181.3 219.5 183.5 C 215.6 185.3 215.2 186.0 215.2 188.0 C 215.1 190.8 217.7 187.4 221.0 186.1 C 223.9 184.7 225.9 180.0 225.6 175.6 z " id="path853" sodipodi:nodetypes="cssss" font-size="12" fill="#ffffff" stroke="#ffffff" stroke-opacity="1"/>
  <path d="M 334.7 174.5 C 333.6 174.3 334.3 179.5 333.8 184.4 C 333.7 188.0 329.8 195.9 329.5 197.9 C 328.7 210.9 331.7 217.8 333.0 212.2 C 334.6 205.5 351.0 190.0 349.0 188.3 C 347.4 187.3 334.7 206.1 331.8 201.2 C 330.9 199.7 342.2 176.3 334.7 174.5 z " id="path854" sodipodi:nodetypes="cssssss" font-size="12" fill="#ffffff" stroke="#ffffff" stroke-opacity="1"/>
  <path d="M 357.3 176.2 C 356.7 176.1 358.5 180.0 360.7 180.2 C 377.7 181.5 374.6 175.2 385.4 179.9 C 387.5 177.1 380.1 173.4 367.3 178.0 C 365.2 178.8 359.5 176.4 357.3 176.2 z " id="path855" sodipodi:nodetypes="cscss" font-size="12" fill="#ffffff" stroke="#ffffff" stroke-opacity="1"/>
  <path d="M 528.6 196.4 C 532.3 197.7 532.5 190.7 541.5 184.9 C 556.4 175.9 570.9 186.0 567.6 182.6 C 559.4 175.1 530.3 179.6 528.6 196.4 " id="path856" sodipodi:nodetypes="csss" font-size="12" fill="#ffffff" stroke="#ffffff" stroke-opacity="1"/>
  <path d="M 358.9 196.7 C 363.1 196.7 369.5 196.1 371.5 195.5 C 373.8 194.6 377.4 194.2 384.2 196.7 C 381.4 192.1 374.2 191.5 367.8 193.9 C 362.3 195.5 359.3 193.8 358.9 196.7 z " id="path857" sodipodi:nodetypes="cscsc" font-size="12" fill="#ffffff" stroke="#ffffff" stroke-opacity="1"/>
  <path d="M 209.8 207.9 C 207.1 207.4 206.3 216.4 208.0 222.2 C 209.2 226.6 212.1 228.9 211.7 227.7 C 207.3 215.2 210.8 208.1 209.8 207.9 z " id="path858" sodipodi:nodetypes="csss" font-size="12" fill="#ffffff" stroke="#ffffff" stroke-opacity="1"/>
  <path d="M 548.1 222.2 C 546.7 224.8 544.9 233.6 547.8 232.9 C 551.6 210.7 570.3 212.5 568.9 211.4 C 565.8 208.6 553.9 211.7 548.1 222.2 z " id="path859" sodipodi:nodetypes="ccss" font-size="12" fill="#ffffff" stroke="#ffffff" stroke-opacity="1"/>
  <path d="M 359.5 213.4 C 357.2 216.4 352.1 214.7 352.0 215.7 C 351.9 217.3 355.5 215.8 356.1 217.1 C 359.3 223.6 361.8 210.4 359.5 213.4 z " id="path860" sodipodi:nodetypes="csss" font-size="12" fill="#ffffff" stroke="#ffffff" stroke-opacity="1"/>
  <path d="M 280.1 228.3 C 263.7 245.0 248.6 256.2 229.0 258.9 C 228.3 259.0 228.3 261.1 229.0 261.0 C 242.3 259.3 255.7 253.1 266.4 244.3 C 272.0 239.8 282.3 233.4 280.1 228.3 z " id="path865" sodipodi:nodetypes="csscc" font-size="12" fill="#ffffff" stroke="#ffffff" stroke-width="0.954167" stroke-opacity="1"/>
  <path d="M 336.4 231.8 C 335.9 233.8 336.6 235.6 337.8 238.1 C 338.1 238.7 339.5 239.6 339.6 239.0 C 340.3 236.5 340.7 234.1 339.6 232.1 C 339.1 231.1 336.7 230.8 336.4 231.8 z " id="path866" sodipodi:nodetypes="cssss" font-size="12" fill="#ffffff" stroke="#ffffff" stroke-opacity="1"/>
  <path d="M 282.1 270.2 C 281.2 272.1 281.4 276.2 281.6 280.0 C 281.6 280.3 282.6 280.6 282.7 279.9 C 283.6 277.6 281.5 272.6 283.8 271.6 C 287.4 269.9 282.6 269.4 282.1 270.2 z " id="path867" sodipodi:nodetypes="cssss" font-size="12" fill="#ffffff" stroke="#ffffff" stroke-opacity="1"/>
  <path d="M 188.8 278.8 C 186.4 279.1 192.2 283.2 191.9 287.4 C 191.9 288.0 194.7 287.9 194.5 285.5 C 194.6 281.8 190.7 278.6 188.8 278.8 z " id="path868" sodipodi:nodetypes="csss" font-size="12" fill="#ffffff" stroke="#ffffff" stroke-opacity="1"/>
  <path d="M 262.3 281.6 C 265.4 285.1 262.9 284.2 263.3 289.6 C 263.4 291.2 264.7 292.7 264.7 290.8 C 264.5 286.2 266.8 288.8 267.0 281.2 C 266.9 279.0 259.7 278.5 262.3 281.6 z " id="path869" sodipodi:nodetypes="cssss" font-size="12" fill="#ffffff" stroke="#ffffff" stroke-opacity="1"/>
  <path d="M 487.7 279.1 C 493.0 292.7 521.7 322.0 546.1 320.8 C 539.6 318.7 528.9 314.9 517.6 307.0 C 505.5 298.4 487.7 275.1 487.7 279.1 z " id="path870" sodipodi:nodetypes="ccsc" font-size="12" fill="#ffffff" stroke="#ffffff" stroke-opacity="1"/>
  <path d="M 181.4 286.0 C 180.6 286.0 180.3 287.6 181.1 288.0 C 182.4 288.7 188.1 288.2 187.6 286.8 C 187.5 285.6 182.9 286.0 181.4 286.0 z " id="path871" sodipodi:nodetypes="csss" font-size="12" fill="#ffffff" stroke="#ffffff" stroke-opacity="1"/>
  <path d="M 240.6 286.5 C 240.3 288.7 241.9 286.7 243.1 289.5 C 243.4 290.0 244.7 287.2 244.0 286.3 C 243.3 285.4 240.7 285.9 240.6 286.5 z " id="path872" sodipodi:nodetypes="csss" font-size="12" fill="#ffffff" stroke="#ffffff" stroke-opacity="1"/>
  <path d="M 259.9 328.7 C 279.7 319.7 275.2 315.4 296.2 297.8 C 304.0 291.8 315.0 291.8 321.3 290.3 C 302.5 282.4 284.7 304.0 275.2 315.3 C 267.4 323.1 261.1 321.3 259.9 328.7 z " id="path873" sodipodi:nodetypes="csccc" font-size="12" fill="#ffffff" stroke="#ffffff" stroke-opacity="1"/>
  <path d="M 211.9 291.7 C 209.8 290.5 209.3 305.9 213.0 305.6 C 218.8 304.4 223.9 309.5 223.5 306.4 C 223.1 303.0 216.5 306.1 214.6 303.6 C 211.9 300.0 216.3 294.6 211.9 291.7 z " id="path874" sodipodi:nodetypes="cssss" font-size="12" fill="#ffffff" stroke="#ffffff" stroke-opacity="1"/>
  <path d="M 178.5 292.3 C 178.1 297.9 184.4 297.0 186.5 301.2 C 187.5 303.1 187.9 309.7 190.9 310.2 C 193.8 310.8 195.9 310.0 190.5 306.5 C 188.6 305.0 188.8 296.8 178.5 292.3 z " id="path875" sodipodi:nodetypes="csssc" font-size="12" fill="#ffffff" stroke="#ffffff" stroke-opacity="1"/>
  <path d="M 321.7 242.9 C 317.7 242.8 322.8 242.8 322.6 253.1 C 322.6 256.2 324.1 259.2 324.1 256.4 C 323.9 251.4 325.7 243.3 321.7 242.9 z " id="path877" sodipodi:nodetypes="csss" font-size="12" fill="#ffffff" stroke="#ffffff" stroke-opacity="1"/>
  <path d="M 209.4 246.2 C 208.9 244.9 203.5 249.6 197.4 251.8 C 196.8 252.1 197.7 253.6 198.3 253.3 C 203.6 250.4 210.2 249.9 209.4 246.2 z " id="path878" sodipodi:nodetypes="csss" font-size="12" fill="#ffffff" stroke="#ffffff" stroke-opacity="1"/>
  <path d="M 413.8 243.8 C 414.9 249.2 418.1 260.3 415.3 268.9 C 413.3 276.4 400.5 300.7 406.8 319.5 C 411.4 333.3 417.1 335.5 418.0 343.8 C 418.3 350.3 417.8 355.8 419.9 356.3 C 420.7 356.1 420.5 348.3 420.3 342.2 C 420.1 336.7 408.1 322.6 408.4 308.1 C 408.7 292.4 411.2 290.1 414.4 280.2 C 417.6 269.8 420.2 264.5 419.4 259.1 C 418.8 251.7 417.0 243.3 413.8 243.8 z " id="path879" sodipodi:nodetypes="cccccssssc" font-size="12" fill="#ffffff" stroke="#ffffff" stroke-opacity="1"/>
  <path d="M 309.9 249.8 C 307.4 250.4 311.9 257.7 312.3 257.4 C 313.4 256.2 313.6 248.9 309.9 249.8 z " id="path880" sodipodi:nodetypes="css" font-size="12" fill="#ffffff" stroke="#ffffff" stroke-opacity="1"/>
  <path d="M 349.5 281.9 C 351.6 284.8 372.2 259.5 380.0 260.3 C 391.1 261.3 387.9 266.2 389.4 267.1 C 396.6 269.4 389.0 253.2 390.0 254.2 C 399.4 263.4 392.6 270.5 396.7 270.3 C 399.4 270.2 397.0 253.1 398.8 253.4 C 403.9 255.3 398.6 272.4 401.1 271.7 C 407.9 269.8 405.8 252.7 407.2 253.7 C 412.1 257.6 405.7 270.4 407.5 269.9 C 411.6 268.7 413.0 255.2 410.2 251.9 C 407.6 248.5 401.2 249.1 394.3 249.6 C 380.2 251.3 347.6 279.7 349.5 281.9 z " id="path881" sodipodi:nodetypes="csssssssssss" font-size="12" fill="#ffffff" stroke="#ffffff" stroke-opacity="1"/>
  <path d="M 190.5 252.7 C 189.8 256.2 192.4 255.5 192.5 261.2 C 192.5 263.2 193.8 265.7 193.8 264.1 C 193.7 259.7 193.3 256.3 193.7 252.9 C 193.7 251.7 190.7 251.5 190.5 252.7 z " id="path882" sodipodi:nodetypes="cssss" font-size="12" fill="#ffffff" stroke="#ffffff" stroke-opacity="1"/>
  <path d="M 297.7 260.4 C 297.4 264.1 297.4 272.1 298.4 271.3 C 299.9 270.6 297.8 268.9 300.0 268.5 C 301.9 268.4 301.1 264.5 301.1 260.3 C 301.0 259.1 297.8 257.7 297.7 260.4 z " id="path883" sodipodi:nodetypes="cssss" font-size="12" fill="#ffffff" stroke="#ffffff" stroke-opacity="1"/>
  <path d="M 175.7 265.9 C 172.1 266.2 174.6 271.8 176.3 272.1 C 176.9 273.9 174.2 273.9 174.5 275.8 C 173.9 283.5 174.8 283.2 180.0 282.3 C 176.5 279.9 177.0 276.0 179.0 274.0 C 180.7 271.7 178.3 274.0 178.2 271.4 C 178.1 270.0 174.2 268.6 175.6 267.9 C 177.4 267.2 178.7 265.2 175.7 265.9 z " id="path884" sodipodi:nodetypes="ccscssss" font-size="12" fill="#ffffff" stroke="#ffffff" stroke-opacity="1"/>
  <path d="M 302.4 359.9 C 303.2 367.6 289.3 376.0 290.3 376.9 C 292.8 378.8 306.0 368.2 305.5 359.0 C 305.4 356.4 302.1 356.4 302.4 359.9 z " id="path885" sodipodi:nodetypes="csss" font-size="12" fill="#ffffff" stroke="#ffffff" stroke-opacity="1"/>
  <path d="M 517.1 356.7 C 516.0 363.1 524.8 367.7 514.3 380.1 C 508.1 387.3 505.2 395.0 511.0 402.3 C 514.4 406.1 517.1 405.6 517.1 418.7 C 517.1 419.4 518.0 417.6 518.1 417.0 C 518.8 413.0 520.0 410.7 518.1 406.6 C 515.6 400.6 511.2 400.9 510.8 392.7 C 510.9 389.2 521.6 375.5 522.3 370.4 C 523.1 364.8 517.5 352.9 517.1 356.7 z " id="path886" sodipodi:nodetypes="cssssssss" font-size="12" fill="#ffffff" stroke="#ffffff" stroke-opacity="1"/>
  <path d="M 547.0 359.4 C 546.4 359.4 547.2 361.8 550.4 362.6 C 553.2 362.8 555.5 361.3 555.7 367.4 C 555.9 372.9 555.9 379.1 559.7 378.4 C 560.0 378.3 556.7 371.9 557.2 364.3 C 557.0 360.4 551.0 359.9 547.0 359.4 z " id="path887" sodipodi:nodetypes="csssss" font-size="12" fill="#ffffff" stroke="#ffffff" stroke-opacity="1"/>
  <path d="M 398.6 363.2 C 395.2 365.6 403.8 374.5 414.8 374.2 C 416.5 374.2 416.5 372.8 412.3 371.9 C 402.5 370.3 399.4 362.5 398.6 363.2 z " id="path888" sodipodi:nodetypes="csss" font-size="12" fill="#ffffff" stroke="#ffffff" stroke-opacity="1"/>
  <path d="M 250.1 371.1 C 245.9 373.7 245.9 374.4 251.8 374.2 C 255.7 373.7 260.2 370.9 255.6 368.8 C 254.8 368.5 252.6 369.7 250.1 371.1 z " id="path889" sodipodi:nodetypes="csss" font-size="12" fill="#ffffff" stroke="#ffffff" stroke-opacity="1"/>
  <path d="M 347.7 368.0 C 347.7 370.9 350.0 369.4 350.6 369.6 C 352.3 370.2 355.0 369.1 355.1 370.7 C 355.6 381.2 352.0 378.4 352.6 382.5 C 352.9 384.4 354.1 382.1 354.4 380.8 C 356.5 376.2 359.1 373.0 357.8 369.8 C 356.8 367.6 351.6 368.0 347.7 368.0 z " id="path890" sodipodi:nodetypes="cssssss" font-size="12" fill="#ffffff" stroke="#ffffff" stroke-opacity="1"/>
  <path d="M 242.5 374.6 C 241.9 374.6 242.1 378.0 242.9 378.8 C 243.7 379.6 246.2 379.4 246.2 378.8 C 246.2 377.0 243.4 374.6 242.5 374.6 z " id="path891" sodipodi:nodetypes="csss" font-size="12" fill="#ffffff" stroke="#ffffff" stroke-opacity="1"/>
  <path d="M 249.8 380.1 C 248.2 380.4 255.2 386.9 255.4 385.3 C 256.1 378.2 253.4 379.8 249.8 380.1 z " id="path892" sodipodi:nodetypes="css" font-size="12" fill="#ffffff" stroke="#ffffff" stroke-opacity="1"/>
  <path d="M 330.4 380.9 C 330.2 379.2 323.3 379.8 328.9 381.9 C 329.5 382.1 329.2 392.6 329.9 392.6 C 331.4 392.6 330.8 386.1 330.4 380.9 z " id="path893" sodipodi:nodetypes="csss" font-size="12" fill="#ffffff" stroke="#ffffff" stroke-opacity="1"/>
  <path d="M 537.4 382.8 C 535.1 384.4 541.7 387.3 542.5 389.9 C 543.5 394.3 545.0 399.5 545.7 396.3 C 548.0 386.2 539.3 381.8 537.4 382.8 z " id="path894" sodipodi:nodetypes="csss" font-size="12" fill="#ffffff" stroke="#ffffff" stroke-opacity="1"/>
  <path d="M 313.2 389.3 C 313.2 391.2 317.2 389.7 317.8 390.7 C 318.9 392.5 317.8 397.0 318.4 397.2 C 319.9 397.7 320.6 389.2 318.8 389.3 C 318.1 388.9 313.2 388.4 313.2 389.3 z " id="path895" sodipodi:nodetypes="cssss" font-size="12" fill="#ffffff" stroke="#ffffff" stroke-opacity="1"/>
  <path d="M 229.1 391.1 C 229.2 395.6 228.1 417.7 233.9 412.0 C 234.8 411.5 229.3 389.8 229.1 391.1 z " id="path896" sodipodi:nodetypes="css" font-size="12" fill="#ffffff" stroke="#ffffff" stroke-opacity="1"/>
  <path d="M 323.7 324.4 C 319.5 329.6 307.2 332.7 301.8 326.7 C 301.5 336.1 309.4 333.5 317.4 333.5 L 315.6 338.5 C 307.8 344.7 298.1 338.7 287.0 332.8 C 292.5 344.8 309.6 348.8 321.0 338.7 C 324.5 336.3 323.9 329.5 323.7 324.4 z " id="path897" sodipodi:nodetypes="ccccccc" font-size="12" fill="#ffffff" stroke="#ffffff" stroke-opacity="1"/>
  <path d="M 567.6 325.4 C 565.1 327.4 573.6 331.4 571.8 343.5 C 571.1 348.0 573.3 342.0 573.7 341.4 C 577.0 336.9 568.5 324.4 567.6 325.4 z " id="path898" sodipodi:nodetypes="csss" font-size="12" fill="#ffffff" stroke="#ffffff" stroke-opacity="1"/>
  <path d="M 236.5 329.8 C 239.5 341.2 242.7 340.5 248.1 342.0 C 245.0 339.1 237.7 329.4 236.5 329.8 z " id="path899" sodipodi:nodetypes="ccc" font-size="12" fill="#ffffff" stroke="#ffffff" stroke-opacity="1"/>
  <path d="M 334.3 330.8 C 333.9 339.8 338.1 340.7 336.8 349.5 C 335.5 358.0 328.3 361.7 327.2 364.5 C 326.1 368.4 327.3 370.9 328.5 370.3 C 327.8 362.6 335.7 358.7 338.3 353.4 C 341.7 345.2 334.3 327.2 334.3 330.8 z " id="path900" sodipodi:nodetypes="cssccs" font-size="12" fill="#ffffff" stroke="#ffffff" stroke-opacity="1"/>
  <path d="M 529.0 398.5 C 528.2 398.5 528.3 400.4 528.6 406.2 C 528.5 409.5 531.3 413.8 531.5 412.4 C 532.6 400.0 529.4 398.5 529.0 398.5 z " id="path901" sodipodi:nodetypes="csss" font-size="12" fill="#ffffff" stroke="#ffffff" stroke-opacity="1"/>
  <path d="M 307.6 400.3 C 308.9 400.3 308.3 406.4 307.4 406.4 C 305.9 406.7 305.9 400.3 307.6 400.3 z " id="path902" sodipodi:nodetypes="css" font-size="12" fill="#ffffff" stroke="#ffffff" stroke-opacity="1"/>
  <path d="M 295.0 407.8 C 297.4 409.7 297.7 405.3 295.4 404.9 C 292.1 405.0 291.5 405.4 295.0 407.8 z " id="path903" sodipodi:nodetypes="css" font-size="12" fill="#ffffff" stroke="#ffffff" stroke-opacity="1"/>
  <path d="M 247.1 408.1 C 249.5 409.7 249.3 413.8 250.8 413.2 C 252.6 412.7 251.7 409.6 250.8 408.1 C 249.4 406.2 246.4 407.8 247.1 408.1 z " id="path904" sodipodi:nodetypes="csss" font-size="12" fill="#ffffff" stroke="#ffffff" stroke-opacity="1"/>
  <path d="M 432.2 409.9 C 432.5 411.5 441.1 412.7 441.2 419.2 C 441.2 420.4 442.6 421.1 442.8 418.8 C 443.7 411.9 431.9 408.3 432.2 409.9 z " id="path905" sodipodi:nodetypes="csss" font-size="12" fill="#ffffff" stroke="#ffffff" stroke-opacity="1"/>
  <path d="M 290.7 411.8 C 291.4 411.3 294.5 411.4 294.4 413.2 C 294.2 414.4 288.8 413.7 290.7 411.8 z " id="path906" sodipodi:nodetypes="css" font-size="12" fill="#ffffff" stroke="#ffffff" stroke-opacity="1"/>
  <path d="M 244.2 416.0 C 241.8 416.6 244.2 419.5 241.0 422.6 C 239.2 424.4 249.6 426.3 252.4 428.7 C 253.3 429.9 258.2 427.1 247.1 424.1 C 241.0 423.0 245.4 415.9 244.2 416.0 z " id="path907" sodipodi:nodetypes="cssss" font-size="12" fill="#ffffff" stroke="#ffffff" stroke-opacity="1"/>
  <path d="M 267.6 419.1 C 266.4 419.5 269.2 426.4 272.2 426.6 C 277.5 426.9 280.1 427.0 285.8 426.6 C 287.6 426.3 288.3 421.7 287.1 421.4 C 285.3 421.0 287.8 426.4 278.8 425.6 C 274.6 424.7 271.1 418.2 267.6 419.1 z " id="path908" sodipodi:nodetypes="csssss" font-size="12" fill="#ffffff" stroke="#ffffff" stroke-opacity="1"/>
  <path d="M 423.2 421.6 C 423.0 420.5 427.0 420.8 427.0 421.8 C 426.9 422.7 423.4 422.7 423.2 421.6 z " id="path909" sodipodi:nodetypes="css" font-size="12" fill="#ffffff" stroke="#ffffff" stroke-opacity="1"/>
  <path d="M 435.8 341.1 C 437.0 352.1 449.1 358.7 463.9 349.0 C 467.7 346.6 463.3 370.4 437.2 363.2 C 436.5 363.0 441.6 366.5 442.3 366.7 C 453.2 369.4 474.9 358.3 465.3 341.1 C 463.5 338.2 456.3 350.7 451.0 350.7 C 442.2 350.7 435.3 337.2 435.8 341.1 z " id="path910" sodipodi:nodetypes="cssssss" font-size="12" fill="#ffffff" stroke="#ffffff" stroke-opacity="1"/>
  <path d="M 300.8 349.8 C 300.2 349.8 299.8 350.9 300.4 351.2 C 302.8 352.5 306.2 353.9 308.7 353.9 C 309.3 353.9 308.9 352.4 308.3 352.1 C 305.8 350.8 303.3 349.8 300.8 349.8 z " id="path911" sodipodi:nodetypes="cssss" font-size="12" fill="#ffffff" stroke="#ffffff" stroke-opacity="1"/>
  <path d="M 542.0 64.2 C 544.8 69.8 547.5 71.6 548.3 81.5 C 550.1 96.8 538.1 110.9 530.0 121.6 C 525.8 127.6 519.9 136.0 515.5 143.2 C 504.8 161.5 491.6 179.3 498.2 205.4 C 503.4 226.4 525.0 246.4 538.1 263.9 C 541.9 268.9 547.8 273.8 548.8 279.9 C 548.4 289.6 537.4 294.0 540.1 294.7 C 551.8 288.7 555.2 280.2 546.6 267.9 C 533.7 249.4 510.3 231.2 503.0 209.3 C 490.0 172.8 525.1 138.7 544.2 108.2 C 553.8 92.5 556.7 64.5 542.0 64.2 z " id="path912" sodipodi:nodetypes="cscscsccscsc" font-size="12" fill="#ffffff" stroke="#ffffff" stroke-opacity="1"/>
  <path d="M 325.1 69.1 C 323.9 69.5 321.6 73.5 320.8 76.2 C 320.5 77.5 320.6 87.9 320.5 92.0 C 320.6 94.0 323.8 93.8 323.9 91.8 C 323.8 88.2 323.6 75.2 324.6 74.1 C 326.4 72.2 327.1 68.4 325.1 69.1 z " id="path913" sodipodi:nodetypes="csssss" font-size="12" fill="#ffffff" stroke="#ffffff" stroke-opacity="1"/>
  <path d="M 418.4 83.3 C 418.4 82.1 427.2 82.4 427.2 83.3 C 427.2 84.8 418.6 84.3 418.4 83.3 z " id="path915" sodipodi:nodetypes="css" font-size="12" fill="#ffffff" stroke="#ffffff" stroke-opacity="1"/>
  <path d="M 469.8 87.1 C 468.4 87.0 467.7 101.4 465.8 108.8 C 464.3 114.1 461.6 119.9 459.3 125.3 C 469.6 122.4 472.4 87.3 469.8 87.1 z " id="path918" sodipodi:nodetypes="cscs" font-size="12" fill="#ffffff" stroke="#ffffff" stroke-opacity="1"/>
  <path d="M 411.7 90.0 C 414.1 91.3 413.9 93.3 414.8 93.3 C 415.9 93.3 415.6 91.4 415.5 90.2 C 415.3 89.1 411.2 89.7 411.7 90.0 z " id="path919" sodipodi:nodetypes="csss" font-size="12" fill="#ffffff" stroke="#ffffff" stroke-opacity="1"/>
  <path d="M 372.6 112.0 C 370.1 109.4 367.6 98.0 365.8 98.7 C 364.5 99.3 367.7 109.3 370.3 113.0 C 371.7 114.6 372.3 124.9 373.9 125.3 C 374.8 125.1 375.5 114.6 372.6 112.0 z " id="path920" sodipodi:nodetypes="cssss" font-size="12" fill="#ffffff" stroke="#ffffff" stroke-opacity="1"/>
  <path d="M 583.6 100.0 C 578.3 115.8 562.8 136.9 547.5 148.2 C 538.8 154.5 522.7 161.0 528.5 160.5 C 544.2 158.7 562.2 144.8 573.8 125.0 C 579.0 115.5 586.8 105.3 583.6 100.0 " id="path921" sodipodi:nodetypes="csscc" font-size="12" fill="#ffffff" stroke="#ffffff" stroke-opacity="1"/>
  <path d="M 439.9 141.6 C 448.1 134.9 451.3 114.3 454.7 91.0 C 455.8 83.2 457.1 70.5 459.7 62.7 C 463.9 50.1 480.6 37.2 488.1 36.0 C 480.5 32.7 465.5 46.7 460.5 54.4 C 453.8 65.3 451.7 87.5 449.5 101.9 C 448.0 111.4 447.3 116.3 446.1 122.4 C 442.8 135.9 437.9 141.6 439.9 141.6 z " id="path923" sodipodi:nodetypes="csscsssc" font-size="12" fill="#ffffff" stroke="#ffffff" stroke-opacity="1"/>
  <path d="M 499.7 91.3 C 501.8 91.4 500.9 88.6 497.8 87.3 C 495.7 86.8 493.5 83.0 492.4 75.3 C 490.5 62.9 501.8 58.5 497.0 59.2 C 484.7 60.7 487.9 90.9 499.7 91.3 z " id="path925" sodipodi:nodetypes="cssss" font-size="12" fill="#ffffff" stroke="#ffffff" stroke-opacity="1"/>
  <path d="M 416.4 40.1 C 417.0 44.3 412.3 43.9 415.2 45.6 C 417.3 47.0 415.8 54.5 417.2 54.4 C 418.4 54.3 420.4 48.6 419.8 41.7 C 419.6 38.9 416.2 38.9 416.4 40.1 z " id="path929" sodipodi:nodetypes="cssss" font-size="12" fill="#ffffff" stroke="#ffffff" stroke-opacity="1"/>
  <path d="M 448.5 435.0 C 449.1 444.1 444.3 445.0 447.5 445.8 C 453.3 447.0 459.7 448.8 463.2 451.6 C 465.6 453.4 468.9 449.0 453.1 444.2 C 451.5 443.8 452.8 436.6 451.9 434.4 C 451.2 432.2 448.1 431.2 448.5 435.0 z " id="path932" sodipodi:nodetypes="csssss" font-size="12" fill="#ffffff" stroke="#ffffff" stroke-opacity="1"/>
  <path d="M 478.5 434.8 C 477.4 435.2 478.5 447.5 481.7 447.2 C 485.8 447.2 480.1 444.3 494.9 445.0 C 501.5 445.2 494.6 441.8 493.5 441.7 C 489.6 441.4 483.6 442.3 483.1 441.6 C 481.3 439.1 480.3 434.2 478.5 434.8 z " id="path933" sodipodi:nodetypes="csssss" font-size="12" fill="#ffffff" stroke="#ffffff" stroke-opacity="1"/>
  <path d="M 425.8 427.7 C 420.3 427.3 427.1 428.5 428.6 436.7 C 430.2 446.6 437.0 442.4 435.8 442.1 C 427.7 439.7 431.6 428.0 425.8 427.7 z " id="path934" sodipodi:nodetypes="csss" font-size="12" fill="#ffffff" stroke="#ffffff" stroke-opacity="1"/>
  <path d="M 372.0 232.6 A 2.4 2.7 0 1 0 367.2,232.6 A 2.4 2.7 0 1 0 372.0 232.6 L 369.6 232.6 z" id="path700" sodipodi:cx="369.623810" sodipodi:cy="232.630280" sodipodi:rx="2.423763" sodipodi:ry="2.726727" sodipodi:type="arc" transform="matrix(0.437501,0.000000,0.000000,0.388887,202.9142,127.7722)" font-size="12" fill="#ffffff" fill-rule="evenodd" stroke="#ffffff" stroke-width="2.35703" stroke-opacity="1"/>
  <path d="M 372.0 232.6 A 2.4 2.7 0 1 0 367.2,232.6 A 2.4 2.7 0 1 0 372.0 232.6 L 369.6 232.6 z" id="path701" sodipodi:cx="369.623810" sodipodi:cy="232.630280" sodipodi:rx="2.423763" sodipodi:ry="2.726727" sodipodi:type="arc" transform="matrix(0.437501,0.000000,0.000000,0.388887,207.4588,127.7722)" font-size="12" fill="#ffffff" fill-rule="evenodd" stroke="#ffffff" stroke-width="2.35703" stroke-opacity="1"/>
  <path d="M 513.2 85.9 C 513.0 84.8 520.0 79.6 517.5 85.5 C 517.2 86.3 514.0 87.0 513.2 85.9 z " id="path698" sodipodi:nodetypes="css" font-size="12" fill="#ffffff" stroke="#ffffff" stroke-opacity="1"/>
  <path d="M 320.3 62.4 C 322.6 63.7 322.4 65.6 323.4 65.7 C 324.4 65.7 324.1 63.8 324.0 62.6 C 323.9 61.5 319.7 62.1 320.3 62.4 z " id="path862" sodipodi:nodetypes="csss" font-size="12" fill="#ffffff" stroke="#ffffff" stroke-opacity="1"/>
  <path d="M 177.1 80.2 C 176.1 80.2 175.8 83.7 177.4 84.0 C 180.6 84.4 180.9 82.7 179.2 82.7 C 177.4 82.7 178.0 80.2 177.1 80.2 z " id="path916" sodipodi:nodetypes="csss" font-size="12" fill="#ffffff" stroke="#ffffff" stroke-opacity="1"/>
  <path d="M 193.1 84.9 C 192.0 84.9 191.7 88.3 193.3 88.6 C 196.5 89.1 196.8 87.3 195.1 87.3 C 193.4 87.3 194.0 84.9 193.1 84.9 z " id="path917" sodipodi:nodetypes="csss" font-size="12" fill="#ffffff" stroke="#ffffff" stroke-opacity="1"/>
  <path d="M 362.6 120.7 C 360.9 117.6 359.1 109.5 357.3 110.2 C 356.1 110.9 358.9 118.4 360.9 122.4 C 361.9 124.3 363.2 129.8 364.8 130.1 C 365.7 130.0 364.3 124.3 362.6 120.7 z " id="path928" sodipodi:nodetypes="cssss" font-size="12" fill="#ffffff" stroke="#ffffff" stroke-opacity="1"/>
  <path d="M 353.1 131.3 C 350.8 128.6 351.4 121.6 348.1 125.1 C 347.1 126.1 349.0 130.3 351.6 133.9 C 353.1 135.5 352.2 139.7 353.5 141.6 C 358.2 148.0 355.7 134.9 353.1 131.3 z " id="path935" sodipodi:nodetypes="cssss" font-size="12" fill="#ffffff" stroke="#ffffff" stroke-opacity="1"/>
  <path d="M 345.8 140.1 C 343.5 137.4 345.0 135.6 341.1 133.0 C 339.9 132.3 342.4 137.8 344.1 142.4 C 344.9 144.3 344.9 146.2 346.2 148.0 C 346.8 148.7 347.8 142.2 345.8 140.1 z " id="path936" sodipodi:nodetypes="cssss" font-size="12" fill="#ffffff" stroke="#ffffff" stroke-opacity="1"/>
  <path d="M 337.3 147.6 C 335.2 144.7 336.6 139.4 334.7 140.1 C 333.5 140.7 333.8 145.1 336.2 148.9 C 337.3 150.2 335.2 154.6 338.3 155.1 C 341.0 155.5 340.2 151.1 337.3 147.6 z " id="path937" sodipodi:nodetypes="cssss" font-size="12" fill="#ffffff" stroke="#ffffff" stroke-opacity="1"/>
  <path d="M 331.9 156.6 C 329.4 153.9 327.9 145.5 327.5 147.4 C 326.2 153.4 327.8 155.2 330.4 158.9 C 331.9 160.5 331.6 164.6 334.7 164.2 C 335.9 164.0 333.0 158.1 331.9 156.6 z " id="path938" sodipodi:nodetypes="cssss" font-size="12" fill="#ffffff" stroke="#ffffff" stroke-opacity="1"/>
  <path d="M 307.3 155.9 C 306.4 156.1 306.8 158.0 306.9 162.5 C 307.0 165.6 306.4 168.8 307.4 168.6 C 308.4 168.4 308.6 155.4 307.3 155.9 z " id="path939" sodipodi:nodetypes="csss" font-size="12" fill="#ffffff" stroke="#ffffff" stroke-opacity="1"/>
  <path d="M 240.6 197.1 C 238.9 208.2 231.8 212.9 233.6 212.1 C 240.9 208.8 242.9 198.8 246.9 182.8 C 251.2 165.4 267.7 151.7 264.2 153.7 C 260.4 155.9 245.5 167.7 240.6 197.1 z " id="path940" sodipodi:nodetypes="cssss" font-size="12" fill="#ffffff" stroke="#ffffff" stroke-opacity="1"/>
  <path d="M 266.5 141.8 C 267.6 136.1 263.2 145.1 259.5 147.6 C 256.4 149.9 254.0 150.1 254.0 151.8 C 253.9 153.4 257.1 152.5 259.8 150.2 C 262.4 147.6 264.7 149.0 266.5 141.8 z " id="path941" sodipodi:nodetypes="cssss" font-size="12" fill="#ffffff" stroke="#ffffff" stroke-opacity="1"/>
  <path d="M 262.4 138.3 C 262.6 136.7 260.6 136.8 257.2 139.8 C 254.8 142.3 251.8 140.6 251.4 142.6 C 251.0 144.1 257.0 143.6 258.4 141.9 C 261.1 139.3 262.1 140.3 262.4 138.3 z " id="path942" sodipodi:nodetypes="cssss" font-size="12" fill="#ffffff" stroke="#ffffff" stroke-opacity="1"/>
  <path d="M 254.8 130.8 C 253.6 130.0 252.8 135.1 248.8 136.8 C 246.4 138.0 245.0 137.0 245.0 138.3 C 245.5 140.2 251.2 138.8 253.0 137.0 C 256.0 134.3 259.3 133.8 254.8 130.8 z " id="path943" sodipodi:nodetypes="cssss" font-size="12" fill="#ffffff" stroke="#ffffff" stroke-opacity="1"/>
  <path d="M 248.8 126.4 C 247.1 126.7 247.3 127.7 244.8 130.3 C 241.5 134.1 237.8 131.8 238.1 134.0 C 238.0 134.7 245.8 134.9 247.2 132.9 C 252.2 126.7 251.3 125.6 248.8 126.4 z " id="path944" sodipodi:nodetypes="cssss" font-size="12" fill="#ffffff" stroke="#ffffff" stroke-opacity="1"/>
  <path d="M 209.8 162.3 C 209.7 159.7 206.3 160.1 206.2 161.7 C 206.0 166.0 201.6 166.3 199.7 167.4 C 197.3 168.7 206.2 168.9 206.8 168.2 C 208.4 165.5 210.1 166.7 209.8 162.3 z " id="path945" sodipodi:nodetypes="cssss" font-size="12" fill="#ffffff" stroke="#ffffff" stroke-opacity="1"/>
  <path d="M 207.7 144.7 C 204.8 145.4 207.6 146.9 204.4 150.1 C 201.3 153.5 199.6 152.4 199.4 153.8 C 199.3 155.1 203.2 155.9 205.8 152.8 C 209.6 148.9 212.0 144.0 207.7 144.7 z " id="path946" sodipodi:nodetypes="cssss" font-size="12" fill="#ffffff" stroke="#ffffff" stroke-opacity="1"/>
  <path d="M 205.1 122.1 C 204.9 120.8 203.8 125.2 201.5 127.9 C 198.3 131.1 195.2 132.0 195.0 133.3 C 194.9 134.6 198.8 135.4 201.5 132.3 C 205.2 128.4 206.0 127.3 205.1 122.1 z " id="path947" sodipodi:nodetypes="cssss" font-size="12" fill="#ffffff" stroke="#ffffff" stroke-opacity="1"/>
  <path d="M 186.8 65.0 C 183.9 65.8 186.7 67.2 183.5 70.5 C 180.4 73.8 178.7 72.8 178.5 74.1 C 178.4 75.4 182.2 76.2 184.9 73.1 C 188.7 69.2 191.1 64.3 186.8 65.0 z " id="path948" sodipodi:nodetypes="cssss" font-size="12" fill="#ffffff" stroke="#ffffff" stroke-opacity="1"/>
  <path d="M 186.9 115.5 C 187.5 109.5 184.0 110.6 183.3 108.0 C 181.3 99.4 180.7 105.6 181.1 108.7 C 181.0 113.4 183.0 114.2 182.8 115.8 C 182.6 118.5 186.8 120.7 186.9 115.5 z " id="path949" sodipodi:nodetypes="cssss" font-size="12" fill="#ffffff" stroke="#ffffff" stroke-opacity="1"/>
  <path d="M 205.1 64.1 C 206.4 62.2 203.7 62.2 202.8 59.5 C 200.1 53.0 199.4 55.9 199.3 59.0 C 199.7 62.0 201.6 61.1 201.5 64.4 C 201.3 67.1 201.9 71.3 205.1 64.1 z " id="path950" sodipodi:nodetypes="cssss" font-size="12" fill="#ffffff" stroke="#ffffff" stroke-opacity="1"/>
  <path d="M 217.7 53.3 C 216.0 53.3 214.6 52.5 212.9 54.7 C 212.3 56.0 208.5 54.4 208.7 56.2 C 208.8 56.9 217.0 56.7 218.3 56.0 C 222.5 54.2 221.5 52.9 217.7 53.3 z " id="path951" sodipodi:nodetypes="cssss" font-size="12" fill="#ffffff" stroke="#ffffff" stroke-opacity="1"/>
  <path d="M 243.6 65.8 C 241.8 64.6 239.4 61.4 238.4 62.7 C 237.4 63.7 240.7 68.5 242.7 68.1 C 246.7 67.7 248.8 72.4 248.7 69.1 C 248.6 65.1 246.8 68.3 243.6 65.8 z " id="path952" sodipodi:nodetypes="cssss" font-size="12" fill="#ffffff" stroke="#ffffff" stroke-opacity="1"/>
  <path d="M 234.5 67.7 C 234.8 65.5 233.1 67.8 232.8 65.0 C 232.2 60.6 231.2 62.6 231.1 65.7 C 231.5 68.7 227.8 70.0 229.0 69.9 C 230.3 69.7 232.1 74.1 232.3 72.6 C 233.6 64.8 234.6 69.6 234.5 67.7 z " id="path953" sodipodi:nodetypes="csssss" font-size="12" fill="#ffffff" stroke="#ffffff" stroke-opacity="1"/>
  <path d="M 379.4 215.5 C 376.6 215.3 377.8 216.8 375.7 218.1 C 373.5 219.1 379.3 218.8 381.4 221.9 C 382.5 223.9 387.9 223.7 388.0 222.7 C 388.0 221.7 383.8 220.5 382.7 220.2 C 376.2 218.0 389.1 215.3 379.4 215.5 z " id="path954" sodipodi:nodetypes="csssss" font-size="12" fill="#ffffff" stroke="#ffffff" stroke-opacity="1"/>
  <path d="M 395.2 219.7 C 392.7 219.6 389.1 223.3 396.1 227.5 C 403.4 232.0 402.1 233.2 414.4 232.6 C 415.9 232.5 415.9 230.7 410.6 231.3 C 400.9 232.6 395.6 225.5 396.8 224.9 C 399.4 223.5 397.8 220.0 395.2 219.7 z " id="path955" sodipodi:nodetypes="csssss" font-size="12" fill="#ffffff" stroke="#ffffff" stroke-opacity="1"/>
  <path d="M 406.9 235.9 C 407.0 237.0 410.0 239.3 411.6 239.4 C 418.0 239.7 415.6 241.7 417.4 241.8 C 423.2 242.4 415.5 238.5 413.6 238.5 C 408.8 238.6 406.9 234.8 406.9 235.9 z " id="path956" sodipodi:nodetypes="cssss" font-size="12" fill="#ffffff" stroke="#ffffff" stroke-opacity="1"/>
  <path d="M 357.9 64.5 C 355.8 63.9 357.1 69.5 360.8 73.3 C 363.0 75.8 365.4 75.6 365.2 73.0 C 364.9 69.5 366.0 69.6 362.2 68.9 C 360.5 68.6 358.3 64.4 357.9 64.5 z " id="path924" sodipodi:nodetypes="cssss" font-size="12" fill="#000000" stroke="#000000" stroke-opacity="1" fill-opacity="1"/>
</svg>
