<?xml version="1.0" encoding="UTF-8" standalone="no"?>
<!-- Generator: Adobe Illustrator 12.0.0, SVG Export Plug-In . SVG Version: 6.00 Build 51448)  -->
<svg xmlns="http://www.w3.org/2000/svg" xmlns:cc="http://web.resource.org/cc/" xmlns:dc="http://purl.org/dc/elements/1.1/" xmlns:inkscape="http://www.inkscape.org/namespaces/inkscape" xmlns:rdf="http://www.w3.org/1999/02/22-rdf-syntax-ns#" xmlns:sodipodi="http://inkscape.sourceforge.net/DTD/sodipodi-0.dtd" xmlns:svg="http://www.w3.org/2000/svg" height="272.678" id="Layer_1" version="1.1" viewBox="0 0 117.745 272.678" width="117.745" xml:space="preserve" overflow="visible" enable-background="new 0 0 117.745 272.678">
<defs id="defs78"/>


<path d="M64.7,140.1c1.2-1.0,2.1-3.0,3.1-4.4  c1.1-1.4,2.4-3.0,3.3-4.7c1.5-3.0,5.1-5.4,5.6-8.9c0.8-4.8,2.4-9.3,0.5-14.0  c-0.7-1.8-0.9-3.8-1.6-5.6c-0.7-1.8-1.9-3.9-2.3-5.9c-0.8-4.2-2.6-8.1-4.2-12.2  c-0.8-2.0-1.4-3.4-1.9-5.6c-0.3-1.9-1.9-3.6-1.9-5.5c0-0.8-0.6-1.6-0.6-2.5  c0-0.7,0.6-1.7,0.9-2.5c0.5-1.6,2.0-3.2,2.9-4.9c1.9-3.8,5.0-6.7,7.6-10.1  c5.2-6.9,11.3-13.0,16.5-20.0c1.5-2.0,2.3-1.3,4.4-2.3c1.1-0.5,4.1,0.1,4.8-0.9  c2.1-3.2,4.1-7.0,5.1-10.7c0.7-2.8,4.3-9.8-0.5-9.8c-3.6,0-7.3,0-11.0,0  c-3.9,0-7.5-0.0-10.4,2.8c-0.8,0.8-2.8,3.3-2.8,4.4c0,1.7-2.5,3.4-3.7,4.7  c-2.6,2.6-4.7,5.8-7.5,8.2c-2.7,2.2-5.7,5.1-7.7,8.1c-2.0,3.0-5.5,5.1-7.2,8.5  c-1.4,2.9-4.7,6.2-7.0,8.5c-2.7,2.7-3.8,6.3-6.5,9.0c-1.5,1.5-1.4,3.3-1.8,5.5  c-0.2,1.5-1.7,5.6-1.0,7.0c3.6,7.2,6.2,15.5,8.1,23.4c0.9,3.9,2.4,7.9,2.4,12.0  c0,3.0-3.2,7.1-5.0,9.7c-4.3,6.6-8.6,12.9-13.0,19.6c-1.0,1.6-1.7,3.4-3.1,4.8  c-0.5,0.5-0.9,1.6-1.2,2.3c-0.4,0.9-1.5,1.0-2.0,2.2c-0.8,1.8-0.8,4.8-1.1,6.8  c-0.4,2.5-0.9,4.0,0.0,6.3c3.0,7.5,5.2,15.5,7.8,23.2c1.3,4.0,2.5,8.4,3.3,12.6  c0.3,1.8,1.2,4.1,1.2,5.9c0,1.4,1.3,5.2,0.3,6.3c-1.1,1.1-1.5,4.1-2.1,5.6  c-0.6,1.9-1.7,3.8-2.5,5.8c-1.4,3.6-3.0,7.3-4.7,10.8c-1.7,3.4-3.1,7.0-4.9,10.4  c-1.5,3.1-2.5,7.2-4.6,10.4c-1.8,2.8-3.9,7.6-3.9,11.0c0,3.6,4.0,6.6,7.2,6.6  c3.1,0,7.0-6.5,8.3-8.8c2.1-3.5,4.4-7.2,7.1-10.3c5.4-6.5,9.8-14.6,14.0-22.0  c2.1-3.8,4.9-7.2,7.3-11.0c0.8-1.3,2.3-2.7,2.6-4.4c0.5-3.0,1.0-6.0,1.5-9.1  c0.6-4.0-1.6-7.4-2.2-11.3c-0.7-4.6-1.4-9.2-2.9-13.7c-1.3-3.9-1.7-8.3-2.5-12.3  c-0.7-3.9-1.4-7.2-1.4-11.2c0-1.1,1.3-3.5,2.2-4.4c1.2-1.2,1.9-3.4,2.6-5.0  C59.8,145.6,62.8,143.0,64.7,140.1" id="path3" fill-rule="evenodd" clip-rule="evenodd" fill="#D010B1"/>

<path d="M109.5,10.7c0.8-3.2,8.0-4.1,8.1-6.9  c-1.3,1.6-4.2,0.7-5.6,2.5c0-2.1,0-4.2,0-6.3c-1.0,1.4-1.2,3.9-1.8,5.6  c-0.1,0.3,0.1,0.9,0,1.2c-0.2,0.4-1.1,0.3-1.4,0.9C108.1,9.1,108.7,9.5,109.5,10.7" id="path5" fill-rule="evenodd" clip-rule="evenodd" fill="#FF3000"/>

<path d="M90.0,32.8c2.2-1.0,3.4-3.7,6.6-3.7  c3.8,0,4.8-2.4,6.7-5.2c1.8-2.7,3.0-7.2,3.6-10.5c0.2-1.2,0.9-0.9-0.0-1.9  c-0.8-0.8-1.0-1.2-2.1-1.2c-1.4,0-2.9,0-4.4,0c-1.5,0-3.1,0-4.7,0c-1.7,0-3.1,0.6-4.7,0.6  c-1.3,0-3.1,0.4-4.1,1.2c-0.6,0.5-0.9,1.1-1.2,1.8c-0.2,0.5-0.5,1.8-0.9,2.2  c-0.7,0.7-3.6,5.1-3.1,5.7C84.3,25.5,87.1,29.1,90.0,32.8" id="path7" fill-rule="evenodd" clip-rule="evenodd" fill="#FFFF00"/>

<path d="M89.3,11.9c1.6,0,3.3,0,5.0,0  c-1.0,2.4-1.8,5.6-5.0,5.0c-0.2-0.0-1.2-0.8-1.2-0.9c0.0-0.2-0.0-0.4-0.3-0.6  c-0.7-0.7,0.2-0.3,0.3-0.9C88.3,13.1,89.1,12.9,89.3,11.9" id="path9" fill-rule="evenodd" clip-rule="evenodd" fill="#FF9E3F"/>

<path d="M96.3,20.1c1.6-0.2,3.3-0.4,5.0-0.6  c-1.0,2.4-1.3,5.3-4.4,5.0C93.9,24.3,95.1,21.9,96.3,20.1" id="path11" fill-rule="evenodd" clip-rule="evenodd" fill="#FF9E3F"/>

<path d="M90.0,13.2c0.8,0,1.6,0,2.5,0  c-0.6,1.0-1.5,3.0-3.1,2.5c-0.0-0.0-0.6-0.9-0.6-1.2C88.8,13.9,89.2,13.5,90.0,13.2" id="path13" fill-rule="evenodd" clip-rule="evenodd" fill="#FF3000"/>

<path d="M96.9,21.4c0.8-0.2,1.6-0.4,2.5-0.6  c-0.5,1.0-0.9,3.1-2.5,2.5C96.2,23.0,95.7,21.5,96.9,21.4" id="path15" fill-rule="evenodd" clip-rule="evenodd" fill="#FF3000"/>

<path d="M57.2,145.8c-2.1,3.3-4.3,6.1-6.1,9.7  c-0.5,1.1-0.3,4.1-0.1,5.3c0.2,1.8,0.2,4.5,0.8,6.2c1.4,4.3,1.5,8.9,2.9,13.2  c1.3,4.1,2.3,8.8,3.0,13.1c0.7,4.4,1.3,8.6,1.3,13.1c0,4.7-1.6,7.8-3.7,12.0  c-3.9,7.9-8.9,15.4-13.6,23.0c-4.5,7.2-9.5,14.4-14.7,21.2c-2.5,3.3-4.5,7.5-9.1,5.2  c-3.2-1.6,0.4-8.8,1.5-10.8c3.8-6.6,7.3-13.6,10.2-20.8c3.0-7.5,7.4-14.5,10.0-22.3  c2.6-7.8-1.8-17.5-4.3-24.9c-1.3-3.9-2.3-8.0-3.4-12.0c-1.1-4.1-2.8-8.1-3.5-12.4  c-0.6-3.7-1.3-7.8-0.1-11.4c1.1-3.4,3.7-7.0,5.6-10.1c4.3-7.0,9.0-13.9,13.6-20.8  c2.1-3.1,4.1-6.1,5.3-9.7c1.0-3.0-0.1-9.3-1.4-12.5c-1.6-4.0-2.6-8.2-4.2-12.2  c-0.7-1.9-1.3-3.6-1.7-5.6c-0.4-2.0-1.7-3.7-2.0-5.8c-0.5-4.2-0.9-7.6,1.3-11.5  c2.3-3.9,4.8-7.6,7.4-11.4c4.8-7.3,11.9-13.5,18.1-19.7c2.9-2.9,5.6-6.8,8.9-9.2  c2.0-1.5,2.5,0.6,4.0,2.5c0.8,1.1,4.7,4.5,4.8,6.0c0.0,1.3-2.8,3.4-3.6,4.4  c-1.4,1.8-2.8,3.7-4.2,5.6c-2.5,3.3-5.1,6.7-7.7,10.1c-2.6,3.5-5.4,6.9-7.8,10.6  c-1.0,1.6-1.3,3.6-2.1,5.3c-0.8,1.6,0.8,3.9,1.1,5.6c1.6,8.1,4.6,16.5,7.5,24.3  c1.5,4.3,3.3,8.6,3.7,13.2c0.4,4.2-1.1,8.9-3.1,12.6C67.6,132.4,61.8,138.8,57.2,145.8" id="path17" fill-rule="evenodd" clip-rule="evenodd" fill="#FF9E96"/>

<path d="M53.4,142.0c-2.4,3.3-4.4,6.7-6.7,10.1  c-1.0,1.5-2.7,2.6-2.7,4.6c0,2.2,0.0,4.1,0.5,6.3c0.9,3.9,2.2,8.3,2.7,12.3  c0.6,4.3,2.3,8.3,3.0,12.6c1.3,8.1,6.0,17.8,2.0,25.7c-1.9,3.8-3.9,7.2-6.3,10.9  c-2.1,3.2-3.4,7.2-5.6,10.4c-3.4,4.8-6.0,10.4-9.8,15.0c-3.6,4.3-5.9,10.3-10.0,14.2  c1.2-1.1,1.8-3.8,2.4-5.5c0.8-2.0,2.2-3.9,3.2-5.9c1.8-3.6,3.6-7.3,5.4-10.9  c2.0-4.1,4.4-8.1,6.0-12.5c1.4-3.8,4.1-7.1,5.4-11.1c0.5-1.6,1.0-3.7,2.0-5.2  c1.3-1.9,1.1-3.4,1.1-5.8c0-4.1-1.7-8.2-2.8-12.1c-2.3-8.4-4.7-16.8-7.1-25.2  c-1.1-3.8-2.5-8.4-2.5-12.5c0-3.9,2.1-6.5,3.8-9.9c3.4-6.9,8.3-13.7,12.6-20.2  c1.0-1.6,2.1-3.2,3.2-4.8c1.0-1.6,2.0-3.5,3.3-4.8c2.6-2.6,1.4-7.3,0.6-10.5  c-1.0-4.0-1.8-8.3-3.1-12.3c-1.3-4.1-3.1-8.1-4.0-12.4c-0.9-4.6-4.7-10.0-1.6-14.7  c3.1-4.7,5.9-9.4,9.9-13.5c8.1-8.1,16.1-16.1,24.2-24.3c-4.6,7.0-10.3,13.5-14.7,20.8  c-2.1,3.5-4.3,7.2-6.6,10.7c-1.0,1.6-6.4,8.5-5.5,10.4c1.6,3.3,2.0,7.9,3.4,11.6  c1.6,4.1,2.2,8.3,3.8,12.4c1.4,3.7,2.0,7.8,3.4,11.5c0.7,1.9,1.6,3.8,1.6,5.9  c0,1.5,0.1,4.6-0.9,5.7c-0.7,0.7-0.9,2.1-1.4,3.1c-0.5,1.0-1.3,1.4-1.7,2.5  c-0.7,2.2-2.6,3.8-3.9,5.7C58.0,134.1,55.9,138.2,53.4,142.0" id="path19" fill-rule="evenodd" clip-rule="evenodd" fill="#FFBF00"/>

<path d="M44.6,157.1c0.8-0.6,1.0-2.5,1.7-3.5c0.8-1.2,1.6-1.9,2.3-3.3  c1.3-2.7,3.5-5.1,5.3-7.5c-0.6-0.4-1.2-0.8-1.8-1.2c-1.7,3.4-4.5,6.0-6.3,9.4  c-0.7,1.5-1.5,3.1-2.3,4.7c-0.3,0.7-1.2,1.6-0.1,2.2C44.1,158.2,44.5,157.6,44.6,157.1" id="path21" fill="#FFDB00"/>

<path d="M54.6,210.1c0-8.6-2.1-17.6-4.5-25.9c-1.2-4.2-2.1-8.7-2.9-13.0  c-0.3-1.8-1.1-3.5-1.5-5.3c-0.4-2.3-0.2-4.7-0.9-7.0c-0.3-1.1,0.4-1.5-1.0-1.5  c-1.1,0-1.1,0.3-0.8,1.5c0.5,2.3,0.4,4.4,1.3,6.7c1.6,4.0,1.7,8.8,2.9,13.0  c1.2,4.2,1.8,8.5,3.0,12.8c1.0,3.6,2.6,8.4,2.6,12.1c0,1.5,0,3.0,0,4.5  C52.8,209.7,52.5,210.6,54.6,210.1" id="path23" fill="#FFDB00"/>

<path d="M20.0,263.8c0.2,0.4,0.8,0.8,1.2,1.2c3.5-3.3,5.7-8.5,8.5-12.4  c3.1-4.4,6.1-9.0,9.0-13.7c1.5-2.5,3.0-5.0,4.5-7.5c1.2-2.2,3.1-4.1,4.1-6.5  c2.1-5.0,5.4-9.3,7.0-14.6c-2.1-0.4-1.3,0.2-1.9,1.4c-0.6,1.2-1.2,2.4-1.9,3.5  c-1.4,2.3-2.5,4.8-3.9,7.2c-2.9,5.1-6.3,10.0-9.2,15.1c-2.8,4.9-6.2,9.4-9.3,14.2  c-1.5,2.2-2.8,4.6-4.4,6.9c-1.1,1.7-4.9,4.8-2.5,6.3C20.9,264.6,20.4,264.2,20.0,263.8  c-0.2,1.0,0.1,1.5,1.2,1.2C20.8,264.6,20.4,264.1,20.0,263.8" id="path25" fill="#FFDB00"/>

<path d="M45.8,209.5c-1.1,1.9-1.5,4.4-2.6,6.4c-1.3,2.6-2.4,5.2-3.6,7.8  c-0.9,2.3-1.9,4.5-3.2,6.7c-1.3,2.3-1.9,5.0-3.2,7.3c-2.5,4.4-5.0,8.9-7.1,13.6  c-1.0,2.5-2.4,4.7-3.6,7.2c-1.0,2.0-3.6,4.4-1.1,6.1c4.8-8.5,8.8-17.7,13.2-26.6  c2.2-4.5,4.9-9.2,6.9-13.9c1.1-2.6,2.4-4.9,3.7-7.4c1.0-2.2,1.2-4.8,2.5-6.9  C47.1,209.9,46.4,209.6,45.8,209.5" id="path27" fill="#FFDB00"/>

<path d="M32.6,155.2c-0.2,4.5,1.6,10.0,3.0,14.3c1.4,4.4,2.5,9.0,3.8,13.5  c1.2,4.5,3.0,9.2,3.8,13.8c0.4,2.4,1.4,4.6,1.9,7.0c0.4,2.2-0.4,5.8,2.3,6.1  c0.2-4.4-1.6-10.1-3.0-14.3c-1.4-4.3-1.4-9.3-3.2-13.5c-2.0-4.7-2.7-9.5-4.3-14.3  c-0.7-2.3-1.0-4.8-1.5-7.2C35.0,158.5,35.0,155.5,32.6,155.2" id="path29" fill="#FFDB00"/>

<path d="M41.4,140.1c-3.4,4.6-6.2,9.9-8.8,15.1c2.3,1.4,2.7-1.0,3.6-2.8  c0.8-1.7,1.7-3.5,2.6-5.3c0.8-1.7,2.2-3.2,3.1-5.0c0.4-0.8,0.6-1.2,0.6-2.2  C42.7,138.9,41.5,139.5,41.4,140.1" id="path31" fill="#FFDB00"/>

<path d="M57.8,114.2c-1.9,1.7-2.0,4.6-3.7,6.3c-1.7,1.7-3.1,4.2-4.4,6.3  c-2.5,4.4-5.3,8.9-8.1,13.2c1.4,1.3,1.9-0.3,2.6-1.4c0.9-1.4,2.0-2.8,3.0-4.2  c1.9-2.7,3.0-5.5,5.4-8.0c0.7-0.7,1.2-2.7,1.9-3.7c0.7-1.0,1.3-2.6,2.2-3.5  c1.0-1.0,2.0-2.2,2.3-3.5c0.1-0.7,1.1-0.7,0.3-1.5C58.8,113.3,58.3,113.6,57.8,114.2" id="path33" fill="#FFDB00"/>

<path d="M46.5,70.0c-0.3,3.1,1.7,8.2,2.5,11.3c0.5,1.9,1.2,3.8,2.0,5.7  c0.7,1.8,0.6,3.8,1.3,5.6c1.5,3.9,2.3,8.0,3.9,12.0c0.7,1.8,0.9,4.0,1.4,6.0  c0.5,2.0-0.8,3.7,1.9,4.0c0.2-4.2-1.6-7.7-2.2-11.7c-0.6-4.0-1.9-7.7-3.4-11.5  c-1.3-3.6-2.7-7.8-3.4-11.6c-0.4-2.1-0.7-4.2-1.4-6.3C48.4,71.6,48.9,69.5,46.5,70.0" id="path35" fill="#FFDB00"/>

<path d="M83.6,30.2c-0.3-0.4-0.8-0.8-1.2-1.2c-6.6,6.6-13.3,13.3-20.0,20.0  c-3.0,3.0-5.8,5.6-8.4,9.1c-2.7,3.7-6.2,7.2-7.4,11.8c2.4,0.5,2.7-2.2,3.9-3.9  c1.3-2.0,2.8-4.0,4.1-6.1c2.3-3.9,6.6-7.1,9.9-10.4c3.4-3.4,6.8-6.8,10.3-10.3  c1.6-1.6,3.3-3.3,5.0-5.0c1.4-1.4,4.9-3.4,2.5-5.0C82.7,29.4,83.2,29.8,83.6,30.2  c0.2-1.0-0.1-1.5-1.2-1.2C82.8,29.4,83.2,29.9,83.6,30.2" id="path37" fill="#FFDB00"/>

<path d="M57.2,71.3c-0.0-0.9,1.4-3.8,2.0-4.6c1.3-1.7,2.2-3.5,3.3-5.4  c2.4-4.0,5.0-7.9,7.4-12.0c2.1-3.6,4.5-7.2,7.2-10.5c1.0-1.3,3.2-3.2,3.9-4.7  c0.9-1.8,3.2-3.5,1.1-4.8c-5.0,7.5-11.1,14.3-15.8,22.2c-2.4,4.1-5.1,8.2-7.4,12.4  c-1.0,1.9-2.3,3.9-3.0,6.0c-0.1,0.4-1.3,2.1-0.4,2.1C56.5,71.9,57.1,72.2,57.2,71.3" id="path39" fill="#FFDB00"/>

<path d="M69.1,116.1c0-8.0-3.0-16.2-5.6-23.8c-1.2-3.6-2.7-7.1-3.8-10.8  c-0.5-1.8-1.4-3.8-1.8-5.6c-0.4-2.1,0.4-4.4-2.2-4.4c-0.9,0,2.5,9.6,2.8,10.7  c1.1,4.0,2.2,7.9,3.5,11.9c1.3,3.9,3.0,7.8,3.8,11.8c0.4,2.0,0.8,4.1,1.3,6.2  C67.7,114.0,66.1,116.8,69.1,116.1" id="path41" fill="#FFDB00"/>

<path d="M54.0,142.6c1.5-2.3,3.0-4.6,4.6-6.9c1.3-2.0,3.5-4.3,4.3-6.6  c0.9-2.7,3.2-4.7,4.2-7.6c0.4-1.2,1.2-2.5,1.8-3.7c1.0-2.1-1.7-1.7-1.7-1.2  c0,4.5-4.8,10.6-7.5,14.2c-1.7,2.2-3.4,4.5-5.0,6.9C53.9,138.6,50.1,143.5,54.0,142.6" id="path43" fill="#FFDB00"/>

<path d="M62.8,205.1c7.3,1.2,14.6,2.5,22.0,3.7  c0.1,0.0-2.8,19.4-3.1,21.4c-1.5-0.3-2.6-0.0-2.3-1.6c0.3-2.1,0.7-4.2,1.0-6.4  c0.6-3.8,1.2-7.6,1.9-11.4c-6.7-1.0-13.4-2.1-20.1-3.1C62.4,206.8,62.6,205.9,62.8,205.1" id="path45" fill-rule="evenodd" clip-rule="evenodd" fill="#D010B1"/>

<path d="M78.6,111.7c7.3,1.2,14.7,2.5,22.0,3.7  c-1.2,7.1-2.5,14.3-3.7,21.4c-1.4-0.4-1.9-0.2-1.7-1.6c0.3-2.1,0.7-4.2,1.0-6.4  c0.6-3.8,1.2-7.6,1.9-11.4c-6.7-1.0-13.4-2.1-20.1-3.1C78.2,113.4,78.4,112.5,78.6,111.7" id="path47" fill-rule="evenodd" clip-rule="evenodd" fill="#D010B1"/>

<path d="M25.6,150.2c-2.2-0.3-22.0-3.9-22.0-3.6  c-0.7,4.4-1.5,8.9-2.3,13.4c-0.3,2.1-0.7,4.3-1.1,6.5c-0.3,1.9,0.3,1.5,2.2,1.9  c0.3-1.8,3.0-18.9,3.1-18.9c6.7,1.0,13.4,2.1,20.1,3.1C25.6,151.9,25.6,151.0,25.6,150.2" id="path49" fill-rule="evenodd" clip-rule="evenodd" fill="#D010B1"/>

<path d="M41.4,64.3c-2.2-0.3-22.0-3.9-22.0-3.6  c-0.7,4.4-1.5,8.9-2.3,13.4c-0.3,2.1-0.7,4.3-1.1,6.5c-0.3,1.9,0.3,1.5,2.2,1.9  c0.3-2.1,2.7-19.0,3.5-18.8c4.1,0.6,8.3,1.3,12.5,2.0c1.8,0.2,3.6,0.5,5.5,0.8  C41.4,67.0,41.0,65.9,41.4,64.3" id="path51" fill-rule="evenodd" clip-rule="evenodd" fill="#D010B1"/>

<path d="M62.2,208.9c6.0,1.0,12.1,2.0,18.2,3.1  c0.1,0.0-2.2,15.9-2.4,17.6c-2.4-0.3-0.4-5.7-0.1-7.3c0.2-1.3,2.2-8.0,1.4-9.1  c-0.8-1.1-7.0-1.2-8.4-1.5c-3.0-0.5-6.1-1.1-9.2-1.6C61.8,209.8,61.9,209.2,62.2,208.9" id="path53" fill-rule="evenodd" clip-rule="evenodd" fill="#AB10D2"/>

<path d="M78.0,115.5c6.0,1.0,12.1,2.0,18.2,3.1  c0.1,0.0-2.2,15.9-2.4,17.6c-2.4-0.3-0.4-5.7-0.1-7.3c0.2-1.3,2.2-8.0,1.4-9.1  c-0.8-1.1-7.0-1.2-8.4-1.5c-3.0-0.5-6.1-1.0-9.2-1.6C77.5,116.3,77.7,115.8,78.0,115.5" id="path55" fill-rule="evenodd" clip-rule="evenodd" fill="#AB10D2"/>

<path d="M25.0,154.0c-6.0-1.0-12.1-2.0-18.2-3.1  c-0.1-0.0-2.8,15.9-3.1,17.6c3.4,1.0,1.7-14.3,3.7-15.7c1.1-0.8,7.4,1.0,8.8,1.2  c2.9,0.4,5.8,0.8,8.8,1.2C25.0,154.8,25.1,154.3,25.0,154.0" id="path57" fill-rule="evenodd" clip-rule="evenodd" fill="#AB10D2"/>

<path d="M40.8,68.1c-6.3-1.0-12.6-2.1-18.9-3.1  c-0.8,5.8-1.6,11.7-2.5,17.6c3.4,1.0,1.7-14.3,3.7-15.7c1.1-0.8,7.4,1.0,8.8,1.2  c2.9,0.4,5.8,0.8,8.8,1.2C40.8,69.0,40.9,68.5,40.8,68.1" id="path59" fill-rule="evenodd" clip-rule="evenodd" fill="#AB10D2"/>

<path d="M61.6,211.4c2.7,0.5,5.4,1.0,8.1,1.5  c1.2,0.2,7.4,0.5,8.1,1.5c0.7,1.0-1.2,7.2-1.4,8.4c-0.2,1.4-0.0,6.7-2.3,6.0  c0.2-1.5,2.2-13.8,1.6-13.9c-3.0-0.5-6.0-1.0-9.0-1.5C65.5,213.3,60.9,213.6,61.6,211.4" id="path61" fill-rule="evenodd" clip-rule="evenodd" fill="#FF9E3F"/>

<path d="M77.3,118.0c5.4,0.8,10.9,1.6,16.3,2.5  c-0.4,2.7-0.9,5.5-1.3,8.3c-0.2,1.4-0.1,7.4-2.3,6.7c0.2-1.5,2.2-13.8,1.6-13.9  c-3.0-0.5-6.0-1.0-9.0-1.5C81.2,119.9,76.7,120.2,77.3,118.0" id="path63" fill-rule="evenodd" clip-rule="evenodd" fill="#FF9E3F"/>

<path d="M25.0,156.5c-5.4-0.8-10.8-1.6-16.3-2.5  C8.5,154,6.3,167.6,6.1,169.1c2.2,0.6,1.8-3.9,1.9-5.3c0.3-2.8,0.7-5.6,1.1-8.5  c2.7,0.4,5.5,0.9,8.3,1.3C19.2,156.9,24.7,159.0,25.0,156.5" id="path65" fill-rule="evenodd" clip-rule="evenodd" fill="#FF9E3F"/>

<path d="M40.1,70.6c-5.2-0.8-10.4-1.6-15.7-2.5  c-0.1-0.0-2.3,13.6-2.5,15.1c2.1,0.6,1.8-3.9,1.9-5.3c0.3-2.8,0.7-5.6,1.1-8.5  c5.0,0.8,10.0,1.6,15.1,2.5C40.1,71.5,40.3,71.0,40.1,70.6" id="path67" fill-rule="evenodd" clip-rule="evenodd" fill="#FF9E3F"/>

<path d="M68.5,229.7c-0.1-0.1-1.3-1.8-0.3-1.8  c1.6,0,0.8-1.3-0.3-1.2c0.2-1.7,1.8-0.7,1.8-1.8c-0.0,0.4-2.4-1.8-0.9-1.8  c1.8,0,0.1-1.1,0.3-2.5c-0.0,0.5,2.9-1.3,0-1.2c0.2-1.6,1.0-1.1,2.2-0.7  c0.6,0.2,0.0,1.9-0.0,2.4c-0.3,2.5-0.6,5.1-0.9,7.7c3.2,0,2.6-0.4,3.0-3.6  c0.4-2.7,0.8-5.5,1.3-8.3c0.0-0.1-12.4-2.3-13.8-2.5c0,0.8-0.4,2.4,0.5,2.5  c1.5,0.1,3.0,0.3,4.5,0.5c-0.1,0.7-3.0,2.5-0.9,2.5c1.9,0-1.5,1.8-1.5,1.8  c0.5,0.1,2.2,1.8,0.9,1.8c-1.6,0-0.8,1.3,0.3,1.2c-0.1,0.8-2.4,1.8-1.5,1.8  c0.5,0,1.8,1.8,0,1.8c-2.0,0,0.3,0.8,0.3,2.1c0-0.1-2.8,1.7,0,1.5c-0.1,1.0-0.6,1.2-1.5,1.2  c-1.0,0,0.3,0.8,0.3,0.9c0,0.5,1.1,0.3,0.6,1.5c-0.0,0.0-1.7,0.0-1.8,0  c0.9,0.4,1.2,0.6,1.2,1.5c0,1.6-0.9,0.3-1.2,1.5c0.1-0.6,2.4,1.8,0.3,1.8  c-1.5,0-0.8,0.7,0,1.5c0.4,0.4,2.2,5.4,2.2,2.5c0-0.1,5.5-4.1,1.8-3.4  c0.0-0.4,0.4-1.2,0.9-1.2c1.4,0,0.3-0.9,0.3-1.2c-0.0,0.2-0.6-0.3-0.6-0.9  c0-0.8,1.1,0.0,1.2-0.3c0.3-1.5-0.9-0.9-0.6-2.5c0.0-0.0,2.7-1.7,0-1.2  c0.1-0.9,1.1-0.9,1.2-1.2c0.2-0.4,0.6,0.5,0.6-0.3c0-0.5-0.5-0.5-0.6-0.9  c-0.0-0.0-0.9-0.1-0.6-1.2C67.3,230.3,68.3,230.2,68.5,229.7" id="path69" fill-rule="evenodd" clip-rule="evenodd" fill="#FFDB00"/>

<path d="M84.3,136.3c-0.3-0.5-0.2-0.9-1.2-0.6  c0.1-0.9,1.1-0.9,1.2-1.2c0.2-0.4,0.6,0.5,0.6-0.3c0-0.5-0.5-0.5-0.6-0.9  c-0.0-0.0-1.1-0.2-0.6-1.2c0.0-0.0,1.5-0.1,1.8-0.6c-0.8-0.2-1.3-0.6-1.2-1.8  c-0.0,0.5,2.9-1.3,0-1.2c0.2-1.3,1.8-1.1,1.8-1.5c0-1.4-1.6-0.3-1.2-2.2  c2.9,0.7,2.5,0.7,2.1,3.7c-0.2,2.3-0.5,4.6-0.8,6.9c3.2,0,2.6-0.4,3.0-3.6  c0.4-2.7,0.8-5.5,1.3-8.3c0.0-0.1-12.4-2.3-13.8-2.5c0,1.0-0.5,2.4,0.6,2.6  c0.6,0.1,3.7,0.1,3.7,0.8c0,1.5-1.2,0.4-1.2,1.2c0,1.2,1.2,0.4,1.2,1.8  c0,0.9-1.5-0.1-1.8,0.3c-0.2,0.3,0.8,1.2,0.9,1.2c0.7,0,0.4,1.2-0.6,1.2  c-0.8,0,0.1,1.3,0.9,1.2c-0.1,1.0-0.6,1.2-1.5,1.2c-0.8,0,0.1,1.3,0.9,1.2  c-0.1,1.0-0.6,1.2-1.5,1.2c-1.2,0,0.9,1.0,0.9,1.2c0.1,1.1,0.0,1.2-0.9,1.2  c-0.8,0,0.1,1.2,0.9,1.2c-0.1,0.9-1.1,0.9-1.2,1.2c-0.2,0.4-0.6-0.5-0.6,0.3  c0,0.5,0.5,0.5,0.6,0.9c-0.0-0.3,1.6,1.2,0.3,1.2c-0.4,0-1.5-0.2-1.5,0.3  c0,0.5,1.2,0.2,1.2,1.2c0,1.1-1.2,0.9-1.2,0.9c0.0,0.6,2.5,2.5-0.3,2.5  c-0.8,0,1.3,2.6,1.5,3.1c0.2,0.5-0.4,1.8,0.3,1.8c1.6,0,0.1-0.5,0.9-1.2  c0.4-0.3,4.6-3.1,2.2-3.1c-1.3,0,0.4-1.4,0.3-1.2c0.1-0.2,1.0-0.4,1.2-0.6  c0.0,0.0-1.1-1.1-1.2-0.6c0-0.3,0-0.6,0-0.9c0-0.7,0.5,0.0,0.6-0.3c0.0-0.1,0.6-0.0,0.6-0.9  c0-0.4-0.8-0.4-1.2-0.3c0.2-1.7,1.8-0.7,1.8-1.8c0.0-1.1-2.1-0.1-1.2-1.8  c-0.1,0.3,3.7-1.2,0.9-1.2C81.9,138.2,84.3,136.3,84.3,136.3" id="path71" fill-rule="evenodd" clip-rule="evenodd" fill="#FFDB00"/>

<path d="M18.1,172.3c-0.3,0.0-0.8,0-1.2,0  c0.0-0.5,0.3-1.4,0.6-1.8c0.2,0.2,0.4,0.4,0.6,0.6c1.4-1.7-1.1-0.4-0.6-3.1  c0.2,0.2,0.4,0.4,0.6,0.6c0.4-0.2,0.9-0.4,1.2-0.6c-0.3-0.1-2.1-1.8-0.9-1.8  c1.5,0,1.1-1.6-0.3-1.2c0.1-0.9,1.1-1.5,1.8-1.8c-0.9-0.3-1.5-0.8-1.2-1.8  c1.3,0.1,2.6,0.3,3.9,0.4c1.6,0.2,1.3-0.8,1.7-2.3c-1.3-0.1-13.8-2.0-13.8-1.8  c-0.4,2.7-0.8,5.5-1.3,8.3c-0.5,3.1-1.2,3.4,1.9,4.2c0.4-3.3,0.8-6.7,1.2-10.0  c1.3,0.3,2.5,0.0,2.5,1.5c0,0.5-1.0,0.1-1.2,0.9c0.0-0.3,0.9,0.2,0.9,0.3  c0.5,0.5-0.0,0.9-0.3,1.5c0.1-0.4-2.5,0.6-0.9,0.6c0.9,0,1.4,1.8,0.6,1.8  c-1.7,0-0.3,0.6-0.3,0.6c-0.0,0.2,0,0.6,0,0.9c0,0.9-0.6,0.8-0.6,0.9  c-0.0,0.2-1.2,0.8,0.6,0.6c-0.1,0.5-0.3,1.3-0.6,1.8c0-0.2,0-0.4,0-0.6  c-0.9,0.4-1.9,1.2-0.3,1.2c1.6,0-0.9,1.9-0.9,1.5c0,0.4,1.2,2.2,0.3,2.2  c-1.2,0-1.2,1.5,0.3,1.2c-0.2,1.2-1.7,1.0-1.8,1.8c0.0-0.0,2.6,1.8,0.9,1.8  c-2.2,0,0.9,2.2-1.5,3.1c1.5,1.3,1.1,4.0,2.5,5.0c0.2-0.8,0.4-1.9,1.2-2.5  c1.1-0.8,1.9-0.4,2.5-1.8c-1.0-0.0-1.8-1.8-0.9-1.8c0.4,0,0.8,0,1.2,0  c1.1,0-0.3-0.9-0.3-0.6c-0.0-0.5-0.6-0.6-0.6-0.6c-0.1-0.8,0.6-1.3,0.6-1.2  c-0.0,0.4,0.5-0.4,0.6-0.6c-0.0,0.1-1.4-0.1-1.0-0.9c0.2-0.5,2.3-1.5,1.4-1.5  c-1.1,0-1.5-1.8,0-1.8c2.3,0-0.2-0.6-0.3-1.2C16.6,172.4,17.6,173.3,18.1,172.3" id="path73" fill-rule="evenodd" clip-rule="evenodd" fill="#FFDB00"/>

<path d="M33.8,86.4c-0.3,0.0-0.8,0-1.2,0  c0.3-1,0.8-1.8,1.8-1.8c-0.3-0.1-1.2-0.8-1.2-0.9c0-1.6,1.1-0.3,1.2-0.9  c0.1-0.5-0.5-1.7-0.6-1.2c0.3-1.5,0.0-0.6,0.9-1.5c0.9-0.9-0.2-0.7-0.3-0.9  c0.0,0.3-1.6-1.2-0.3-1.2c2.7,0,0.0-1.2,0.3-2.5c1.3,0.1,2.6,0.3,3.9,0.4  c1.6,0.2,1.3-0.8,1.7-2.3c-1.3-0.1-13.8-2.0-13.8-1.8c-0.4,2.7-0.8,5.5-1.3,8.3  c-0.5,3.1-1.2,3.4,1.9,4.2c0.4-3.3,0.8-6.7,1.2-10.0c0.7,0.1,1.5,0.3,2.2,0.5  c0.4,0.1,0.4,1.3-0.0,1.3c-1.6,0-0.8,1.3,0.3,1.2c-0.1,0.8-2.4,1.8-1.5,1.8  c0.9,0,0.9,0.8,0.9,1.5c0,0.9-1.0-0.1-1.2,0.3c0.0-0.1-1.5,0.6-0.3,0.6  c0.9,0,0.9,0.8,0.9,1.5c0,0.6-1.2,0.1-1.2,0.3c0.0,0.9,1.2,0.4,1.2,1.2  c-0.0,0.8-2.5,1.8-1.5,1.8c0.9,0,0.9-0.1,0.9,0.9c0,1.9-0.7,0.0-1.2,0.9  c0.0-0.1-1.5,0.6-0.3,0.6c0.9,0,0.9-0.0,0.9,0.9c0,0.2-2.7,2.0,0,1.5  c-0.1,0.8-1.2,1.2-1.2,1.5c0,0.6-0.6,0.1-0.6,0.3c-0.0,0.7,0.6,0.5,0.6,0.6  c-0.0-0.3,1.6,1.2,0.3,1.2c-0.8,0-1.0,0.2-1.5,0.6c0.4,0.1,1.2,0.5,1.2,0.9  c0,1.3-1.2,0.6-1.2,1.8c0,0.7,0.9,1.5,1.2,2.2c0.3,0.7,0.6,2.0,1.2,2.5  c0.7-2.2,2.0-2.6,3.7-4.4c-0.6-0.0-1.2-0.2-1.2-0.9c0-1.6,1.1-0.3,1.2-0.9  c0.1-0.5-1.9-2.5,0.3-2.5c1.1,0-0.5-0.8-0.6-0.9c-0.9-0.9,0.7-1.3,0.9-1.5  c0.2-0.4,0.6,0.5,0.6-0.3c0-0.6-0.5-0.0-0.6-0.3C32.6,91.4,31.7,90.7,32,89.6  c0.2,0.2,0.4,0.4,0.6,0.6c1.2-1.1,0-1.0,0-2.2C32.6,86.5,33.4,87.5,33.8,86.4" id="path75" fill-rule="evenodd" clip-rule="evenodd" fill="#FFDB00"/>

</svg>
