<?xml version="1.0" encoding="UTF-8" standalone="no"?>
<!-- Created with Sodipodi ("http://www.sodipodi.com/") -->
<!-- /Creative Commons Public Domain -->
<!--


-->
<svg xmlns="http://www.w3.org/2000/svg" xmlns:sodipodi="http://sodipodi.sourceforge.net/DTD/sodipodi-0.dtd" xmlns:xlink="http://www.w3.org/1999/xlink" height="500" id="svg1" sodipodi:docname="uk_flag.svg" sodipodi:version="0.33pre" width="1000">
  
  <defs id="defs3"/>
  <sodipodi:namedview id="base"/>
  <g id="g578" transform="scale(16.66667,16.66667)">
    <rect height="30" id="rect124" width="60" x="0" y="0" font-size="12" fill="#000066" stroke-width="1pt"/>
    <g id="g584" font-size="12">
      <path d="M 0 0 L 0 3.3 L 53.2 30 L 60 30 L 60 26.6 L 6.7 0 L 0 0 z M 60 0 L 60 3.3 L 6.7 30 L 0 30 L 0 26.6 L 53.2 0 L 60 0 z " id="path146" font-size="12" fill="#ffffff" stroke-width="1pt"/>
      <path d="M 25 0 L 25 30 L 35 30 L 35 0 L 25 0 z M 0 10 L 0 20 L 60 20 L 60 10 L 0 10 z " id="path136" font-size="12" fill="#ffffff" stroke-width="1pt"/>
      <path d="M 0 12 L 0 18 L 60 18 L 60 12 L 0 12 z M 27 0 L 27 30 L 33 30 L 33 0 L 27 0 z " id="path141" font-size="12" fill="#cc0000" stroke-width="1pt"/>
      <path d="M 0 30 L 20 20 L 24.4 20 L 4.4 30 L 0 30 z M 0 0 L 20 10 L 15.5 10 L 0 2.2 L 0 0 z M 35.5 10 L 55.5 0 L 60 0 L 40 10 L 35.5 10 z M 60 30 L 40 20 L 44.4 20 L 60 27.7 L 60 30 z " id="path150" font-size="12" fill="#cc0000" stroke-width="1pt"/>
    </g>
  </g>
</svg>
