<?xml version="1.0" encoding="UTF-8" standalone="no"?>
<!-- Created with Inkscape (http://www.inkscape.org/) -->
<svg xmlns="http://www.w3.org/2000/svg" xmlns:inkscape="http://www.inkscape.org/namespaces/inkscape" xmlns:sodipodi="http://sodipodi.sourceforge.net/DTD/sodipodi-0.dtd" xmlns:xlink="http://www.w3.org/1999/xlink" height="400.00000pt" id="svg1" sodipodi:docbase="/var/www/html/svg_gallery/svg/jigsaw" sodipodi:docname="jigsaw_blue_11.svg" sodipodi:version="0.32" width="400.00000pt">
  
  <defs id="defs3">
    <linearGradient id="linearGradient1085">
      <stop id="stop1086" offset="0.0000000" stop-color="#00009f" stop-opacity="1.0000000"/>
      <stop id="stop1087" offset="1.0000000" stop-color="#0000ff" stop-opacity="1.0000000"/>
    </linearGradient>
    <radialGradient cx="1.7995006" cy="-0.033503532" fx="1.7995006" fy="-0.033503532" id="radialGradient1088" r="2.1367373" xlink:href="#linearGradient1085"/>
    <radialGradient cx="-1.8538072" cy="-0.028270273" fx="-1.8538072" fy="-0.028270273" id="radialGradient1089" r="2.1367373" xlink:href="#linearGradient1085"/>
    <radialGradient cx="-0.34090281" cy="-1.8841810" fx="-0.34090281" fy="-1.8841810" gradientTransform="scale(0.751916,1.329935)" id="radialGradient1090" r="2.1367373" xlink:href="#linearGradient1085"/>
    <radialGradient cx="-0.33888963" cy="0.86286521" fx="-0.33888963" fy="0.86286521" gradientTransform="scale(0.751916,1.329935)" id="radialGradient1091" r="2.1367373" xlink:href="#linearGradient1085"/>
    <radialGradient cx="0.86051458" cy="-0.022911092" fx="0.86051458" fy="-0.022911092" id="radialGradient1092" r="2.1367371" xlink:href="#linearGradient1085"/>
    <radialGradient cx="-2.7927938" cy="-0.031800985" fx="-2.7927938" fy="-0.031800985" id="radialGradient1093" r="2.1367373" xlink:href="#linearGradient1085"/>
    <radialGradient cx="-0.34090281" cy="-1.1746118" fx="-0.34090281" fy="-1.1746118" gradientTransform="scale(0.751916,1.329935)" id="radialGradient1094" r="2.1367373" xlink:href="#linearGradient1085"/>
    <radialGradient cx="-0.33623907" cy="1.5691054" fx="-0.33623907" fy="1.5691054" gradientTransform="scale(0.751916,1.329935)" id="radialGradient1095" r="2.1367371" xlink:href="#linearGradient1085"/>
    <radialGradient cx="0.26481381" cy="0.26821491" fx="0.26481381" fy="0.26821491" gradientTransform="scale(0.867801,1.152339)" id="radialGradient1096" r="0.66534734" xlink:href="#linearGradient1085"/>
  </defs>
  <sodipodi:namedview bordercolor="#666666" borderopacity="1.0" id="base" inkscape:cx="314.24684" inkscape:cy="163.60373" inkscape:pageopacity="0.0" inkscape:pageshadow="2" inkscape:window-height="696" inkscape:window-width="854" inkscape:window-x="65" inkscape:window-y="24" inkscape:zoom="1.00000000" pagecolor="#ffffff" showgrid="true"/>
  <g id="g842">
    <path d="M 126.5,127.7 L 126.5,226.9 C 126.3,230.0 124.0,248.1 106.1,244.6 C 86.6,240.9 99.6,208.8 71.4,222.0 C 62.2,229.7 57.1,243.0 55.4,256.1 C 55.4,256.3 55.4,256.5 55.3,256.7 C 54.4,261.3 53.9,266.6 54.1,272.2 C 54.7,287.4 59.8,304.5 70.7,313.6 C 98.8,326.8 85.8,294.6 105.3,290.9 C 124.9,287.1 125.9,309.8 125.9,309.8 L 126.5,407.5 L 228.1,407.5 C 234.3,408.7 246.4,413.0 243.5,427.6 C 239.8,447.1 207.7,434.1 220.9,462.3 C 228.6,471.5 241.9,476.6 255.0,478.3 C 255.2,478.3 255.4,478.3 255.6,478.4 C 260.2,479.3 265.5,479.8 271.1,479.6 C 286.3,479.1 303.3,474.0 312.4,463.1 C 325.7,434.9 293.5,447.9 289.8,428.4 C 286.0,408.8 308.7,407.8 308.7,407.8 L 405.8,407.5 C 405.8,407.5 405.2,309.2 405.2,309.2 C 405.2,309.2 404.1,286.6 384.6,290.3 C 365.1,294.1 378.1,326.2 349.9,313.0 C 339.0,303.9 333.9,286.9 333.4,271.7 C 333.2,266.1 333.7,260.8 334.6,256.2 C 334.7,256.0 334.7,255.8 334.7,255.6 C 336.4,242.4 341.5,229.1 350.7,221.5 C 356.0,219.0 359.8,218.1 362.7,218.3 C 375.1,219.3 369.5,241.0 385.4,244.1 C 403.6,247.6 405.6,228.8 405.8,226.1 L 405.8,127.7 C 405.8,127.7 308.5,128.5 308.5,128.5 C 308.5,128.5 285.8,129.5 289.6,149.1 C 293.4,168.6 325.5,155.6 312.3,183.7 C 303.2,194.6 286.1,199.7 270.9,200.3 C 265.3,200.5 260.1,200.0 255.4,199.1 C 255.2,199.0 255.0,199.0 254.8,199.0 C 241.7,197.3 228.4,192.2 220.7,183.0 C 207.5,154.8 239.6,167.8 243.4,148.3 C 247.1,129.1 225.4,127.8 224.7,127.7 L 126.5,127.7 z " id="path1392" sodipodi:nodetypes="cccccccccccccccccccccccccccccccccccccccccc" fill-opacity="0.49999997" fill-rule="evenodd" stroke-width="2.8679966pt"/>
    <path d="M 108.6,112.4 L 108.6,211.6 C 108.3,214.7 106.0,232.8 88.1,229.3 C 68.6,225.5 81.6,193.4 53.5,206.7 C 44.2,214.3 39.2,227.6 37.5,240.8 C 37.5,241.0 37.4,241.2 37.4,241.4 C 36.4,246.0 35.9,251.3 36.1,256.9 C 36.7,272.1 41.8,289.1 52.7,298.2 C 80.9,311.5 67.9,279.3 87.4,275.5 C 106.9,271.8 108.0,294.5 108.0,294.5 L 108.6,392.2 L 210.2,392.2 C 216.4,393.4 228.4,397.7 225.6,412.3 C 221.8,431.8 189.7,418.8 202.9,447.0 C 210.6,456.2 223.9,461.3 237.0,463.0 C 237.2,463.0 237.4,463.0 237.6,463.0 C 242.2,464.0 247.5,464.5 253.1,464.3 C 268.3,463.7 285.4,458.6 294.5,447.7 C 307.7,419.5 275.6,432.6 271.8,413.0 C 268.0,393.5 290.7,392.5 290.7,392.5 L 387.9,392.2 C 387.9,392.2 387.3,293.9 387.3,293.9 C 387.3,293.9 386.2,271.2 366.7,275.0 C 347.2,278.8 360.2,310.9 332.0,297.7 C 321.1,288.6 316.0,271.6 315.4,256.4 C 315.2,250.7 315.7,245.5 316.7,240.9 C 316.7,240.7 316.7,240.4 316.8,240.2 C 318.5,227.1 323.5,213.8 332.7,206.1 C 338.0,203.7 341.9,202.8 344.7,203.0 C 357.2,203.9 351.6,225.7 367.4,228.8 C 385.6,232.3 387.7,213.5 387.9,210.8 L 387.9,112.4 C 387.9,112.4 290.5,113.1 290.5,113.1 C 290.5,113.1 267.9,114.2 271.6,133.7 C 275.4,153.2 307.6,140.2 294.3,168.4 C 285.2,179.3 268.2,184.4 253.0,185.0 C 247.4,185.2 242.1,184.7 237.5,183.7 C 237.3,183.7 237.1,183.7 236.9,183.6 C 223.7,181.9 210.4,176.9 202.8,167.7 C 189.5,139.5 221.6,152.5 225.4,133.0 C 229.1,113.8 207.5,112.5 206.8,112.4 L 108.6,112.4 z " id="path1220" sodipodi:nodetypes="cccccccccccccccccccccccccccccccccccccccccc" fill="url(#radialGradient1096)" fill-opacity="1" fill-rule="evenodd" stroke="#000000" stroke-width="12.500000" stroke-dasharray="none" stroke-linejoin="round"/>
  </g>
</svg>
