<?xml version="1.0" encoding="UTF-8" standalone="no"?>
<!-- Generator: Adobe Illustrator 12.0.0, SVG Export Plug-In . SVG Version: 6.00 Build 51448)  -->
<svg xmlns="http://www.w3.org/2000/svg" xmlns:cc="http://web.resource.org/cc/" xmlns:dc="http://purl.org/dc/elements/1.1/" xmlns:inkscape="http://www.inkscape.org/namespaces/inkscape" xmlns:rdf="http://www.w3.org/1999/02/22-rdf-syntax-ns#" xmlns:sodipodi="http://inkscape.sourceforge.net/DTD/sodipodi-0.dtd" xmlns:svg="http://www.w3.org/2000/svg" height="270.512" id="Layer_1" version="1.0" viewBox="0 0 208.532 270.512" width="208.532" xml:space="preserve" overflow="visible" enable-background="new 0 0 208.532 270.512">
<defs id="defs130"/>


<path d="M114.5,42.0c0.2-0.0,0.4-0.2,0.6-0.3C114.9,41.7,114.7,41.8,114.5,42.0z  " id="path3" fill="#FFBF00"/>

<path d="M113.4,19.4c-0.0,0.0-0.0,0.0-0.0,0.0C113.5,19.4,113.5,19.4,113.4,19.4z" id="path5" fill="#FFBF00"/>

<path d="M199.4,166.0c-5.7-18.9-10.8-37.8-13.4-57.5c-1.2-9.4-1.8-19.0-1.5-28.6  c0.1-4.4,3.9-20.8,0.2-22.6c-2.0-1.0-4.5-0.5-4.5-3.5c0-3.8,1.2-4.8-2.1-7.1  c-3.3-2.3-9.4-2.4-13.3-3.1c-2.4-0.4-4.9-1.0-7.3-1.9c-2.0-0.7-1.7-4.4-2.4-6.4  c-3.0-8.4-10.5-14.2-18.6-17.3c-3.4-1.3-7.0-1.6-10.6-1.8c-2.3-0.1-7.1,2.0-9.0,0.7  c-1.9-1.3-1.5-5.9-3.2-7.9c-1.8-2.0-4.6-6.8-7.1-7.9c-1.9-0.8-6.0-0.3-8.2-0.4  c-6.6-0.3-23.8,4.3-28.0,7.4c0.5,0.9,0.8,1.6,1.4,2.7c2.2-1.2,21.7-8.8,28.6-7.9  c5.6,0.7,17.5,10.1,13.5,17.1c0.0-0.0,0.0-0.0-0.0,0.0c0.0-0.0,0.0-0.0,0.0-0.0  c-0.1,0.0-1.6,0.7-1.6,0.7c-1.2-3.3-3.1-6.4-5.2-9.3c-3.0-4.3-7.7-3.8-12.9-4.3  c-4.3-0.3-15.4,3.9-19.7,5.1c-0.6,0.1-1.2,0.3-1.6,0.5c0.6,1.3,0.9,2.0,1.8,3.1  c0.7-0.5,1.2-0.8,2.8-1.7c3.8-2.1,17.5-3.4,21.9-3.4c3.3,0,4.1-0.5,5.8,2.4  c2.2,4.0,5.0,6.6,3.4,10.1c-2.1,4.7-8.3,10.0-11.4,14.4c0.2,0.1,0.4,0.2,0.6,0.4  c0.5-0.1,1.0-0.0,1.6,0.2c3.3-0.5,6.6-7.0,8.8-9.3c2.7-2.9,7.5-9.4,11.6-10.1  c14.2-2.2,29.0,4.9,33.1,19.0c-7.1-6.2-15.9-12.8-25.5-14.1c-9.8-1.3-17.4,9.4-22.9,16.8  c0.4,0.2,0.8,0.4,1.1,0.6c0.5-0.0,1.1,0.0,1.7,0.3c2.3-0.1,3.8-3.0,5.7-5.3  c0.3,2.0,0.6,4.1,0.8,6.3c0.2,0.0,0.4-0.0,0.7-0.0c0.1-0.1,0.3-0.2,0.6-0.3  c2.2-1.8,1.1-8.6,2.9-11.4c1.4,3.3,1.8,7.0,1.9,10.6c0.4,0.0,0.7,0.0,1.0-0.0  c0.3-0.3,0.8-0.5,1.3-0.5c1.0-1.1,0.2-3.6,0.0-5.7c-0.3-3.6-2.0-5.8,0.9-7.4  c7.9-4.4,21.9,9.0,26.2,13.9c-8.6,1.8-17.4,1.0-25.7,4.9c-0.5-1.8-0.9-3.7-1.0-5.6  c-0.2-0.0-0.4-0.0-0.6,0.0c-0.2,0.3-0.7,0.5-1.3,0.5c-1.7,1.5-1.7,5.5-0.5,7.7  c1.7,3.0,2.8-0.3,6.7-0.8c4.1-0.5,22.5-6.0,25.6-2.8c2.4,2.4-2.1,7.3-3.7,9.4  c-3.9,4.9-7.3,10.3-9.9,16.1c-1.1,2.6-5.5,18.0-7.4,18.3c-15.2,2.4-30.6,4.0-45.8,7.1  c2.3-7.3,4.2-14.9,6.5-22.3c1.6-5.3,4.0-17.8,8.6-21.3c3.3-2.6,10.5,0.2,13.3-1.8  c2.0-1.5,1.8-6.5,1.7-8.7c-0.4-0.0-0.8,0.0-1.2,0.1c-0.1,0.1-0.4,0.2-0.6,0.3  c-1.4,1.2-0.6,4.4-3.5,5.3c-2.2,0.7-5.1,0.6-7.5,1.2c1.4-2.4,2.9-4.7,4.6-7.0  c-0.3-0.1-0.5-0.3-0.8-0.4c-0.5,0.0-1.1-0.0-1.7-0.3c-3.6,0.1-5.9,6.0-7.9,9.5  c-3.0,5.2-5.5,10.8-7.7,16.4c-2.1,5.5-3.6,11.2-5.1,16.9c-1.3,5.2-0.1,13.6-6.9,13.3  c4.4-21.0,10.5-40.4,22.3-58.5c-0.3-0.2-0.6-0.4-0.9-0.6c-0.5,0.0-1.1,0.0-1.6-0.2  c-2.1,0.4-3.3,4.2-4.6,6.4c-2.6,4.6-2.5,6.3-7.9,6.7c-11.3,0.9-22.2,4.6-33.5,5.7  c1.3-9.1,4.1-17.7,9.2-25.5c2.4-3.7,5.2-7.3,8.3-10.5c2.3-2.3,4.1-3.5,5.2-5.1  c-0.4-0.7-1.0-1.5-2.0-3.4C65.8,17.4,60.0,23.5,55.6,30.7c-2.9,4.7-11.1,21.4-7.1,26.9  c2.2,3.0,9.6,0.0,12.8-0.3c8.9-1.1,17.4-3.7,26.4-4.7c-4.6,8.2-7.7,17.3-10.0,26.4  c-1.1,4.6-2.2,9.3-3.2,14.0c-0.7,3.8-0.3,3.8-4.2,4.3c-2.5,0.3-5.0,0.8-7.5,1.2  c-9.1,1.7-19.1,4.5-28.5,2.3c-4.2-0.9-8.4-3.1-11.4-6.2c-3.6-3.8-5.0-2.9-9.8-3.4  c-6.0-0.6-8.8-4.0-9.4-10.0c-0.4-4.4,2.8-4.5,6.8-6.1c4.1-1.7,8.2-3.5,12.4-5.2  c3.9-1.6,8.0-3.1,12.0-4.6c6.4-2.4,8.0-2.0,8.3-9.2c0.5-9.8,5.1-19.5,10.6-27.4  c3.1-4.5,6.6-8.8,10.6-12.6c2.9-2.7,5.1-4.5,6.7-5.7c-0.4-0.9-0.9-1.8-1.4-2.7  c-9.0,6.8-25.6,22.1-29.0,41.6c-0.6,3.6,0.1,11.3-3.0,12.7c-4.2,1.7-8.6,3.2-12.9,4.8  c-5.5,2.0-19.9,4.5-23.5,9.5c-1.9,2.7-1.0,11.5-1.0,14.8c0.0,5.1,0.4,10.3,0.8,15.5  c0.6,7.4,1.1,15.8,0.8,22.2c-0.8,20.9,2.2,41.2,3.9,62.0c0.8,10.0,1.7,20.9,0.2,30.9  c-0.7,4.9-4.7,17.3-0.6,21.8c2.4,2.6,7.8,4.0,10.8,6.4c4.2,3.3,8.1,7.1,12.2,10.7  c1.7,1.4,3.5,2.8,5.4,4.0c1.9,1.2,2.1,4.3,4.5,5.2c4.3,1.7,8.3-3.1,11.6-5.1  c6.5-4.0,17.2-5.8,24.8-8.1c9.2-2.7,18.4-5.5,27.8-8.0c20.0-5.4,40.8-7.1,61.2-11.2  c10.5-2.1,20.7-4.5,31.0-7.7c4.5-1.4,13.0-1.1,13.1-7.4C208.8,203.3,203.0,184.5,199.4,166.0z" id="path7" fill="#FF7F00"/>

<path d="M121.2,40.8c0.6-0.0,1.0-0.2,1.3-0.5C122.0,40.3,121.5,40.5,121.2,40.8z" id="path9" fill="#FFBF00"/>

<path d="M99.0,37.9c-0.6-0.3-1.1-0.3-1.6-0.2C97.9,37.9,98.4,37.9,99.0,37.9z" id="path11" fill="#FFBF00"/>

<path d="M107.1,41.1c-0.6-0.2-1.2-0.3-1.7-0.3C106.0,41.1,106.6,41.2,107.1,41.1z  " id="path13" fill="#FFBF00"/>

<path d="M87.7,79.0c-0.1,0.7-0.3,1.4-0.4,2.1C87.4,80.4,87.5,79.7,87.7,79.0" id="path15" fill="#FFBF00"/>

<path d="M155.0,53.1c-4.2,7.0-7.2,15.1-9.6,23.0c-1.3,4.5-2.1,12.9-8.3,12.4  C140.9,75.1,143.0,62.1,155.0,53.1" id="path17" fill="#FFBF00"/>

<path d="M3.5,93.0c7.8,2.7,15.1,7.0,23.1,9.4c3.8,1.1,7.9,2.5,11.9,2.7  c3.6,0.1,6.7-1.2,10.5-1.6c15.3-1.8,31.2-4.7,47.0-6.8c18.9-2.5,42.8-0.8,60.1-9.7  c5.1-2.6,9.4-5.0,13.9-8.6c2.6-2.0,9.4-7.7,9.4-10.9c0-5.8,2.8-10.5-3.6-2.0  c-7.6,9.9-17.6,18.2-29.9,21.3c2.8-10.7,5.9-21.6,10.9-31.7c2.7-5.5-1.8-10.9,5.8-10.0  c4.3,0.5,8.5,2.5,12.8,3.6c-1.4,4-6.5,4.2-9.1,7.2c3.8,5.2,17.1-0.8,17.1,5.4  c0,4.5-2.7,8.2-3.6,12.5c-1.2,6.1-0.9,13.2-1.2,19.5c-0.2,4.4,0.7,5.8-2.7,8.6  c-3.1,2.5-6.3,5.1-9.5,7.7c3.9-10.4,12.7-19.6,10.7-31.5c-4.1,6.8-7.9,13.9-11.5,21.1  c-1.8,3.6-3.6,7.4-5.4,11.1c-2.3,4.7-4.9,5.6-9.9,7.3c-15.0,5.2-31.4,5.7-46.8,9.3  c-16.6,3.8-33.4,6.9-50.6,6.6c-4.3-0.0-8.7-0.1-13.0-0.4c-6.8-0.5-6.7-0.7-7.7-7.1  c-0.9-6.1,0.0-14.1-5.1-17.6c-3.5,2.9,1.4,18.4,2.1,22.9c-8.0-0.8-14.5-5.6-20.2-11.0  C2.5,114.4,4.1,101.9,3.5,93.0" id="path19" fill="#FFBF00"/>

<path d="M72.0,151.2c8.2-3.6,16.9-6.6,25.7-8.8c-5.1,1.5-10.0,3.1-14.7,6.0  c-4.3,2.7-11.0,12.6-16.1,11.2C68.8,157.0,72.0,154.8,72.0,151.2" id="path21" fill="#FFBF00"/>

<path d="M31.6,158.7c-2.7-1.0-5.8-0.3-7.9-2.8c-0.0,0.2-0.2,0.9-0.2,0.9  c-1.0-0.7-8.2-5.1-3.5-4.3c4.6,0.7,9.2,1.3,14.1,1.7c6.2,0.5,10.7-0.6,16.2-3.2  c4.0-1.8,10.1-2.9,12.1-7.4c0.1,3.3,4.2-0.1,3.9-1.1c-0.4-1.4-7.2,0.1-8.4,0.1  c0,0.3,0,0.7,0,1.0c-7.3-4.9-19.6,1.9-27.5-6.3c11.1,1.2,22.3,1.4,33.4,0.2  c5.9-0.6,11.7-1.5,17.5-2.5c5.0-0.9,12.5-4.6,17.4-2.6C75.7,140.6,56.8,156.8,31.6,158.7" id="path23" fill="#FFBF00"/>

<path d="M64.1,154.8c-2.2,2.3-4.2,8.2-8.4,5.6C58.5,158.5,61.3,156.6,64.1,154.8" id="path25" fill="#FFBF00"/>

<path d="M105.0,140.7c9.5-2.3,22.1-7.7,30.3,0.4c-11.1-6.3-24.8-0.6-36.4,0.7  C101.0,141.6,103.0,141.2,105.0,140.7" id="path27" fill="#FFBF00"/>

<path d="M130.9,134.4c3.2-0.4,6.2,1.1,8.8,2.8  C136.7,137.8,133.4,136.3,130.9,134.4" id="path29" fill="#FFBF00"/>

<path d="M119.7,128.3c12.4-3.6,24.7-5.4,36.9-10.0c-1.5,5.5-3.6,11.7-2.3,17.4  c1.7,7.3,7.7,2.8,11.8,0.1c4.7-3.1,9.5-7.7,12.0-13.1c1.4-3.0-0.6-9.8-0.2-10.3  c1.8-2.8,2.0,0.5,2.8,2.1c2.6,5.7-1.4,10.5-5.1,14.7c-2.7,3.0-12.8,12.8-17.3,11.1  c-5.5-1.9-8.5-7.0-14.3-8.8C136.1,129.2,127.8,128.6,119.7,128.3" id="path31" fill="#FFBF00"/>

<path d="M169.5,126.0c1.6-3.0,3.3-6.1,4.6-9.3C176.4,120,172.1,124.1,169.5,126.0" id="path33" fill="#FFBF00"/>

<path d="M15.2,154.1c-0.8-1.2-0.3-2.1-2.1-2.1c0-0.3,0-0.7,0-1.1  C15.3,151.1,16.3,152.2,15.2,154.1" id="path35" fill="#FFBF00"/>

<path d="M203.2,223.7c-38.6,13.5-80.0,14.0-118.9,26.6  c-9.0,2.9-18.5,5.1-27.3,8.9c-4.0,1.7-14.9,10.9-18.5,6.4c-4.7-5.9-11.1-10.4-16.5-15.9  c-5.3-5.3-14.0-9.4-11.3-17.7c3.3-10.0,0.1-24.5-0.5-35.0c-0.4-7.4-1-14.8-1.6-22.3  c-0.5-5.9-3.3-15.1-1.9-20.6c13.7,9.8,27.2,14.2,44.3,12.5c16.7-1.7,32.8-6.3,49.3-9.2  c29.5-5.2,61.7-4.0,83.5-27.8c0.8,3.3,6.8,23.0,5.3,24.8c-6.8,7.8-13.2,12.9-22.5,17.6  c-15.3,7.6-35.3,7.6-52.1,9.5c-16.4,1.8-32.5,6.6-48.9,9.0c-8.1,1.1-16.5,2.1-24.8,1.4  c-5.0-0.4-2.7-0.5-3.8-4.0c-0.5-1.6-0.7-3.4-1.0-5.1c-5.3,0.7-1.3,6.4-3.9,8.4  c-2.6,1.9-14.3-5.4-17.2-6.3c-0.1,10.6,2.8,22.6,14.5,23.6c3.4,0.3,7.3,7.4,3.9,8.1  c-7.7,1.6-10.9-5.3-17.3-6.3c-2.7-0.4-2.3-1.3-1.8,1.7c0.1,0.6,1.0,2.0,1.4,2.5  c3.5,5.0,9.6,7.0,15.1,8.8c3.9,1.2,4.4,0.2,5.0,5.0c0.4,3.5,0.8,7.1,1.2,10.7  c0.8,6.7,1.8,13.3,4.6,19.6c2.8-3.6-0.4-6.9-0.7-10.7c-0.3-5.7-0.7-11.5-1.1-17.3  c-0.4-6.5-0.4-5.5,6.2-6.0c17.2-1.2,34.0-5.1,50.7-9.0c34.9-8.1,73.5-9.2,103.1-31.3  C203.6,196.6,206.0,211.0,203.2,223.7" id="path37" fill="#FFBF00"/>

<path d="M180.3,168.8c-6.9,9.2-16.2,18.0-26.8,22.9c4.4-3.5,9.3-6.4,13.7-10.0  C172.1,177.7,175.2,172.5,180.3,168.8" id="path39" fill="#FFBF00"/>

<path d="M152.2,192.4c-0.7,0.5-1.5,1.0-2.3,1.6C150.7,193.5,151.4,192.9,152.2,192.4  " id="path41" fill="#FFBF00"/>

<path d="M137.7,181.6c-2.9,1.6-11.0,8.0-10.2,1.6  C130.9,182.8,134.3,182.2,137.7,181.6" id="path43" fill="#FFBF00"/>

<path d="M104.5,208.0c-2.9,1.8-6.0,4.7-9.5,4.9  C98.1,211.3,101.3,209.7,104.5,208.0" id="path45" fill="#FFBF00"/>

<path d="M83.7,198.0c4.6-5.9,10.9-9.6,18.4-10.7  C95.1,189.3,91.4,197.0,83.7,198.0" id="path47" fill="#FFBF00"/>

<path d="M37.7,216.5c-2.3-4.8,0.4-7.9,5.0-9.3c4.8-1.4,8.3-3.5,12.8-5.8  c7.5-3.7,14.8-8.2,23.2-10.0C66.3,201.8,52.9,210.4,37.7,216.5" id="path49" fill="#FFBF00"/>

<path d="M78.1,205.7c-1.0,1.3-1.6,2.2-3.2,2.3C75.9,207.3,77.0,206.3,78.1,205.7" id="path51" fill="#FFBF00"/>

<path d="M73.2,208.5c-3.3,3.3-7.8,5.6-12.3,6.7C64.5,212.3,69.0,210.7,73.2,208.5" id="path53" fill="#FFBF00"/>

<path d="M36.7,197.3c4.3-0.3,8.5,1.4,12.8,0C45.1,199.2,35.3,206.5,36.7,197.3" id="path55" fill="#FFBF00"/>

<path d="M80.4,55.9c3.9,4.4-4.4,5.0-6.8,5.7c-8.8,2.8-17.5,5.9-26.1,9.5  c-7.7,3.1-15.3,7.6-21.8,12.8c-3.1,2.4-7.7,5.6-11.9,3.9C33.9,72.7,55.8,62.2,80.4,55.9" id="path57" fill="#FFBF00"/>

<path d="M48.9,62.7c-0.6,2.9-11.0,6.1-14.2,7.7c-5.1,2.6-10.5,4.9-15.9,6.9  C24.4,72.9,41.5,59.9,48.9,62.7" id="path59" fill="#FFBF00"/>

<path d="M82.1,96.3c3.5-20.5,10.1-39.0,22.0-56.2  c-5.8-3.7-7.9,4.1-10.5,8.6c-2.8,5.0-5.0,10.4-7.1,15.8c-4.0,10.5-6.5,21.4-8.8,32.4  C79.1,96.8,80.7,96.8,82.1,96.3" id="path61" fill-rule="evenodd" clip-rule="evenodd" fill="#8B5C29"/>

<path d="M120.9,22.9c12.2-0.6,22.9,6.8,31.7,14.4c-3.5-12.2-17.1-21.6-30.3-19.5  c-9.0,1.4-17.4,13.1-22.3,20.5c4.9,3.6,7.1-2.2,10.2-5.6C113.6,29.3,117.2,26.2,120.9,22.9" id="path63" fill="#8B5C29"/>

<path d="M118.1,30.2c-2.1,3.3-1.7,7.5-1.7,11.3  C122.3,42.1,119.7,33.7,118.1,30.2" id="path65" fill-rule="evenodd" clip-rule="evenodd" fill="#FFBF00"/>

<path d="M101.3,52.1C94.0,66.0,90.8,81.1,86.1,95.8  c14.7-2.9,29.5-4.5,44.3-6.8c4.0-0.6,5.9-12.1,7.7-16.1c2.7-6.0,5.9-11.5,9.7-16.9  c1.3-1.8,6.6-7.2,5.8-9.8c-1.2-4.4-18.6,0.5-21.7,0.9c-1.5,0.2-11.3,2.3-11.2,2.8  c-0.4-3.0-0.6-6.0-0.7-9.0c-6.8-0.6-1.7,5.6-5.0,8.7C113.0,51.5,104.6,51.2,101.3,52.1" id="path67" fill-rule="evenodd" clip-rule="evenodd" fill="#8B5C29"/>

<path d="M166.7,55.9c2.5-3.0,7.6-3.2,9.1-7.2c-4.0-0.9-7.8-2.7-11.9-3.5  c-8.7-1.5-3.2,2.6-6.0,8.3c-5.3,10.5-8.6,21.8-11.7,33.2c8.7-2.2,16.6-7.1,23.0-13.4  c3.1-3.1,6.2-6.4,8.6-10.2c0.6-1.0,1.1-1.7,1.5-2.1c0.1-0.9,0.4-1.7,0.8-2.5  C176.2,57.7,169.8,60.0,166.7,55.9z" id="path69" fill="#8B5C29"/>

<path d="M180.2,58.2c-0.3,0.8-0.6,1.6-0.8,2.5c1.1-1.1,1.5-0.2,1.6,2.4  c0.2,7.3-9.9,14.4-14.8,18.4c-8.1,6.4-19.2,8.5-29.0,10.4c-18.7,3.7-39.2,5.0-58.1,6.9  c-3.7,0.3-7.2,1.7-10.8,2.4c-2.8,0.5-10.4-0.5-12.2,0.7c-3.7,2.6-15.6,3.2-19.8,2.5  c-11.5-1.9-21.5-8.0-32.4-11.8c0.5,8.8-1.0,21.3,5.4,27.5c5.7,5.3,12.2,10.2,20.2,11.0  c-1.0-7.2-2.1-14.4-3.2-21.7c0.3-0.3,0.7-0.7,1.1-1.1c5.0,3.4,4.0,10.5,4.9,16.5  c1.0,6.6,0.3,7.4,7.3,8.1c4.4,0.4,9.0,0.4,13.5,0.5c17.1,0.2,34.0-2.7,50.6-6.6  c15.4-3.6,31.8-4.0,46.8-9.3c4.7-1.6,7.1-2.4,9.6-6.7c2.0-3.5,3.6-7.4,5.4-11.1  c3.6-7.3,7.5-14.6,11.8-21.7c1.9,11.9-6.8,21.0-10.7,31.5c2.7-2.2,5.5-4.4,8.3-6.7  c3.9-3.2,3.9-3.3,3.9-8.4c0.0-6.5,0.9-13.0,1.2-19.5c0.2-4.4,4.0-8.5,3.6-12.9  C183.7,59.4,182.2,58.5,180.2,58.2z" id="path71" fill="#FFBF00"/>

<path d="M141.5,87.4c4.5-11.4,7.1-23.6,13.5-34.3  c-11.9,8.9-14.0,21.9-17.9,35.5C138.6,88.6,140.1,88.2,141.5,87.4" id="path73" fill-rule="evenodd" clip-rule="evenodd" fill="#8B5C29"/>

<path d="M22.7,86.3c10.1-8.0,21.0-13.7,33.0-18.4  c5.8-2.2,11.8-4.2,17.8-6.1c2.0-0.6,5.5-0.3,7.1-2.2c4.5-5.6-10.5-0.6-12.7,0.0  c-6.4,2.0-12.8,4.4-19.0,7.2c-12.7,5.6-24.1,12.9-35.2,21.2C17.0,89.3,19.6,87.4,22.7,86.3" id="path75" fill-rule="evenodd" clip-rule="evenodd" fill="#FFBF00"/>

<path d="M18.7,77.4c5.4-1.9,10.7-4.2,15.9-6.9  c3.1-1.6,13.5-4.8,14.2-7.7C41.5,59.9,24.4,72.9,18.7,77.4" id="path77" fill-rule="evenodd" clip-rule="evenodd" fill="#FFBF00"/>

<path d="M159.0,140.7c8.4-3.7,18.3-10.2,22.0-19.1  c0.7-1.8,0.6-7.6-1.0-9.4c-1.0-1.1-1.9-0.7-2.5,1.0c0.2-0.7,1.9,3.2,1.9,3.7  c0.1,1.5-0.2,3.2-0.7,4.7c-2.6,7.8-11.5,14.8-18.9,17.9c-9.6,4.0-4.1-17.8-3.1-21.3  c-12.1,4.5-24.5,6.4-36.9,10.0c8.0,0.2,16.3,0.8,24.0,3.2C149.8,133.5,153.1,139.0,159.0,140.7" id="path79" fill-rule="evenodd" clip-rule="evenodd" fill="#FFBF00"/>

<path d="M174.2,116.7c-1.2,3.2-2.9,6.3-4.6,9.3  C172.1,124.1,176.4,120,174.2,116.7" id="path81" fill-rule="evenodd" clip-rule="evenodd" fill="#FFBF00"/>

<path d="M130.9,208.5c-22.3,4.0-44.1,10.4-66.5,14.0c-5.7,0.9-11.5,1.7-17.3,2.1  c-0.8,0.0-8.1,0.3-8.1,0.7c0.2,3.5,0.4,7.1,0.7,10.6c0.3,5.2,0.2,10.4,1.8,15.3  c0.8,2.5,1.5,5.1-0.2,7.4c-2.5-5.6-3.6-11.7-4.4-17.8c-0.7-5.5,0.3-16.3-5.4-17.3  c-5.7-0.9-10.9-3.7-15.1-7.7c-1.0-0.9-4.5-8.1-1.5-6.2c4.9,3.1,9.9,7.1,16.1,7.1  c6.0,0,2.5-6.9-1.1-8.2c-5.4-1.9-7.1-0.1-11.1-6.0c-3.4-4.9-4.1-11.7-4.0-17.6  c2.9,0.8,14.6,8.2,17.2,6.3c2.6-1.9-1.3-7.6,3.9-8.4c0.5,3.0,0.3,8.8,3.1,9.0  c8.7,0.7,17.2-0.1,25.9-1.2c16.5-2.0,32.6-6.8,49.2-9.0c16.4-2.2,36.2-1.4,51.4-9.0  c9.3-4.6,16.0-9.5,22.9-17.3c2.3-2.7-3.5-21.2-4.7-25.5c-21.5,23.4-52.6,22.2-81.7,27.5  c-16.4,2.9-32.5,7.6-49.2,9.3c-17.8,1.8-31.7-2.0-46.1-12.3c-2.0,7.6,1.9,21.1,2.6,29.3  c0.7,9.9,1.2,19.9,1.7,29.9c0.3,7.2,1.3,13.8-0.9,20.7c-2.0,6.2,11.2,14.9,15.3,18.8  c3.4,3.2,7.6,6.0,10.8,9.4c1.2,1.3,1.9,3.2,3.5,4.3c3.2,2.1,17.5-7.7,21.5-9.1  c18.8-6.6,38.0-12.9,57.6-16.8c21.1-4.1,42.9-5.3,63.8-10.7c5.6-1.4,11.0-3.0,16.5-4.9  c5.8-2.0,5.1-7.0,5.1-12.9c-0.0-9.2-1.9-18.9-4.9-27.6C179.1,199.6,155.5,204.6,130.9,208.5" id="path83" fill="#FFBF00"/>

<path d="M181.9,214.1c-1.0-5.0-0.2-16.0,5.6-17.9  C187.3,201.1,185.1,210.3,181.9,214.1" id="path85" fill="#FFBF00"/>

<path d="M57.3,142.4C57.9,142.5,58.3,142.5,57.3,142.4" id="path87" fill-rule="evenodd" clip-rule="evenodd" fill="#FFBF00"/>

<path d="M95.6,131.6c-21.3,5.6-43.1,8.0-65.2,5.6  c7.9,8.2,20.2,1.3,27.5,6.3c-0.5-0.8-0.1-0.6-0.7-1.1c1.6,0.2,7.2-1.5,8.4-0.3  c1.3,1.3-3.1,4.8-3.2,1.5c-2.0,4.7-7.5,4.7-11.4,7.0c-5.4,3.1-10.6,4.1-16.9,3.6  c-2.6-0.2-5.3-0.3-8.0-0.5c-0.9-0.0-4.8-1.3-5.7-1.1c-4.5,1.1,0.8,2.7,3.1,4.3  c-0.0,0.0,0.1-0.7,0.2-0.9c6.1,7.3,24.5,0.5,31.2-2.3c14.9-6.6,28.4-15.6,44.0-21.2  C97.8,132.1,96.7,131.7,95.6,131.6" id="path89" fill-rule="evenodd" clip-rule="evenodd" fill="#FFBF00"/>

<path d="M139.8,137.2c-2.6-1.6-5.6-3.2-8.8-2.8  C133.4,136.3,136.7,137.8,139.8,137.2" id="path91" fill-rule="evenodd" clip-rule="evenodd" fill="#FFBF00"/>

<path d="M135.4,141.2c-8.2-8.2-20.8-2.8-30.3-0.4  C114.5,138.9,126.4,136.1,135.4,141.2" id="path93" fill-rule="evenodd" clip-rule="evenodd" fill="#FFBF00"/>

<path d="M98.9,141.9c2.0-0.2,4.0-0.6,6.0-1.1  C103.0,141.2,101.0,141.6,98.9,141.9" id="path95" fill-rule="evenodd" clip-rule="evenodd" fill="#FFBF00"/>

<path d="M91.8,144.1c2-0.5,3.9-1.1,5.9-1.7C95.7,142.9,93.7,143.4,91.8,144.1" id="path97" fill="#FFBF00"/>

<path d="M70.9,159.7c5.3-7.0,12.4-12.6,20.9-15.5  c-5.1,1.5-15.8,3.1-19.7,7.1c-1.4,1.5-3.5,6.2-5.1,8.4C68.2,159.7,69.6,159.9,70.9,159.7" id="path99" fill-rule="evenodd" clip-rule="evenodd" fill="#FFBF00"/>

<path d="M13.1,151.9c0.7,0.6,1.7,0.3,2.1,2.1C16.5,151.9,14.1,150.0,13.1,151.9" id="path101" fill="#FFBF00"/>

<path d="M64.1,154.8c-2.8,1.8-5.6,3.7-8.4,5.6C59.9,163.0,61.8,157.1,64.1,154.8" id="path103" fill="#FFBF00"/>

<path d="M153.4,191.7c10.6-5.5,19.6-13.3,26.8-22.9c-4.8,3.5-7.9,8.4-12.5,12.3  C163.2,185.0,158.0,188.0,153.4,191.7" id="path105" fill="#FFBF00"/>

<path d="M137.7,181.6c-3.4,0.5-6.8,1.1-10.2,1.6  C126.6,189.7,134.8,183.3,137.7,181.6" id="path107" fill-rule="evenodd" clip-rule="evenodd" fill="#FFBF00"/>

<path d="M83.7,198.0c7.6-1.0,11.3-8.7,18.4-10.7  C94.7,188.3,88.4,192.0,83.7,198.0" id="path109" fill-rule="evenodd" clip-rule="evenodd" fill="#FFBF00"/>

<path d="M52.4,202.9c-4.6,4.5-19.5,3.5-14.7,13.5  c15.2-6.0,28.6-14.6,41.1-25.2C69.4,193.3,60.8,198.4,52.4,202.9" id="path111" fill-rule="evenodd" clip-rule="evenodd" fill="#FFBF00"/>

<path d="M183.1,201.3c-0.0,4.3-2.0,8.4-1.1,12.8  c3.2-3.8,5.4-13.0,5.6-17.9C185.2,196.9,183.2,198.7,183.1,201.3" id="path113" fill-rule="evenodd" clip-rule="evenodd" fill="#FFBF00"/>

<path d="M36.7,197.3c-1.4,9.1,8.3,1.9,12.8,0C45.3,198.7,41.1,197.0,36.7,197.3" id="path115" fill="#FFBF00"/>

<path d="M78.1,205.7c-1.1,0.6-2.2,1.5-3.2,2.3  C76.5,208.0,77.1,207.0,78.1,205.7" id="path117" fill-rule="evenodd" clip-rule="evenodd" fill="#FFBF00"/>

<path d="M104.5,208.0c-3.1,1.6-6.3,3.2-9.5,4.9  C98.4,212.8,101.6,209.9,104.5,208.0" id="path119" fill="#FFBF00"/>

<path d="M73.2,208.5c-4.1,2.2-8.6,3.7-12.3,6.7C65.3,214.1,69.9,211.9,73.2,208.5" id="path121" fill="#FFBF00"/>

<path d="M62.2,57.3c-3.1,0.5-11.6,3.4-13.7,0.4c-4.0-5.5,4.3-22.8,7.4-27.4  c3.0-4.5,6.2-8.7,9.9-12.7c1.2-1.4,4.1-3.3,6.3-5.3c-0.3-0.6-0.6-1.3-0.9-1.9  C54.8,23.5,44.0,40.2,42.8,62.2c-6.9,2.5-13.8,5.1-20.7,7.9c-4.6,1.9-17.3,5.3-18.7,9.3  c-1.3,3.7,2.1,9.3,5.1,11.1c2.3,1.3,4.7,0.4,7.2,0.7c4.6,0.4,4.8,2.2,8.5,5.1  c13.1,10.5,31.3,2.9,45.9,1.0c5.1-0.6,4.2-4.4,5.3-9.0c0.9-4.1,1.8-8.3,3.0-12.4  c2.2-8.0,5.0-16.0,9.1-23.3C78.9,53.7,70.8,55.7,62.2,57.3z" id="path123" fill="#8B5C29"/>

<path d="M113.4,19.4c0.0-0.0,0.0-0.0,0.0-0.0  C113.4,19.4,113.4,19.4,113.4,19.4z" id="path125" fill-rule="evenodd" clip-rule="evenodd" fill="#FFBF00"/>

<path d="M99.0,2.2c-2.9-0.1-22.2,4.5-27.7,7.9  c0.3,0.7,0.6,1.2,0.9,1.9c6.8-1.5,20.4-5.9,27.6-5.0c6.4,0.8,9.6,6.9,11.8,12.9  c0.0-0.0,1.4-0.6,1.6-0.7C117.5,12.1,105.1,2.4,99.0,2.2z" id="path127" fill-rule="evenodd" clip-rule="evenodd" fill="#8B5C29"/>


  
</svg>
