<?xml version="1.0" encoding="UTF-8" standalone="no"?>
<svg xmlns="http://www.w3.org/2000/svg" xmlns:cc="http://web.resource.org/cc/" xmlns:dc="http://purl.org/dc/elements/1.1/" xmlns:inkscape="http://www.inkscape.org/namespaces/inkscape" xmlns:rdf="http://www.w3.org/1999/02/22-rdf-syntax-ns#" xmlns:sodipodi="http://sodipodi.sourceforge.net/DTD/sodipodi-0.dtd" xmlns:xlink="http://www.w3.org/1999/xlink" height="0.764063in" id="svg1" sodipodi:docbase="/home/kurumin" sodipodi:docname="logo.svg" sodipodi:version="0.32" viewBox="0 0 58 55" width="0.805739in">
  
  <defs id="defs5">
    <linearGradient id="linearGradient8582">
      <stop id="stop8583" offset="0.0000000" stop-color="#000000" stop-opacity="1.0000000"/>
      <stop id="stop8584" offset="1.0000000" stop-color="#ffffff" stop-opacity="0.0000000"/>
    </linearGradient>
    <radialGradient cx="75.314857" cy="26.100645" fx="75.314857" fy="26.100645" gradientTransform="matrix(1.525292,0.000000,0.000000,0.959565,-82.70198,13.23033)" gradientUnits="userSpaceOnUse" id="radialGradient8586" inkscape:collect="always" r="20.225086" xlink:href="#linearGradient8582"/>
    <radialGradient cx="75.314857" cy="26.100645" fx="75.314857" fy="26.100645" gradientTransform="matrix(1.525292,0.000000,0.000000,0.959565,-76.52933,11.43827)" gradientUnits="userSpaceOnUse" id="radialGradient8588" inkscape:collect="always" r="20.225086" xlink:href="#linearGradient8582"/>
  </defs>
  <sodipodi:namedview bordercolor="#666666" borderopacity="1.0" id="base" inkscape:current-layer="svg1" inkscape:cx="26.194261" inkscape:cy="27.320889" inkscape:pageopacity="0.0" inkscape:pageshadow="2" inkscape:window-height="693" inkscape:window-width="1016" inkscape:window-x="0" inkscape:window-y="0" inkscape:zoom="1.8209867" pagecolor="#ffffff"/>
  <path d="M 29.1,18.9 C 15.9,20.9 5.7,30.9 2.7,39.9 C 1.3,43.9 -0.1,48.9 4.2,52.9 C 13.0,58.9 36.4,57.9 48.1,56.9 C 52.5,55.9 58.4,54.9 61.3,51.9 C 64.2,47.9 62.7,42.9 61.3,38.9 C 56.9,29.9 45.2,17.9 29.1,18.9 z " id="path7955" sodipodi:nodetypes="ccccccc" fill="url(#radialGradient8586)" fill-opacity="1.0000000" stroke="none" stroke-width="4.0990667" stroke-miterlimit="4.0000000"/>
  <path d="M 27.0,6.6 C 18.0,8.6 11.0,18.6 9.0,27.6 C 8.0,31.6 7.0,36.6 10.0,40.6 C 16.0,46.6 32.0,45.6 40.0,44.6 C 43.0,43.6 47.0,42.6 49.0,39.6 C 51.0,35.6 50.0,30.6 49.0,26.6 C 46.0,17.6 38.0,5.6 27.0,6.6 z " id="selection_to_path" sodipodi:nodetypes="ccccccc" fill="#ffbe39" fill-opacity="1.0000000" stroke="#000000" stroke-width="4.0990665" stroke-miterlimit="4.0000000" stroke-dasharray="none"/>
  <path d="M 25.0,17.3 C 25.5,14.2 30.9,14.8 30.8,17.4 C 31.0,21.2 30.5,26.3 29.3,29.3 C 29.0,31.3 26.9,31.6 26.4,29.3 C 25.6,27.2 24.4,22.5 25.0,17.3 z " id="path6087" sodipodi:nodetypes="ccccc" fill="#ffffff" fill-opacity="0.80754715" stroke="none" stroke-width="0.56597877" stroke-linecap="butt" stroke-linejoin="miter" stroke-miterlimit="4.0000000" stroke-dashoffset="0.0000000" stroke-opacity="1.0000000"/>
  <path d="M 26.7,17.1 C 27.2,14.0 32.6,14.6 32.5,17.2 C 32.6,21.1 32.2,26.1 31.0,29.2 C 30.7,31.1 28.6,31.4 28.1,29.2 C 27.3,27.0 26.1,22.3 26.7,17.1 z " id="rect1708" sodipodi:nodetypes="ccccc" fill="#000000" fill-opacity="1.0000000" stroke="#000000" stroke-width="0.56597877" stroke-linecap="butt" stroke-linejoin="miter" stroke-miterlimit="4.0000000" stroke-dashoffset="0.0000000" stroke-opacity="1.0000000"/>
  <path d="M 31.2 35.8 A 2.6 2.6 0 1 1  25.9,35.8 A 2.6 2.6 0 1 1  31.2 35.8 z" id="path6088" sodipodi:cx="28.631300" sodipodi:cy="35.870243" sodipodi:rx="2.6604304" sodipodi:ry="2.6604304" sodipodi:type="arc" transform="matrix(0.996362,0.000000,0.000000,0.996362,-0.532422,-0.339695)" fill="#ffffff" fill-opacity="0.67547172" stroke="none" stroke-width="0.86980194" stroke-linecap="butt" stroke-linejoin="miter" stroke-miterlimit="4.0000000" stroke-dashoffset="0.0000000" stroke-opacity="1.0000000"/>
  <path d="M 31.2 35.8 A 2.6 2.6 0 1 1  25.9,35.8 A 2.6 2.6 0 1 1  31.2 35.8 z" id="path2956" sodipodi:cx="28.631300" sodipodi:cy="35.870243" sodipodi:rx="2.6604304" sodipodi:ry="2.6604304" sodipodi:type="arc" transform="matrix(0.996362,0.000000,0.000000,0.996362,1.142414,-0.524115)" fill="#000000" fill-opacity="1.0000000" stroke="#000000" stroke-width="0.86980194" stroke-linecap="butt" stroke-linejoin="miter" stroke-miterlimit="4.0000000" stroke-dashoffset="0.0000000" stroke-opacity="1.0000000"/>
  <path d="M 27.6,9.2 C 18.6,11.2 13.5,19.5 11.5,28.5 C 10.5,32.5 9.7,35.4 12.7,39.3 C 13.7,40.2 17.0,41.5 18.7,41.8 C 17.5,41.4 13.5,39.4 12.8,38.2 C 11.2,34.9 11.3,32.3 12.2,29.6 C 14.2,20.6 18.1,13.5 27.1,10.1 C 29.7,9.8 31.6,10.2 33.8,11.2 C 31.0,9.5 30.9,8.9 27.6,9.2 z " id="path7332" sodipodi:nodetypes="ccccccccc" fill="#ffffff" fill-opacity="0.83773583" stroke="none" stroke-width="4.0990667" stroke-miterlimit="4.0000000"/>
</svg>
