<?xml version="1.0" encoding="UTF-8" standalone="no"?>
<!-- Created with Inkscape (http://www.inkscape.org/) -->
<svg xmlns="http://www.w3.org/2000/svg" xmlns:inkscape="http://www.inkscape.org/namespaces/inkscape" xmlns:sodipodi="http://sodipodi.sourceforge.net/DTD/sodipodi-0.dtd" xmlns:xlink="http://www.w3.org/1999/xlink" height="400pt" id="svg548" sodipodi:docbase="/var/www/html/svg_gallery/svg/callouts" sodipodi:docname="stared_c.svg" sodipodi:version="0.32" width="400pt">
  
  <defs id="defs550"/>
  <sodipodi:namedview id="base" inkscape:cx="200.00000" inkscape:cy="200.00000" inkscape:window-height="500" inkscape:window-width="557" inkscape:window-x="28" inkscape:window-y="37" inkscape:zoom="0.77250000"/>
  <g id="g830">
    <path d="M 316.6,307.1 L 386.4,359.8 L 348.0,268.1 L 448.8,291.1 L 389.1,239.5 L 500.5,239.5 L 397.0,208.0 L 488.5,168.0 L 411.5,151.9 L 451.4,102.5 L 388.5,111.8 L 411.6,49.0 L 351.7,87.9 L 337.6,30.2 L 294.9,81.9 C 294.9,78.4 269.9,30.9 268.6,30.9 C 267.3,30.9 242.8,81.0 242.8,81.0 L 198.2,34.7 L 186.9,89.1 L 145.1,42.6 C 145.1,42.6 144.2,94.6 141.6,94.6 C 138.9,94.6 78.2,62.3 78.2,62.3 C 78.2,62.3 92.8,121.6 92.8,123.0 C 92.8,124.5 27.0,112.7 27.0,112.7 L 81.2,155.5 L 23.7,175.0 C 23.7,175.0 71.9,211.2 70.6,212.6 C 69.2,214.1 28.0,250.5 28.0,250.5 C 28.0,250.5 101.5,248.7 100.2,248.7 C 100.0,249.9 29.9,303.2 29.9,304.6 C 29.9,306.1 106.2,285.6 106.2,285.6 L 54.8,360.1 L 140.5,299.6 L 122.4,365.2 L 172.9,324.1 L 175.8,368.1 L 224.8,328.6 L 260.3,486.6 L 273.0,330.3 L 308.3,357.2 L 316.6,307.1 z " id="path816" sodipodi:nodetypes="ccccccccccccccccccccccccccccccccccccccccc" fill-opacity="0.49999997" fill-rule="evenodd" stroke-width="2.1582201"/>
    <path d="M 299.1,289.3 L 368.9,342.0 L 330.5,250.3 L 431.2,273.3 L 371.6,221.7 L 483.0,221.7 L 379.5,190.2 L 471.0,150.2 L 394.0,134.1 L 433.9,84.7 L 371.0,94.0 L 394.1,31.2 L 334.1,70.1 L 320.0,12.4 L 277.4,64.1 C 277.4,60.6 252.4,13.1 251.1,13.1 C 249.7,13.1 225.3,63.2 225.3,63.2 L 180.6,16.9 L 169.4,71.3 L 127.6,24.8 C 127.6,24.8 126.7,76.8 124.0,76.8 C 121.4,76.8 60.7,44.5 60.7,44.5 C 60.7,44.5 75.3,103.8 75.3,105.2 C 75.3,106.7 9.4,94.9 9.4,94.9 L 63.7,137.7 L 6.2,157.2 C 6.2,157.2 54.4,193.4 53.0,194.8 C 51.7,196.3 10.5,232.7 10.5,232.7 C 10.5,232.7 84.0,230.9 82.7,230.9 C 82.5,232.1 12.4,285.4 12.4,286.8 C 12.4,288.3 88.7,267.8 88.7,267.8 L 37.3,342.3 L 123.0,281.8 L 104.9,347.4 L 155.4,306.3 L 158.2,350.3 L 207.3,310.8 L 242.8,468.8 L 255.5,312.5 L 290.8,339.4 L 299.1,289.3 z " id="path599" sodipodi:nodetypes="ccccccccccccccccccccccccccccccccccccccccc" font-size="12.000000" fill="#ffffff" fill-rule="evenodd" stroke="#000000" stroke-width="10.000000" stroke-linejoin="round" stroke-dasharray="none"/>
  </g>
</svg>
