<?xml version="1.0" encoding="UTF-8" standalone="no"?>
<!-- Generator: Adobe Illustrator 12.0.0, SVG Export Plug-In . SVG Version: 6.00 Build 51448)  -->
<svg xmlns="http://www.w3.org/2000/svg" xmlns:cc="http://web.resource.org/cc/" xmlns:dc="http://purl.org/dc/elements/1.1/" xmlns:inkscape="http://www.inkscape.org/namespaces/inkscape" xmlns:rdf="http://www.w3.org/1999/02/22-rdf-syntax-ns#" xmlns:sodipodi="http://inkscape.sourceforge.net/DTD/sodipodi-0.dtd" xmlns:svg="http://www.w3.org/2000/svg" height="413.7" id="Layer_1" space="preserve" version="1.1" viewBox="0 0 401.469 413.7" width="401.469" overflow="visible" enable-background="new 0 0 401.469 413.7">
  
  <defs id="defs120"/>
  
  <g id="g3">
    <path d="M313.8,300.1c0-2.1,1.4-11.9,0-13.2c-0.7-0.7-13.8-0.7-14.5,0   c-1.2,1.1-0.4,13.6,1.0,13.6C304.5,300.5,310.3,300.7,313.8,300.1" id="path5" fill="#00B3B3"/>
    <path d="M200.6,351.6c0.1-4.4,0.3-8.8,0.4-13.2c-11.1,0-14.5-3.1-14.5,8.5   C186.5,354.9,195.5,351.6,200.6,351.6" id="path7" fill="#00B3B3"/>
    <path d="M352.1,140.0c10.7-0.1,10.6-16.4,0-16.4   C341.5,123.6,341.4,139.7,352.1,140.0" id="path9" fill="#00B3B3"/>
    <path d="M266.3,253.1c-3.1-3.1-6.3-6.3-9.5-9.5c-10.2,10.6-11.0,9.4-0.4,20.0   C259.6,260.1,263.0,256.6,266.3,253.1" id="path11" fill="#00B3B3"/>
    <path d="M134.5,225.7c-3.0-3.1-6.0-6.3-9.1-9.5c-10.5,10.5-11.6,9.3-0.9,20.0   C127.8,232.7,131.2,229.2,134.5,225.7" id="path13" fill="#00B3B3"/>
    <path d="M327.9,413.6c11.5-0.3,10.2-17.9-0.9-16.4   C316.3,398.7,319.9,414.0,327.9,413.6" id="path15" fill="#00B3B3"/>
    <path d="M138.2,71.6c9.8-0.0,11.1-14.9,1.3-16.4C128.5,53.5,126.7,70.8,138.2,71.6" id="path17" fill="#00B3B3"/>
    <path d="M117.6,47.8c10.5-0.3,10.6-17.0,0-16.8C106.9,31.1,107.5,46.8,117.6,47.8" id="path19" fill="#00B3B3"/>
    <path d="M180.6,323.3c-3.0-3.1-6.0-6.3-9.1-9.5c-3.4,3.4-6.9,6.9-10.4,10.4   C170.9,333.7,172.4,334.0,180.6,323.3" id="path21" fill="#00B3B3"/>
    <path d="M337.5,105.3c0.1-4.4,0.3-8.8,0.4-13.2c-11.1,0-14.5-3.2-14.5,8.5   C323.3,108.6,332.4,105.3,337.5,105.3" id="path23" fill="#00B3B3"/>
    <path d="M213.4,413.6c9.8-0.0,11.1-14.9,1.3-16.4   C203.7,395.6,202.0,412.8,213.4,413.6" id="path25" fill="#00B3B3"/>
    <path d="M104.9,406.3c0.1-4.4,0.3-8.8,0.4-13.2c-11.1,0-14.5-3.1-14.5,8.5   C90.7,409.7,99.8,406.3,104.9,406.3" id="path27" fill="#00B3B3"/>
    <path d="M145.9,88.4c-10.3-10.3-9.2-9.0-19.6,0.9c3.1,3.1,6.3,6.3,9.5,9.5   C139.2,95.4,142.6,91.9,145.9,88.4" id="path29" fill="#33FFFF"/>
    <path d="M311.0,294.1c0-2.2,1.4-12.3,0-13.6c-0.7-0.7-13.8-0.7-14.5,0   c-0.6,0.5-0.6,13.1,0,13.6C298.2,295.8,308.4,294.1,311.0,294.1" id="path31" fill="#33FFFF"/>
    <path d="M197.9,345.2c0.1-4.4,0.3-8.8,0.4-13.2c-11.1,0-14.5-3.1-14.5,8.5   C183.8,348.5,192.8,345.2,197.9,345.2" id="path33" fill="#33FFFF"/>
    <path d="M349.8,133.1c11.4-0.5,10.3-18.0-0.9-16.4   C338.1,118.3,341.9,133.5,349.8,133.1" id="path35" fill="#33FFFF"/>
    <path d="M267.2,245.8c-10.3-10.3-9.2-9.0-19.6,0.9c3.1,3.1,6.3,6.3,9.5,9.5   C260.3,253.2,265.4,248.3,267.2,245.8" id="path37" fill="#33FFFF"/>
    <path d="M135.9,218.4c-10.6-10.1-9.4-9.2-19.6,0.9c3.1,3.1,6.3,6.3,9.5,9.5   C129.2,225.4,132.5,221.9,135.9,218.4" id="path39" fill="#33FFFF"/>
    <path d="M153.7,186.0c2.8-20.6,0.1-36.6,19.1-49.9c6.3-4.4,13.3-8.4,21.2-9.5   c12.4-1.7,11.1-0.7,11.1-14.8C162.6,115.0,143.7,148.4,153.7,186.0" id="path41" fill="#FFB3FF"/>
    <path d="M168.7,212.5c6.9-17.2,60.4-16.4,59.7,4.5c15.0-7.3-3.6-22.3-12.9-24.5   C194.6,187.7,177.4,192.5,168.7,212.5" id="path43" fill="#FFB3FF"/>
    <path d="M228.5,224.8c-14.8,26.8-70.3,10.4-65.2-21.8   c9.0,27.8,55.2,30.5,71.1,8.2C232.7,215.2,229.8,222.3,228.5,224.8" id="path45" fill="#B300FF"/>
    <path d="M162.3,193.3c-0.3-19.0,50.1-36.0,57.4-16.8   c11.7-12.2-11.7-18.8-20.6-18.1C176.9,160.1,164.4,172.4,162.3,193.3" id="path47" fill="#FFB3FF"/>
    <path d="M222.5,184.2c-1.1,13.0-18.5,19.4-28.9,23.1   c-17.4,6.2-35.2-3.2-39.9-20.8c17.6,18.8,65.7,11.6,69.3-17.3   C223.0,174.0,223.3,180.2,222.5,184.2" id="path49" fill="#B300FF"/>
    <path d="M270.4,302.4c-10.7-24.2-32.5-22.6-54.2-29.1   c-24.6-7.4-41.0-24.7-49.2-49.2c-2.2,27.4,18.4,53.2,43.2,61.5c23.3,7.7,57.5,7.8,60.2,40.6   C270.4,318.2,270.4,310.3,270.4,302.4" id="path51" fill="#B300FF"/>
    <path d="M326.1,406.8c10.5-0.2,10.7-16.4,0-16.4   C315.4,390.4,315.5,406.5,326.1,406.8" id="path53" fill="#33FFFF"/>
    <path d="M135.9,64.7c11.7-0.2,10.4-18.1-0.9-16.4   C124.2,50.0,128.0,64.9,135.9,64.7" id="path55" fill="#33FFFF"/>
    <path d="M115.3,40.5c10.9,0.5,11.0-16.3,0.4-16.4   C104.0,24.1,106.9,42.2,115.3,40.5" id="path57" fill="#33FFFF"/>
    <path d="M181.9,316.0c-3.1-3.1-6.3-6.3-9.5-9.5c-10.2,10.6-11.0,9.4-0.4,20.0   C175.3,323.0,178.6,319.5,181.9,316.0" id="path59" fill="#33FFFF"/>
    <path d="M334.7,98.9c0.1-4.4,0.3-8.8,0.4-13.2c-11.1,0-14.5-3.1-14.5,8.5   C320.6,102.2,329.6,98.9,334.7,98.9" id="path61" fill="#33FFFF"/>
    <path d="M26.4,66.1C15.8,56.0,17.0,56.8,6.8,67.0C16.7,76.9,17.4,77.7,26.4,66.1" id="path63" fill="#33FFFF"/>
    <path d="M311.9,36.9c-10.6-10.1-9.4-9.2-19.6,0.9   C302.2,47.7,302.9,48.5,311.9,36.9" id="path65" fill="#33FFFF"/>
    <path d="M52.9,270.9c2.5-18.7-0.7-37.4,17.7-49.1c6.6-4.2,14.3-10.1,22.6-10.1   c12.5,0,11.1-2.8,11.1-15.0C63.0,200.1,41.1,232.4,52.9,270.9" id="path67" fill="#FFB3FF"/>
    <path d="M67.9,297.3c6.4-17.7,60.6-15.5,59.7,4.5c14.6-7.3-3.1-21.2-11.8-24.1   C94.7,270.5,75.9,278.9,67.9,297.3" id="path69" fill="#FFB3FF"/>
    <path d="M127.7,310.1c-17.3,25.1-69.7,10.9-65.2-21.8c8.9,27.3,54.7,30.0,70.6,8.2   C131.3,301.0,129.5,305.5,127.7,310.1" id="path71" fill="#B300FF"/>
    <path d="M61.5,278.2c0.5-18.4,50.0-36.2,57.4-16.8   c11.6-11.7-11.1-18.4-19.6-18.2C79.3,243.5,60.6,256.9,61.5,278.2" id="path73" fill="#FFB3FF"/>
    <path d="M121.7,269.1c-4.4,32.0-60.2,31.7-68.8,2.2   c19.2,20.5,61.3,10.5,69.3-16.4C122.2,255.2,121.8,265.4,121.7,269.1" id="path75" fill="#B300FF"/>
    <path d="M169.2,387.6c-4.0-23.3-34.3-24.1-51.7-28.9   c-26.0-7.1-42.0-24.3-51.3-49.4c-1.5,28.5,19.9,55.3,46.7,62.7c25.3,6.9,50.1,7.8,56.7,38.9   C169.6,403.6,170.6,394.1,169.2,387.6" id="path77" fill="#B300FF"/>
    <path d="M396.3,329.3c2.7,26.8-8.0,54.5-39.2,54.7c0.4,4.1,0.9,8.2,1.3,12.3   C391.5,388.9,411.3,363.1,396.3,329.3" id="path79" fill="#FFB3FF"/>
    <path d="M381.7,307.8c-2.7,16.5-48.5,17.9-50.6,0.9   c-11.7,7.0,4.5,17.7,11.8,19.6C359.3,332.6,378.9,326.1,381.7,307.8" id="path81" fill="#FFB3FF"/>
    <path d="M330.2,301.4c16.4-20.6,56.0-14.8,57.4,14.1   c-11.4-18.7-50.0-24.6-60.6-1.8C328.2,309.8,329.9,305.1,330.2,301.4" id="path83" fill="#B300FF"/>
    <path d="M388.6,323.8c3.4,16.7-38.2,32.9-47.4,18.7c-6.9,9.6,8.0,15.1,15.9,14.3   C374.7,355.1,392.0,343.3,388.6,323.8" id="path85" fill="#FFB3FF"/>
    <path d="M337.9,336.1c5.1-25.4,50.0-34.0,58.8-6.8   c-17.0-14.4-55.5-5.4-57.4,19.6C339.0,344.8,338.8,339.4,337.9,336.1" id="path87" fill="#B300FF"/>
    <path d="M289.1,239.0c9.5,16.9,23.9,17.5,41.0,20.0c25.0,3.6,42.0,15.6,52.4,39.2   c-1.1-25.4-20.3-44.4-44.0-49.7c-20.5-4.5-45.2-2.5-50.8-29.1   C288.3,225.5,289.8,233.6,289.1,239.0" id="path89" fill="#B300FF"/>
    <path d="M322.4,137.2c0.2,15.6,2.9,29.3-9.3,41.6c-8.0,8.0-18.6,12.8-29.9,13.0   c0.3,4.1,0.6,8.2,0.9,12.3C317.0,196.8,337.7,171.5,322.4,137.2" id="path91" fill="#FFB3FF"/>
    <path d="M307.8,115.8c-2.7,16.6-48.5,17.9-50.6,0.9   c-12.0,6.9,3.7,17.5,11.4,19.6C284.8,140.6,305.0,134.1,307.8,115.8" id="path93" fill="#FFB3FF"/>
    <path d="M256.3,109.4c14.6-20.1,59.8-15.2,57.0,14.5   c-9.0-23.9-48.5-20.8-60.6-2.2C253.9,117.6,255.2,113.5,256.3,109.4" id="path95" fill="#B300FF"/>
    <path d="M314.2,131.8c4.5,16.9-37.9,32.9-46.9,18.7c-8.5,10.6,10.0,14.8,17.7,14.1   C300.1,163.2,320.7,149.2,314.2,131.8" id="path97" fill="#FFB3FF"/>
    <path d="M264.0,144.1c5.8-24.6,50.1-34.9,58.3-6.8   c-16.7-17.5-53.9-3.1-57.4,19.6C264.8,152.8,264.7,147.4,264.0,144.1" id="path99" fill="#B300FF"/>
    <path d="M215.2,46.9c8.1,17.0,24.4,17.7,40.5,20.0c25.0,3.6,42.3,15.6,52.9,39.2   c-1.2-26.7-21.8-45.0-46.5-50.1c-20.3-4.2-42.3-3.1-48.3-28.7C214.3,33.9,214.8,40.4,215.2,46.9" id="path101" fill="#B300FF"/>
    <path d="M108.5,109.9c2.8,26.9-8.0,54.5-39.2,54.7c0.4,4.1,0.9,8.2,1.3,12.3   C103.7,169.5,123.6,143.8,108.5,109.9" id="path103" fill="#FFB3FF"/>
    <path d="M93.9,88.4c-2.7,16.7-48.5,17.9-50.6,0.9c-12.0,7.0,4.3,17.6,11.8,19.6   C71.4,113.1,91.1,106.7,93.9,88.4" id="path105" fill="#FFB3FF"/>
    <path d="M42.4,82.1c15.5-19.5,59.1-15.8,57.0,14.5c-8.4-22.4-50.0-22.4-60.2-2.2   C40.4,90.4,42.1,85.7,42.4,82.1" id="path107" fill="#B300FF"/>
    <path d="M100.8,104.4c3.8,17.0-37.9,32.7-47.4,18.7c-7.8,10.8,10.2,14.8,17.7,14.1   C88.3,135.6,103.9,122.7,100.8,104.4" id="path109" fill="#FFB3FF"/>
    <path d="M50.1,116.7c6.2-26.5,47.9-32.3,58.8-6.8c-16.8-14.2-56.1-5.3-57.4,19.6   C51.2,125.4,51.0,120.0,50.1,116.7" id="path111" fill="#B300FF"/>
    <path d="M1.3,19.6c9.5,16.9,24.0,17.5,41.0,20.0c25.5,3.7,41.2,15.8,52.4,39.2   c-1.1-25.3-20.3-44.4-44.0-49.7C30.3,24.6,5.6,26.6,0,0C0.5,6.1,2.0,14.2,1.3,19.6" id="path113" fill="#B300FF"/>
    <path d="M211.1,406.8c11.7-0.2,10.4-18.1-0.9-16.4   C199.5,392.1,203.2,407.0,211.1,406.8" id="path115" fill="#33FFFF"/>
    <path d="M102.1,400.0c0.1-4.4,0.3-8.8,0.4-13.2c-11.1,0-14.5-3.1-14.5,8.5   C88.0,403.3,97.0,400.0,102.1,400.0" id="path117" fill="#33FFFF"/>
  </g>
</svg>
