<?xml version="1.0" encoding="UTF-8" standalone="no"?>
<!-- Generator: Adobe Illustrator 12.0.0, SVG Export Plug-In . SVG Version: 6.00 Build 51448)  -->
<svg xmlns="http://www.w3.org/2000/svg" xmlns:cc="http://web.resource.org/cc/" xmlns:dc="http://purl.org/dc/elements/1.1/" xmlns:inkscape="http://www.inkscape.org/namespaces/inkscape" xmlns:rdf="http://www.w3.org/1999/02/22-rdf-syntax-ns#" xmlns:sodipodi="http://inkscape.sourceforge.net/DTD/sodipodi-0.dtd" xmlns:svg="http://www.w3.org/2000/svg" height="407.899" id="Layer_1" space="preserve" version="1.1" viewBox="0 0 270.31 407.899" width="270.31" overflow="visible" enable-background="new 0 0 270.31 407.899">
  
  <defs id="defs68"/>
  
  <path d="M121.5,2.5c8.8-1.1,15.4-2.6,23.9-0.0c7.9,2.4,15.5,5.7,23.0,9.2  c7.1,3.3,14.2,7.9,19.9,13.3c3.2,3.0,5.8,6.3,8.6,9.8c1.8,2.3,2.3,8.6,3.5,11.6  c2.8,7.6,7.0,15.0,9.1,22.9c2.3,8.9,1.4,15.7,0.8,24.6c-0.5,8.8-1.4,17.5-2.5,26.2  c-0.8,6.9-1.0,15.5-4.2,21.8c-0.1-0.2-0.2-0.5-0.4-0.8c-6.0,17.2-11.3,38.3-29.4,46.2  c-3.8,1.6-9.7,3.3-12.2,6.9c-1.2,1.8-2.5,3.8-2.7,6.1c-0.4,4.6,0.2,2.4,3.2,5.1  c6.8,6.0,11.5,12.5,17.2,19.7c5.3,6.6,12.3,10.7,20.6,11.8c4.1,0.5,6.8,1.4,10.4,3.6  c3.0,1.8,1.8,1.8,5.5,2.7c2.4,0.6,5.2,0.4,7.7,1.0c8.9,2.1,21.1,5.9,26.4,13.5  c5.6,8.0,10.6,16.1,14.6,25.1c8.8,20.1,4.6,42.5,0.2,63.2c-2.1,10.2-4.4,20.5-7.4,30.6  c-1.2,4.4-4.5,8.2-5.1,12.6c-0.8,5.9,2.4,11.5,1.0,17.4c-7.4-0.9-11.1-9.2-17.3-12.6  c-5.9-3.2-12.0-6.8-18.2-9.4c-13.4-5.8-28.5-7.9-42.1-13.8c-26.1-11.1-57.2-30.4-65.5-59.9  c-12.0,17.0-26.4,33.3-45.6,42.4c-4.8,2.2-9.7,3.5-14.9,4.7c-2.2,0.5-4.5,0.5-6.8,0.7  c-4.6,0.3-1.8-1.6-4.4-2.3c-6.0-1.6-8.5,0.7-10.9,6.5c-2.1,5.0-8.9,5.7-5.8-0.5  c3.9-8.0,11.4-14.7,15.7-22.9c4.3-8.3,6.4-16.5,6.4-25.9c0-7.9,10.6-19.8,15.2-25.9  c5.9-7.8,14.0-14.0,22.7-18.5c6.2-3.2,18.3-1.1,16.5-10.1c-1.7-8.8-16.8-1.6-22.0-0.1  c-4.6,1.3-9.2,2.5-14.1,2.5c-4.4,0-8.1-2.6-12.5-3.4c-9.7-1.6-19.4,2.2-29.2-0.6  C13.7,256.3,0.0,249.9,0,241.0c-0.0-4.8,3.2-5.2,6.8-3.9c5.0,1.9,8.8,1.8,14.2,2.2  c10.4,0.8,19.7-6.6,27.5-12.5c4.3-3.2,9.0-6.9,14.2-8.8c7.4-2.7,11.6-0.6,19.0-0.4  c5.2,0.1,6.2-0.5,10.6,3.8c1.9,1.9,4.2,4.8,6.3,6.3c-1.1-9.9-4.0-19.0-10.2-27.0  c-6.6-8.7-14.7-12.3-23.4-18.1c-16.1-10.7-26.9-31.6-31.1-49.9c-4.6-20.1-7.2-40.9-0.2-60.8  c3.1-9.0,2.7-18.8,7.1-27.7c4.5-9.0,10.7-17.6,18.8-23.6C78.8,6.5,97.3-5.4,121.5,2.5" id="path3"/>
  <path d="M156.5,197.9c-4.2,4.7-8.9,8.6-14.8,11.2c-2.2,0.9-15.2,4.8-15.0,6.4  c0.9,6.9,24.3-5.7,26.8-7.4c2.3,4.3,0.5,7.5-2.5,10.6c-9.0,9.0-18.0,18.0-27.0,27.0  c-2.0,2.0-8.8-2.9-10.4-4.3c-3.8-3.5-5.8-8.2-7.9-12.9c-1.9-4.3-3.3-9.0-5.3-13.4  c-2.0-4.5-0.0-7.7-2.8-11.5c-2.6-3.5-6.9-5.5-9.6-9.3c-2.5-3.7-4.7-7.3-6.6-11.5  c-4.0-8.8-8.8-17.7-12.3-26.8c-7.3-19.2-5.0-38.5-1.3-58.0c0.2-1.5,1.3-10.6,2.6-10.6  c3.8,0,5.8,0.7,9.1,1.3c6.7,1.3,14.5,0.8,21.4,1.1c19.2,0.9,41.3,2.1,57.7-9.4  C174.3,114.9,185.0,166.1,156.5,197.9" id="path5" fill="#FFCFCF"/>
  <path d="M164.4,115.2c1.6,6.8-10.5-3.3-12.5-3.2c-2.6,0.2-4.2,3.5-6.6,4.9  c-2.5,1.4-5.5,2.0-8.4,2.4c-3.0,0.4,0.1-5.1,1.1-5.9c2.2-1.8,5.4-3.5,8.3-4.1  C152.8,107.9,160.0,111.7,164.4,115.2" id="path7"/>
  <path d="M107.5,126.3c-0.4,0.4-0.8,0.8-1.2,1.2c3.1,1.7,6.2,3.4,9.3,5.1  c-8.9,0.9-16.7,12.1-25.5,4.6c-2.0-1.7-2.6-3.9-5.3-4.9c-2.1-0.7-3.1,2.8-4.9-1.0  c-2.3-5.1,2.8-1.2,3.8-3.7c1.1-2.9,0.0-1.2,2.7-2.8c1.3-0.8,3.0-1.1,4.4-1.8  C94.9,120.9,105.5,120.8,107.5,126.3" id="path9"/>
  <path d="M157.4,126.3c2.0,3.7,3.3-0.3,5.4,1.8c1.4,1.4,1.6,2.6,3.9,2.4  c0.2,9.0-17.5,13.2-23.4,7.2c-2.3,2.2-4.8,0.2-2.1-2.1c-2.1-0.7-4.2-1.4-6.3-2.1  c1.7-1.2,3.4-2.5,5.1-3.8C135.5,125.1,153.8,118.5,157.4,126.3" id="path11"/>
  <path d="M136.0,125.4c-6.7,4.7-4.4,14.4-2.9,21.3C126.4,147.6,129.2,119.5,136.0,125.4" id="path13"/>
  <path d="M102.1,131.4c0.8,3.2-2.1,4.0-4.9,3.4C98.0,132.4,100.0,128.9,102.1,131.4" id="path15" fill="#FFFFFF"/>
  <path d="M157.4,134.8c-1.8,0.9-9.8,5.8-7.3-0.0  C151.8,130.5,154.8,131.1,157.4,134.8" id="path17" fill="#FFFFFF"/>
  <path d="M121.5,163.4c-1.7,0-3.4,0-5.1,0C117.9,161.5,122.1,159.5,121.5,163.4" id="path19"/>
  <path d="M139.9,179.6c-0.8,13.1-28.3,1.1-34.5,2.1c-0.5-3.8,1.1-1.4,3.2-1.9  c4.7-1.0,9.4-3.2,14.2-4.2c4.4-0.8,5.7,2.5,9.4,3.3C135.0,179.4,137.3,178.3,139.9,179.6" id="path21"/>
  <path d="M125.8,180.9c-2.3,0-6.0,1.1-6.3-1.2C121.5,180.8,123.8,183.0,125.8,180.9  " id="path23" fill="#FFFFFF"/>
  <path d="M128.8,191.1c3.6-3.6,10.5-5.8,4.4,0c-6.4,6.2-18.2,3.5-21.9-4.2  C115.6,190.8,123.2,192.0,128.8,191.1" id="path25"/>
  <path d="M171.7,235.9c2.7,3.4,4.1,1.7,6.8,0.4c2.4-1.2,8.0-3.1,6.6,1.7  c-4.6-1.7-8.8,1.9-10.5,6.0c-1.3,3.0-2.7,2.0-6.4,2.0c-5.4,0-7.5,1.6-8.3-3.8  c-0.9-7-9.7,0.7-5.4,6.0c-4.2,1.5-8.5,0.7-12.9,1.4c-5.9,1.0-4.0,5.6-7.3,8.5  c-2.1,1.9-7.5,2.8-8.2,0.2c-1.0-4.3,4.9-7.9,7.6-10.4c7.9-7.4,15.9-14.9,23.8-22.4  c2.7,3.3,6.3,7.6,7.4,0.6c0.5-3.3-3.5-7.1-0.2-10.2c3.6-3.3,8.1,6.8,10.3,9.8  C178.7,231.1,176.8,231.9,171.7,235.9" id="path27" fill="#FFBF00"/>
  <path d="M93.0,233.8c-2.6,7.2,12.0,7.9,5.9,14.5c-1.6-2.2-4.1-3.6-6.8-4.2  c3.9-4.3-1.8-6.7-5.1-8.1c4.8-3.8-0.3-8.7-4.2-10.2c-3.9-1.4-12.1,1.3-13.4,5.8  c-1.2,4.4,5.0,5.3,7.6,6.5c4.3,1.8,7.4,6.2,11.9,7.4c-2.4-0.0-5.3-0.6-6.1-3.1  c-0.9,1.7-1.9,3.4-2.9,5.1c-0.4-1.8-1.6-3.8-3.2-5.0c-0.8-0.6-1.8-1.2-2.7-1.9  c-1.5-1.1-2.1,3.5-4.2,1.8c11.2-7.5-3.0-6.9-5.3-2.3c-3.1,6.3,6.3,7.4,9.1,9.1  c-10.8,4.5-21.7,6.6-33.5,4.3c-5.0-0.9-32.6-6.7-31.7-12.4c18.9,4.8,31.7-3.4,46.3-14.6  c6.0-4.6,12.7-11.9,20.9-9.0C83.7,220.4,88.7,226.4,93.0,233.8" id="path29" fill="#FFBF00"/>
  <path d="M206.4,246.2c-3.2,1.1-6.6,1.3-10.0,1.4c-6.7,0.2-7.1,0.3-6.1-6.6  C195.9,242.0,200.7,245.4,206.4,246.2" id="path31" fill="#FFBF00"/>
  <path d="M103.0,262.8c0.3-4.5,0.7-9.1,1.0-13.6  C104.0,252.0,105.4,262.2,103.0,262.8" id="path33" fill="#FFBF00"/>
  <path d="M242.3,257.7c2.3,7.5,12.1,9.0,13.6,17.0c-5.2-0.9-9.7,3.5-14.6,4.9  c-4.7,1.3-2.2,9.1,2.8,5.7c2.2-1.4,3.5-4.0,5.9-5.2c1.0-0.5,2.2,2.8,3.2,3.7  c1.9,1.9,6.1,2.7,6.3-0.6c6.0,19.7,6.4,37.4,1.9,57.5c-4.2,19.0-10.0,37.4-13.0,56.7  c-26.8-17.4-56.6-25.9-85.7-38.8c-14.4-6.3-25.8-16.2-35.8-28.1c-11.0-13.0-14.9-26.6-5.5-41.4  c1.8,11.3,5.9,52.0,26.6,41.7c9.2-4.5-7.4-17.4-10.2-23.5c-4.5-9.6-7.7-19.7-14.2-28.3  c4.1-1.0,7.4,3.0,11.0,4.2c-1.7,0.5-3.4,1.1-5.1,1.7c6.5,5.7,14.8,8.6,22.6,12.1  c8.0,3.5,12.2,11.1,19.5,15.6c-6.7,7.4,13.5,7.5,16.6,10.6c1.4,1.4,11.6-0.6,14.5-0.4  c4.7,0.3,10.3,1.0,14.8-0.7c0,3.4,0,6.8,0,10.2c-12.6-9.4-35.5-10.3-49.0-1.7  c-7.3,4.6-8.1,10.1-0.6,15.1c7.0,4.7,18.6,1.5,24.1-4.4c-7.0-4.0-14.3,6.3-21.7,1.2  c4.3-2.9,3.5-5.9-1.7-5.1c2.6-4.9,10.2-1.2,14.7-1.4c8.5-0.5,17.8-1.3,24.7,4.9  c2.3,2.1,8.3,9.1,5.3,11.9c-1.7,1.5-10.5,0.0-12.7-0.1c-4.6-0.3-8.9,0.6-12.8,3.1  c9.1,4.7,19.9-0.4,29.0,4.0c5.2,2.6,9.4,6.3,13.0,10.9c2.1,2.7,5.2,12.0,8.0,12.8  c9.3,2.6,3.0-12.2,3.2-15.2c0.3-5.8,1.3-11.5,3.2-17.0c2.4-7.0,4.0-9.1,9.9-13.9  c-3.3-5.7-10.3,6.8-11.6,10.0c-2.6,6.5-3.8,13.7-4.5,20.7c-4.1-5.1-12.8-8.6-14.5-15.3  c2.7,1.8,6.4,0.7,8.9-1.1c5.7-4.3-1.8-6.9-3.2-10.7c-1.7-4.9,5.7-10.2,9.6-12.6  c2.5-1.6,6.2-2.8,9.3-2.2c1.2,0.2,1.4,2.8,3.4,2.3c3.8-1,3.0-4.6-0.2-5.7  c-2.9-0.9-8.6-1.1-11.0,0.9c-3.1,2.8-13.2,15.0-17.0,13.3c-4.2-1.8-2.7-10.3-2.7-13.8  c7.6,3.5,6.3-1.8,7.2-7.2c0.6,4.2,5.5,5.8,8.9,3.2c3.8-2.9,5.4-16.5-0.8-18.5  c2.1-2.8,5.1-9.2,1.0-11.5c-4.7-2.6-6.7,3.5-9.1,5.7c1.0-1.6-0.0-5.6-1.9-3.8  c-2.8,2.8-4.5-1.7-7.2-1.4c-5.9,0.5-1.1,12.9,1.9,15.3c-2.7,0.0-1.5-2.5-3.1-4.0  c-3.8-3.6-3.1-0.0-6.8,1.0c-3.3,1.0-7.5-1.7-10.2-3.6c-2.0-1.4-2.4-1.1-3.6-3.2  c-0.6-1.0-0.3-2.8-1.0-4.0c-1.3-2.1-3.6-4.3-6.6-3.6c-1.4,0.3-2.2,3.3-4.0,3.4  c-4.4,0.2-2.9-5.9-5.3-8.5c7.3,8.0,10.0-17.1-3.3-8.3c-1.3,0.8,0.0,4.6-1.8,4.6  c-1.4,0.0-1.4-4.6-1.1-5.8c0.7-3.6,8.5-1.3,12.2-4.5c-0.0,3.4,1.6,7.3,4.4,9.3  c2.5,1.8,13.2,2,13.0,3.6c-0.4,2.9-3.8,2.1-5.5,1.7c-0.0-0.0-9.6-4.4-5.1,1.1  c4.0,5.0,11.3,4.3,14.7-1.1c2.3-3.8,0.5-4.4-2.1-6.8c-0.4-0.4-2.6,1.0-2.8-0.1  c-0.6-3.7-1.3-7.4-2.0-11.1c2.8,2.3,6.8,1.8,9.3-0.8c3.0-3.2,1.0-7.3,2.9-11.0  c1.2,3.7,11.2,5.8,6.7,10.3c-2.5,2.5-8.2,0.6-9.4,4.3c-1.0,3.0,3.5,4.3,5.7,3.6  c0.8-0.2,3.1-3.1,4.4-3.8c1.9-1.0,3.9-1.2,5.7-2.5c-0.0,5.0-7.3,8.5-5.1,13.6  c1.7-1.7,3.4-3.4,5.1-5.1c0.4,3.4-1.8,10.9,3.8,11.0c5.1,0.0,5.5-7.1,5.5-10.4  c0-2.7,4.6-2.9,2.1-6.0c-2.0-2.6-2.9-3.7-3.4-6.9c-0.9-5.6,0.0-9.6-5.9-2.9  c-3.1-2.8-6.2-5.6-9.3-8.5C227,251.1,234.2,255.9,242.3,257.7" id="path35" fill="#FFBF00"/>
  <path d="M28.5,254.3c-4.2-1.8-9.2-1.3-13.2-3.8C19.7,251.7,24.1,253.0,28.5,254.3  " id="path37" fill="#FFBF00"/>
  <path d="M169.5,265.8c3.1,5.0,0.7,8.4-2.3,12.5c-0.7,1.0-2.7,6.2-3.4,6.6  c-1.1,0.6-6.7-0.6-8.1-0.8c-10.5-1.4-21.1-4.7-29.8-11.0c5.4-6.2,13.9-8.6,21.8-9.9  c3.7-0.6,7.8-0.8,11.5-1.6C163.6,260.4,166.7,263.2,169.5,265.8" id="path39" fill="#FFBF00"/>
  <path d="M163.8,273.0c-0.7,4.3-4.6,5.6-8.2,7.1c-3.9,1.6-5.0,0.8-6.0-3.9  C146.9,264.7,165.2,261.4,163.8,273.0" id="path41"/>
  <path d="M196.2,269.6c1.3,3.7-4.2,6.2-5.1,1.7C190.3,267.2,195.8,264.3,196.2,269.6  " id="path43" fill="#FFBF00"/>
  <path d="M101.1,269.6c-6.8,3.8-6.1,10.3-8.3,16.8c-1.2,3.8-4.3,3.6-6.0,6.2  c-0.7,1.0-2.7,5.6-3.9,5.9c-0.6,0.1-1.1-0.9-1.7-0.8c-2.6,0.3-6.2-2.9-7.4,2.5  c-0.6,2.7,1.4,6.3,4.0,6.3c0.5,2.7-3.6,3.8-0.8,5.9c1.8-4.9,8.0-2.4,11.0-5.9  c3.5,4.3,3.5,9.7,1.9,14.8c-1.0,3.5-7.0,10.6-2.7,12.8c1.9-2.1,3.9-4.2,5.9-6.3  c-6.9,7.3-14.3,14.8-23.3,19.7c-5.1,2.8-22.4,12.4-27.8,8.0c1.5-0.5,6.3-3.9,2.9-4.7  c-2.7-0.6-5.3,0.1-8.1-0.3C50.9,319.1,57.3,270.0,101.1,269.6" id="path45" fill="#FFBF00"/>
  <path d="M98.9,298.6c2.6-6.8-2.7-14.7,4.2-20.4c-1.0-0.1-1.9-1.1-2.9-1.2  c1.9-1.7,3.9-3.4,5.9-5.1C106.7,281.2,101.8,290.0,98.9,298.6" id="path47" fill="#FFBF00"/>
  <path d="M175.7,284.1c1.4,4.6-3.7,2.9-2.9-2.1  C174.1,282.1,175.0,282.9,175.7,284.1" id="path49" fill="#FFBF00"/>
  <path d="M250.8,290.1c-0.6-0.8-4.3-4.1-4.2-5.1c0.2-1.5,2.1-0.4,2.6,0.1  C250.3,286.2,250.5,288.7,250.8,290.1" id="path51"/>
  <path d="M204.7,291.4c1.4,4.9-4.0,3.0-3.4-1.2C202.7,290.0,203.8,290.5,204.7,291.4" id="path53"/>
  <path d="M232.0,299.5c-1.3-0.9,1.2-5.0,2.1-7.2  C236.5,294.5,234.5,298.1,232.0,299.5" id="path55" fill="#FFBF00"/>
  <path d="M93.8,294.4c-0.4,3.4-3.5,5.9-5.9,8.1C89.1,299.0,90.4,296.1,93.8,294.4  " id="path57" fill="#FFBF00"/>
  <path d="M231.2,305.5c-0.8,4.0-4.5,4.6-8.1,4.2  C223.6,306.1,227.9,303.7,231.2,305.5" id="path59" fill="#FFBF00"/>
  <path d="M183.0,311.9c-2.0,2.9-3.2-3.9-5.9,0.8  C176.9,308.0,180.9,309.9,183.0,311.9" id="path61" fill="#FFBF00"/>
  <path d="M87.6,314.8c0.2,4.0-7.5,7.1-10.2,3.8C73.1,313.2,87.1,307.9,87.6,314.8" id="path63"/>
  <path d="M220.9,352.8c0,0.7,0,1.4,0,2.1c-0.9-0.3-4.6-1.1-4.0-2.0  C218.1,351.1,219.7,351.3,220.9,352.8" id="path65" fill="#FFBF00"/>
</svg>
